<?xml version="1.0" encoding="utf-8" standalone="no"?>
<!DOCTYPE svg PUBLIC "-//W3C//DTD SVG 1.1//EN"
  "http://www.w3.org/Graphics/SVG/1.1/DTD/svg11.dtd">
<svg xmlns:xlink="http://www.w3.org/1999/xlink" width="1072.343125pt" height="355.59625pt" viewBox="0 0 1072.343125 355.59625" xmlns="http://www.w3.org/2000/svg" version="1.1">
 <metadata>
  <rdf:RDF xmlns:dc="http://purl.org/dc/elements/1.1/" xmlns:cc="http://creativecommons.org/ns#" xmlns:rdf="http://www.w3.org/1999/02/22-rdf-syntax-ns#">
   <cc:Work>
    <dc:type rdf:resource="http://purl.org/dc/dcmitype/StillImage"/>
    <dc:date>2024-04-19T15:08:00.505586</dc:date>
    <dc:format>image/svg+xml</dc:format>
    <dc:creator>
     <cc:Agent>
      <dc:title>Matplotlib v3.7.0, https://matplotlib.org/</dc:title>
     </cc:Agent>
    </dc:creator>
   </cc:Work>
  </rdf:RDF>
 </metadata>
 <defs>
  <style type="text/css">*{stroke-linejoin: round; stroke-linecap: butt}</style>
 </defs>
 <g id="figure_1">
  <g id="patch_1">
   <path d="M 0 355.59625 
L 1072.343125 355.59625 
L 1072.343125 0 
L 0 0 
z
" style="fill: #ffffff"/>
  </g>
  <g id="axes_1">
   <g id="patch_2">
    <path d="M 40.603125 318.04 
L 530.543125 318.04 
L 530.543125 38.16 
L 40.603125 38.16 
z
" style="fill: #ffffff"/>
   </g>
   <g id="PathCollection_1">
    <defs>
     <path id="m74998d9067" d="M 0 3 
C 0.795609 3 1.55874 2.683901 2.12132 2.12132 
C 2.683901 1.55874 3 0.795609 3 0 
C 3 -0.795609 2.683901 -1.55874 2.12132 -2.12132 
C 1.55874 -2.683901 0.795609 -3 0 -3 
C -0.795609 -3 -1.55874 -2.683901 -2.12132 -2.12132 
C -2.683901 -1.55874 -3 -0.795609 -3 0 
C -3 0.795609 -2.683901 1.55874 -2.12132 2.12132 
C -1.55874 2.683901 -0.795609 3 0 3 
z
" style="stroke: #1f77b4; stroke-opacity: 0.8"/>
    </defs>
    <g clip-path="url(#p6bcf8ea16d)">
     <use xlink:href="#m74998d9067" x="170.953449" y="178.1" style="fill: #1f77b4; fill-opacity: 0.8; stroke: #1f77b4; stroke-opacity: 0.8"/>
     <use xlink:href="#m74998d9067" x="152.960726" y="78.142857" style="fill: #1f77b4; fill-opacity: 0.8; stroke: #1f77b4; stroke-opacity: 0.8"/>
     <use xlink:href="#m74998d9067" x="277.958375" y="214.448052" style="fill: #1f77b4; fill-opacity: 0.8; stroke: #1f77b4; stroke-opacity: 0.8"/>
     <use xlink:href="#m74998d9067" x="62.873125" y="114.490909" style="fill: #1f77b4; fill-opacity: 0.8; stroke: #1f77b4; stroke-opacity: 0.8"/>
     <use xlink:href="#m74998d9067" x="166.571331" y="159.925974" style="fill: #1f77b4; fill-opacity: 0.8; stroke: #1f77b4; stroke-opacity: 0.8"/>
     <use xlink:href="#m74998d9067" x="378.843143" y="241.709091" style="fill: #1f77b4; fill-opacity: 0.8; stroke: #1f77b4; stroke-opacity: 0.8"/>
     <use xlink:href="#m74998d9067" x="431.968865" y="105.403896" style="fill: #1f77b4; fill-opacity: 0.8; stroke: #1f77b4; stroke-opacity: 0.8"/>
     <use xlink:href="#m74998d9067" x="222.474519" y="169.012987" style="fill: #1f77b4; fill-opacity: 0.8; stroke: #1f77b4; stroke-opacity: 0.8"/>
     <use xlink:href="#m74998d9067" x="253.500936" y="241.709091" style="fill: #1f77b4; fill-opacity: 0.8; stroke: #1f77b4; stroke-opacity: 0.8"/>
     <use xlink:href="#m74998d9067" x="415.651824" y="187.187013" style="fill: #1f77b4; fill-opacity: 0.8; stroke: #1f77b4; stroke-opacity: 0.8"/>
     <use xlink:href="#m74998d9067" x="356.470127" y="196.274026" style="fill: #1f77b4; fill-opacity: 0.8; stroke: #1f77b4; stroke-opacity: 0.8"/>
     <use xlink:href="#m74998d9067" x="343.574294" y="141.751948" style="fill: #1f77b4; fill-opacity: 0.8; stroke: #1f77b4; stroke-opacity: 0.8"/>
     <use xlink:href="#m74998d9067" x="362.710889" y="141.751948" style="fill: #1f77b4; fill-opacity: 0.8; stroke: #1f77b4; stroke-opacity: 0.8"/>
     <use xlink:href="#m74998d9067" x="111.475947" y="132.664935" style="fill: #1f77b4; fill-opacity: 0.8; stroke: #1f77b4; stroke-opacity: 0.8"/>
     <use xlink:href="#m74998d9067" x="248.194608" y="123.577922" style="fill: #1f77b4; fill-opacity: 0.8; stroke: #1f77b4; stroke-opacity: 0.8"/>
     <use xlink:href="#m74998d9067" x="161.516438" y="232.622078" style="fill: #1f77b4; fill-opacity: 0.8; stroke: #1f77b4; stroke-opacity: 0.8"/>
     <use xlink:href="#m74998d9067" x="287.32253" y="305.318182" style="fill: #1f77b4; fill-opacity: 0.8; stroke: #1f77b4; stroke-opacity: 0.8"/>
     <use xlink:href="#m74998d9067" x="169.413162" y="78.142857" style="fill: #1f77b4; fill-opacity: 0.8; stroke: #1f77b4; stroke-opacity: 0.8"/>
     <use xlink:href="#m74998d9067" x="209.786753" y="169.012987" style="fill: #1f77b4; fill-opacity: 0.8; stroke: #1f77b4; stroke-opacity: 0.8"/>
     <use xlink:href="#m74998d9067" x="344.33444" y="159.925974" style="fill: #1f77b4; fill-opacity: 0.8; stroke: #1f77b4; stroke-opacity: 0.8"/>
     <use xlink:href="#m74998d9067" x="508.273125" y="205.361039" style="fill: #1f77b4; fill-opacity: 0.8; stroke: #1f77b4; stroke-opacity: 0.8"/>
     <use xlink:href="#m74998d9067" x="187.286741" y="296.231169" style="fill: #1f77b4; fill-opacity: 0.8; stroke: #1f77b4; stroke-opacity: 0.8"/>
     <use xlink:href="#m74998d9067" x="202.702033" y="178.1" style="fill: #1f77b4; fill-opacity: 0.8; stroke: #1f77b4; stroke-opacity: 0.8"/>
     <use xlink:href="#m74998d9067" x="315.775624" y="96.316883" style="fill: #1f77b4; fill-opacity: 0.8; stroke: #1f77b4; stroke-opacity: 0.8"/>
     <use xlink:href="#m74998d9067" x="375.011369" y="268.97013" style="fill: #1f77b4; fill-opacity: 0.8; stroke: #1f77b4; stroke-opacity: 0.8"/>
     <use xlink:href="#m74998d9067" x="316.47314" y="50.881818" style="fill: #1f77b4; fill-opacity: 0.8; stroke: #1f77b4; stroke-opacity: 0.8"/>
     <use xlink:href="#m74998d9067" x="357.424373" y="223.535065" style="fill: #1f77b4; fill-opacity: 0.8; stroke: #1f77b4; stroke-opacity: 0.8"/>
    </g>
   </g>
   <g id="PolyCollection_1">
    <path d="M 62.873125 107.872578 
L 62.873125 206.335071 
L 67.372115 206.166129 
L 71.871105 205.884904 
L 76.370095 205.370895 
L 80.869085 204.660924 
L 85.368074 203.950953 
L 89.867064 203.510151 
L 94.366054 203.210189 
L 98.865044 202.642433 
L 103.364034 202.234117 
L 107.863024 202.056231 
L 112.362014 201.580466 
L 116.861004 201.413643 
L 121.359994 201.501765 
L 125.858984 201.589308 
L 130.357973 201.189214 
L 134.856963 200.783105 
L 139.355953 200.376997 
L 143.854943 199.967601 
L 148.353933 199.554383 
L 152.852923 199.104407 
L 157.351913 198.487593 
L 161.850903 198.32958 
L 166.349893 197.931605 
L 170.848883 197.52934 
L 175.347872 197.148256 
L 179.846862 196.921143 
L 184.345852 196.298837 
L 188.844842 195.887303 
L 193.343832 195.816673 
L 197.842822 196.125492 
L 202.341812 195.972128 
L 206.840802 195.621486 
L 211.339792 195.263247 
L 215.838782 195.090781 
L 220.337771 194.773239 
L 224.836761 194.587476 
L 229.335751 196.058265 
L 233.834741 195.779506 
L 238.333731 195.488964 
L 242.832721 195.668014 
L 247.331711 196.113993 
L 251.830701 196.54386 
L 256.329691 196.936032 
L 260.828681 197.549261 
L 265.32767 198.095652 
L 269.82666 198.306352 
L 274.32565 198.390504 
L 278.82464 198.722543 
L 283.32363 199.22322 
L 287.82262 199.340478 
L 292.32161 200.212402 
L 296.8206 200.493906 
L 301.31959 201.018286 
L 305.81858 201.382824 
L 310.317569 202.281031 
L 314.816559 203.439155 
L 319.315549 204.066988 
L 323.814539 204.91783 
L 328.313529 205.470145 
L 332.812519 206.230884 
L 337.311509 207.426206 
L 341.810499 208.408638 
L 346.309489 209.450957 
L 350.808479 210.659301 
L 355.307468 211.852347 
L 359.806458 212.895257 
L 364.305448 213.560042 
L 368.804438 214.81921 
L 373.303428 216.080326 
L 377.802418 216.969848 
L 382.301408 218.192953 
L 386.800398 219.368703 
L 391.299388 220.537998 
L 395.798378 221.443285 
L 400.297367 222.779843 
L 404.796357 224.082374 
L 409.295347 225.438587 
L 413.794337 226.699646 
L 418.293327 227.597796 
L 422.792317 228.715795 
L 427.291307 230.086748 
L 431.790297 230.989455 
L 436.289287 232.461017 
L 440.788277 233.932579 
L 445.287266 235.0366 
L 449.786256 236.132074 
L 454.285246 237.227547 
L 458.784236 238.323021 
L 463.283226 239.418495 
L 467.782216 240.513969 
L 472.281206 241.609442 
L 476.780196 242.704916 
L 481.279186 243.80039 
L 485.778176 245.007799 
L 490.277165 246.364678 
L 494.776155 247.721556 
L 499.275145 249.078435 
L 503.774135 250.435314 
L 508.273125 251.792192 
L 508.273125 145.654066 
L 508.273125 145.654066 
L 503.774135 146.251892 
L 499.275145 146.849719 
L 494.776155 147.447546 
L 490.277165 147.868769 
L 485.778176 147.718226 
L 481.279186 147.567683 
L 476.780196 147.41714 
L 472.281206 147.274108 
L 467.782216 147.988655 
L 463.283226 148.808211 
L 458.784236 149.627767 
L 454.285246 150.317574 
L 449.786256 150.680366 
L 445.287266 151.442064 
L 440.788277 152.069522 
L 436.289287 152.255042 
L 431.790297 152.491419 
L 427.291307 152.824726 
L 422.792317 153.223322 
L 418.293327 153.388127 
L 413.794337 153.680067 
L 409.295347 153.786362 
L 404.796357 153.537256 
L 400.297367 153.872079 
L 395.798378 153.684328 
L 391.299388 154.071608 
L 386.800398 154.145031 
L 382.301408 154.217387 
L 377.802418 154.511858 
L 373.303428 154.47906 
L 368.804438 154.460048 
L 364.305448 154.967921 
L 359.806458 155.373009 
L 355.307468 155.459163 
L 350.808479 155.355652 
L 346.309489 155.045439 
L 341.810499 155.131897 
L 337.311509 155.246069 
L 332.812519 155.128341 
L 328.313529 155.297425 
L 323.814539 155.543656 
L 319.315549 155.366542 
L 314.816559 155.255847 
L 310.317569 155.317939 
L 305.81858 155.003117 
L 301.31959 154.532147 
L 296.8206 154.090483 
L 292.32161 153.441371 
L 287.82262 152.866604 
L 283.32363 152.487352 
L 278.82464 151.731378 
L 274.32565 150.837396 
L 269.82666 150.364029 
L 265.32767 149.797725 
L 260.828681 149.331087 
L 256.329691 148.750148 
L 251.830701 148.151866 
L 247.331711 147.557314 
L 242.832721 146.959657 
L 238.333731 146.644683 
L 233.834741 145.619356 
L 229.335751 144.977994 
L 224.836761 144.4256 
L 220.337771 143.689683 
L 215.838782 143.042266 
L 211.339792 142.115973 
L 206.840802 141.075511 
L 202.341812 139.940136 
L 197.842822 138.901194 
L 193.343832 137.868113 
L 188.844842 137.051664 
L 184.345852 136.372094 
L 179.846862 135.039351 
L 175.347872 134.032597 
L 170.848883 133.126166 
L 166.349893 132.541279 
L 161.850903 131.610208 
L 157.351913 130.735731 
L 152.852923 129.96136 
L 148.353933 129.28306 
L 143.854943 128.520258 
L 139.355953 127.515303 
L 134.856963 126.036131 
L 130.357973 124.915286 
L 125.858984 123.946635 
L 121.359994 122.855437 
L 116.861004 121.493333 
L 112.362014 120.319367 
L 107.863024 119.451466 
L 103.364034 117.923794 
L 98.865044 116.394154 
L 94.366054 115.384353 
L 89.867064 114.117271 
L 85.368074 113.046525 
L 80.869085 112.002845 
L 76.370095 110.970278 
L 71.871105 109.937711 
L 67.372115 108.905145 
L 62.873125 107.872578 
z
" clip-path="url(#p6bcf8ea16d)" style="fill: #1f77b4; fill-opacity: 0.15"/>
   </g>
   <g id="matplotlib.axis_1">
    <g id="xtick_1">
     <g id="line2d_1">
      <defs>
       <path id="m89623b1450" d="M 0 0 
L 0 3.5 
" style="stroke: #000000; stroke-width: 0.8"/>
      </defs>
      <g>
       <use xlink:href="#m89623b1450" x="77.718042" y="318.04" style="stroke: #000000; stroke-width: 0.8"/>
      </g>
     </g>
     <g id="text_1">
      <!-- 0.15 -->
      <g transform="translate(66.585229 332.638437) scale(0.1 -0.1)">
       <defs>
        <path id="DejaVuSans-30" d="M 2034 4250 
Q 1547 4250 1301 3770 
Q 1056 3291 1056 2328 
Q 1056 1369 1301 889 
Q 1547 409 2034 409 
Q 2525 409 2770 889 
Q 3016 1369 3016 2328 
Q 3016 3291 2770 3770 
Q 2525 4250 2034 4250 
z
M 2034 4750 
Q 2819 4750 3233 4129 
Q 3647 3509 3647 2328 
Q 3647 1150 3233 529 
Q 2819 -91 2034 -91 
Q 1250 -91 836 529 
Q 422 1150 422 2328 
Q 422 3509 836 4129 
Q 1250 4750 2034 4750 
z
" transform="scale(0.015625)"/>
        <path id="DejaVuSans-2e" d="M 684 794 
L 1344 794 
L 1344 0 
L 684 0 
L 684 794 
z
" transform="scale(0.015625)"/>
        <path id="DejaVuSans-31" d="M 794 531 
L 1825 531 
L 1825 4091 
L 703 3866 
L 703 4441 
L 1819 4666 
L 2450 4666 
L 2450 531 
L 3481 531 
L 3481 0 
L 794 0 
L 794 531 
z
" transform="scale(0.015625)"/>
        <path id="DejaVuSans-35" d="M 691 4666 
L 3169 4666 
L 3169 4134 
L 1269 4134 
L 1269 2991 
Q 1406 3038 1543 3061 
Q 1681 3084 1819 3084 
Q 2600 3084 3056 2656 
Q 3513 2228 3513 1497 
Q 3513 744 3044 326 
Q 2575 -91 1722 -91 
Q 1428 -91 1123 -41 
Q 819 9 494 109 
L 494 744 
Q 775 591 1075 516 
Q 1375 441 1709 441 
Q 2250 441 2565 725 
Q 2881 1009 2881 1497 
Q 2881 1984 2565 2268 
Q 2250 2553 1709 2553 
Q 1456 2553 1204 2497 
Q 953 2441 691 2322 
L 691 4666 
z
" transform="scale(0.015625)"/>
       </defs>
       <use xlink:href="#DejaVuSans-30"/>
       <use xlink:href="#DejaVuSans-2e" x="63.623047"/>
       <use xlink:href="#DejaVuSans-31" x="95.410156"/>
       <use xlink:href="#DejaVuSans-35" x="159.033203"/>
      </g>
     </g>
    </g>
    <g id="xtick_2">
     <g id="line2d_2">
      <g>
       <use xlink:href="#m89623b1450" x="138.98705" y="318.04" style="stroke: #000000; stroke-width: 0.8"/>
      </g>
     </g>
     <g id="text_2">
      <!-- 0.16 -->
      <g transform="translate(127.854238 332.638437) scale(0.1 -0.1)">
       <defs>
        <path id="DejaVuSans-36" d="M 2113 2584 
Q 1688 2584 1439 2293 
Q 1191 2003 1191 1497 
Q 1191 994 1439 701 
Q 1688 409 2113 409 
Q 2538 409 2786 701 
Q 3034 994 3034 1497 
Q 3034 2003 2786 2293 
Q 2538 2584 2113 2584 
z
M 3366 4563 
L 3366 3988 
Q 3128 4100 2886 4159 
Q 2644 4219 2406 4219 
Q 1781 4219 1451 3797 
Q 1122 3375 1075 2522 
Q 1259 2794 1537 2939 
Q 1816 3084 2150 3084 
Q 2853 3084 3261 2657 
Q 3669 2231 3669 1497 
Q 3669 778 3244 343 
Q 2819 -91 2113 -91 
Q 1303 -91 875 529 
Q 447 1150 447 2328 
Q 447 3434 972 4092 
Q 1497 4750 2381 4750 
Q 2619 4750 2861 4703 
Q 3103 4656 3366 4563 
z
" transform="scale(0.015625)"/>
       </defs>
       <use xlink:href="#DejaVuSans-30"/>
       <use xlink:href="#DejaVuSans-2e" x="63.623047"/>
       <use xlink:href="#DejaVuSans-31" x="95.410156"/>
       <use xlink:href="#DejaVuSans-36" x="159.033203"/>
      </g>
     </g>
    </g>
    <g id="xtick_3">
     <g id="line2d_3">
      <g>
       <use xlink:href="#m89623b1450" x="200.256059" y="318.04" style="stroke: #000000; stroke-width: 0.8"/>
      </g>
     </g>
     <g id="text_3">
      <!-- 0.17 -->
      <g transform="translate(189.123246 332.638437) scale(0.1 -0.1)">
       <defs>
        <path id="DejaVuSans-37" d="M 525 4666 
L 3525 4666 
L 3525 4397 
L 1831 0 
L 1172 0 
L 2766 4134 
L 525 4134 
L 525 4666 
z
" transform="scale(0.015625)"/>
       </defs>
       <use xlink:href="#DejaVuSans-30"/>
       <use xlink:href="#DejaVuSans-2e" x="63.623047"/>
       <use xlink:href="#DejaVuSans-31" x="95.410156"/>
       <use xlink:href="#DejaVuSans-37" x="159.033203"/>
      </g>
     </g>
    </g>
    <g id="xtick_4">
     <g id="line2d_4">
      <g>
       <use xlink:href="#m89623b1450" x="261.525068" y="318.04" style="stroke: #000000; stroke-width: 0.8"/>
      </g>
     </g>
     <g id="text_4">
      <!-- 0.18 -->
      <g transform="translate(250.392255 332.638437) scale(0.1 -0.1)">
       <defs>
        <path id="DejaVuSans-38" d="M 2034 2216 
Q 1584 2216 1326 1975 
Q 1069 1734 1069 1313 
Q 1069 891 1326 650 
Q 1584 409 2034 409 
Q 2484 409 2743 651 
Q 3003 894 3003 1313 
Q 3003 1734 2745 1975 
Q 2488 2216 2034 2216 
z
M 1403 2484 
Q 997 2584 770 2862 
Q 544 3141 544 3541 
Q 544 4100 942 4425 
Q 1341 4750 2034 4750 
Q 2731 4750 3128 4425 
Q 3525 4100 3525 3541 
Q 3525 3141 3298 2862 
Q 3072 2584 2669 2484 
Q 3125 2378 3379 2068 
Q 3634 1759 3634 1313 
Q 3634 634 3220 271 
Q 2806 -91 2034 -91 
Q 1263 -91 848 271 
Q 434 634 434 1313 
Q 434 1759 690 2068 
Q 947 2378 1403 2484 
z
M 1172 3481 
Q 1172 3119 1398 2916 
Q 1625 2713 2034 2713 
Q 2441 2713 2670 2916 
Q 2900 3119 2900 3481 
Q 2900 3844 2670 4047 
Q 2441 4250 2034 4250 
Q 1625 4250 1398 4047 
Q 1172 3844 1172 3481 
z
" transform="scale(0.015625)"/>
       </defs>
       <use xlink:href="#DejaVuSans-30"/>
       <use xlink:href="#DejaVuSans-2e" x="63.623047"/>
       <use xlink:href="#DejaVuSans-31" x="95.410156"/>
       <use xlink:href="#DejaVuSans-38" x="159.033203"/>
      </g>
     </g>
    </g>
    <g id="xtick_5">
     <g id="line2d_5">
      <g>
       <use xlink:href="#m89623b1450" x="322.794076" y="318.04" style="stroke: #000000; stroke-width: 0.8"/>
      </g>
     </g>
     <g id="text_5">
      <!-- 0.19 -->
      <g transform="translate(311.661264 332.638437) scale(0.1 -0.1)">
       <defs>
        <path id="DejaVuSans-39" d="M 703 97 
L 703 672 
Q 941 559 1184 500 
Q 1428 441 1663 441 
Q 2288 441 2617 861 
Q 2947 1281 2994 2138 
Q 2813 1869 2534 1725 
Q 2256 1581 1919 1581 
Q 1219 1581 811 2004 
Q 403 2428 403 3163 
Q 403 3881 828 4315 
Q 1253 4750 1959 4750 
Q 2769 4750 3195 4129 
Q 3622 3509 3622 2328 
Q 3622 1225 3098 567 
Q 2575 -91 1691 -91 
Q 1453 -91 1209 -44 
Q 966 3 703 97 
z
M 1959 2075 
Q 2384 2075 2632 2365 
Q 2881 2656 2881 3163 
Q 2881 3666 2632 3958 
Q 2384 4250 1959 4250 
Q 1534 4250 1286 3958 
Q 1038 3666 1038 3163 
Q 1038 2656 1286 2365 
Q 1534 2075 1959 2075 
z
" transform="scale(0.015625)"/>
       </defs>
       <use xlink:href="#DejaVuSans-30"/>
       <use xlink:href="#DejaVuSans-2e" x="63.623047"/>
       <use xlink:href="#DejaVuSans-31" x="95.410156"/>
       <use xlink:href="#DejaVuSans-39" x="159.033203"/>
      </g>
     </g>
    </g>
    <g id="xtick_6">
     <g id="line2d_6">
      <g>
       <use xlink:href="#m89623b1450" x="384.063085" y="318.04" style="stroke: #000000; stroke-width: 0.8"/>
      </g>
     </g>
     <g id="text_6">
      <!-- 0.20 -->
      <g transform="translate(372.930272 332.638437) scale(0.1 -0.1)">
       <defs>
        <path id="DejaVuSans-32" d="M 1228 531 
L 3431 531 
L 3431 0 
L 469 0 
L 469 531 
Q 828 903 1448 1529 
Q 2069 2156 2228 2338 
Q 2531 2678 2651 2914 
Q 2772 3150 2772 3378 
Q 2772 3750 2511 3984 
Q 2250 4219 1831 4219 
Q 1534 4219 1204 4116 
Q 875 4013 500 3803 
L 500 4441 
Q 881 4594 1212 4672 
Q 1544 4750 1819 4750 
Q 2544 4750 2975 4387 
Q 3406 4025 3406 3419 
Q 3406 3131 3298 2873 
Q 3191 2616 2906 2266 
Q 2828 2175 2409 1742 
Q 1991 1309 1228 531 
z
" transform="scale(0.015625)"/>
       </defs>
       <use xlink:href="#DejaVuSans-30"/>
       <use xlink:href="#DejaVuSans-2e" x="63.623047"/>
       <use xlink:href="#DejaVuSans-32" x="95.410156"/>
       <use xlink:href="#DejaVuSans-30" x="159.033203"/>
      </g>
     </g>
    </g>
    <g id="xtick_7">
     <g id="line2d_7">
      <g>
       <use xlink:href="#m89623b1450" x="445.332093" y="318.04" style="stroke: #000000; stroke-width: 0.8"/>
      </g>
     </g>
     <g id="text_7">
      <!-- 0.21 -->
      <g transform="translate(434.199281 332.638437) scale(0.1 -0.1)">
       <use xlink:href="#DejaVuSans-30"/>
       <use xlink:href="#DejaVuSans-2e" x="63.623047"/>
       <use xlink:href="#DejaVuSans-32" x="95.410156"/>
       <use xlink:href="#DejaVuSans-31" x="159.033203"/>
      </g>
     </g>
    </g>
    <g id="xtick_8">
     <g id="line2d_8">
      <g>
       <use xlink:href="#m89623b1450" x="506.601102" y="318.04" style="stroke: #000000; stroke-width: 0.8"/>
      </g>
     </g>
     <g id="text_8">
      <!-- 0.22 -->
      <g transform="translate(495.468289 332.638437) scale(0.1 -0.1)">
       <use xlink:href="#DejaVuSans-30"/>
       <use xlink:href="#DejaVuSans-2e" x="63.623047"/>
       <use xlink:href="#DejaVuSans-32" x="95.410156"/>
       <use xlink:href="#DejaVuSans-32" x="159.033203"/>
      </g>
     </g>
    </g>
    <g id="text_9">
     <!-- Closest Pixel NDCI -->
     <g transform="translate(240.091875 346.316562) scale(0.1 -0.1)">
      <defs>
       <path id="DejaVuSans-43" d="M 4122 4306 
L 4122 3641 
Q 3803 3938 3442 4084 
Q 3081 4231 2675 4231 
Q 1875 4231 1450 3742 
Q 1025 3253 1025 2328 
Q 1025 1406 1450 917 
Q 1875 428 2675 428 
Q 3081 428 3442 575 
Q 3803 722 4122 1019 
L 4122 359 
Q 3791 134 3420 21 
Q 3050 -91 2638 -91 
Q 1578 -91 968 557 
Q 359 1206 359 2328 
Q 359 3453 968 4101 
Q 1578 4750 2638 4750 
Q 3056 4750 3426 4639 
Q 3797 4528 4122 4306 
z
" transform="scale(0.015625)"/>
       <path id="DejaVuSans-6c" d="M 603 4863 
L 1178 4863 
L 1178 0 
L 603 0 
L 603 4863 
z
" transform="scale(0.015625)"/>
       <path id="DejaVuSans-6f" d="M 1959 3097 
Q 1497 3097 1228 2736 
Q 959 2375 959 1747 
Q 959 1119 1226 758 
Q 1494 397 1959 397 
Q 2419 397 2687 759 
Q 2956 1122 2956 1747 
Q 2956 2369 2687 2733 
Q 2419 3097 1959 3097 
z
M 1959 3584 
Q 2709 3584 3137 3096 
Q 3566 2609 3566 1747 
Q 3566 888 3137 398 
Q 2709 -91 1959 -91 
Q 1206 -91 779 398 
Q 353 888 353 1747 
Q 353 2609 779 3096 
Q 1206 3584 1959 3584 
z
" transform="scale(0.015625)"/>
       <path id="DejaVuSans-73" d="M 2834 3397 
L 2834 2853 
Q 2591 2978 2328 3040 
Q 2066 3103 1784 3103 
Q 1356 3103 1142 2972 
Q 928 2841 928 2578 
Q 928 2378 1081 2264 
Q 1234 2150 1697 2047 
L 1894 2003 
Q 2506 1872 2764 1633 
Q 3022 1394 3022 966 
Q 3022 478 2636 193 
Q 2250 -91 1575 -91 
Q 1294 -91 989 -36 
Q 684 19 347 128 
L 347 722 
Q 666 556 975 473 
Q 1284 391 1588 391 
Q 1994 391 2212 530 
Q 2431 669 2431 922 
Q 2431 1156 2273 1281 
Q 2116 1406 1581 1522 
L 1381 1569 
Q 847 1681 609 1914 
Q 372 2147 372 2553 
Q 372 3047 722 3315 
Q 1072 3584 1716 3584 
Q 2034 3584 2315 3537 
Q 2597 3491 2834 3397 
z
" transform="scale(0.015625)"/>
       <path id="DejaVuSans-65" d="M 3597 1894 
L 3597 1613 
L 953 1613 
Q 991 1019 1311 708 
Q 1631 397 2203 397 
Q 2534 397 2845 478 
Q 3156 559 3463 722 
L 3463 178 
Q 3153 47 2828 -22 
Q 2503 -91 2169 -91 
Q 1331 -91 842 396 
Q 353 884 353 1716 
Q 353 2575 817 3079 
Q 1281 3584 2069 3584 
Q 2775 3584 3186 3129 
Q 3597 2675 3597 1894 
z
M 3022 2063 
Q 3016 2534 2758 2815 
Q 2500 3097 2075 3097 
Q 1594 3097 1305 2825 
Q 1016 2553 972 2059 
L 3022 2063 
z
" transform="scale(0.015625)"/>
       <path id="DejaVuSans-74" d="M 1172 4494 
L 1172 3500 
L 2356 3500 
L 2356 3053 
L 1172 3053 
L 1172 1153 
Q 1172 725 1289 603 
Q 1406 481 1766 481 
L 2356 481 
L 2356 0 
L 1766 0 
Q 1100 0 847 248 
Q 594 497 594 1153 
L 594 3053 
L 172 3053 
L 172 3500 
L 594 3500 
L 594 4494 
L 1172 4494 
z
" transform="scale(0.015625)"/>
       <path id="DejaVuSans-20" transform="scale(0.015625)"/>
       <path id="DejaVuSans-50" d="M 1259 4147 
L 1259 2394 
L 2053 2394 
Q 2494 2394 2734 2622 
Q 2975 2850 2975 3272 
Q 2975 3691 2734 3919 
Q 2494 4147 2053 4147 
L 1259 4147 
z
M 628 4666 
L 2053 4666 
Q 2838 4666 3239 4311 
Q 3641 3956 3641 3272 
Q 3641 2581 3239 2228 
Q 2838 1875 2053 1875 
L 1259 1875 
L 1259 0 
L 628 0 
L 628 4666 
z
" transform="scale(0.015625)"/>
       <path id="DejaVuSans-69" d="M 603 3500 
L 1178 3500 
L 1178 0 
L 603 0 
L 603 3500 
z
M 603 4863 
L 1178 4863 
L 1178 4134 
L 603 4134 
L 603 4863 
z
" transform="scale(0.015625)"/>
       <path id="DejaVuSans-78" d="M 3513 3500 
L 2247 1797 
L 3578 0 
L 2900 0 
L 1881 1375 
L 863 0 
L 184 0 
L 1544 1831 
L 300 3500 
L 978 3500 
L 1906 2253 
L 2834 3500 
L 3513 3500 
z
" transform="scale(0.015625)"/>
       <path id="DejaVuSans-4e" d="M 628 4666 
L 1478 4666 
L 3547 763 
L 3547 4666 
L 4159 4666 
L 4159 0 
L 3309 0 
L 1241 3903 
L 1241 0 
L 628 0 
L 628 4666 
z
" transform="scale(0.015625)"/>
       <path id="DejaVuSans-44" d="M 1259 4147 
L 1259 519 
L 2022 519 
Q 2988 519 3436 956 
Q 3884 1394 3884 2338 
Q 3884 3275 3436 3711 
Q 2988 4147 2022 4147 
L 1259 4147 
z
M 628 4666 
L 1925 4666 
Q 3281 4666 3915 4102 
Q 4550 3538 4550 2338 
Q 4550 1131 3912 565 
Q 3275 0 1925 0 
L 628 0 
L 628 4666 
z
" transform="scale(0.015625)"/>
       <path id="DejaVuSans-49" d="M 628 4666 
L 1259 4666 
L 1259 0 
L 628 0 
L 628 4666 
z
" transform="scale(0.015625)"/>
      </defs>
      <use xlink:href="#DejaVuSans-43"/>
      <use xlink:href="#DejaVuSans-6c" x="69.824219"/>
      <use xlink:href="#DejaVuSans-6f" x="97.607422"/>
      <use xlink:href="#DejaVuSans-73" x="158.789062"/>
      <use xlink:href="#DejaVuSans-65" x="210.888672"/>
      <use xlink:href="#DejaVuSans-73" x="272.412109"/>
      <use xlink:href="#DejaVuSans-74" x="324.511719"/>
      <use xlink:href="#DejaVuSans-20" x="363.720703"/>
      <use xlink:href="#DejaVuSans-50" x="395.507812"/>
      <use xlink:href="#DejaVuSans-69" x="453.560547"/>
      <use xlink:href="#DejaVuSans-78" x="481.34375"/>
      <use xlink:href="#DejaVuSans-65" x="537.398438"/>
      <use xlink:href="#DejaVuSans-6c" x="598.921875"/>
      <use xlink:href="#DejaVuSans-20" x="626.705078"/>
      <use xlink:href="#DejaVuSans-4e" x="658.492188"/>
      <use xlink:href="#DejaVuSans-44" x="733.296875"/>
      <use xlink:href="#DejaVuSans-43" x="810.298828"/>
      <use xlink:href="#DejaVuSans-49" x="880.123047"/>
     </g>
    </g>
   </g>
   <g id="matplotlib.axis_2">
    <g id="ytick_1">
     <g id="line2d_9">
      <defs>
       <path id="m3c4938c56f" d="M 0 0 
L -3.5 0 
" style="stroke: #000000; stroke-width: 0.8"/>
      </defs>
      <g>
       <use xlink:href="#m3c4938c56f" x="40.603125" y="305.318182" style="stroke: #000000; stroke-width: 0.8"/>
      </g>
     </g>
     <g id="text_10">
      <!-- 15 -->
      <g transform="translate(20.878125 309.117401) scale(0.1 -0.1)">
       <use xlink:href="#DejaVuSans-31"/>
       <use xlink:href="#DejaVuSans-35" x="63.623047"/>
      </g>
     </g>
    </g>
    <g id="ytick_2">
     <g id="line2d_10">
      <g>
       <use xlink:href="#m3c4938c56f" x="40.603125" y="259.883117" style="stroke: #000000; stroke-width: 0.8"/>
      </g>
     </g>
     <g id="text_11">
      <!-- 20 -->
      <g transform="translate(20.878125 263.682336) scale(0.1 -0.1)">
       <use xlink:href="#DejaVuSans-32"/>
       <use xlink:href="#DejaVuSans-30" x="63.623047"/>
      </g>
     </g>
    </g>
    <g id="ytick_3">
     <g id="line2d_11">
      <g>
       <use xlink:href="#m3c4938c56f" x="40.603125" y="214.448052" style="stroke: #000000; stroke-width: 0.8"/>
      </g>
     </g>
     <g id="text_12">
      <!-- 25 -->
      <g transform="translate(20.878125 218.247271) scale(0.1 -0.1)">
       <use xlink:href="#DejaVuSans-32"/>
       <use xlink:href="#DejaVuSans-35" x="63.623047"/>
      </g>
     </g>
    </g>
    <g id="ytick_4">
     <g id="line2d_12">
      <g>
       <use xlink:href="#m3c4938c56f" x="40.603125" y="169.012987" style="stroke: #000000; stroke-width: 0.8"/>
      </g>
     </g>
     <g id="text_13">
      <!-- 30 -->
      <g transform="translate(20.878125 172.812206) scale(0.1 -0.1)">
       <defs>
        <path id="DejaVuSans-33" d="M 2597 2516 
Q 3050 2419 3304 2112 
Q 3559 1806 3559 1356 
Q 3559 666 3084 287 
Q 2609 -91 1734 -91 
Q 1441 -91 1130 -33 
Q 819 25 488 141 
L 488 750 
Q 750 597 1062 519 
Q 1375 441 1716 441 
Q 2309 441 2620 675 
Q 2931 909 2931 1356 
Q 2931 1769 2642 2001 
Q 2353 2234 1838 2234 
L 1294 2234 
L 1294 2753 
L 1863 2753 
Q 2328 2753 2575 2939 
Q 2822 3125 2822 3475 
Q 2822 3834 2567 4026 
Q 2313 4219 1838 4219 
Q 1578 4219 1281 4162 
Q 984 4106 628 3988 
L 628 4550 
Q 988 4650 1302 4700 
Q 1616 4750 1894 4750 
Q 2613 4750 3031 4423 
Q 3450 4097 3450 3541 
Q 3450 3153 3228 2886 
Q 3006 2619 2597 2516 
z
" transform="scale(0.015625)"/>
       </defs>
       <use xlink:href="#DejaVuSans-33"/>
       <use xlink:href="#DejaVuSans-30" x="63.623047"/>
      </g>
     </g>
    </g>
    <g id="ytick_5">
     <g id="line2d_13">
      <g>
       <use xlink:href="#m3c4938c56f" x="40.603125" y="123.577922" style="stroke: #000000; stroke-width: 0.8"/>
      </g>
     </g>
     <g id="text_14">
      <!-- 35 -->
      <g transform="translate(20.878125 127.377141) scale(0.1 -0.1)">
       <use xlink:href="#DejaVuSans-33"/>
       <use xlink:href="#DejaVuSans-35" x="63.623047"/>
      </g>
     </g>
    </g>
    <g id="ytick_6">
     <g id="line2d_14">
      <g>
       <use xlink:href="#m3c4938c56f" x="40.603125" y="78.142857" style="stroke: #000000; stroke-width: 0.8"/>
      </g>
     </g>
     <g id="text_15">
      <!-- 40 -->
      <g transform="translate(20.878125 81.942076) scale(0.1 -0.1)">
       <defs>
        <path id="DejaVuSans-34" d="M 2419 4116 
L 825 1625 
L 2419 1625 
L 2419 4116 
z
M 2253 4666 
L 3047 4666 
L 3047 1625 
L 3713 1625 
L 3713 1100 
L 3047 1100 
L 3047 0 
L 2419 0 
L 2419 1100 
L 313 1100 
L 313 1709 
L 2253 4666 
z
" transform="scale(0.015625)"/>
       </defs>
       <use xlink:href="#DejaVuSans-34"/>
       <use xlink:href="#DejaVuSans-30" x="63.623047"/>
      </g>
     </g>
    </g>
    <g id="text_16">
     <!-- In-Situ Chl-a -->
     <g transform="translate(14.798438 208.746094) rotate(-90) scale(0.1 -0.1)">
      <defs>
       <path id="DejaVuSans-6e" d="M 3513 2113 
L 3513 0 
L 2938 0 
L 2938 2094 
Q 2938 2591 2744 2837 
Q 2550 3084 2163 3084 
Q 1697 3084 1428 2787 
Q 1159 2491 1159 1978 
L 1159 0 
L 581 0 
L 581 3500 
L 1159 3500 
L 1159 2956 
Q 1366 3272 1645 3428 
Q 1925 3584 2291 3584 
Q 2894 3584 3203 3211 
Q 3513 2838 3513 2113 
z
" transform="scale(0.015625)"/>
       <path id="DejaVuSans-2d" d="M 313 2009 
L 1997 2009 
L 1997 1497 
L 313 1497 
L 313 2009 
z
" transform="scale(0.015625)"/>
       <path id="DejaVuSans-53" d="M 3425 4513 
L 3425 3897 
Q 3066 4069 2747 4153 
Q 2428 4238 2131 4238 
Q 1616 4238 1336 4038 
Q 1056 3838 1056 3469 
Q 1056 3159 1242 3001 
Q 1428 2844 1947 2747 
L 2328 2669 
Q 3034 2534 3370 2195 
Q 3706 1856 3706 1288 
Q 3706 609 3251 259 
Q 2797 -91 1919 -91 
Q 1588 -91 1214 -16 
Q 841 59 441 206 
L 441 856 
Q 825 641 1194 531 
Q 1563 422 1919 422 
Q 2459 422 2753 634 
Q 3047 847 3047 1241 
Q 3047 1584 2836 1778 
Q 2625 1972 2144 2069 
L 1759 2144 
Q 1053 2284 737 2584 
Q 422 2884 422 3419 
Q 422 4038 858 4394 
Q 1294 4750 2059 4750 
Q 2388 4750 2728 4690 
Q 3069 4631 3425 4513 
z
" transform="scale(0.015625)"/>
       <path id="DejaVuSans-75" d="M 544 1381 
L 544 3500 
L 1119 3500 
L 1119 1403 
Q 1119 906 1312 657 
Q 1506 409 1894 409 
Q 2359 409 2629 706 
Q 2900 1003 2900 1516 
L 2900 3500 
L 3475 3500 
L 3475 0 
L 2900 0 
L 2900 538 
Q 2691 219 2414 64 
Q 2138 -91 1772 -91 
Q 1169 -91 856 284 
Q 544 659 544 1381 
z
M 1991 3584 
L 1991 3584 
z
" transform="scale(0.015625)"/>
       <path id="DejaVuSans-68" d="M 3513 2113 
L 3513 0 
L 2938 0 
L 2938 2094 
Q 2938 2591 2744 2837 
Q 2550 3084 2163 3084 
Q 1697 3084 1428 2787 
Q 1159 2491 1159 1978 
L 1159 0 
L 581 0 
L 581 4863 
L 1159 4863 
L 1159 2956 
Q 1366 3272 1645 3428 
Q 1925 3584 2291 3584 
Q 2894 3584 3203 3211 
Q 3513 2838 3513 2113 
z
" transform="scale(0.015625)"/>
       <path id="DejaVuSans-61" d="M 2194 1759 
Q 1497 1759 1228 1600 
Q 959 1441 959 1056 
Q 959 750 1161 570 
Q 1363 391 1709 391 
Q 2188 391 2477 730 
Q 2766 1069 2766 1631 
L 2766 1759 
L 2194 1759 
z
M 3341 1997 
L 3341 0 
L 2766 0 
L 2766 531 
Q 2569 213 2275 61 
Q 1981 -91 1556 -91 
Q 1019 -91 701 211 
Q 384 513 384 1019 
Q 384 1609 779 1909 
Q 1175 2209 1959 2209 
L 2766 2209 
L 2766 2266 
Q 2766 2663 2505 2880 
Q 2244 3097 1772 3097 
Q 1472 3097 1187 3025 
Q 903 2953 641 2809 
L 641 3341 
Q 956 3463 1253 3523 
Q 1550 3584 1831 3584 
Q 2591 3584 2966 3190 
Q 3341 2797 3341 1997 
z
" transform="scale(0.015625)"/>
      </defs>
      <use xlink:href="#DejaVuSans-49"/>
      <use xlink:href="#DejaVuSans-6e" x="29.492188"/>
      <use xlink:href="#DejaVuSans-2d" x="92.871094"/>
      <use xlink:href="#DejaVuSans-53" x="128.955078"/>
      <use xlink:href="#DejaVuSans-69" x="192.431641"/>
      <use xlink:href="#DejaVuSans-74" x="220.214844"/>
      <use xlink:href="#DejaVuSans-75" x="259.423828"/>
      <use xlink:href="#DejaVuSans-20" x="322.802734"/>
      <use xlink:href="#DejaVuSans-43" x="354.589844"/>
      <use xlink:href="#DejaVuSans-68" x="424.414062"/>
      <use xlink:href="#DejaVuSans-6c" x="487.792969"/>
      <use xlink:href="#DejaVuSans-2d" x="515.576172"/>
      <use xlink:href="#DejaVuSans-61" x="551.660156"/>
     </g>
    </g>
   </g>
   <g id="line2d_15">
    <path d="M 62.873125 150.875693 
L 67.372115 151.363149 
L 71.871105 151.850605 
L 76.370095 152.338061 
L 80.869085 152.825518 
L 85.368074 153.312974 
L 89.867064 153.80043 
L 94.366054 154.287886 
L 98.865044 154.775342 
L 103.364034 155.262798 
L 107.863024 155.750254 
L 112.362014 156.237711 
L 116.861004 156.725167 
L 121.359994 157.212623 
L 125.858984 157.700079 
L 130.357973 158.187535 
L 134.856963 158.674991 
L 139.355953 159.162447 
L 143.854943 159.649903 
L 148.353933 160.13736 
L 152.852923 160.624816 
L 157.351913 161.112272 
L 161.850903 161.599728 
L 166.349893 162.087184 
L 170.848883 162.57464 
L 175.347872 163.062096 
L 179.846862 163.549552 
L 184.345852 164.037009 
L 188.844842 164.524465 
L 193.343832 165.011921 
L 197.842822 165.499377 
L 202.341812 165.986833 
L 206.840802 166.474289 
L 211.339792 166.961745 
L 215.838782 167.449202 
L 220.337771 167.936658 
L 224.836761 168.424114 
L 229.335751 168.91157 
L 233.834741 169.399026 
L 238.333731 169.886482 
L 242.832721 170.373938 
L 247.331711 170.861394 
L 251.830701 171.348851 
L 256.329691 171.836307 
L 260.828681 172.323763 
L 265.32767 172.811219 
L 269.82666 173.298675 
L 274.32565 173.786131 
L 278.82464 174.273587 
L 283.32363 174.761043 
L 287.82262 175.2485 
L 292.32161 175.735956 
L 296.8206 176.223412 
L 301.31959 176.710868 
L 305.81858 177.198324 
L 310.317569 177.68578 
L 314.816559 178.173236 
L 319.315549 178.660693 
L 323.814539 179.148149 
L 328.313529 179.635605 
L 332.812519 180.123061 
L 337.311509 180.610517 
L 341.810499 181.097973 
L 346.309489 181.585429 
L 350.808479 182.072885 
L 355.307468 182.560342 
L 359.806458 183.047798 
L 364.305448 183.535254 
L 368.804438 184.02271 
L 373.303428 184.510166 
L 377.802418 184.997622 
L 382.301408 185.485078 
L 386.800398 185.972534 
L 391.299388 186.459991 
L 395.798378 186.947447 
L 400.297367 187.434903 
L 404.796357 187.922359 
L 409.295347 188.409815 
L 413.794337 188.897271 
L 418.293327 189.384727 
L 422.792317 189.872184 
L 427.291307 190.35964 
L 431.790297 190.847096 
L 436.289287 191.334552 
L 440.788277 191.822008 
L 445.287266 192.309464 
L 449.786256 192.79692 
L 454.285246 193.284376 
L 458.784236 193.771833 
L 463.283226 194.259289 
L 467.782216 194.746745 
L 472.281206 195.234201 
L 476.780196 195.721657 
L 481.279186 196.209113 
L 485.778176 196.696569 
L 490.277165 197.184025 
L 494.776155 197.671482 
L 499.275145 198.158938 
L 503.774135 198.646394 
L 508.273125 199.13385 
" clip-path="url(#p6bcf8ea16d)" style="fill: none; stroke: #1f77b4; stroke-width: 2.25; stroke-linecap: square"/>
   </g>
   <g id="patch_3">
    <path d="M 40.603125 318.04 
L 40.603125 38.16 
" style="fill: none; stroke: #000000; stroke-width: 0.8; stroke-linejoin: miter; stroke-linecap: square"/>
   </g>
   <g id="patch_4">
    <path d="M 530.543125 318.04 
L 530.543125 38.16 
" style="fill: none; stroke: #000000; stroke-width: 0.8; stroke-linejoin: miter; stroke-linecap: square"/>
   </g>
   <g id="patch_5">
    <path d="M 40.603125 318.04 
L 530.543125 318.04 
" style="fill: none; stroke: #000000; stroke-width: 0.8; stroke-linejoin: miter; stroke-linecap: square"/>
   </g>
   <g id="patch_6">
    <path d="M 40.603125 38.16 
L 530.543125 38.16 
" style="fill: none; stroke: #000000; stroke-width: 0.8; stroke-linejoin: miter; stroke-linecap: square"/>
   </g>
   <g id="text_17">
    <!-- $R^2 =  0.032$ -->
    <g transform="translate(65.100125 62.791812) scale(0.14 -0.14)">
     <defs>
      <path id="DejaVuSans-Oblique-52" d="M 1613 4147 
L 1294 2491 
L 2106 2491 
Q 2584 2491 2879 2755 
Q 3175 3019 3175 3444 
Q 3175 3784 2976 3965 
Q 2778 4147 2406 4147 
L 1613 4147 
z
M 2772 2241 
Q 2972 2194 3105 2009 
Q 3238 1825 3413 1275 
L 3809 0 
L 3144 0 
L 2778 1197 
Q 2638 1659 2453 1815 
Q 2269 1972 1888 1972 
L 1191 1972 
L 806 0 
L 172 0 
L 1081 4666 
L 2503 4666 
Q 3150 4666 3495 4373 
Q 3841 4081 3841 3531 
Q 3841 3044 3547 2687 
Q 3253 2331 2772 2241 
z
" transform="scale(0.015625)"/>
      <path id="DejaVuSans-3d" d="M 678 2906 
L 4684 2906 
L 4684 2381 
L 678 2381 
L 678 2906 
z
M 678 1631 
L 4684 1631 
L 4684 1100 
L 678 1100 
L 678 1631 
z
" transform="scale(0.015625)"/>
     </defs>
     <use xlink:href="#DejaVuSans-Oblique-52" transform="translate(0 0.765625)"/>
     <use xlink:href="#DejaVuSans-32" transform="translate(76.499193 39.046875) scale(0.7)"/>
     <use xlink:href="#DejaVuSans-3d" transform="translate(143.252122 0.765625)"/>
     <use xlink:href="#DejaVuSans-30" transform="translate(246.523607 0.765625)"/>
     <use xlink:href="#DejaVuSans-2e" transform="translate(310.146654 0.765625)"/>
     <use xlink:href="#DejaVuSans-30" transform="translate(341.933763 0.765625)"/>
     <use xlink:href="#DejaVuSans-33" transform="translate(405.55681 0.765625)"/>
     <use xlink:href="#DejaVuSans-32" transform="translate(469.179857 0.765625)"/>
    </g>
   </g>
   <g id="text_18">
    <!-- $p =  0.374$ -->
    <g transform="translate(65.100125 82.354975) scale(0.14 -0.14)">
     <defs>
      <path id="DejaVuSans-Oblique-70" d="M 3175 2156 
Q 3175 2616 2975 2859 
Q 2775 3103 2400 3103 
Q 2144 3103 1911 2972 
Q 1678 2841 1497 2591 
Q 1319 2344 1212 1994 
Q 1106 1644 1106 1300 
Q 1106 863 1306 627 
Q 1506 391 1875 391 
Q 2147 391 2380 519 
Q 2613 647 2778 891 
Q 2956 1147 3065 1494 
Q 3175 1841 3175 2156 
z
M 1394 2969 
Q 1625 3272 1939 3428 
Q 2253 3584 2638 3584 
Q 3175 3584 3472 3232 
Q 3769 2881 3769 2247 
Q 3769 1728 3584 1258 
Q 3400 788 3053 416 
Q 2822 169 2531 39 
Q 2241 -91 1919 -91 
Q 1547 -91 1294 64 
Q 1041 219 916 525 
L 556 -1331 
L -19 -1331 
L 922 3500 
L 1497 3500 
L 1394 2969 
z
" transform="scale(0.015625)"/>
     </defs>
     <use xlink:href="#DejaVuSans-Oblique-70" transform="translate(0 0.78125)"/>
     <use xlink:href="#DejaVuSans-3d" transform="translate(82.958984 0.78125)"/>
     <use xlink:href="#DejaVuSans-30" transform="translate(186.230469 0.78125)"/>
     <use xlink:href="#DejaVuSans-2e" transform="translate(249.853516 0.78125)"/>
     <use xlink:href="#DejaVuSans-33" transform="translate(281.640625 0.78125)"/>
     <use xlink:href="#DejaVuSans-37" transform="translate(345.263672 0.78125)"/>
     <use xlink:href="#DejaVuSans-34" transform="translate(408.886719 0.78125)"/>
    </g>
   </g>
  </g>
  <g id="axes_2">
   <g id="patch_7">
    <path d="M 575.203125 318.04 
L 1065.143125 318.04 
L 1065.143125 38.16 
L 575.203125 38.16 
z
" style="fill: #ffffff"/>
   </g>
   <g id="PathCollection_2">
    <g clip-path="url(#p5df5499e73)">
     <use xlink:href="#m74998d9067" x="819.931862" y="178.1" style="fill: #1f77b4; fill-opacity: 0.8; stroke: #1f77b4; stroke-opacity: 0.8"/>
     <use xlink:href="#m74998d9067" x="818.903426" y="78.142857" style="fill: #1f77b4; fill-opacity: 0.8; stroke: #1f77b4; stroke-opacity: 0.8"/>
     <use xlink:href="#m74998d9067" x="881.127485" y="214.448052" style="fill: #1f77b4; fill-opacity: 0.8; stroke: #1f77b4; stroke-opacity: 0.8"/>
     <use xlink:href="#m74998d9067" x="597.473125" y="114.490909" style="fill: #1f77b4; fill-opacity: 0.8; stroke: #1f77b4; stroke-opacity: 0.8"/>
     <use xlink:href="#m74998d9067" x="898.620258" y="159.925974" style="fill: #1f77b4; fill-opacity: 0.8; stroke: #1f77b4; stroke-opacity: 0.8"/>
     <use xlink:href="#m74998d9067" x="942.629323" y="241.709091" style="fill: #1f77b4; fill-opacity: 0.8; stroke: #1f77b4; stroke-opacity: 0.8"/>
     <use xlink:href="#m74998d9067" x="843.895384" y="105.403896" style="fill: #1f77b4; fill-opacity: 0.8; stroke: #1f77b4; stroke-opacity: 0.8"/>
     <use xlink:href="#m74998d9067" x="794.965647" y="169.012987" style="fill: #1f77b4; fill-opacity: 0.8; stroke: #1f77b4; stroke-opacity: 0.8"/>
     <use xlink:href="#m74998d9067" x="888.346122" y="241.709091" style="fill: #1f77b4; fill-opacity: 0.8; stroke: #1f77b4; stroke-opacity: 0.8"/>
     <use xlink:href="#m74998d9067" x="965.274124" y="187.187013" style="fill: #1f77b4; fill-opacity: 0.8; stroke: #1f77b4; stroke-opacity: 0.8"/>
     <use xlink:href="#m74998d9067" x="894.324394" y="196.274026" style="fill: #1f77b4; fill-opacity: 0.8; stroke: #1f77b4; stroke-opacity: 0.8"/>
     <use xlink:href="#m74998d9067" x="937.456444" y="141.751948" style="fill: #1f77b4; fill-opacity: 0.8; stroke: #1f77b4; stroke-opacity: 0.8"/>
     <use xlink:href="#m74998d9067" x="949.462001" y="141.751948" style="fill: #1f77b4; fill-opacity: 0.8; stroke: #1f77b4; stroke-opacity: 0.8"/>
     <use xlink:href="#m74998d9067" x="804.817581" y="132.664935" style="fill: #1f77b4; fill-opacity: 0.8; stroke: #1f77b4; stroke-opacity: 0.8"/>
     <use xlink:href="#m74998d9067" x="921.095757" y="123.577922" style="fill: #1f77b4; fill-opacity: 0.8; stroke: #1f77b4; stroke-opacity: 0.8"/>
     <use xlink:href="#m74998d9067" x="828.618303" y="232.622078" style="fill: #1f77b4; fill-opacity: 0.8; stroke: #1f77b4; stroke-opacity: 0.8"/>
     <use xlink:href="#m74998d9067" x="877.973769" y="305.318182" style="fill: #1f77b4; fill-opacity: 0.8; stroke: #1f77b4; stroke-opacity: 0.8"/>
     <use xlink:href="#m74998d9067" x="714.265498" y="78.142857" style="fill: #1f77b4; fill-opacity: 0.8; stroke: #1f77b4; stroke-opacity: 0.8"/>
     <use xlink:href="#m74998d9067" x="751.333828" y="169.012987" style="fill: #1f77b4; fill-opacity: 0.8; stroke: #1f77b4; stroke-opacity: 0.8"/>
     <use xlink:href="#m74998d9067" x="917.609308" y="159.925974" style="fill: #1f77b4; fill-opacity: 0.8; stroke: #1f77b4; stroke-opacity: 0.8"/>
     <use xlink:href="#m74998d9067" x="1042.873125" y="205.361039" style="fill: #1f77b4; fill-opacity: 0.8; stroke: #1f77b4; stroke-opacity: 0.8"/>
     <use xlink:href="#m74998d9067" x="815.14094" y="296.231169" style="fill: #1f77b4; fill-opacity: 0.8; stroke: #1f77b4; stroke-opacity: 0.8"/>
     <use xlink:href="#m74998d9067" x="842.163925" y="178.1" style="fill: #1f77b4; fill-opacity: 0.8; stroke: #1f77b4; stroke-opacity: 0.8"/>
     <use xlink:href="#m74998d9067" x="884.933399" y="96.316883" style="fill: #1f77b4; fill-opacity: 0.8; stroke: #1f77b4; stroke-opacity: 0.8"/>
     <use xlink:href="#m74998d9067" x="897.004571" y="268.97013" style="fill: #1f77b4; fill-opacity: 0.8; stroke: #1f77b4; stroke-opacity: 0.8"/>
     <use xlink:href="#m74998d9067" x="876.11427" y="50.881818" style="fill: #1f77b4; fill-opacity: 0.8; stroke: #1f77b4; stroke-opacity: 0.8"/>
     <use xlink:href="#m74998d9067" x="849.257145" y="223.535065" style="fill: #1f77b4; fill-opacity: 0.8; stroke: #1f77b4; stroke-opacity: 0.8"/>
    </g>
   </g>
   <g id="PolyCollection_2">
    <path d="M 597.473125 66.031529 
L 597.473125 204.439684 
L 601.972115 204.414712 
L 606.471105 204.26277 
L 610.970095 203.740906 
L 615.469085 203.219042 
L 619.968074 202.697177 
L 624.467064 202.512298 
L 628.966054 202.397797 
L 633.465044 202.283296 
L 637.964034 202.168795 
L 642.463024 202.052848 
L 646.962014 201.931043 
L 651.461004 201.806683 
L 655.959994 201.67668 
L 660.458984 201.546676 
L 664.957973 201.416673 
L 669.456963 201.009059 
L 673.955953 200.389931 
L 678.454943 199.764363 
L 682.953933 199.443516 
L 687.452923 198.951289 
L 691.951913 198.041814 
L 696.450903 197.386919 
L 700.949893 197.367766 
L 705.448883 197.348612 
L 709.947872 197.329458 
L 714.446862 197.310304 
L 718.945852 197.291151 
L 723.444842 197.271997 
L 727.943832 197.252268 
L 732.442822 197.227879 
L 736.941812 197.20349 
L 741.440802 197.179102 
L 745.939792 197.154713 
L 750.438782 196.947353 
L 754.937771 196.648348 
L 759.436761 196.630664 
L 763.935751 196.291687 
L 768.434741 195.927045 
L 772.933731 196.117411 
L 777.432721 196.301799 
L 781.931711 195.925751 
L 786.430701 196.273632 
L 790.929691 196.015378 
L 795.428681 195.693652 
L 799.92767 195.961997 
L 804.42666 195.171514 
L 808.92565 195.139827 
L 813.42464 195.108387 
L 817.92363 195.375626 
L 822.42262 194.717289 
L 826.92161 195.126827 
L 831.4206 195.232335 
L 835.91959 195.833015 
L 840.41858 196.554967 
L 844.917569 196.998083 
L 849.416559 197.80627 
L 853.915549 197.69224 
L 858.414539 199.074765 
L 862.913529 199.210872 
L 867.412519 199.76883 
L 871.911509 200.403225 
L 876.410499 201.168928 
L 880.909489 202.256717 
L 885.408479 203.368105 
L 889.907468 204.073282 
L 894.406458 205.192206 
L 898.905448 205.912833 
L 903.404438 207.414607 
L 907.903428 208.8893 
L 912.402418 210.094966 
L 916.901408 211.540677 
L 921.400398 212.415101 
L 925.899388 213.871299 
L 930.398378 215.495427 
L 934.897367 216.556668 
L 939.396357 217.538229 
L 943.895347 218.99585 
L 948.394337 220.496891 
L 952.893327 221.892397 
L 957.392317 223.166427 
L 961.891307 224.55665 
L 966.390297 225.939112 
L 970.889287 227.460652 
L 975.388277 228.788712 
L 979.887266 230.261773 
L 984.386256 231.725482 
L 988.885246 233.209514 
L 993.384236 234.683988 
L 997.883226 236.035916 
L 1002.382216 237.33123 
L 1006.881206 238.593172 
L 1011.380196 239.588641 
L 1015.879186 240.883411 
L 1020.378176 242.491362 
L 1024.877165 243.792379 
L 1029.376155 245.483021 
L 1033.875145 247.206745 
L 1038.374135 248.93047 
L 1042.873125 250.650462 
L 1042.873125 162.338105 
L 1042.873125 162.338105 
L 1038.374135 162.451973 
L 1033.875145 162.587467 
L 1029.376155 162.313913 
L 1024.877165 162.266066 
L 1020.378176 162.640646 
L 1015.879186 162.567279 
L 1011.380196 162.660865 
L 1006.881206 162.481417 
L 1002.382216 162.353839 
L 997.883226 162.755632 
L 993.384236 163.049351 
L 988.885246 163.046112 
L 984.386256 162.739797 
L 979.887266 162.724421 
L 975.388277 162.712192 
L 970.889287 162.718213 
L 966.390297 162.216587 
L 961.891307 161.992673 
L 957.392317 162.251389 
L 952.893327 162.421674 
L 948.394337 162.05866 
L 943.895347 161.782674 
L 939.396357 161.393995 
L 934.897367 160.330362 
L 930.398378 159.601524 
L 925.899388 158.64544 
L 921.400398 158.229048 
L 916.901408 157.905837 
L 912.402418 157.761306 
L 907.903428 157.022122 
L 903.404438 156.233073 
L 898.905448 156.128617 
L 894.406458 155.569943 
L 889.907468 154.743278 
L 885.408479 153.935532 
L 880.909489 153.063503 
L 876.410499 152.188535 
L 871.911509 151.455524 
L 867.412519 150.554073 
L 862.913529 149.652621 
L 858.414539 148.688663 
L 853.915549 147.664808 
L 849.416559 146.5329 
L 844.917569 145.415426 
L 840.41858 144.690133 
L 835.91959 143.664692 
L 831.4206 142.617225 
L 826.92161 141.712123 
L 822.42262 141.204918 
L 817.92363 140.016205 
L 813.42464 138.970341 
L 808.92565 137.450925 
L 804.42666 136.262055 
L 799.92767 135.039322 
L 795.428681 133.95008 
L 790.929691 132.725865 
L 786.430701 131.170157 
L 781.931711 129.79032 
L 777.432721 128.525194 
L 772.933731 127.158461 
L 768.434741 125.40439 
L 763.935751 123.723578 
L 759.436761 122.605367 
L 754.937771 120.994623 
L 750.438782 119.910798 
L 745.939792 118.3741 
L 741.440802 116.838275 
L 736.941812 115.236157 
L 732.442822 113.75041 
L 727.943832 112.205389 
L 723.444842 110.664093 
L 718.945852 109.135998 
L 714.446862 107.791574 
L 709.947872 106.401876 
L 705.448883 104.479055 
L 700.949893 102.928593 
L 696.450903 101.504539 
L 691.951913 100.289695 
L 687.452923 98.290494 
L 682.953933 96.731318 
L 678.454943 95.19333 
L 673.955953 93.638608 
L 669.456963 92.083887 
L 664.957973 90.495568 
L 660.458984 88.794085 
L 655.959994 87.099597 
L 651.461004 85.405108 
L 646.962014 83.71062 
L 642.463024 82.016132 
L 637.964034 80.321643 
L 633.465044 78.627155 
L 628.966054 76.93692 
L 624.467064 75.64837 
L 619.968074 73.931298 
L 615.469085 72.156518 
L 610.970095 70.629953 
L 606.471105 69.103894 
L 601.972115 67.587496 
L 597.473125 66.031529 
z
" clip-path="url(#p5df5499e73)" style="fill: #1f77b4; fill-opacity: 0.15"/>
   </g>
   <g id="matplotlib.axis_3">
    <g id="xtick_9">
     <g id="line2d_16">
      <g>
       <use xlink:href="#m89623b1450" x="615.350052" y="318.04" style="stroke: #000000; stroke-width: 0.8"/>
      </g>
     </g>
     <g id="text_19">
      <!-- 0.12 -->
      <g transform="translate(604.217239 332.638437) scale(0.1 -0.1)">
       <use xlink:href="#DejaVuSans-30"/>
       <use xlink:href="#DejaVuSans-2e" x="63.623047"/>
       <use xlink:href="#DejaVuSans-31" x="95.410156"/>
       <use xlink:href="#DejaVuSans-32" x="159.033203"/>
      </g>
     </g>
    </g>
    <g id="xtick_10">
     <g id="line2d_17">
      <g>
       <use xlink:href="#m89623b1450" x="699.77774" y="318.04" style="stroke: #000000; stroke-width: 0.8"/>
      </g>
     </g>
     <g id="text_20">
      <!-- 0.14 -->
      <g transform="translate(688.644927 332.638437) scale(0.1 -0.1)">
       <use xlink:href="#DejaVuSans-30"/>
       <use xlink:href="#DejaVuSans-2e" x="63.623047"/>
       <use xlink:href="#DejaVuSans-31" x="95.410156"/>
       <use xlink:href="#DejaVuSans-34" x="159.033203"/>
      </g>
     </g>
    </g>
    <g id="xtick_11">
     <g id="line2d_18">
      <g>
       <use xlink:href="#m89623b1450" x="784.205428" y="318.04" style="stroke: #000000; stroke-width: 0.8"/>
      </g>
     </g>
     <g id="text_21">
      <!-- 0.16 -->
      <g transform="translate(773.072616 332.638437) scale(0.1 -0.1)">
       <use xlink:href="#DejaVuSans-30"/>
       <use xlink:href="#DejaVuSans-2e" x="63.623047"/>
       <use xlink:href="#DejaVuSans-31" x="95.410156"/>
       <use xlink:href="#DejaVuSans-36" x="159.033203"/>
      </g>
     </g>
    </g>
    <g id="xtick_12">
     <g id="line2d_19">
      <g>
       <use xlink:href="#m89623b1450" x="868.633116" y="318.04" style="stroke: #000000; stroke-width: 0.8"/>
      </g>
     </g>
     <g id="text_22">
      <!-- 0.18 -->
      <g transform="translate(857.500304 332.638437) scale(0.1 -0.1)">
       <use xlink:href="#DejaVuSans-30"/>
       <use xlink:href="#DejaVuSans-2e" x="63.623047"/>
       <use xlink:href="#DejaVuSans-31" x="95.410156"/>
       <use xlink:href="#DejaVuSans-38" x="159.033203"/>
      </g>
     </g>
    </g>
    <g id="xtick_13">
     <g id="line2d_20">
      <g>
       <use xlink:href="#m89623b1450" x="953.060804" y="318.04" style="stroke: #000000; stroke-width: 0.8"/>
      </g>
     </g>
     <g id="text_23">
      <!-- 0.20 -->
      <g transform="translate(941.927992 332.638437) scale(0.1 -0.1)">
       <use xlink:href="#DejaVuSans-30"/>
       <use xlink:href="#DejaVuSans-2e" x="63.623047"/>
       <use xlink:href="#DejaVuSans-32" x="95.410156"/>
       <use xlink:href="#DejaVuSans-30" x="159.033203"/>
      </g>
     </g>
    </g>
    <g id="xtick_14">
     <g id="line2d_21">
      <g>
       <use xlink:href="#m89623b1450" x="1037.488493" y="318.04" style="stroke: #000000; stroke-width: 0.8"/>
      </g>
     </g>
     <g id="text_24">
      <!-- 0.22 -->
      <g transform="translate(1026.35568 332.638437) scale(0.1 -0.1)">
       <use xlink:href="#DejaVuSans-30"/>
       <use xlink:href="#DejaVuSans-2e" x="63.623047"/>
       <use xlink:href="#DejaVuSans-32" x="95.410156"/>
       <use xlink:href="#DejaVuSans-32" x="159.033203"/>
      </g>
     </g>
    </g>
    <g id="text_25">
     <!-- Pixel Interpolation NDCI -->
     <g transform="translate(760.877813 346.316562) scale(0.1 -0.1)">
      <defs>
       <path id="DejaVuSans-72" d="M 2631 2963 
Q 2534 3019 2420 3045 
Q 2306 3072 2169 3072 
Q 1681 3072 1420 2755 
Q 1159 2438 1159 1844 
L 1159 0 
L 581 0 
L 581 3500 
L 1159 3500 
L 1159 2956 
Q 1341 3275 1631 3429 
Q 1922 3584 2338 3584 
Q 2397 3584 2469 3576 
Q 2541 3569 2628 3553 
L 2631 2963 
z
" transform="scale(0.015625)"/>
       <path id="DejaVuSans-70" d="M 1159 525 
L 1159 -1331 
L 581 -1331 
L 581 3500 
L 1159 3500 
L 1159 2969 
Q 1341 3281 1617 3432 
Q 1894 3584 2278 3584 
Q 2916 3584 3314 3078 
Q 3713 2572 3713 1747 
Q 3713 922 3314 415 
Q 2916 -91 2278 -91 
Q 1894 -91 1617 61 
Q 1341 213 1159 525 
z
M 3116 1747 
Q 3116 2381 2855 2742 
Q 2594 3103 2138 3103 
Q 1681 3103 1420 2742 
Q 1159 2381 1159 1747 
Q 1159 1113 1420 752 
Q 1681 391 2138 391 
Q 2594 391 2855 752 
Q 3116 1113 3116 1747 
z
" transform="scale(0.015625)"/>
      </defs>
      <use xlink:href="#DejaVuSans-50"/>
      <use xlink:href="#DejaVuSans-69" x="58.052734"/>
      <use xlink:href="#DejaVuSans-78" x="85.835938"/>
      <use xlink:href="#DejaVuSans-65" x="141.890625"/>
      <use xlink:href="#DejaVuSans-6c" x="203.414062"/>
      <use xlink:href="#DejaVuSans-20" x="231.197266"/>
      <use xlink:href="#DejaVuSans-49" x="262.984375"/>
      <use xlink:href="#DejaVuSans-6e" x="292.476562"/>
      <use xlink:href="#DejaVuSans-74" x="355.855469"/>
      <use xlink:href="#DejaVuSans-65" x="395.064453"/>
      <use xlink:href="#DejaVuSans-72" x="456.587891"/>
      <use xlink:href="#DejaVuSans-70" x="497.701172"/>
      <use xlink:href="#DejaVuSans-6f" x="561.177734"/>
      <use xlink:href="#DejaVuSans-6c" x="622.359375"/>
      <use xlink:href="#DejaVuSans-61" x="650.142578"/>
      <use xlink:href="#DejaVuSans-74" x="711.421875"/>
      <use xlink:href="#DejaVuSans-69" x="750.630859"/>
      <use xlink:href="#DejaVuSans-6f" x="778.414062"/>
      <use xlink:href="#DejaVuSans-6e" x="839.595703"/>
      <use xlink:href="#DejaVuSans-20" x="902.974609"/>
      <use xlink:href="#DejaVuSans-4e" x="934.761719"/>
      <use xlink:href="#DejaVuSans-44" x="1009.566406"/>
      <use xlink:href="#DejaVuSans-43" x="1086.568359"/>
      <use xlink:href="#DejaVuSans-49" x="1156.392578"/>
     </g>
    </g>
   </g>
   <g id="matplotlib.axis_4">
    <g id="ytick_7">
     <g id="line2d_22">
      <g>
       <use xlink:href="#m3c4938c56f" x="575.203125" y="305.318182" style="stroke: #000000; stroke-width: 0.8"/>
      </g>
     </g>
     <g id="text_26">
      <!-- 15 -->
      <g transform="translate(555.478125 309.117401) scale(0.1 -0.1)">
       <use xlink:href="#DejaVuSans-31"/>
       <use xlink:href="#DejaVuSans-35" x="63.623047"/>
      </g>
     </g>
    </g>
    <g id="ytick_8">
     <g id="line2d_23">
      <g>
       <use xlink:href="#m3c4938c56f" x="575.203125" y="259.883117" style="stroke: #000000; stroke-width: 0.8"/>
      </g>
     </g>
     <g id="text_27">
      <!-- 20 -->
      <g transform="translate(555.478125 263.682336) scale(0.1 -0.1)">
       <use xlink:href="#DejaVuSans-32"/>
       <use xlink:href="#DejaVuSans-30" x="63.623047"/>
      </g>
     </g>
    </g>
    <g id="ytick_9">
     <g id="line2d_24">
      <g>
       <use xlink:href="#m3c4938c56f" x="575.203125" y="214.448052" style="stroke: #000000; stroke-width: 0.8"/>
      </g>
     </g>
     <g id="text_28">
      <!-- 25 -->
      <g transform="translate(555.478125 218.247271) scale(0.1 -0.1)">
       <use xlink:href="#DejaVuSans-32"/>
       <use xlink:href="#DejaVuSans-35" x="63.623047"/>
      </g>
     </g>
    </g>
    <g id="ytick_10">
     <g id="line2d_25">
      <g>
       <use xlink:href="#m3c4938c56f" x="575.203125" y="169.012987" style="stroke: #000000; stroke-width: 0.8"/>
      </g>
     </g>
     <g id="text_29">
      <!-- 30 -->
      <g transform="translate(555.478125 172.812206) scale(0.1 -0.1)">
       <use xlink:href="#DejaVuSans-33"/>
       <use xlink:href="#DejaVuSans-30" x="63.623047"/>
      </g>
     </g>
    </g>
    <g id="ytick_11">
     <g id="line2d_26">
      <g>
       <use xlink:href="#m3c4938c56f" x="575.203125" y="123.577922" style="stroke: #000000; stroke-width: 0.8"/>
      </g>
     </g>
     <g id="text_30">
      <!-- 35 -->
      <g transform="translate(555.478125 127.377141) scale(0.1 -0.1)">
       <use xlink:href="#DejaVuSans-33"/>
       <use xlink:href="#DejaVuSans-35" x="63.623047"/>
      </g>
     </g>
    </g>
    <g id="ytick_12">
     <g id="line2d_27">
      <g>
       <use xlink:href="#m3c4938c56f" x="575.203125" y="78.142857" style="stroke: #000000; stroke-width: 0.8"/>
      </g>
     </g>
     <g id="text_31">
      <!-- 40 -->
      <g transform="translate(555.478125 81.942076) scale(0.1 -0.1)">
       <use xlink:href="#DejaVuSans-34"/>
       <use xlink:href="#DejaVuSans-30" x="63.623047"/>
      </g>
     </g>
    </g>
    <g id="text_32">
     <!-- In-Situ Chl-a -->
     <g transform="translate(549.398438 208.746094) rotate(-90) scale(0.1 -0.1)">
      <use xlink:href="#DejaVuSans-49"/>
      <use xlink:href="#DejaVuSans-6e" x="29.492188"/>
      <use xlink:href="#DejaVuSans-2d" x="92.871094"/>
      <use xlink:href="#DejaVuSans-53" x="128.955078"/>
      <use xlink:href="#DejaVuSans-69" x="192.431641"/>
      <use xlink:href="#DejaVuSans-74" x="220.214844"/>
      <use xlink:href="#DejaVuSans-75" x="259.423828"/>
      <use xlink:href="#DejaVuSans-20" x="322.802734"/>
      <use xlink:href="#DejaVuSans-43" x="354.589844"/>
      <use xlink:href="#DejaVuSans-68" x="424.414062"/>
      <use xlink:href="#DejaVuSans-6c" x="487.792969"/>
      <use xlink:href="#DejaVuSans-2d" x="515.576172"/>
      <use xlink:href="#DejaVuSans-61" x="551.660156"/>
     </g>
    </g>
   </g>
   <g id="line2d_28">
    <path d="M 597.473125 122.202978 
L 601.972115 123.081506 
L 606.471105 123.960035 
L 610.970095 124.838563 
L 615.469085 125.717092 
L 619.968074 126.59562 
L 624.467064 127.474148 
L 628.966054 128.352677 
L 633.465044 129.231205 
L 637.964034 130.109734 
L 642.463024 130.988262 
L 646.962014 131.86679 
L 651.461004 132.745319 
L 655.959994 133.623847 
L 660.458984 134.502376 
L 664.957973 135.380904 
L 669.456963 136.259432 
L 673.955953 137.137961 
L 678.454943 138.016489 
L 682.953933 138.895018 
L 687.452923 139.773546 
L 691.951913 140.652074 
L 696.450903 141.530603 
L 700.949893 142.409131 
L 705.448883 143.28766 
L 709.947872 144.166188 
L 714.446862 145.044716 
L 718.945852 145.923245 
L 723.444842 146.801773 
L 727.943832 147.680301 
L 732.442822 148.55883 
L 736.941812 149.437358 
L 741.440802 150.315887 
L 745.939792 151.194415 
L 750.438782 152.072943 
L 754.937771 152.951472 
L 759.436761 153.83 
L 763.935751 154.708529 
L 768.434741 155.587057 
L 772.933731 156.465585 
L 777.432721 157.344114 
L 781.931711 158.222642 
L 786.430701 159.101171 
L 790.929691 159.979699 
L 795.428681 160.858227 
L 799.92767 161.736756 
L 804.42666 162.615284 
L 808.92565 163.493813 
L 813.42464 164.372341 
L 817.92363 165.250869 
L 822.42262 166.129398 
L 826.92161 167.007926 
L 831.4206 167.886455 
L 835.91959 168.764983 
L 840.41858 169.643511 
L 844.917569 170.52204 
L 849.416559 171.400568 
L 853.915549 172.279097 
L 858.414539 173.157625 
L 862.913529 174.036153 
L 867.412519 174.914682 
L 871.911509 175.79321 
L 876.410499 176.671739 
L 880.909489 177.550267 
L 885.408479 178.428795 
L 889.907468 179.307324 
L 894.406458 180.185852 
L 898.905448 181.064381 
L 903.404438 181.942909 
L 907.903428 182.821437 
L 912.402418 183.699966 
L 916.901408 184.578494 
L 921.400398 185.457022 
L 925.899388 186.335551 
L 930.398378 187.214079 
L 934.897367 188.092608 
L 939.396357 188.971136 
L 943.895347 189.849664 
L 948.394337 190.728193 
L 952.893327 191.606721 
L 957.392317 192.48525 
L 961.891307 193.363778 
L 966.390297 194.242306 
L 970.889287 195.120835 
L 975.388277 195.999363 
L 979.887266 196.877892 
L 984.386256 197.75642 
L 988.885246 198.634948 
L 993.384236 199.513477 
L 997.883226 200.392005 
L 1002.382216 201.270534 
L 1006.881206 202.149062 
L 1011.380196 203.02759 
L 1015.879186 203.906119 
L 1020.378176 204.784647 
L 1024.877165 205.663176 
L 1029.376155 206.541704 
L 1033.875145 207.420232 
L 1038.374135 208.298761 
L 1042.873125 209.177289 
" clip-path="url(#p5df5499e73)" style="fill: none; stroke: #1f77b4; stroke-width: 2.25; stroke-linecap: square"/>
   </g>
   <g id="patch_8">
    <path d="M 575.203125 318.04 
L 575.203125 38.16 
" style="fill: none; stroke: #000000; stroke-width: 0.8; stroke-linejoin: miter; stroke-linecap: square"/>
   </g>
   <g id="patch_9">
    <path d="M 1065.143125 318.04 
L 1065.143125 38.16 
" style="fill: none; stroke: #000000; stroke-width: 0.8; stroke-linejoin: miter; stroke-linecap: square"/>
   </g>
   <g id="patch_10">
    <path d="M 575.203125 318.04 
L 1065.143125 318.04 
" style="fill: none; stroke: #000000; stroke-width: 0.8; stroke-linejoin: miter; stroke-linecap: square"/>
   </g>
   <g id="patch_11">
    <path d="M 575.203125 38.16 
L 1065.143125 38.16 
" style="fill: none; stroke: #000000; stroke-width: 0.8; stroke-linejoin: miter; stroke-linecap: square"/>
   </g>
   <g id="text_33">
    <!-- $R^2 =  0.065$ -->
    <g transform="translate(599.700125 62.791812) scale(0.14 -0.14)">
     <use xlink:href="#DejaVuSans-Oblique-52" transform="translate(0 0.765625)"/>
     <use xlink:href="#DejaVuSans-32" transform="translate(76.499193 39.046875) scale(0.7)"/>
     <use xlink:href="#DejaVuSans-3d" transform="translate(143.252122 0.765625)"/>
     <use xlink:href="#DejaVuSans-30" transform="translate(246.523607 0.765625)"/>
     <use xlink:href="#DejaVuSans-2e" transform="translate(310.146654 0.765625)"/>
     <use xlink:href="#DejaVuSans-30" transform="translate(341.933763 0.765625)"/>
     <use xlink:href="#DejaVuSans-36" transform="translate(405.55681 0.765625)"/>
     <use xlink:href="#DejaVuSans-35" transform="translate(469.179857 0.765625)"/>
    </g>
   </g>
   <g id="text_34">
    <!-- $p =  0.199$ -->
    <g transform="translate(599.700125 82.354975) scale(0.14 -0.14)">
     <use xlink:href="#DejaVuSans-Oblique-70" transform="translate(0 0.78125)"/>
     <use xlink:href="#DejaVuSans-3d" transform="translate(82.958984 0.78125)"/>
     <use xlink:href="#DejaVuSans-30" transform="translate(186.230469 0.78125)"/>
     <use xlink:href="#DejaVuSans-2e" transform="translate(249.853516 0.78125)"/>
     <use xlink:href="#DejaVuSans-31" transform="translate(281.640625 0.78125)"/>
     <use xlink:href="#DejaVuSans-39" transform="translate(345.263672 0.78125)"/>
     <use xlink:href="#DejaVuSans-39" transform="translate(408.886719 0.78125)"/>
    </g>
   </g>
  </g>
  <g id="text_35">
   <!-- PlanetScope NDCI Pixel Correlation -->
   <g transform="translate(376.784375 19.3575) scale(0.16 -0.16)">
    <defs>
     <path id="DejaVuSans-Bold-50" d="M 588 4666 
L 2584 4666 
Q 3475 4666 3951 4270 
Q 4428 3875 4428 3144 
Q 4428 2409 3951 2014 
Q 3475 1619 2584 1619 
L 1791 1619 
L 1791 0 
L 588 0 
L 588 4666 
z
M 1791 3794 
L 1791 2491 
L 2456 2491 
Q 2806 2491 2997 2661 
Q 3188 2831 3188 3144 
Q 3188 3456 2997 3625 
Q 2806 3794 2456 3794 
L 1791 3794 
z
" transform="scale(0.015625)"/>
     <path id="DejaVuSans-Bold-6c" d="M 538 4863 
L 1656 4863 
L 1656 0 
L 538 0 
L 538 4863 
z
" transform="scale(0.015625)"/>
     <path id="DejaVuSans-Bold-61" d="M 2106 1575 
Q 1756 1575 1579 1456 
Q 1403 1338 1403 1106 
Q 1403 894 1545 773 
Q 1688 653 1941 653 
Q 2256 653 2472 879 
Q 2688 1106 2688 1447 
L 2688 1575 
L 2106 1575 
z
M 3816 1997 
L 3816 0 
L 2688 0 
L 2688 519 
Q 2463 200 2181 54 
Q 1900 -91 1497 -91 
Q 953 -91 614 226 
Q 275 544 275 1050 
Q 275 1666 698 1953 
Q 1122 2241 2028 2241 
L 2688 2241 
L 2688 2328 
Q 2688 2594 2478 2717 
Q 2269 2841 1825 2841 
Q 1466 2841 1156 2769 
Q 847 2697 581 2553 
L 581 3406 
Q 941 3494 1303 3539 
Q 1666 3584 2028 3584 
Q 2975 3584 3395 3211 
Q 3816 2838 3816 1997 
z
" transform="scale(0.015625)"/>
     <path id="DejaVuSans-Bold-6e" d="M 4056 2131 
L 4056 0 
L 2931 0 
L 2931 347 
L 2931 1631 
Q 2931 2084 2911 2256 
Q 2891 2428 2841 2509 
Q 2775 2619 2662 2680 
Q 2550 2741 2406 2741 
Q 2056 2741 1856 2470 
Q 1656 2200 1656 1722 
L 1656 0 
L 538 0 
L 538 3500 
L 1656 3500 
L 1656 2988 
Q 1909 3294 2193 3439 
Q 2478 3584 2822 3584 
Q 3428 3584 3742 3212 
Q 4056 2841 4056 2131 
z
" transform="scale(0.015625)"/>
     <path id="DejaVuSans-Bold-65" d="M 4031 1759 
L 4031 1441 
L 1416 1441 
Q 1456 1047 1700 850 
Q 1944 653 2381 653 
Q 2734 653 3104 758 
Q 3475 863 3866 1075 
L 3866 213 
Q 3469 63 3072 -14 
Q 2675 -91 2278 -91 
Q 1328 -91 801 392 
Q 275 875 275 1747 
Q 275 2603 792 3093 
Q 1309 3584 2216 3584 
Q 3041 3584 3536 3087 
Q 4031 2591 4031 1759 
z
M 2881 2131 
Q 2881 2450 2695 2645 
Q 2509 2841 2209 2841 
Q 1884 2841 1681 2658 
Q 1478 2475 1428 2131 
L 2881 2131 
z
" transform="scale(0.015625)"/>
     <path id="DejaVuSans-Bold-74" d="M 1759 4494 
L 1759 3500 
L 2913 3500 
L 2913 2700 
L 1759 2700 
L 1759 1216 
Q 1759 972 1856 886 
Q 1953 800 2241 800 
L 2816 800 
L 2816 0 
L 1856 0 
Q 1194 0 917 276 
Q 641 553 641 1216 
L 641 2700 
L 84 2700 
L 84 3500 
L 641 3500 
L 641 4494 
L 1759 4494 
z
" transform="scale(0.015625)"/>
     <path id="DejaVuSans-Bold-53" d="M 3834 4519 
L 3834 3531 
Q 3450 3703 3084 3790 
Q 2719 3878 2394 3878 
Q 1963 3878 1756 3759 
Q 1550 3641 1550 3391 
Q 1550 3203 1689 3098 
Q 1828 2994 2194 2919 
L 2706 2816 
Q 3484 2659 3812 2340 
Q 4141 2022 4141 1434 
Q 4141 663 3683 286 
Q 3225 -91 2284 -91 
Q 1841 -91 1394 -6 
Q 947 78 500 244 
L 500 1259 
Q 947 1022 1364 901 
Q 1781 781 2169 781 
Q 2563 781 2772 912 
Q 2981 1044 2981 1288 
Q 2981 1506 2839 1625 
Q 2697 1744 2272 1838 
L 1806 1941 
Q 1106 2091 782 2419 
Q 459 2747 459 3303 
Q 459 4000 909 4375 
Q 1359 4750 2203 4750 
Q 2588 4750 2994 4692 
Q 3400 4634 3834 4519 
z
" transform="scale(0.015625)"/>
     <path id="DejaVuSans-Bold-63" d="M 3366 3391 
L 3366 2478 
Q 3138 2634 2908 2709 
Q 2678 2784 2431 2784 
Q 1963 2784 1702 2511 
Q 1441 2238 1441 1747 
Q 1441 1256 1702 982 
Q 1963 709 2431 709 
Q 2694 709 2930 787 
Q 3166 866 3366 1019 
L 3366 103 
Q 3103 6 2833 -42 
Q 2563 -91 2291 -91 
Q 1344 -91 809 395 
Q 275 881 275 1747 
Q 275 2613 809 3098 
Q 1344 3584 2291 3584 
Q 2566 3584 2833 3536 
Q 3100 3488 3366 3391 
z
" transform="scale(0.015625)"/>
     <path id="DejaVuSans-Bold-6f" d="M 2203 2784 
Q 1831 2784 1636 2517 
Q 1441 2250 1441 1747 
Q 1441 1244 1636 976 
Q 1831 709 2203 709 
Q 2569 709 2762 976 
Q 2956 1244 2956 1747 
Q 2956 2250 2762 2517 
Q 2569 2784 2203 2784 
z
M 2203 3584 
Q 3106 3584 3614 3096 
Q 4122 2609 4122 1747 
Q 4122 884 3614 396 
Q 3106 -91 2203 -91 
Q 1297 -91 786 396 
Q 275 884 275 1747 
Q 275 2609 786 3096 
Q 1297 3584 2203 3584 
z
" transform="scale(0.015625)"/>
     <path id="DejaVuSans-Bold-70" d="M 1656 506 
L 1656 -1331 
L 538 -1331 
L 538 3500 
L 1656 3500 
L 1656 2988 
Q 1888 3294 2169 3439 
Q 2450 3584 2816 3584 
Q 3463 3584 3878 3070 
Q 4294 2556 4294 1747 
Q 4294 938 3878 423 
Q 3463 -91 2816 -91 
Q 2450 -91 2169 54 
Q 1888 200 1656 506 
z
M 2400 2772 
Q 2041 2772 1848 2508 
Q 1656 2244 1656 1747 
Q 1656 1250 1848 986 
Q 2041 722 2400 722 
Q 2759 722 2948 984 
Q 3138 1247 3138 1747 
Q 3138 2247 2948 2509 
Q 2759 2772 2400 2772 
z
" transform="scale(0.015625)"/>
     <path id="DejaVuSans-Bold-20" transform="scale(0.015625)"/>
     <path id="DejaVuSans-Bold-4e" d="M 588 4666 
L 1931 4666 
L 3628 1466 
L 3628 4666 
L 4769 4666 
L 4769 0 
L 3425 0 
L 1728 3200 
L 1728 0 
L 588 0 
L 588 4666 
z
" transform="scale(0.015625)"/>
     <path id="DejaVuSans-Bold-44" d="M 1791 3756 
L 1791 909 
L 2222 909 
Q 2959 909 3348 1275 
Q 3738 1641 3738 2338 
Q 3738 3031 3350 3393 
Q 2963 3756 2222 3756 
L 1791 3756 
z
M 588 4666 
L 1856 4666 
Q 2919 4666 3439 4514 
Q 3959 4363 4331 4000 
Q 4659 3684 4818 3271 
Q 4978 2859 4978 2338 
Q 4978 1809 4818 1395 
Q 4659 981 4331 666 
Q 3956 303 3431 151 
Q 2906 0 1856 0 
L 588 0 
L 588 4666 
z
" transform="scale(0.015625)"/>
     <path id="DejaVuSans-Bold-43" d="M 4288 256 
Q 3956 84 3597 -3 
Q 3238 -91 2847 -91 
Q 1681 -91 1000 561 
Q 319 1213 319 2328 
Q 319 3447 1000 4098 
Q 1681 4750 2847 4750 
Q 3238 4750 3597 4662 
Q 3956 4575 4288 4403 
L 4288 3438 
Q 3953 3666 3628 3772 
Q 3303 3878 2944 3878 
Q 2300 3878 1931 3465 
Q 1563 3053 1563 2328 
Q 1563 1606 1931 1193 
Q 2300 781 2944 781 
Q 3303 781 3628 887 
Q 3953 994 4288 1222 
L 4288 256 
z
" transform="scale(0.015625)"/>
     <path id="DejaVuSans-Bold-49" d="M 588 4666 
L 1791 4666 
L 1791 0 
L 588 0 
L 588 4666 
z
" transform="scale(0.015625)"/>
     <path id="DejaVuSans-Bold-69" d="M 538 3500 
L 1656 3500 
L 1656 0 
L 538 0 
L 538 3500 
z
M 538 4863 
L 1656 4863 
L 1656 3950 
L 538 3950 
L 538 4863 
z
" transform="scale(0.015625)"/>
     <path id="DejaVuSans-Bold-78" d="M 1422 1791 
L 159 3500 
L 1344 3500 
L 2059 2463 
L 2784 3500 
L 3969 3500 
L 2706 1797 
L 4031 0 
L 2847 0 
L 2059 1106 
L 1281 0 
L 97 0 
L 1422 1791 
z
" transform="scale(0.015625)"/>
     <path id="DejaVuSans-Bold-72" d="M 3138 2547 
Q 2991 2616 2845 2648 
Q 2700 2681 2553 2681 
Q 2122 2681 1889 2404 
Q 1656 2128 1656 1613 
L 1656 0 
L 538 0 
L 538 3500 
L 1656 3500 
L 1656 2925 
Q 1872 3269 2151 3426 
Q 2431 3584 2822 3584 
Q 2878 3584 2943 3579 
Q 3009 3575 3134 3559 
L 3138 2547 
z
" transform="scale(0.015625)"/>
    </defs>
    <use xlink:href="#DejaVuSans-Bold-50"/>
    <use xlink:href="#DejaVuSans-Bold-6c" x="73.291016"/>
    <use xlink:href="#DejaVuSans-Bold-61" x="107.568359"/>
    <use xlink:href="#DejaVuSans-Bold-6e" x="175.048828"/>
    <use xlink:href="#DejaVuSans-Bold-65" x="246.240234"/>
    <use xlink:href="#DejaVuSans-Bold-74" x="314.0625"/>
    <use xlink:href="#DejaVuSans-Bold-53" x="361.865234"/>
    <use xlink:href="#DejaVuSans-Bold-63" x="433.886719"/>
    <use xlink:href="#DejaVuSans-Bold-6f" x="493.164062"/>
    <use xlink:href="#DejaVuSans-Bold-70" x="561.865234"/>
    <use xlink:href="#DejaVuSans-Bold-65" x="633.447266"/>
    <use xlink:href="#DejaVuSans-Bold-20" x="701.269531"/>
    <use xlink:href="#DejaVuSans-Bold-4e" x="736.083984"/>
    <use xlink:href="#DejaVuSans-Bold-44" x="819.775391"/>
    <use xlink:href="#DejaVuSans-Bold-43" x="902.783203"/>
    <use xlink:href="#DejaVuSans-Bold-49" x="976.171875"/>
    <use xlink:href="#DejaVuSans-Bold-20" x="1013.378906"/>
    <use xlink:href="#DejaVuSans-Bold-50" x="1048.193359"/>
    <use xlink:href="#DejaVuSans-Bold-69" x="1121.484375"/>
    <use xlink:href="#DejaVuSans-Bold-78" x="1155.761719"/>
    <use xlink:href="#DejaVuSans-Bold-65" x="1220.263672"/>
    <use xlink:href="#DejaVuSans-Bold-6c" x="1288.085938"/>
    <use xlink:href="#DejaVuSans-Bold-20" x="1322.363281"/>
    <use xlink:href="#DejaVuSans-Bold-43" x="1357.177734"/>
    <use xlink:href="#DejaVuSans-Bold-6f" x="1430.566406"/>
    <use xlink:href="#DejaVuSans-Bold-72" x="1499.267578"/>
    <use xlink:href="#DejaVuSans-Bold-72" x="1548.583984"/>
    <use xlink:href="#DejaVuSans-Bold-65" x="1597.900391"/>
    <use xlink:href="#DejaVuSans-Bold-6c" x="1665.722656"/>
    <use xlink:href="#DejaVuSans-Bold-61" x="1700"/>
    <use xlink:href="#DejaVuSans-Bold-74" x="1767.480469"/>
    <use xlink:href="#DejaVuSans-Bold-69" x="1815.283203"/>
    <use xlink:href="#DejaVuSans-Bold-6f" x="1849.560547"/>
    <use xlink:href="#DejaVuSans-Bold-6e" x="1918.261719"/>
   </g>
  </g>
 </g>
 <defs>
  <clipPath id="p6bcf8ea16d">
   <rect x="40.603125" y="38.16" width="489.94" height="279.88"/>
  </clipPath>
  <clipPath id="p5df5499e73">
   <rect x="575.203125" y="38.16" width="489.94" height="279.88"/>
  </clipPath>
 </defs>
</svg>
