<?xml version="1.0" encoding="utf-8" standalone="no"?>
<!DOCTYPE svg PUBLIC "-//W3C//DTD SVG 1.1//EN"
  "http://www.w3.org/Graphics/SVG/1.1/DTD/svg11.dtd">
<svg xmlns:xlink="http://www.w3.org/1999/xlink" width="1072.343125pt" height="355.59625pt" viewBox="0 0 1072.343125 355.59625" xmlns="http://www.w3.org/2000/svg" version="1.1">
 <metadata>
  <rdf:RDF xmlns:dc="http://purl.org/dc/elements/1.1/" xmlns:cc="http://creativecommons.org/ns#" xmlns:rdf="http://www.w3.org/1999/02/22-rdf-syntax-ns#">
   <cc:Work>
    <dc:type rdf:resource="http://purl.org/dc/dcmitype/StillImage"/>
    <dc:date>2024-04-20T17:07:57.660490</dc:date>
    <dc:format>image/svg+xml</dc:format>
    <dc:creator>
     <cc:Agent>
      <dc:title>Matplotlib v3.7.0, https://matplotlib.org/</dc:title>
     </cc:Agent>
    </dc:creator>
   </cc:Work>
  </rdf:RDF>
 </metadata>
 <defs>
  <style type="text/css">*{stroke-linejoin: round; stroke-linecap: butt}</style>
 </defs>
 <g id="figure_1">
  <g id="patch_1">
   <path d="M 0 355.59625 
L 1072.343125 355.59625 
L 1072.343125 0 
L 0 0 
z
" style="fill: #ffffff"/>
  </g>
  <g id="axes_1">
   <g id="patch_2">
    <path d="M 40.603125 318.04 
L 530.543125 318.04 
L 530.543125 38.209655 
L 40.603125 38.209655 
z
" style="fill: #ffffff"/>
   </g>
   <g id="PathCollection_1">
    <defs>
     <path id="m698e169ff9" d="M 0 3 
C 0.795609 3 1.55874 2.683901 2.12132 2.12132 
C 2.683901 1.55874 3 0.795609 3 0 
C 3 -0.795609 2.683901 -1.55874 2.12132 -2.12132 
C 1.55874 -2.683901 0.795609 -3 0 -3 
C -0.795609 -3 -1.55874 -2.683901 -2.12132 -2.12132 
C -2.683901 -1.55874 -3 -0.795609 -3 0 
C -3 0.795609 -2.683901 1.55874 -2.12132 2.12132 
C -1.55874 2.683901 -0.795609 3 0 3 
z
" style="stroke: #1f77b4; stroke-opacity: 0.8"/>
    </defs>
    <g clip-path="url(#p351934f151)">
     <use xlink:href="#m698e169ff9" x="183.286497" y="138.650328" style="fill: #1f77b4; fill-opacity: 0.8; stroke: #1f77b4; stroke-opacity: 0.8"/>
     <use xlink:href="#m698e169ff9" x="135.380102" y="182.510883" style="fill: #1f77b4; fill-opacity: 0.8; stroke: #1f77b4; stroke-opacity: 0.8"/>
     <use xlink:href="#m698e169ff9" x="197.528939" y="86.017661" style="fill: #1f77b4; fill-opacity: 0.8; stroke: #1f77b4; stroke-opacity: 0.8"/>
     <use xlink:href="#m698e169ff9" x="188.465567" y="217.599328" style="fill: #1f77b4; fill-opacity: 0.8; stroke: #1f77b4; stroke-opacity: 0.8"/>
     <use xlink:href="#m698e169ff9" x="187.170799" y="121.106105" style="fill: #1f77b4; fill-opacity: 0.8; stroke: #1f77b4; stroke-opacity: 0.8"/>
     <use xlink:href="#m698e169ff9" x="62.873125" y="235.14355" style="fill: #1f77b4; fill-opacity: 0.8; stroke: #1f77b4; stroke-opacity: 0.8"/>
     <use xlink:href="#m698e169ff9" x="109.484753" y="252.687772" style="fill: #1f77b4; fill-opacity: 0.8; stroke: #1f77b4; stroke-opacity: 0.8"/>
     <use xlink:href="#m698e169ff9" x="192.349869" y="164.966661" style="fill: #1f77b4; fill-opacity: 0.8; stroke: #1f77b4; stroke-opacity: 0.8"/>
     <use xlink:href="#m698e169ff9" x="204.002776" y="243.915661" style="fill: #1f77b4; fill-opacity: 0.8; stroke: #1f77b4; stroke-opacity: 0.8"/>
     <use xlink:href="#m698e169ff9" x="268.741148" y="112.333994" style="fill: #1f77b4; fill-opacity: 0.8; stroke: #1f77b4; stroke-opacity: 0.8"/>
     <use xlink:href="#m698e169ff9" x="251.909172" y="173.738772" style="fill: #1f77b4; fill-opacity: 0.8; stroke: #1f77b4; stroke-opacity: 0.8"/>
     <use xlink:href="#m698e169ff9" x="253.203939" y="252.687772" style="fill: #1f77b4; fill-opacity: 0.8; stroke: #1f77b4; stroke-opacity: 0.8"/>
     <use xlink:href="#m698e169ff9" x="156.096381" y="235.14355" style="fill: #1f77b4; fill-opacity: 0.8; stroke: #1f77b4; stroke-opacity: 0.8"/>
     <use xlink:href="#m698e169ff9" x="311.468474" y="243.915661" style="fill: #1f77b4; fill-opacity: 0.8; stroke: #1f77b4; stroke-opacity: 0.8"/>
     <use xlink:href="#m698e169ff9" x="293.34173" y="191.282994" style="fill: #1f77b4; fill-opacity: 0.8; stroke: #1f77b4; stroke-opacity: 0.8"/>
     <use xlink:href="#m698e169ff9" x="356.785334" y="200.055105" style="fill: #1f77b4; fill-opacity: 0.8; stroke: #1f77b4; stroke-opacity: 0.8"/>
     <use xlink:href="#m698e169ff9" x="380.091148" y="147.422439" style="fill: #1f77b4; fill-opacity: 0.8; stroke: #1f77b4; stroke-opacity: 0.8"/>
     <use xlink:href="#m698e169ff9" x="377.501613" y="147.422439" style="fill: #1f77b4; fill-opacity: 0.8; stroke: #1f77b4; stroke-opacity: 0.8"/>
     <use xlink:href="#m698e169ff9" x="360.669637" y="138.650328" style="fill: #1f77b4; fill-opacity: 0.8; stroke: #1f77b4; stroke-opacity: 0.8"/>
     <use xlink:href="#m698e169ff9" x="248.024869" y="156.19455" style="fill: #1f77b4; fill-opacity: 0.8; stroke: #1f77b4; stroke-opacity: 0.8"/>
     <use xlink:href="#m698e169ff9" x="429.292311" y="156.19455" style="fill: #1f77b4; fill-opacity: 0.8; stroke: #1f77b4; stroke-opacity: 0.8"/>
     <use xlink:href="#m698e169ff9" x="508.273125" y="50.929216" style="fill: #1f77b4; fill-opacity: 0.8; stroke: #1f77b4; stroke-opacity: 0.8"/>
     <use xlink:href="#m698e169ff9" x="165.159753" y="305.320439" style="fill: #1f77b4; fill-opacity: 0.8; stroke: #1f77b4; stroke-opacity: 0.8"/>
     <use xlink:href="#m698e169ff9" x="258.383009" y="86.017661" style="fill: #1f77b4; fill-opacity: 0.8; stroke: #1f77b4; stroke-opacity: 0.8"/>
     <use xlink:href="#m698e169ff9" x="487.556846" y="173.738772" style="fill: #1f77b4; fill-opacity: 0.8; stroke: #1f77b4; stroke-opacity: 0.8"/>
     <use xlink:href="#m698e169ff9" x="465.545799" y="191.282994" style="fill: #1f77b4; fill-opacity: 0.8; stroke: #1f77b4; stroke-opacity: 0.8"/>
     <use xlink:href="#m698e169ff9" x="329.595218" y="200.055105" style="fill: #1f77b4; fill-opacity: 0.8; stroke: #1f77b4; stroke-opacity: 0.8"/>
     <use xlink:href="#m698e169ff9" x="360.669637" y="156.19455" style="fill: #1f77b4; fill-opacity: 0.8; stroke: #1f77b4; stroke-opacity: 0.8"/>
     <use xlink:href="#m698e169ff9" x="416.344637" y="164.966661" style="fill: #1f77b4; fill-opacity: 0.8; stroke: #1f77b4; stroke-opacity: 0.8"/>
     <use xlink:href="#m698e169ff9" x="421.523706" y="208.827217" style="fill: #1f77b4; fill-opacity: 0.8; stroke: #1f77b4; stroke-opacity: 0.8"/>
     <use xlink:href="#m698e169ff9" x="429.292311" y="296.548328" style="fill: #1f77b4; fill-opacity: 0.8; stroke: #1f77b4; stroke-opacity: 0.8"/>
     <use xlink:href="#m698e169ff9" x="420.228939" y="182.510883" style="fill: #1f77b4; fill-opacity: 0.8; stroke: #1f77b4; stroke-opacity: 0.8"/>
     <use xlink:href="#m698e169ff9" x="407.281265" y="103.561883" style="fill: #1f77b4; fill-opacity: 0.8; stroke: #1f77b4; stroke-opacity: 0.8"/>
     <use xlink:href="#m698e169ff9" x="361.964404" y="270.231994" style="fill: #1f77b4; fill-opacity: 0.8; stroke: #1f77b4; stroke-opacity: 0.8"/>
     <use xlink:href="#m698e169ff9" x="351.606265" y="226.371439" style="fill: #1f77b4; fill-opacity: 0.8; stroke: #1f77b4; stroke-opacity: 0.8"/>
     <use xlink:href="#m698e169ff9" x="316.647544" y="94.789772" style="fill: #1f77b4; fill-opacity: 0.8; stroke: #1f77b4; stroke-opacity: 0.8"/>
    </g>
   </g>
   <g id="PolyCollection_1">
    <path d="M 62.873125 158.228539 
L 62.873125 250.529234 
L 67.372115 249.31195 
L 71.871105 248.090415 
L 76.370095 246.86888 
L 80.869085 245.788067 
L 85.368074 244.601933 
L 89.867064 243.229168 
L 94.366054 242.095598 
L 98.865044 240.773115 
L 103.364034 239.552364 
L 107.863024 238.336095 
L 112.362014 237.119827 
L 116.861004 235.903558 
L 121.359994 234.949525 
L 125.858984 233.791692 
L 130.357973 232.633859 
L 134.856963 231.467952 
L 139.355953 230.634886 
L 143.854943 229.448461 
L 148.353933 228.200477 
L 152.852923 226.962976 
L 157.351913 225.801136 
L 161.850903 224.753382 
L 166.349893 223.311735 
L 170.848883 222.244383 
L 175.347872 221.285199 
L 179.846862 220.320138 
L 184.345852 219.359271 
L 188.844842 218.37937 
L 193.343832 217.415999 
L 197.842822 216.452629 
L 202.341812 215.516287 
L 206.840802 214.673823 
L 211.339792 213.897358 
L 215.838782 213.190982 
L 220.337771 212.342113 
L 224.836761 211.391177 
L 229.335751 210.584553 
L 233.834741 209.528339 
L 238.333731 208.537359 
L 242.832721 207.601968 
L 247.331711 206.751596 
L 251.830701 205.874326 
L 256.329691 205.075013 
L 260.828681 204.510717 
L 265.32767 203.97187 
L 269.82666 203.266593 
L 274.32565 202.123723 
L 278.82464 201.428632 
L 283.32363 200.81954 
L 287.82262 200.509536 
L 292.32161 200.294175 
L 296.8206 199.770981 
L 301.31959 199.040813 
L 305.81858 198.413468 
L 310.317569 197.872396 
L 314.816559 197.691031 
L 319.315549 197.416508 
L 323.814539 196.870388 
L 328.313529 196.327368 
L 332.812519 196.086796 
L 337.311509 195.974387 
L 341.810499 195.66942 
L 346.309489 194.901227 
L 350.808479 194.706051 
L 355.307468 194.708522 
L 359.806458 194.59364 
L 364.305448 194.708439 
L 368.804438 194.817061 
L 373.303428 194.715041 
L 377.802418 194.644163 
L 382.301408 194.513767 
L 386.800398 194.526699 
L 391.299388 194.390346 
L 395.798378 194.402552 
L 400.297367 194.457775 
L 404.796357 194.580264 
L 409.295347 194.390918 
L 413.794337 194.546262 
L 418.293327 194.460284 
L 422.792317 194.452374 
L 427.291307 194.730377 
L 431.790297 194.737075 
L 436.289287 195.005604 
L 440.788277 195.416791 
L 445.287266 195.53979 
L 449.786256 195.656895 
L 454.285246 195.89148 
L 458.784236 195.884188 
L 463.283226 195.992468 
L 467.782216 196.100747 
L 472.281206 196.179935 
L 476.780196 196.331873 
L 481.279186 196.668445 
L 485.778176 196.915534 
L 490.277165 197.270867 
L 494.776155 197.626298 
L 499.275145 197.98173 
L 503.774135 198.275046 
L 508.273125 198.396363 
L 508.273125 115.339722 
L 508.273125 115.339722 
L 503.774135 116.686022 
L 499.275145 117.709993 
L 494.776155 118.733963 
L 490.277165 119.757933 
L 485.778176 120.781904 
L 481.279186 121.914321 
L 476.780196 123.051781 
L 472.281206 124.193889 
L 467.782216 125.42874 
L 463.283226 126.696777 
L 458.784236 127.964815 
L 454.285246 129.242386 
L 449.786256 130.719319 
L 445.287266 131.758891 
L 440.788277 132.778601 
L 436.289287 133.800587 
L 431.790297 134.825819 
L 427.291307 135.85105 
L 422.792317 136.876281 
L 418.293327 137.901512 
L 413.794337 139.308795 
L 409.295347 140.546977 
L 404.796357 141.486339 
L 400.297367 142.425702 
L 395.798378 143.35615 
L 391.299388 144.492357 
L 386.800398 145.611711 
L 382.301408 146.860809 
L 377.802418 147.873163 
L 373.303428 149.16152 
L 368.804438 150.372314 
L 364.305448 151.476994 
L 359.806458 152.448663 
L 355.307468 153.223647 
L 350.808479 153.844698 
L 346.309489 154.610792 
L 341.810499 155.3329 
L 337.311509 156.358196 
L 332.812519 157.380907 
L 328.313529 157.966379 
L 323.814539 158.756087 
L 319.315549 159.460434 
L 314.816559 160.300082 
L 310.317569 161.106199 
L 305.81858 162.040795 
L 301.31959 162.401073 
L 296.8206 162.534278 
L 292.32161 162.961932 
L 287.82262 163.188225 
L 283.32363 163.70734 
L 278.82464 164.049789 
L 274.32565 164.783673 
L 269.82666 165.221837 
L 265.32767 165.539436 
L 260.828681 165.634686 
L 256.329691 165.57268 
L 251.830701 165.401886 
L 247.331711 165.231092 
L 242.832721 165.435814 
L 238.333731 165.583145 
L 233.834741 165.328663 
L 229.335751 165.387987 
L 224.836761 165.564815 
L 220.337771 165.342654 
L 215.838782 165.220616 
L 211.339792 164.891732 
L 206.840802 164.730284 
L 202.341812 164.486446 
L 197.842822 164.243964 
L 193.343832 164.056054 
L 188.844842 163.982981 
L 184.345852 163.744209 
L 179.846862 163.842227 
L 175.347872 163.697894 
L 170.848883 163.483701 
L 166.349893 163.285372 
L 161.850903 163.02405 
L 157.351913 162.640427 
L 152.852923 162.284382 
L 148.353933 162.157945 
L 143.854943 161.951385 
L 139.355953 161.661137 
L 134.856963 161.701875 
L 130.357973 161.429114 
L 125.858984 161.137889 
L 121.359994 160.461902 
L 116.861004 160.288604 
L 112.362014 160.115306 
L 107.863024 159.942008 
L 103.364034 159.769119 
L 98.865044 159.501245 
L 94.366054 159.231576 
L 89.867064 159.097271 
L 85.368074 159.028007 
L 80.869085 158.916592 
L 76.370095 158.743635 
L 71.871105 158.570678 
L 67.372115 158.399333 
L 62.873125 158.228539 
z
" clip-path="url(#p351934f151)" style="fill: #1f77b4; fill-opacity: 0.15"/>
   </g>
   <g id="matplotlib.axis_1">
    <g id="xtick_1">
     <g id="line2d_1">
      <defs>
       <path id="m12651def81" d="M 0 0 
L 0 3.5 
" style="stroke: #000000; stroke-width: 0.8"/>
      </defs>
      <g>
       <use xlink:href="#m12651def81" x="49.925451" y="318.04" style="stroke: #000000; stroke-width: 0.8"/>
      </g>
     </g>
     <g id="text_1">
      <!-- 2075 -->
      <g transform="translate(37.200451 332.638437) scale(0.1 -0.1)">
       <defs>
        <path id="DejaVuSans-32" d="M 1228 531 
L 3431 531 
L 3431 0 
L 469 0 
L 469 531 
Q 828 903 1448 1529 
Q 2069 2156 2228 2338 
Q 2531 2678 2651 2914 
Q 2772 3150 2772 3378 
Q 2772 3750 2511 3984 
Q 2250 4219 1831 4219 
Q 1534 4219 1204 4116 
Q 875 4013 500 3803 
L 500 4441 
Q 881 4594 1212 4672 
Q 1544 4750 1819 4750 
Q 2544 4750 2975 4387 
Q 3406 4025 3406 3419 
Q 3406 3131 3298 2873 
Q 3191 2616 2906 2266 
Q 2828 2175 2409 1742 
Q 1991 1309 1228 531 
z
" transform="scale(0.015625)"/>
        <path id="DejaVuSans-30" d="M 2034 4250 
Q 1547 4250 1301 3770 
Q 1056 3291 1056 2328 
Q 1056 1369 1301 889 
Q 1547 409 2034 409 
Q 2525 409 2770 889 
Q 3016 1369 3016 2328 
Q 3016 3291 2770 3770 
Q 2525 4250 2034 4250 
z
M 2034 4750 
Q 2819 4750 3233 4129 
Q 3647 3509 3647 2328 
Q 3647 1150 3233 529 
Q 2819 -91 2034 -91 
Q 1250 -91 836 529 
Q 422 1150 422 2328 
Q 422 3509 836 4129 
Q 1250 4750 2034 4750 
z
" transform="scale(0.015625)"/>
        <path id="DejaVuSans-37" d="M 525 4666 
L 3525 4666 
L 3525 4397 
L 1831 0 
L 1172 0 
L 2766 4134 
L 525 4134 
L 525 4666 
z
" transform="scale(0.015625)"/>
        <path id="DejaVuSans-35" d="M 691 4666 
L 3169 4666 
L 3169 4134 
L 1269 4134 
L 1269 2991 
Q 1406 3038 1543 3061 
Q 1681 3084 1819 3084 
Q 2600 3084 3056 2656 
Q 3513 2228 3513 1497 
Q 3513 744 3044 326 
Q 2575 -91 1722 -91 
Q 1428 -91 1123 -41 
Q 819 9 494 109 
L 494 744 
Q 775 591 1075 516 
Q 1375 441 1709 441 
Q 2250 441 2565 725 
Q 2881 1009 2881 1497 
Q 2881 1984 2565 2268 
Q 2250 2553 1709 2553 
Q 1456 2553 1204 2497 
Q 953 2441 691 2322 
L 691 4666 
z
" transform="scale(0.015625)"/>
       </defs>
       <use xlink:href="#DejaVuSans-32"/>
       <use xlink:href="#DejaVuSans-30" x="63.623047"/>
       <use xlink:href="#DejaVuSans-37" x="127.246094"/>
       <use xlink:href="#DejaVuSans-35" x="190.869141"/>
      </g>
     </g>
    </g>
    <g id="xtick_2">
     <g id="line2d_2">
      <g>
       <use xlink:href="#m12651def81" x="114.663823" y="318.04" style="stroke: #000000; stroke-width: 0.8"/>
      </g>
     </g>
     <g id="text_2">
      <!-- 2100 -->
      <g transform="translate(101.938823 332.638437) scale(0.1 -0.1)">
       <defs>
        <path id="DejaVuSans-31" d="M 794 531 
L 1825 531 
L 1825 4091 
L 703 3866 
L 703 4441 
L 1819 4666 
L 2450 4666 
L 2450 531 
L 3481 531 
L 3481 0 
L 794 0 
L 794 531 
z
" transform="scale(0.015625)"/>
       </defs>
       <use xlink:href="#DejaVuSans-32"/>
       <use xlink:href="#DejaVuSans-31" x="63.623047"/>
       <use xlink:href="#DejaVuSans-30" x="127.246094"/>
       <use xlink:href="#DejaVuSans-30" x="190.869141"/>
      </g>
     </g>
    </g>
    <g id="xtick_3">
     <g id="line2d_3">
      <g>
       <use xlink:href="#m12651def81" x="179.402195" y="318.04" style="stroke: #000000; stroke-width: 0.8"/>
      </g>
     </g>
     <g id="text_3">
      <!-- 2125 -->
      <g transform="translate(166.677195 332.638437) scale(0.1 -0.1)">
       <use xlink:href="#DejaVuSans-32"/>
       <use xlink:href="#DejaVuSans-31" x="63.623047"/>
       <use xlink:href="#DejaVuSans-32" x="127.246094"/>
       <use xlink:href="#DejaVuSans-35" x="190.869141"/>
      </g>
     </g>
    </g>
    <g id="xtick_4">
     <g id="line2d_4">
      <g>
       <use xlink:href="#m12651def81" x="244.140567" y="318.04" style="stroke: #000000; stroke-width: 0.8"/>
      </g>
     </g>
     <g id="text_4">
      <!-- 2150 -->
      <g transform="translate(231.415567 332.638437) scale(0.1 -0.1)">
       <use xlink:href="#DejaVuSans-32"/>
       <use xlink:href="#DejaVuSans-31" x="63.623047"/>
       <use xlink:href="#DejaVuSans-35" x="127.246094"/>
       <use xlink:href="#DejaVuSans-30" x="190.869141"/>
      </g>
     </g>
    </g>
    <g id="xtick_5">
     <g id="line2d_5">
      <g>
       <use xlink:href="#m12651def81" x="308.878939" y="318.04" style="stroke: #000000; stroke-width: 0.8"/>
      </g>
     </g>
     <g id="text_5">
      <!-- 2175 -->
      <g transform="translate(296.153939 332.638437) scale(0.1 -0.1)">
       <use xlink:href="#DejaVuSans-32"/>
       <use xlink:href="#DejaVuSans-31" x="63.623047"/>
       <use xlink:href="#DejaVuSans-37" x="127.246094"/>
       <use xlink:href="#DejaVuSans-35" x="190.869141"/>
      </g>
     </g>
    </g>
    <g id="xtick_6">
     <g id="line2d_6">
      <g>
       <use xlink:href="#m12651def81" x="373.617311" y="318.04" style="stroke: #000000; stroke-width: 0.8"/>
      </g>
     </g>
     <g id="text_6">
      <!-- 2200 -->
      <g transform="translate(360.892311 332.638437) scale(0.1 -0.1)">
       <use xlink:href="#DejaVuSans-32"/>
       <use xlink:href="#DejaVuSans-32" x="63.623047"/>
       <use xlink:href="#DejaVuSans-30" x="127.246094"/>
       <use xlink:href="#DejaVuSans-30" x="190.869141"/>
      </g>
     </g>
    </g>
    <g id="xtick_7">
     <g id="line2d_7">
      <g>
       <use xlink:href="#m12651def81" x="438.355683" y="318.04" style="stroke: #000000; stroke-width: 0.8"/>
      </g>
     </g>
     <g id="text_7">
      <!-- 2225 -->
      <g transform="translate(425.630683 332.638437) scale(0.1 -0.1)">
       <use xlink:href="#DejaVuSans-32"/>
       <use xlink:href="#DejaVuSans-32" x="63.623047"/>
       <use xlink:href="#DejaVuSans-32" x="127.246094"/>
       <use xlink:href="#DejaVuSans-35" x="190.869141"/>
      </g>
     </g>
    </g>
    <g id="xtick_8">
     <g id="line2d_8">
      <g>
       <use xlink:href="#m12651def81" x="503.094055" y="318.04" style="stroke: #000000; stroke-width: 0.8"/>
      </g>
     </g>
     <g id="text_8">
      <!-- 2250 -->
      <g transform="translate(490.369055 332.638437) scale(0.1 -0.1)">
       <use xlink:href="#DejaVuSans-32"/>
       <use xlink:href="#DejaVuSans-32" x="63.623047"/>
       <use xlink:href="#DejaVuSans-35" x="127.246094"/>
       <use xlink:href="#DejaVuSans-30" x="190.869141"/>
      </g>
     </g>
    </g>
    <g id="text_9">
     <!-- Closest Pixel OtherI -->
     <g transform="translate(236.977031 346.316562) scale(0.1 -0.1)">
      <defs>
       <path id="DejaVuSans-43" d="M 4122 4306 
L 4122 3641 
Q 3803 3938 3442 4084 
Q 3081 4231 2675 4231 
Q 1875 4231 1450 3742 
Q 1025 3253 1025 2328 
Q 1025 1406 1450 917 
Q 1875 428 2675 428 
Q 3081 428 3442 575 
Q 3803 722 4122 1019 
L 4122 359 
Q 3791 134 3420 21 
Q 3050 -91 2638 -91 
Q 1578 -91 968 557 
Q 359 1206 359 2328 
Q 359 3453 968 4101 
Q 1578 4750 2638 4750 
Q 3056 4750 3426 4639 
Q 3797 4528 4122 4306 
z
" transform="scale(0.015625)"/>
       <path id="DejaVuSans-6c" d="M 603 4863 
L 1178 4863 
L 1178 0 
L 603 0 
L 603 4863 
z
" transform="scale(0.015625)"/>
       <path id="DejaVuSans-6f" d="M 1959 3097 
Q 1497 3097 1228 2736 
Q 959 2375 959 1747 
Q 959 1119 1226 758 
Q 1494 397 1959 397 
Q 2419 397 2687 759 
Q 2956 1122 2956 1747 
Q 2956 2369 2687 2733 
Q 2419 3097 1959 3097 
z
M 1959 3584 
Q 2709 3584 3137 3096 
Q 3566 2609 3566 1747 
Q 3566 888 3137 398 
Q 2709 -91 1959 -91 
Q 1206 -91 779 398 
Q 353 888 353 1747 
Q 353 2609 779 3096 
Q 1206 3584 1959 3584 
z
" transform="scale(0.015625)"/>
       <path id="DejaVuSans-73" d="M 2834 3397 
L 2834 2853 
Q 2591 2978 2328 3040 
Q 2066 3103 1784 3103 
Q 1356 3103 1142 2972 
Q 928 2841 928 2578 
Q 928 2378 1081 2264 
Q 1234 2150 1697 2047 
L 1894 2003 
Q 2506 1872 2764 1633 
Q 3022 1394 3022 966 
Q 3022 478 2636 193 
Q 2250 -91 1575 -91 
Q 1294 -91 989 -36 
Q 684 19 347 128 
L 347 722 
Q 666 556 975 473 
Q 1284 391 1588 391 
Q 1994 391 2212 530 
Q 2431 669 2431 922 
Q 2431 1156 2273 1281 
Q 2116 1406 1581 1522 
L 1381 1569 
Q 847 1681 609 1914 
Q 372 2147 372 2553 
Q 372 3047 722 3315 
Q 1072 3584 1716 3584 
Q 2034 3584 2315 3537 
Q 2597 3491 2834 3397 
z
" transform="scale(0.015625)"/>
       <path id="DejaVuSans-65" d="M 3597 1894 
L 3597 1613 
L 953 1613 
Q 991 1019 1311 708 
Q 1631 397 2203 397 
Q 2534 397 2845 478 
Q 3156 559 3463 722 
L 3463 178 
Q 3153 47 2828 -22 
Q 2503 -91 2169 -91 
Q 1331 -91 842 396 
Q 353 884 353 1716 
Q 353 2575 817 3079 
Q 1281 3584 2069 3584 
Q 2775 3584 3186 3129 
Q 3597 2675 3597 1894 
z
M 3022 2063 
Q 3016 2534 2758 2815 
Q 2500 3097 2075 3097 
Q 1594 3097 1305 2825 
Q 1016 2553 972 2059 
L 3022 2063 
z
" transform="scale(0.015625)"/>
       <path id="DejaVuSans-74" d="M 1172 4494 
L 1172 3500 
L 2356 3500 
L 2356 3053 
L 1172 3053 
L 1172 1153 
Q 1172 725 1289 603 
Q 1406 481 1766 481 
L 2356 481 
L 2356 0 
L 1766 0 
Q 1100 0 847 248 
Q 594 497 594 1153 
L 594 3053 
L 172 3053 
L 172 3500 
L 594 3500 
L 594 4494 
L 1172 4494 
z
" transform="scale(0.015625)"/>
       <path id="DejaVuSans-20" transform="scale(0.015625)"/>
       <path id="DejaVuSans-50" d="M 1259 4147 
L 1259 2394 
L 2053 2394 
Q 2494 2394 2734 2622 
Q 2975 2850 2975 3272 
Q 2975 3691 2734 3919 
Q 2494 4147 2053 4147 
L 1259 4147 
z
M 628 4666 
L 2053 4666 
Q 2838 4666 3239 4311 
Q 3641 3956 3641 3272 
Q 3641 2581 3239 2228 
Q 2838 1875 2053 1875 
L 1259 1875 
L 1259 0 
L 628 0 
L 628 4666 
z
" transform="scale(0.015625)"/>
       <path id="DejaVuSans-69" d="M 603 3500 
L 1178 3500 
L 1178 0 
L 603 0 
L 603 3500 
z
M 603 4863 
L 1178 4863 
L 1178 4134 
L 603 4134 
L 603 4863 
z
" transform="scale(0.015625)"/>
       <path id="DejaVuSans-78" d="M 3513 3500 
L 2247 1797 
L 3578 0 
L 2900 0 
L 1881 1375 
L 863 0 
L 184 0 
L 1544 1831 
L 300 3500 
L 978 3500 
L 1906 2253 
L 2834 3500 
L 3513 3500 
z
" transform="scale(0.015625)"/>
       <path id="DejaVuSans-4f" d="M 2522 4238 
Q 1834 4238 1429 3725 
Q 1025 3213 1025 2328 
Q 1025 1447 1429 934 
Q 1834 422 2522 422 
Q 3209 422 3611 934 
Q 4013 1447 4013 2328 
Q 4013 3213 3611 3725 
Q 3209 4238 2522 4238 
z
M 2522 4750 
Q 3503 4750 4090 4092 
Q 4678 3434 4678 2328 
Q 4678 1225 4090 567 
Q 3503 -91 2522 -91 
Q 1538 -91 948 565 
Q 359 1222 359 2328 
Q 359 3434 948 4092 
Q 1538 4750 2522 4750 
z
" transform="scale(0.015625)"/>
       <path id="DejaVuSans-68" d="M 3513 2113 
L 3513 0 
L 2938 0 
L 2938 2094 
Q 2938 2591 2744 2837 
Q 2550 3084 2163 3084 
Q 1697 3084 1428 2787 
Q 1159 2491 1159 1978 
L 1159 0 
L 581 0 
L 581 4863 
L 1159 4863 
L 1159 2956 
Q 1366 3272 1645 3428 
Q 1925 3584 2291 3584 
Q 2894 3584 3203 3211 
Q 3513 2838 3513 2113 
z
" transform="scale(0.015625)"/>
       <path id="DejaVuSans-72" d="M 2631 2963 
Q 2534 3019 2420 3045 
Q 2306 3072 2169 3072 
Q 1681 3072 1420 2755 
Q 1159 2438 1159 1844 
L 1159 0 
L 581 0 
L 581 3500 
L 1159 3500 
L 1159 2956 
Q 1341 3275 1631 3429 
Q 1922 3584 2338 3584 
Q 2397 3584 2469 3576 
Q 2541 3569 2628 3553 
L 2631 2963 
z
" transform="scale(0.015625)"/>
       <path id="DejaVuSans-49" d="M 628 4666 
L 1259 4666 
L 1259 0 
L 628 0 
L 628 4666 
z
" transform="scale(0.015625)"/>
      </defs>
      <use xlink:href="#DejaVuSans-43"/>
      <use xlink:href="#DejaVuSans-6c" x="69.824219"/>
      <use xlink:href="#DejaVuSans-6f" x="97.607422"/>
      <use xlink:href="#DejaVuSans-73" x="158.789062"/>
      <use xlink:href="#DejaVuSans-65" x="210.888672"/>
      <use xlink:href="#DejaVuSans-73" x="272.412109"/>
      <use xlink:href="#DejaVuSans-74" x="324.511719"/>
      <use xlink:href="#DejaVuSans-20" x="363.720703"/>
      <use xlink:href="#DejaVuSans-50" x="395.507812"/>
      <use xlink:href="#DejaVuSans-69" x="453.560547"/>
      <use xlink:href="#DejaVuSans-78" x="481.34375"/>
      <use xlink:href="#DejaVuSans-65" x="537.398438"/>
      <use xlink:href="#DejaVuSans-6c" x="598.921875"/>
      <use xlink:href="#DejaVuSans-20" x="626.705078"/>
      <use xlink:href="#DejaVuSans-4f" x="658.492188"/>
      <use xlink:href="#DejaVuSans-74" x="737.203125"/>
      <use xlink:href="#DejaVuSans-68" x="776.412109"/>
      <use xlink:href="#DejaVuSans-65" x="839.791016"/>
      <use xlink:href="#DejaVuSans-72" x="901.314453"/>
      <use xlink:href="#DejaVuSans-49" x="942.427734"/>
     </g>
    </g>
   </g>
   <g id="matplotlib.axis_2">
    <g id="ytick_1">
     <g id="line2d_9">
      <defs>
       <path id="ma4fae13b9c" d="M 0 0 
L -3.5 0 
" style="stroke: #000000; stroke-width: 0.8"/>
      </defs>
      <g>
       <use xlink:href="#ma4fae13b9c" x="40.603125" y="305.320439" style="stroke: #000000; stroke-width: 0.8"/>
      </g>
     </g>
     <g id="text_10">
      <!-- 15 -->
      <g transform="translate(20.878125 309.119658) scale(0.1 -0.1)">
       <use xlink:href="#DejaVuSans-31"/>
       <use xlink:href="#DejaVuSans-35" x="63.623047"/>
      </g>
     </g>
    </g>
    <g id="ytick_2">
     <g id="line2d_10">
      <g>
       <use xlink:href="#ma4fae13b9c" x="40.603125" y="261.459883" style="stroke: #000000; stroke-width: 0.8"/>
      </g>
     </g>
     <g id="text_11">
      <!-- 20 -->
      <g transform="translate(20.878125 265.259102) scale(0.1 -0.1)">
       <use xlink:href="#DejaVuSans-32"/>
       <use xlink:href="#DejaVuSans-30" x="63.623047"/>
      </g>
     </g>
    </g>
    <g id="ytick_3">
     <g id="line2d_11">
      <g>
       <use xlink:href="#ma4fae13b9c" x="40.603125" y="217.599328" style="stroke: #000000; stroke-width: 0.8"/>
      </g>
     </g>
     <g id="text_12">
      <!-- 25 -->
      <g transform="translate(20.878125 221.398546) scale(0.1 -0.1)">
       <use xlink:href="#DejaVuSans-32"/>
       <use xlink:href="#DejaVuSans-35" x="63.623047"/>
      </g>
     </g>
    </g>
    <g id="ytick_4">
     <g id="line2d_12">
      <g>
       <use xlink:href="#ma4fae13b9c" x="40.603125" y="173.738772" style="stroke: #000000; stroke-width: 0.8"/>
      </g>
     </g>
     <g id="text_13">
      <!-- 30 -->
      <g transform="translate(20.878125 177.537991) scale(0.1 -0.1)">
       <defs>
        <path id="DejaVuSans-33" d="M 2597 2516 
Q 3050 2419 3304 2112 
Q 3559 1806 3559 1356 
Q 3559 666 3084 287 
Q 2609 -91 1734 -91 
Q 1441 -91 1130 -33 
Q 819 25 488 141 
L 488 750 
Q 750 597 1062 519 
Q 1375 441 1716 441 
Q 2309 441 2620 675 
Q 2931 909 2931 1356 
Q 2931 1769 2642 2001 
Q 2353 2234 1838 2234 
L 1294 2234 
L 1294 2753 
L 1863 2753 
Q 2328 2753 2575 2939 
Q 2822 3125 2822 3475 
Q 2822 3834 2567 4026 
Q 2313 4219 1838 4219 
Q 1578 4219 1281 4162 
Q 984 4106 628 3988 
L 628 4550 
Q 988 4650 1302 4700 
Q 1616 4750 1894 4750 
Q 2613 4750 3031 4423 
Q 3450 4097 3450 3541 
Q 3450 3153 3228 2886 
Q 3006 2619 2597 2516 
z
" transform="scale(0.015625)"/>
       </defs>
       <use xlink:href="#DejaVuSans-33"/>
       <use xlink:href="#DejaVuSans-30" x="63.623047"/>
      </g>
     </g>
    </g>
    <g id="ytick_5">
     <g id="line2d_13">
      <g>
       <use xlink:href="#ma4fae13b9c" x="40.603125" y="129.878216" style="stroke: #000000; stroke-width: 0.8"/>
      </g>
     </g>
     <g id="text_14">
      <!-- 35 -->
      <g transform="translate(20.878125 133.677435) scale(0.1 -0.1)">
       <use xlink:href="#DejaVuSans-33"/>
       <use xlink:href="#DejaVuSans-35" x="63.623047"/>
      </g>
     </g>
    </g>
    <g id="ytick_6">
     <g id="line2d_14">
      <g>
       <use xlink:href="#ma4fae13b9c" x="40.603125" y="86.017661" style="stroke: #000000; stroke-width: 0.8"/>
      </g>
     </g>
     <g id="text_15">
      <!-- 40 -->
      <g transform="translate(20.878125 89.81688) scale(0.1 -0.1)">
       <defs>
        <path id="DejaVuSans-34" d="M 2419 4116 
L 825 1625 
L 2419 1625 
L 2419 4116 
z
M 2253 4666 
L 3047 4666 
L 3047 1625 
L 3713 1625 
L 3713 1100 
L 3047 1100 
L 3047 0 
L 2419 0 
L 2419 1100 
L 313 1100 
L 313 1709 
L 2253 4666 
z
" transform="scale(0.015625)"/>
       </defs>
       <use xlink:href="#DejaVuSans-34"/>
       <use xlink:href="#DejaVuSans-30" x="63.623047"/>
      </g>
     </g>
    </g>
    <g id="ytick_7">
     <g id="line2d_15">
      <g>
       <use xlink:href="#ma4fae13b9c" x="40.603125" y="42.157105" style="stroke: #000000; stroke-width: 0.8"/>
      </g>
     </g>
     <g id="text_16">
      <!-- 45 -->
      <g transform="translate(20.878125 45.956324) scale(0.1 -0.1)">
       <use xlink:href="#DejaVuSans-34"/>
       <use xlink:href="#DejaVuSans-35" x="63.623047"/>
      </g>
     </g>
    </g>
    <g id="text_17">
     <!-- In-Situ Chl-a -->
     <g transform="translate(14.798438 208.770921) rotate(-90) scale(0.1 -0.1)">
      <defs>
       <path id="DejaVuSans-6e" d="M 3513 2113 
L 3513 0 
L 2938 0 
L 2938 2094 
Q 2938 2591 2744 2837 
Q 2550 3084 2163 3084 
Q 1697 3084 1428 2787 
Q 1159 2491 1159 1978 
L 1159 0 
L 581 0 
L 581 3500 
L 1159 3500 
L 1159 2956 
Q 1366 3272 1645 3428 
Q 1925 3584 2291 3584 
Q 2894 3584 3203 3211 
Q 3513 2838 3513 2113 
z
" transform="scale(0.015625)"/>
       <path id="DejaVuSans-2d" d="M 313 2009 
L 1997 2009 
L 1997 1497 
L 313 1497 
L 313 2009 
z
" transform="scale(0.015625)"/>
       <path id="DejaVuSans-53" d="M 3425 4513 
L 3425 3897 
Q 3066 4069 2747 4153 
Q 2428 4238 2131 4238 
Q 1616 4238 1336 4038 
Q 1056 3838 1056 3469 
Q 1056 3159 1242 3001 
Q 1428 2844 1947 2747 
L 2328 2669 
Q 3034 2534 3370 2195 
Q 3706 1856 3706 1288 
Q 3706 609 3251 259 
Q 2797 -91 1919 -91 
Q 1588 -91 1214 -16 
Q 841 59 441 206 
L 441 856 
Q 825 641 1194 531 
Q 1563 422 1919 422 
Q 2459 422 2753 634 
Q 3047 847 3047 1241 
Q 3047 1584 2836 1778 
Q 2625 1972 2144 2069 
L 1759 2144 
Q 1053 2284 737 2584 
Q 422 2884 422 3419 
Q 422 4038 858 4394 
Q 1294 4750 2059 4750 
Q 2388 4750 2728 4690 
Q 3069 4631 3425 4513 
z
" transform="scale(0.015625)"/>
       <path id="DejaVuSans-75" d="M 544 1381 
L 544 3500 
L 1119 3500 
L 1119 1403 
Q 1119 906 1312 657 
Q 1506 409 1894 409 
Q 2359 409 2629 706 
Q 2900 1003 2900 1516 
L 2900 3500 
L 3475 3500 
L 3475 0 
L 2900 0 
L 2900 538 
Q 2691 219 2414 64 
Q 2138 -91 1772 -91 
Q 1169 -91 856 284 
Q 544 659 544 1381 
z
M 1991 3584 
L 1991 3584 
z
" transform="scale(0.015625)"/>
       <path id="DejaVuSans-61" d="M 2194 1759 
Q 1497 1759 1228 1600 
Q 959 1441 959 1056 
Q 959 750 1161 570 
Q 1363 391 1709 391 
Q 2188 391 2477 730 
Q 2766 1069 2766 1631 
L 2766 1759 
L 2194 1759 
z
M 3341 1997 
L 3341 0 
L 2766 0 
L 2766 531 
Q 2569 213 2275 61 
Q 1981 -91 1556 -91 
Q 1019 -91 701 211 
Q 384 513 384 1019 
Q 384 1609 779 1909 
Q 1175 2209 1959 2209 
L 2766 2209 
L 2766 2266 
Q 2766 2663 2505 2880 
Q 2244 3097 1772 3097 
Q 1472 3097 1187 3025 
Q 903 2953 641 2809 
L 641 3341 
Q 956 3463 1253 3523 
Q 1550 3584 1831 3584 
Q 2591 3584 2966 3190 
Q 3341 2797 3341 1997 
z
" transform="scale(0.015625)"/>
      </defs>
      <use xlink:href="#DejaVuSans-49"/>
      <use xlink:href="#DejaVuSans-6e" x="29.492188"/>
      <use xlink:href="#DejaVuSans-2d" x="92.871094"/>
      <use xlink:href="#DejaVuSans-53" x="128.955078"/>
      <use xlink:href="#DejaVuSans-69" x="192.431641"/>
      <use xlink:href="#DejaVuSans-74" x="220.214844"/>
      <use xlink:href="#DejaVuSans-75" x="259.423828"/>
      <use xlink:href="#DejaVuSans-20" x="322.802734"/>
      <use xlink:href="#DejaVuSans-43" x="354.589844"/>
      <use xlink:href="#DejaVuSans-68" x="424.414062"/>
      <use xlink:href="#DejaVuSans-6c" x="487.792969"/>
      <use xlink:href="#DejaVuSans-2d" x="515.576172"/>
      <use xlink:href="#DejaVuSans-61" x="551.660156"/>
     </g>
    </g>
   </g>
   <g id="line2d_16">
    <path d="M 62.873125 209.714716 
L 67.372115 209.169268 
L 71.871105 208.623821 
L 76.370095 208.078373 
L 80.869085 207.532925 
L 85.368074 206.987478 
L 89.867064 206.44203 
L 94.366054 205.896582 
L 98.865044 205.351134 
L 103.364034 204.805687 
L 107.863024 204.260239 
L 112.362014 203.714791 
L 116.861004 203.169344 
L 121.359994 202.623896 
L 125.858984 202.078448 
L 130.357973 201.533001 
L 134.856963 200.987553 
L 139.355953 200.442105 
L 143.854943 199.896657 
L 148.353933 199.35121 
L 152.852923 198.805762 
L 157.351913 198.260314 
L 161.850903 197.714867 
L 166.349893 197.169419 
L 170.848883 196.623971 
L 175.347872 196.078523 
L 179.846862 195.533076 
L 184.345852 194.987628 
L 188.844842 194.44218 
L 193.343832 193.896733 
L 197.842822 193.351285 
L 202.341812 192.805837 
L 206.840802 192.26039 
L 211.339792 191.714942 
L 215.838782 191.169494 
L 220.337771 190.624046 
L 224.836761 190.078599 
L 229.335751 189.533151 
L 233.834741 188.987703 
L 238.333731 188.442256 
L 242.832721 187.896808 
L 247.331711 187.35136 
L 251.830701 186.805912 
L 256.329691 186.260465 
L 260.828681 185.715017 
L 265.32767 185.169569 
L 269.82666 184.624122 
L 274.32565 184.078674 
L 278.82464 183.533226 
L 283.32363 182.987779 
L 287.82262 182.442331 
L 292.32161 181.896883 
L 296.8206 181.351435 
L 301.31959 180.805988 
L 305.81858 180.26054 
L 310.317569 179.715092 
L 314.816559 179.169645 
L 319.315549 178.624197 
L 323.814539 178.078749 
L 328.313529 177.533301 
L 332.812519 176.987854 
L 337.311509 176.442406 
L 341.810499 175.896958 
L 346.309489 175.351511 
L 350.808479 174.806063 
L 355.307468 174.260615 
L 359.806458 173.715167 
L 364.305448 173.16972 
L 368.804438 172.624272 
L 373.303428 172.078824 
L 377.802418 171.533377 
L 382.301408 170.987929 
L 386.800398 170.442481 
L 391.299388 169.897034 
L 395.798378 169.351586 
L 400.297367 168.806138 
L 404.796357 168.26069 
L 409.295347 167.715243 
L 413.794337 167.169795 
L 418.293327 166.624347 
L 422.792317 166.0789 
L 427.291307 165.533452 
L 431.790297 164.988004 
L 436.289287 164.442556 
L 440.788277 163.897109 
L 445.287266 163.351661 
L 449.786256 162.806213 
L 454.285246 162.260766 
L 458.784236 161.715318 
L 463.283226 161.16987 
L 467.782216 160.624423 
L 472.281206 160.078975 
L 476.780196 159.533527 
L 481.279186 158.988079 
L 485.778176 158.442632 
L 490.277165 157.897184 
L 494.776155 157.351736 
L 499.275145 156.806289 
L 503.774135 156.260841 
L 508.273125 155.715393 
" clip-path="url(#p351934f151)" style="fill: none; stroke: #1f77b4; stroke-width: 2.25; stroke-linecap: square"/>
   </g>
   <g id="patch_3">
    <path d="M 40.603125 318.04 
L 40.603125 38.209655 
" style="fill: none; stroke: #000000; stroke-width: 0.8; stroke-linejoin: miter; stroke-linecap: square"/>
   </g>
   <g id="patch_4">
    <path d="M 530.543125 318.04 
L 530.543125 38.209655 
" style="fill: none; stroke: #000000; stroke-width: 0.8; stroke-linejoin: miter; stroke-linecap: square"/>
   </g>
   <g id="patch_5">
    <path d="M 40.603125 318.04 
L 530.543125 318.04 
" style="fill: none; stroke: #000000; stroke-width: 0.8; stroke-linejoin: miter; stroke-linecap: square"/>
   </g>
   <g id="patch_6">
    <path d="M 40.603125 38.209655 
L 530.543125 38.209655 
" style="fill: none; stroke: #000000; stroke-width: 0.8; stroke-linejoin: miter; stroke-linecap: square"/>
   </g>
   <g id="text_18">
    <!-- $R^2 =  0.052$ -->
    <g transform="translate(65.100125 62.838985) scale(0.14 -0.14)">
     <defs>
      <path id="DejaVuSans-Oblique-52" d="M 1613 4147 
L 1294 2491 
L 2106 2491 
Q 2584 2491 2879 2755 
Q 3175 3019 3175 3444 
Q 3175 3784 2976 3965 
Q 2778 4147 2406 4147 
L 1613 4147 
z
M 2772 2241 
Q 2972 2194 3105 2009 
Q 3238 1825 3413 1275 
L 3809 0 
L 3144 0 
L 2778 1197 
Q 2638 1659 2453 1815 
Q 2269 1972 1888 1972 
L 1191 1972 
L 806 0 
L 172 0 
L 1081 4666 
L 2503 4666 
Q 3150 4666 3495 4373 
Q 3841 4081 3841 3531 
Q 3841 3044 3547 2687 
Q 3253 2331 2772 2241 
z
" transform="scale(0.015625)"/>
      <path id="DejaVuSans-3d" d="M 678 2906 
L 4684 2906 
L 4684 2381 
L 678 2381 
L 678 2906 
z
M 678 1631 
L 4684 1631 
L 4684 1100 
L 678 1100 
L 678 1631 
z
" transform="scale(0.015625)"/>
      <path id="DejaVuSans-2e" d="M 684 794 
L 1344 794 
L 1344 0 
L 684 0 
L 684 794 
z
" transform="scale(0.015625)"/>
     </defs>
     <use xlink:href="#DejaVuSans-Oblique-52" transform="translate(0 0.765625)"/>
     <use xlink:href="#DejaVuSans-32" transform="translate(76.499193 39.046875) scale(0.7)"/>
     <use xlink:href="#DejaVuSans-3d" transform="translate(143.252122 0.765625)"/>
     <use xlink:href="#DejaVuSans-30" transform="translate(246.523607 0.765625)"/>
     <use xlink:href="#DejaVuSans-2e" transform="translate(310.146654 0.765625)"/>
     <use xlink:href="#DejaVuSans-30" transform="translate(341.933763 0.765625)"/>
     <use xlink:href="#DejaVuSans-35" transform="translate(405.55681 0.765625)"/>
     <use xlink:href="#DejaVuSans-32" transform="translate(469.179857 0.765625)"/>
    </g>
   </g>
   <g id="text_19">
    <!-- $p =  0.181$ -->
    <g transform="translate(65.100125 82.398672) scale(0.14 -0.14)">
     <defs>
      <path id="DejaVuSans-Oblique-70" d="M 3175 2156 
Q 3175 2616 2975 2859 
Q 2775 3103 2400 3103 
Q 2144 3103 1911 2972 
Q 1678 2841 1497 2591 
Q 1319 2344 1212 1994 
Q 1106 1644 1106 1300 
Q 1106 863 1306 627 
Q 1506 391 1875 391 
Q 2147 391 2380 519 
Q 2613 647 2778 891 
Q 2956 1147 3065 1494 
Q 3175 1841 3175 2156 
z
M 1394 2969 
Q 1625 3272 1939 3428 
Q 2253 3584 2638 3584 
Q 3175 3584 3472 3232 
Q 3769 2881 3769 2247 
Q 3769 1728 3584 1258 
Q 3400 788 3053 416 
Q 2822 169 2531 39 
Q 2241 -91 1919 -91 
Q 1547 -91 1294 64 
Q 1041 219 916 525 
L 556 -1331 
L -19 -1331 
L 922 3500 
L 1497 3500 
L 1394 2969 
z
" transform="scale(0.015625)"/>
      <path id="DejaVuSans-38" d="M 2034 2216 
Q 1584 2216 1326 1975 
Q 1069 1734 1069 1313 
Q 1069 891 1326 650 
Q 1584 409 2034 409 
Q 2484 409 2743 651 
Q 3003 894 3003 1313 
Q 3003 1734 2745 1975 
Q 2488 2216 2034 2216 
z
M 1403 2484 
Q 997 2584 770 2862 
Q 544 3141 544 3541 
Q 544 4100 942 4425 
Q 1341 4750 2034 4750 
Q 2731 4750 3128 4425 
Q 3525 4100 3525 3541 
Q 3525 3141 3298 2862 
Q 3072 2584 2669 2484 
Q 3125 2378 3379 2068 
Q 3634 1759 3634 1313 
Q 3634 634 3220 271 
Q 2806 -91 2034 -91 
Q 1263 -91 848 271 
Q 434 634 434 1313 
Q 434 1759 690 2068 
Q 947 2378 1403 2484 
z
M 1172 3481 
Q 1172 3119 1398 2916 
Q 1625 2713 2034 2713 
Q 2441 2713 2670 2916 
Q 2900 3119 2900 3481 
Q 2900 3844 2670 4047 
Q 2441 4250 2034 4250 
Q 1625 4250 1398 4047 
Q 1172 3844 1172 3481 
z
" transform="scale(0.015625)"/>
     </defs>
     <use xlink:href="#DejaVuSans-Oblique-70" transform="translate(0 0.78125)"/>
     <use xlink:href="#DejaVuSans-3d" transform="translate(82.958984 0.78125)"/>
     <use xlink:href="#DejaVuSans-30" transform="translate(186.230469 0.78125)"/>
     <use xlink:href="#DejaVuSans-2e" transform="translate(249.853516 0.78125)"/>
     <use xlink:href="#DejaVuSans-31" transform="translate(281.640625 0.78125)"/>
     <use xlink:href="#DejaVuSans-38" transform="translate(345.263672 0.78125)"/>
     <use xlink:href="#DejaVuSans-31" transform="translate(408.886719 0.78125)"/>
    </g>
   </g>
  </g>
  <g id="axes_2">
   <g id="patch_7">
    <path d="M 575.203125 318.04 
L 1065.143125 318.04 
L 1065.143125 38.209655 
L 575.203125 38.209655 
z
" style="fill: #ffffff"/>
   </g>
   <g id="PathCollection_2">
    <g clip-path="url(#pf97986e9f7)">
     <use xlink:href="#m698e169ff9" x="717.886497" y="138.650328" style="fill: #1f77b4; fill-opacity: 0.8; stroke: #1f77b4; stroke-opacity: 0.8"/>
     <use xlink:href="#m698e169ff9" x="669.980102" y="182.510883" style="fill: #1f77b4; fill-opacity: 0.8; stroke: #1f77b4; stroke-opacity: 0.8"/>
     <use xlink:href="#m698e169ff9" x="732.128939" y="86.017661" style="fill: #1f77b4; fill-opacity: 0.8; stroke: #1f77b4; stroke-opacity: 0.8"/>
     <use xlink:href="#m698e169ff9" x="723.065567" y="217.599328" style="fill: #1f77b4; fill-opacity: 0.8; stroke: #1f77b4; stroke-opacity: 0.8"/>
     <use xlink:href="#m698e169ff9" x="721.770799" y="121.106105" style="fill: #1f77b4; fill-opacity: 0.8; stroke: #1f77b4; stroke-opacity: 0.8"/>
     <use xlink:href="#m698e169ff9" x="597.473125" y="235.14355" style="fill: #1f77b4; fill-opacity: 0.8; stroke: #1f77b4; stroke-opacity: 0.8"/>
     <use xlink:href="#m698e169ff9" x="644.084753" y="252.687772" style="fill: #1f77b4; fill-opacity: 0.8; stroke: #1f77b4; stroke-opacity: 0.8"/>
     <use xlink:href="#m698e169ff9" x="726.949869" y="164.966661" style="fill: #1f77b4; fill-opacity: 0.8; stroke: #1f77b4; stroke-opacity: 0.8"/>
     <use xlink:href="#m698e169ff9" x="738.602776" y="243.915661" style="fill: #1f77b4; fill-opacity: 0.8; stroke: #1f77b4; stroke-opacity: 0.8"/>
     <use xlink:href="#m698e169ff9" x="803.341148" y="112.333994" style="fill: #1f77b4; fill-opacity: 0.8; stroke: #1f77b4; stroke-opacity: 0.8"/>
     <use xlink:href="#m698e169ff9" x="786.509172" y="173.738772" style="fill: #1f77b4; fill-opacity: 0.8; stroke: #1f77b4; stroke-opacity: 0.8"/>
     <use xlink:href="#m698e169ff9" x="787.803939" y="252.687772" style="fill: #1f77b4; fill-opacity: 0.8; stroke: #1f77b4; stroke-opacity: 0.8"/>
     <use xlink:href="#m698e169ff9" x="690.696381" y="235.14355" style="fill: #1f77b4; fill-opacity: 0.8; stroke: #1f77b4; stroke-opacity: 0.8"/>
     <use xlink:href="#m698e169ff9" x="846.068474" y="243.915661" style="fill: #1f77b4; fill-opacity: 0.8; stroke: #1f77b4; stroke-opacity: 0.8"/>
     <use xlink:href="#m698e169ff9" x="827.94173" y="191.282994" style="fill: #1f77b4; fill-opacity: 0.8; stroke: #1f77b4; stroke-opacity: 0.8"/>
     <use xlink:href="#m698e169ff9" x="891.385334" y="200.055105" style="fill: #1f77b4; fill-opacity: 0.8; stroke: #1f77b4; stroke-opacity: 0.8"/>
     <use xlink:href="#m698e169ff9" x="914.691148" y="147.422439" style="fill: #1f77b4; fill-opacity: 0.8; stroke: #1f77b4; stroke-opacity: 0.8"/>
     <use xlink:href="#m698e169ff9" x="912.101613" y="147.422439" style="fill: #1f77b4; fill-opacity: 0.8; stroke: #1f77b4; stroke-opacity: 0.8"/>
     <use xlink:href="#m698e169ff9" x="895.269637" y="138.650328" style="fill: #1f77b4; fill-opacity: 0.8; stroke: #1f77b4; stroke-opacity: 0.8"/>
     <use xlink:href="#m698e169ff9" x="782.624869" y="156.19455" style="fill: #1f77b4; fill-opacity: 0.8; stroke: #1f77b4; stroke-opacity: 0.8"/>
     <use xlink:href="#m698e169ff9" x="963.892311" y="156.19455" style="fill: #1f77b4; fill-opacity: 0.8; stroke: #1f77b4; stroke-opacity: 0.8"/>
     <use xlink:href="#m698e169ff9" x="1042.873125" y="50.929216" style="fill: #1f77b4; fill-opacity: 0.8; stroke: #1f77b4; stroke-opacity: 0.8"/>
     <use xlink:href="#m698e169ff9" x="699.759753" y="305.320439" style="fill: #1f77b4; fill-opacity: 0.8; stroke: #1f77b4; stroke-opacity: 0.8"/>
     <use xlink:href="#m698e169ff9" x="792.983009" y="86.017661" style="fill: #1f77b4; fill-opacity: 0.8; stroke: #1f77b4; stroke-opacity: 0.8"/>
     <use xlink:href="#m698e169ff9" x="1022.156846" y="173.738772" style="fill: #1f77b4; fill-opacity: 0.8; stroke: #1f77b4; stroke-opacity: 0.8"/>
     <use xlink:href="#m698e169ff9" x="1000.145799" y="191.282994" style="fill: #1f77b4; fill-opacity: 0.8; stroke: #1f77b4; stroke-opacity: 0.8"/>
     <use xlink:href="#m698e169ff9" x="864.195218" y="200.055105" style="fill: #1f77b4; fill-opacity: 0.8; stroke: #1f77b4; stroke-opacity: 0.8"/>
     <use xlink:href="#m698e169ff9" x="895.269637" y="156.19455" style="fill: #1f77b4; fill-opacity: 0.8; stroke: #1f77b4; stroke-opacity: 0.8"/>
     <use xlink:href="#m698e169ff9" x="950.944637" y="164.966661" style="fill: #1f77b4; fill-opacity: 0.8; stroke: #1f77b4; stroke-opacity: 0.8"/>
     <use xlink:href="#m698e169ff9" x="956.123706" y="208.827217" style="fill: #1f77b4; fill-opacity: 0.8; stroke: #1f77b4; stroke-opacity: 0.8"/>
     <use xlink:href="#m698e169ff9" x="963.892311" y="296.548328" style="fill: #1f77b4; fill-opacity: 0.8; stroke: #1f77b4; stroke-opacity: 0.8"/>
     <use xlink:href="#m698e169ff9" x="954.828939" y="182.510883" style="fill: #1f77b4; fill-opacity: 0.8; stroke: #1f77b4; stroke-opacity: 0.8"/>
     <use xlink:href="#m698e169ff9" x="941.881265" y="103.561883" style="fill: #1f77b4; fill-opacity: 0.8; stroke: #1f77b4; stroke-opacity: 0.8"/>
     <use xlink:href="#m698e169ff9" x="896.564404" y="270.231994" style="fill: #1f77b4; fill-opacity: 0.8; stroke: #1f77b4; stroke-opacity: 0.8"/>
     <use xlink:href="#m698e169ff9" x="886.206265" y="226.371439" style="fill: #1f77b4; fill-opacity: 0.8; stroke: #1f77b4; stroke-opacity: 0.8"/>
     <use xlink:href="#m698e169ff9" x="851.247544" y="94.789772" style="fill: #1f77b4; fill-opacity: 0.8; stroke: #1f77b4; stroke-opacity: 0.8"/>
    </g>
   </g>
   <g id="PolyCollection_2">
    <path d="M 597.473125 156.605319 
L 597.473125 251.546838 
L 601.972115 250.380393 
L 606.471105 249.140569 
L 610.970095 248.142817 
L 615.469085 247.010355 
L 619.968074 245.684941 
L 624.467064 244.269479 
L 628.966054 242.972268 
L 633.465044 241.692263 
L 637.964034 240.520321 
L 642.463024 239.600344 
L 646.962014 238.515855 
L 651.461004 237.023782 
L 655.959994 235.744586 
L 660.458984 234.454314 
L 664.957973 233.371802 
L 669.456963 232.490966 
L 673.955953 231.441225 
L 678.454943 230.370459 
L 682.953933 229.295523 
L 687.452923 228.229686 
L 691.951913 227.140456 
L 696.450903 226.069618 
L 700.949893 224.994108 
L 705.448883 223.916883 
L 709.947872 222.839659 
L 714.446862 221.762435 
L 718.945852 220.928343 
L 723.444842 219.792939 
L 727.943832 218.65014 
L 732.442822 217.54695 
L 736.941812 216.39128 
L 741.440802 215.380421 
L 745.939792 214.450241 
L 750.438782 213.519813 
L 754.937771 212.583074 
L 759.436761 211.491157 
L 763.935751 210.152067 
L 768.434741 209.20919 
L 772.933731 208.290129 
L 777.432721 207.333937 
L 781.931711 206.624685 
L 786.430701 206.027685 
L 790.929691 205.144242 
L 795.428681 204.231867 
L 799.92767 203.307131 
L 804.42666 202.506267 
L 808.92565 201.98926 
L 813.42464 201.540003 
L 817.92363 200.830822 
L 822.42262 200.480822 
L 826.92161 200.040711 
L 831.4206 198.931849 
L 835.91959 198.01083 
L 840.41858 197.606377 
L 844.917569 197.428571 
L 849.416559 197.395799 
L 853.915549 196.7917 
L 858.414539 196.233951 
L 862.913529 196.12094 
L 867.412519 195.92563 
L 871.911509 195.698488 
L 876.410499 195.623678 
L 880.909489 195.653057 
L 885.408479 195.488708 
L 889.907468 194.949809 
L 894.406458 195.062468 
L 898.905448 195.131167 
L 903.404438 194.722067 
L 907.903428 195.083973 
L 912.402418 195.440845 
L 916.901408 195.304765 
L 921.400398 195.141678 
L 925.899388 194.944074 
L 930.398378 195.223133 
L 934.897367 195.502193 
L 939.396357 195.773822 
L 943.895347 195.783899 
L 948.394337 195.877753 
L 952.893327 196.165023 
L 957.392317 196.261322 
L 961.891307 196.551505 
L 966.390297 196.525783 
L 970.889287 196.583812 
L 975.388277 196.8178 
L 979.887266 196.881975 
L 984.386256 197.026444 
L 988.885246 197.552102 
L 993.384236 198.067561 
L 997.883226 198.583021 
L 1002.382216 198.987399 
L 1006.881206 199.097802 
L 1011.380196 198.963977 
L 1015.879186 199.175314 
L 1020.378176 199.641135 
L 1024.877165 199.817352 
L 1029.376155 199.98758 
L 1033.875145 200.149462 
L 1038.374135 200.311345 
L 1042.873125 200.473228 
L 1042.873125 113.634115 
L 1042.873125 113.634115 
L 1038.374135 114.643302 
L 1033.875145 115.644753 
L 1029.376155 117.019232 
L 1024.877165 118.452355 
L 1020.378176 119.684731 
L 1015.879186 121.182975 
L 1011.380196 122.51631 
L 1006.881206 123.929447 
L 1002.382216 125.342584 
L 997.883226 126.564705 
L 993.384236 127.738422 
L 988.885246 128.816358 
L 984.386256 129.867822 
L 979.887266 130.962759 
L 975.388277 132.058688 
L 970.889287 133.405805 
L 966.390297 134.772348 
L 961.891307 136.128933 
L 957.392317 137.491462 
L 952.893327 138.668704 
L 948.394337 139.556044 
L 943.895347 140.432012 
L 939.396357 141.962811 
L 934.897367 143.497344 
L 930.398378 144.55287 
L 925.899388 145.716313 
L 921.400398 147.071558 
L 916.901408 147.874946 
L 912.402418 148.752052 
L 907.903428 149.716324 
L 903.404438 150.453731 
L 898.905448 151.255477 
L 894.406458 151.989261 
L 889.907468 152.904249 
L 885.408479 153.773125 
L 880.909489 154.635675 
L 876.410499 155.651325 
L 871.911509 156.354448 
L 867.412519 157.078795 
L 862.913529 158.089111 
L 858.414539 158.550248 
L 853.915549 159.555189 
L 849.416559 159.957942 
L 844.917569 160.535124 
L 840.41858 160.796291 
L 835.91959 161.442534 
L 831.4206 162.045717 
L 826.92161 162.478379 
L 822.42262 163.015474 
L 817.92363 163.345782 
L 813.42464 163.524064 
L 808.92565 163.762844 
L 804.42666 164.072582 
L 799.92767 164.1701 
L 795.428681 164.132395 
L 790.929691 164.117663 
L 786.430701 164.241097 
L 781.931711 164.17644 
L 777.432721 163.989049 
L 772.933731 163.915533 
L 768.434741 163.713203 
L 763.935751 163.511364 
L 759.436761 163.63237 
L 754.937771 163.496863 
L 750.438782 163.580744 
L 745.939792 163.499549 
L 741.440802 163.052334 
L 736.941812 163.072649 
L 732.442822 163.386244 
L 727.943832 163.48487 
L 723.444842 163.140061 
L 718.945852 163.234989 
L 714.446862 163.384305 
L 709.947872 163.421343 
L 705.448883 163.387753 
L 700.949893 163.354163 
L 696.450903 163.320573 
L 691.951913 163.276585 
L 687.452923 163.211941 
L 682.953933 162.682836 
L 678.454943 162.153731 
L 673.955953 161.633155 
L 669.456963 161.154603 
L 664.957973 161.143246 
L 660.458984 160.89473 
L 655.959994 160.195192 
L 651.461004 159.544892 
L 646.962014 159.450935 
L 642.463024 159.36613 
L 637.964034 158.60989 
L 633.465044 158.376686 
L 628.966054 158.328683 
L 624.467064 158.095582 
L 619.968074 157.707085 
L 615.469085 157.317882 
L 610.970095 157.122023 
L 606.471105 156.984519 
L 601.972115 156.847014 
L 597.473125 156.605319 
z
" clip-path="url(#pf97986e9f7)" style="fill: #1f77b4; fill-opacity: 0.15"/>
   </g>
   <g id="matplotlib.axis_3">
    <g id="xtick_9">
     <g id="line2d_17">
      <g>
       <use xlink:href="#m12651def81" x="584.525451" y="318.04" style="stroke: #000000; stroke-width: 0.8"/>
      </g>
     </g>
     <g id="text_20">
      <!-- 2075 -->
      <g transform="translate(571.800451 332.638437) scale(0.1 -0.1)">
       <use xlink:href="#DejaVuSans-32"/>
       <use xlink:href="#DejaVuSans-30" x="63.623047"/>
       <use xlink:href="#DejaVuSans-37" x="127.246094"/>
       <use xlink:href="#DejaVuSans-35" x="190.869141"/>
      </g>
     </g>
    </g>
    <g id="xtick_10">
     <g id="line2d_18">
      <g>
       <use xlink:href="#m12651def81" x="649.263823" y="318.04" style="stroke: #000000; stroke-width: 0.8"/>
      </g>
     </g>
     <g id="text_21">
      <!-- 2100 -->
      <g transform="translate(636.538823 332.638437) scale(0.1 -0.1)">
       <use xlink:href="#DejaVuSans-32"/>
       <use xlink:href="#DejaVuSans-31" x="63.623047"/>
       <use xlink:href="#DejaVuSans-30" x="127.246094"/>
       <use xlink:href="#DejaVuSans-30" x="190.869141"/>
      </g>
     </g>
    </g>
    <g id="xtick_11">
     <g id="line2d_19">
      <g>
       <use xlink:href="#m12651def81" x="714.002195" y="318.04" style="stroke: #000000; stroke-width: 0.8"/>
      </g>
     </g>
     <g id="text_22">
      <!-- 2125 -->
      <g transform="translate(701.277195 332.638437) scale(0.1 -0.1)">
       <use xlink:href="#DejaVuSans-32"/>
       <use xlink:href="#DejaVuSans-31" x="63.623047"/>
       <use xlink:href="#DejaVuSans-32" x="127.246094"/>
       <use xlink:href="#DejaVuSans-35" x="190.869141"/>
      </g>
     </g>
    </g>
    <g id="xtick_12">
     <g id="line2d_20">
      <g>
       <use xlink:href="#m12651def81" x="778.740567" y="318.04" style="stroke: #000000; stroke-width: 0.8"/>
      </g>
     </g>
     <g id="text_23">
      <!-- 2150 -->
      <g transform="translate(766.015567 332.638437) scale(0.1 -0.1)">
       <use xlink:href="#DejaVuSans-32"/>
       <use xlink:href="#DejaVuSans-31" x="63.623047"/>
       <use xlink:href="#DejaVuSans-35" x="127.246094"/>
       <use xlink:href="#DejaVuSans-30" x="190.869141"/>
      </g>
     </g>
    </g>
    <g id="xtick_13">
     <g id="line2d_21">
      <g>
       <use xlink:href="#m12651def81" x="843.478939" y="318.04" style="stroke: #000000; stroke-width: 0.8"/>
      </g>
     </g>
     <g id="text_24">
      <!-- 2175 -->
      <g transform="translate(830.753939 332.638437) scale(0.1 -0.1)">
       <use xlink:href="#DejaVuSans-32"/>
       <use xlink:href="#DejaVuSans-31" x="63.623047"/>
       <use xlink:href="#DejaVuSans-37" x="127.246094"/>
       <use xlink:href="#DejaVuSans-35" x="190.869141"/>
      </g>
     </g>
    </g>
    <g id="xtick_14">
     <g id="line2d_22">
      <g>
       <use xlink:href="#m12651def81" x="908.217311" y="318.04" style="stroke: #000000; stroke-width: 0.8"/>
      </g>
     </g>
     <g id="text_25">
      <!-- 2200 -->
      <g transform="translate(895.492311 332.638437) scale(0.1 -0.1)">
       <use xlink:href="#DejaVuSans-32"/>
       <use xlink:href="#DejaVuSans-32" x="63.623047"/>
       <use xlink:href="#DejaVuSans-30" x="127.246094"/>
       <use xlink:href="#DejaVuSans-30" x="190.869141"/>
      </g>
     </g>
    </g>
    <g id="xtick_15">
     <g id="line2d_23">
      <g>
       <use xlink:href="#m12651def81" x="972.955683" y="318.04" style="stroke: #000000; stroke-width: 0.8"/>
      </g>
     </g>
     <g id="text_26">
      <!-- 2225 -->
      <g transform="translate(960.230683 332.638437) scale(0.1 -0.1)">
       <use xlink:href="#DejaVuSans-32"/>
       <use xlink:href="#DejaVuSans-32" x="63.623047"/>
       <use xlink:href="#DejaVuSans-32" x="127.246094"/>
       <use xlink:href="#DejaVuSans-35" x="190.869141"/>
      </g>
     </g>
    </g>
    <g id="xtick_16">
     <g id="line2d_24">
      <g>
       <use xlink:href="#m12651def81" x="1037.694055" y="318.04" style="stroke: #000000; stroke-width: 0.8"/>
      </g>
     </g>
     <g id="text_27">
      <!-- 2250 -->
      <g transform="translate(1024.969055 332.638437) scale(0.1 -0.1)">
       <use xlink:href="#DejaVuSans-32"/>
       <use xlink:href="#DejaVuSans-32" x="63.623047"/>
       <use xlink:href="#DejaVuSans-35" x="127.246094"/>
       <use xlink:href="#DejaVuSans-30" x="190.869141"/>
      </g>
     </g>
    </g>
    <g id="text_28">
     <!-- Pixel Interpolation OtherI -->
     <g transform="translate(757.762969 346.316562) scale(0.1 -0.1)">
      <defs>
       <path id="DejaVuSans-70" d="M 1159 525 
L 1159 -1331 
L 581 -1331 
L 581 3500 
L 1159 3500 
L 1159 2969 
Q 1341 3281 1617 3432 
Q 1894 3584 2278 3584 
Q 2916 3584 3314 3078 
Q 3713 2572 3713 1747 
Q 3713 922 3314 415 
Q 2916 -91 2278 -91 
Q 1894 -91 1617 61 
Q 1341 213 1159 525 
z
M 3116 1747 
Q 3116 2381 2855 2742 
Q 2594 3103 2138 3103 
Q 1681 3103 1420 2742 
Q 1159 2381 1159 1747 
Q 1159 1113 1420 752 
Q 1681 391 2138 391 
Q 2594 391 2855 752 
Q 3116 1113 3116 1747 
z
" transform="scale(0.015625)"/>
      </defs>
      <use xlink:href="#DejaVuSans-50"/>
      <use xlink:href="#DejaVuSans-69" x="58.052734"/>
      <use xlink:href="#DejaVuSans-78" x="85.835938"/>
      <use xlink:href="#DejaVuSans-65" x="141.890625"/>
      <use xlink:href="#DejaVuSans-6c" x="203.414062"/>
      <use xlink:href="#DejaVuSans-20" x="231.197266"/>
      <use xlink:href="#DejaVuSans-49" x="262.984375"/>
      <use xlink:href="#DejaVuSans-6e" x="292.476562"/>
      <use xlink:href="#DejaVuSans-74" x="355.855469"/>
      <use xlink:href="#DejaVuSans-65" x="395.064453"/>
      <use xlink:href="#DejaVuSans-72" x="456.587891"/>
      <use xlink:href="#DejaVuSans-70" x="497.701172"/>
      <use xlink:href="#DejaVuSans-6f" x="561.177734"/>
      <use xlink:href="#DejaVuSans-6c" x="622.359375"/>
      <use xlink:href="#DejaVuSans-61" x="650.142578"/>
      <use xlink:href="#DejaVuSans-74" x="711.421875"/>
      <use xlink:href="#DejaVuSans-69" x="750.630859"/>
      <use xlink:href="#DejaVuSans-6f" x="778.414062"/>
      <use xlink:href="#DejaVuSans-6e" x="839.595703"/>
      <use xlink:href="#DejaVuSans-20" x="902.974609"/>
      <use xlink:href="#DejaVuSans-4f" x="934.761719"/>
      <use xlink:href="#DejaVuSans-74" x="1013.472656"/>
      <use xlink:href="#DejaVuSans-68" x="1052.681641"/>
      <use xlink:href="#DejaVuSans-65" x="1116.060547"/>
      <use xlink:href="#DejaVuSans-72" x="1177.583984"/>
      <use xlink:href="#DejaVuSans-49" x="1218.697266"/>
     </g>
    </g>
   </g>
   <g id="matplotlib.axis_4">
    <g id="ytick_8">
     <g id="line2d_25">
      <g>
       <use xlink:href="#ma4fae13b9c" x="575.203125" y="305.320439" style="stroke: #000000; stroke-width: 0.8"/>
      </g>
     </g>
     <g id="text_29">
      <!-- 15 -->
      <g transform="translate(555.478125 309.119658) scale(0.1 -0.1)">
       <use xlink:href="#DejaVuSans-31"/>
       <use xlink:href="#DejaVuSans-35" x="63.623047"/>
      </g>
     </g>
    </g>
    <g id="ytick_9">
     <g id="line2d_26">
      <g>
       <use xlink:href="#ma4fae13b9c" x="575.203125" y="261.459883" style="stroke: #000000; stroke-width: 0.8"/>
      </g>
     </g>
     <g id="text_30">
      <!-- 20 -->
      <g transform="translate(555.478125 265.259102) scale(0.1 -0.1)">
       <use xlink:href="#DejaVuSans-32"/>
       <use xlink:href="#DejaVuSans-30" x="63.623047"/>
      </g>
     </g>
    </g>
    <g id="ytick_10">
     <g id="line2d_27">
      <g>
       <use xlink:href="#ma4fae13b9c" x="575.203125" y="217.599328" style="stroke: #000000; stroke-width: 0.8"/>
      </g>
     </g>
     <g id="text_31">
      <!-- 25 -->
      <g transform="translate(555.478125 221.398546) scale(0.1 -0.1)">
       <use xlink:href="#DejaVuSans-32"/>
       <use xlink:href="#DejaVuSans-35" x="63.623047"/>
      </g>
     </g>
    </g>
    <g id="ytick_11">
     <g id="line2d_28">
      <g>
       <use xlink:href="#ma4fae13b9c" x="575.203125" y="173.738772" style="stroke: #000000; stroke-width: 0.8"/>
      </g>
     </g>
     <g id="text_32">
      <!-- 30 -->
      <g transform="translate(555.478125 177.537991) scale(0.1 -0.1)">
       <use xlink:href="#DejaVuSans-33"/>
       <use xlink:href="#DejaVuSans-30" x="63.623047"/>
      </g>
     </g>
    </g>
    <g id="ytick_12">
     <g id="line2d_29">
      <g>
       <use xlink:href="#ma4fae13b9c" x="575.203125" y="129.878216" style="stroke: #000000; stroke-width: 0.8"/>
      </g>
     </g>
     <g id="text_33">
      <!-- 35 -->
      <g transform="translate(555.478125 133.677435) scale(0.1 -0.1)">
       <use xlink:href="#DejaVuSans-33"/>
       <use xlink:href="#DejaVuSans-35" x="63.623047"/>
      </g>
     </g>
    </g>
    <g id="ytick_13">
     <g id="line2d_30">
      <g>
       <use xlink:href="#ma4fae13b9c" x="575.203125" y="86.017661" style="stroke: #000000; stroke-width: 0.8"/>
      </g>
     </g>
     <g id="text_34">
      <!-- 40 -->
      <g transform="translate(555.478125 89.81688) scale(0.1 -0.1)">
       <use xlink:href="#DejaVuSans-34"/>
       <use xlink:href="#DejaVuSans-30" x="63.623047"/>
      </g>
     </g>
    </g>
    <g id="ytick_14">
     <g id="line2d_31">
      <g>
       <use xlink:href="#ma4fae13b9c" x="575.203125" y="42.157105" style="stroke: #000000; stroke-width: 0.8"/>
      </g>
     </g>
     <g id="text_35">
      <!-- 45 -->
      <g transform="translate(555.478125 45.956324) scale(0.1 -0.1)">
       <use xlink:href="#DejaVuSans-34"/>
       <use xlink:href="#DejaVuSans-35" x="63.623047"/>
      </g>
     </g>
    </g>
    <g id="text_36">
     <!-- In-Situ Chl-a -->
     <g transform="translate(549.398438 208.770921) rotate(-90) scale(0.1 -0.1)">
      <use xlink:href="#DejaVuSans-49"/>
      <use xlink:href="#DejaVuSans-6e" x="29.492188"/>
      <use xlink:href="#DejaVuSans-2d" x="92.871094"/>
      <use xlink:href="#DejaVuSans-53" x="128.955078"/>
      <use xlink:href="#DejaVuSans-69" x="192.431641"/>
      <use xlink:href="#DejaVuSans-74" x="220.214844"/>
      <use xlink:href="#DejaVuSans-75" x="259.423828"/>
      <use xlink:href="#DejaVuSans-20" x="322.802734"/>
      <use xlink:href="#DejaVuSans-43" x="354.589844"/>
      <use xlink:href="#DejaVuSans-68" x="424.414062"/>
      <use xlink:href="#DejaVuSans-6c" x="487.792969"/>
      <use xlink:href="#DejaVuSans-2d" x="515.576172"/>
      <use xlink:href="#DejaVuSans-61" x="551.660156"/>
     </g>
    </g>
   </g>
   <g id="line2d_32">
    <path d="M 597.473125 209.714716 
L 601.972115 209.169268 
L 606.471105 208.623821 
L 610.970095 208.078373 
L 615.469085 207.532925 
L 619.968074 206.987478 
L 624.467064 206.44203 
L 628.966054 205.896582 
L 633.465044 205.351134 
L 637.964034 204.805687 
L 642.463024 204.260239 
L 646.962014 203.714791 
L 651.461004 203.169344 
L 655.959994 202.623896 
L 660.458984 202.078448 
L 664.957973 201.533001 
L 669.456963 200.987553 
L 673.955953 200.442105 
L 678.454943 199.896657 
L 682.953933 199.35121 
L 687.452923 198.805762 
L 691.951913 198.260314 
L 696.450903 197.714867 
L 700.949893 197.169419 
L 705.448883 196.623971 
L 709.947872 196.078523 
L 714.446862 195.533076 
L 718.945852 194.987628 
L 723.444842 194.44218 
L 727.943832 193.896733 
L 732.442822 193.351285 
L 736.941812 192.805837 
L 741.440802 192.26039 
L 745.939792 191.714942 
L 750.438782 191.169494 
L 754.937771 190.624046 
L 759.436761 190.078599 
L 763.935751 189.533151 
L 768.434741 188.987703 
L 772.933731 188.442256 
L 777.432721 187.896808 
L 781.931711 187.35136 
L 786.430701 186.805912 
L 790.929691 186.260465 
L 795.428681 185.715017 
L 799.92767 185.169569 
L 804.42666 184.624122 
L 808.92565 184.078674 
L 813.42464 183.533226 
L 817.92363 182.987779 
L 822.42262 182.442331 
L 826.92161 181.896883 
L 831.4206 181.351435 
L 835.91959 180.805988 
L 840.41858 180.26054 
L 844.917569 179.715092 
L 849.416559 179.169645 
L 853.915549 178.624197 
L 858.414539 178.078749 
L 862.913529 177.533301 
L 867.412519 176.987854 
L 871.911509 176.442406 
L 876.410499 175.896958 
L 880.909489 175.351511 
L 885.408479 174.806063 
L 889.907468 174.260615 
L 894.406458 173.715167 
L 898.905448 173.16972 
L 903.404438 172.624272 
L 907.903428 172.078824 
L 912.402418 171.533377 
L 916.901408 170.987929 
L 921.400398 170.442481 
L 925.899388 169.897034 
L 930.398378 169.351586 
L 934.897367 168.806138 
L 939.396357 168.26069 
L 943.895347 167.715243 
L 948.394337 167.169795 
L 952.893327 166.624347 
L 957.392317 166.0789 
L 961.891307 165.533452 
L 966.390297 164.988004 
L 970.889287 164.442556 
L 975.388277 163.897109 
L 979.887266 163.351661 
L 984.386256 162.806213 
L 988.885246 162.260766 
L 993.384236 161.715318 
L 997.883226 161.16987 
L 1002.382216 160.624423 
L 1006.881206 160.078975 
L 1011.380196 159.533527 
L 1015.879186 158.988079 
L 1020.378176 158.442632 
L 1024.877165 157.897184 
L 1029.376155 157.351736 
L 1033.875145 156.806289 
L 1038.374135 156.260841 
L 1042.873125 155.715393 
" clip-path="url(#pf97986e9f7)" style="fill: none; stroke: #1f77b4; stroke-width: 2.25; stroke-linecap: square"/>
   </g>
   <g id="patch_8">
    <path d="M 575.203125 318.04 
L 575.203125 38.209655 
" style="fill: none; stroke: #000000; stroke-width: 0.8; stroke-linejoin: miter; stroke-linecap: square"/>
   </g>
   <g id="patch_9">
    <path d="M 1065.143125 318.04 
L 1065.143125 38.209655 
" style="fill: none; stroke: #000000; stroke-width: 0.8; stroke-linejoin: miter; stroke-linecap: square"/>
   </g>
   <g id="patch_10">
    <path d="M 575.203125 318.04 
L 1065.143125 318.04 
" style="fill: none; stroke: #000000; stroke-width: 0.8; stroke-linejoin: miter; stroke-linecap: square"/>
   </g>
   <g id="patch_11">
    <path d="M 575.203125 38.209655 
L 1065.143125 38.209655 
" style="fill: none; stroke: #000000; stroke-width: 0.8; stroke-linejoin: miter; stroke-linecap: square"/>
   </g>
   <g id="text_37">
    <!-- $R^2 =  0.052$ -->
    <g transform="translate(599.700125 62.838985) scale(0.14 -0.14)">
     <use xlink:href="#DejaVuSans-Oblique-52" transform="translate(0 0.765625)"/>
     <use xlink:href="#DejaVuSans-32" transform="translate(76.499193 39.046875) scale(0.7)"/>
     <use xlink:href="#DejaVuSans-3d" transform="translate(143.252122 0.765625)"/>
     <use xlink:href="#DejaVuSans-30" transform="translate(246.523607 0.765625)"/>
     <use xlink:href="#DejaVuSans-2e" transform="translate(310.146654 0.765625)"/>
     <use xlink:href="#DejaVuSans-30" transform="translate(341.933763 0.765625)"/>
     <use xlink:href="#DejaVuSans-35" transform="translate(405.55681 0.765625)"/>
     <use xlink:href="#DejaVuSans-32" transform="translate(469.179857 0.765625)"/>
    </g>
   </g>
   <g id="text_38">
    <!-- $p =  0.181$ -->
    <g transform="translate(599.700125 82.398672) scale(0.14 -0.14)">
     <use xlink:href="#DejaVuSans-Oblique-70" transform="translate(0 0.78125)"/>
     <use xlink:href="#DejaVuSans-3d" transform="translate(82.958984 0.78125)"/>
     <use xlink:href="#DejaVuSans-30" transform="translate(186.230469 0.78125)"/>
     <use xlink:href="#DejaVuSans-2e" transform="translate(249.853516 0.78125)"/>
     <use xlink:href="#DejaVuSans-31" transform="translate(281.640625 0.78125)"/>
     <use xlink:href="#DejaVuSans-38" transform="translate(345.263672 0.78125)"/>
     <use xlink:href="#DejaVuSans-31" transform="translate(408.886719 0.78125)"/>
    </g>
   </g>
  </g>
  <g id="text_39">
   <!-- S2 OtherI Comparison -->
   <g transform="translate(436.909375 19.3575) scale(0.16 -0.16)">
    <defs>
     <path id="DejaVuSans-Bold-53" d="M 3834 4519 
L 3834 3531 
Q 3450 3703 3084 3790 
Q 2719 3878 2394 3878 
Q 1963 3878 1756 3759 
Q 1550 3641 1550 3391 
Q 1550 3203 1689 3098 
Q 1828 2994 2194 2919 
L 2706 2816 
Q 3484 2659 3812 2340 
Q 4141 2022 4141 1434 
Q 4141 663 3683 286 
Q 3225 -91 2284 -91 
Q 1841 -91 1394 -6 
Q 947 78 500 244 
L 500 1259 
Q 947 1022 1364 901 
Q 1781 781 2169 781 
Q 2563 781 2772 912 
Q 2981 1044 2981 1288 
Q 2981 1506 2839 1625 
Q 2697 1744 2272 1838 
L 1806 1941 
Q 1106 2091 782 2419 
Q 459 2747 459 3303 
Q 459 4000 909 4375 
Q 1359 4750 2203 4750 
Q 2588 4750 2994 4692 
Q 3400 4634 3834 4519 
z
" transform="scale(0.015625)"/>
     <path id="DejaVuSans-Bold-32" d="M 1844 884 
L 3897 884 
L 3897 0 
L 506 0 
L 506 884 
L 2209 2388 
Q 2438 2594 2547 2791 
Q 2656 2988 2656 3200 
Q 2656 3528 2436 3728 
Q 2216 3928 1850 3928 
Q 1569 3928 1234 3808 
Q 900 3688 519 3450 
L 519 4475 
Q 925 4609 1322 4679 
Q 1719 4750 2100 4750 
Q 2938 4750 3402 4381 
Q 3866 4013 3866 3353 
Q 3866 2972 3669 2642 
Q 3472 2313 2841 1759 
L 1844 884 
z
" transform="scale(0.015625)"/>
     <path id="DejaVuSans-Bold-20" transform="scale(0.015625)"/>
     <path id="DejaVuSans-Bold-4f" d="M 2719 3878 
Q 2169 3878 1866 3472 
Q 1563 3066 1563 2328 
Q 1563 1594 1866 1187 
Q 2169 781 2719 781 
Q 3272 781 3575 1187 
Q 3878 1594 3878 2328 
Q 3878 3066 3575 3472 
Q 3272 3878 2719 3878 
z
M 2719 4750 
Q 3844 4750 4481 4106 
Q 5119 3463 5119 2328 
Q 5119 1197 4481 553 
Q 3844 -91 2719 -91 
Q 1597 -91 958 553 
Q 319 1197 319 2328 
Q 319 3463 958 4106 
Q 1597 4750 2719 4750 
z
" transform="scale(0.015625)"/>
     <path id="DejaVuSans-Bold-74" d="M 1759 4494 
L 1759 3500 
L 2913 3500 
L 2913 2700 
L 1759 2700 
L 1759 1216 
Q 1759 972 1856 886 
Q 1953 800 2241 800 
L 2816 800 
L 2816 0 
L 1856 0 
Q 1194 0 917 276 
Q 641 553 641 1216 
L 641 2700 
L 84 2700 
L 84 3500 
L 641 3500 
L 641 4494 
L 1759 4494 
z
" transform="scale(0.015625)"/>
     <path id="DejaVuSans-Bold-68" d="M 4056 2131 
L 4056 0 
L 2931 0 
L 2931 347 
L 2931 1625 
Q 2931 2084 2911 2256 
Q 2891 2428 2841 2509 
Q 2775 2619 2662 2680 
Q 2550 2741 2406 2741 
Q 2056 2741 1856 2470 
Q 1656 2200 1656 1722 
L 1656 0 
L 538 0 
L 538 4863 
L 1656 4863 
L 1656 2988 
Q 1909 3294 2193 3439 
Q 2478 3584 2822 3584 
Q 3428 3584 3742 3212 
Q 4056 2841 4056 2131 
z
" transform="scale(0.015625)"/>
     <path id="DejaVuSans-Bold-65" d="M 4031 1759 
L 4031 1441 
L 1416 1441 
Q 1456 1047 1700 850 
Q 1944 653 2381 653 
Q 2734 653 3104 758 
Q 3475 863 3866 1075 
L 3866 213 
Q 3469 63 3072 -14 
Q 2675 -91 2278 -91 
Q 1328 -91 801 392 
Q 275 875 275 1747 
Q 275 2603 792 3093 
Q 1309 3584 2216 3584 
Q 3041 3584 3536 3087 
Q 4031 2591 4031 1759 
z
M 2881 2131 
Q 2881 2450 2695 2645 
Q 2509 2841 2209 2841 
Q 1884 2841 1681 2658 
Q 1478 2475 1428 2131 
L 2881 2131 
z
" transform="scale(0.015625)"/>
     <path id="DejaVuSans-Bold-72" d="M 3138 2547 
Q 2991 2616 2845 2648 
Q 2700 2681 2553 2681 
Q 2122 2681 1889 2404 
Q 1656 2128 1656 1613 
L 1656 0 
L 538 0 
L 538 3500 
L 1656 3500 
L 1656 2925 
Q 1872 3269 2151 3426 
Q 2431 3584 2822 3584 
Q 2878 3584 2943 3579 
Q 3009 3575 3134 3559 
L 3138 2547 
z
" transform="scale(0.015625)"/>
     <path id="DejaVuSans-Bold-49" d="M 588 4666 
L 1791 4666 
L 1791 0 
L 588 0 
L 588 4666 
z
" transform="scale(0.015625)"/>
     <path id="DejaVuSans-Bold-43" d="M 4288 256 
Q 3956 84 3597 -3 
Q 3238 -91 2847 -91 
Q 1681 -91 1000 561 
Q 319 1213 319 2328 
Q 319 3447 1000 4098 
Q 1681 4750 2847 4750 
Q 3238 4750 3597 4662 
Q 3956 4575 4288 4403 
L 4288 3438 
Q 3953 3666 3628 3772 
Q 3303 3878 2944 3878 
Q 2300 3878 1931 3465 
Q 1563 3053 1563 2328 
Q 1563 1606 1931 1193 
Q 2300 781 2944 781 
Q 3303 781 3628 887 
Q 3953 994 4288 1222 
L 4288 256 
z
" transform="scale(0.015625)"/>
     <path id="DejaVuSans-Bold-6f" d="M 2203 2784 
Q 1831 2784 1636 2517 
Q 1441 2250 1441 1747 
Q 1441 1244 1636 976 
Q 1831 709 2203 709 
Q 2569 709 2762 976 
Q 2956 1244 2956 1747 
Q 2956 2250 2762 2517 
Q 2569 2784 2203 2784 
z
M 2203 3584 
Q 3106 3584 3614 3096 
Q 4122 2609 4122 1747 
Q 4122 884 3614 396 
Q 3106 -91 2203 -91 
Q 1297 -91 786 396 
Q 275 884 275 1747 
Q 275 2609 786 3096 
Q 1297 3584 2203 3584 
z
" transform="scale(0.015625)"/>
     <path id="DejaVuSans-Bold-6d" d="M 3781 2919 
Q 3994 3244 4286 3414 
Q 4578 3584 4928 3584 
Q 5531 3584 5847 3212 
Q 6163 2841 6163 2131 
L 6163 0 
L 5038 0 
L 5038 1825 
Q 5041 1866 5042 1909 
Q 5044 1953 5044 2034 
Q 5044 2406 4934 2573 
Q 4825 2741 4581 2741 
Q 4263 2741 4089 2478 
Q 3916 2216 3909 1719 
L 3909 0 
L 2784 0 
L 2784 1825 
Q 2784 2406 2684 2573 
Q 2584 2741 2328 2741 
Q 2006 2741 1831 2477 
Q 1656 2213 1656 1722 
L 1656 0 
L 531 0 
L 531 3500 
L 1656 3500 
L 1656 2988 
Q 1863 3284 2130 3434 
Q 2397 3584 2719 3584 
Q 3081 3584 3359 3409 
Q 3638 3234 3781 2919 
z
" transform="scale(0.015625)"/>
     <path id="DejaVuSans-Bold-70" d="M 1656 506 
L 1656 -1331 
L 538 -1331 
L 538 3500 
L 1656 3500 
L 1656 2988 
Q 1888 3294 2169 3439 
Q 2450 3584 2816 3584 
Q 3463 3584 3878 3070 
Q 4294 2556 4294 1747 
Q 4294 938 3878 423 
Q 3463 -91 2816 -91 
Q 2450 -91 2169 54 
Q 1888 200 1656 506 
z
M 2400 2772 
Q 2041 2772 1848 2508 
Q 1656 2244 1656 1747 
Q 1656 1250 1848 986 
Q 2041 722 2400 722 
Q 2759 722 2948 984 
Q 3138 1247 3138 1747 
Q 3138 2247 2948 2509 
Q 2759 2772 2400 2772 
z
" transform="scale(0.015625)"/>
     <path id="DejaVuSans-Bold-61" d="M 2106 1575 
Q 1756 1575 1579 1456 
Q 1403 1338 1403 1106 
Q 1403 894 1545 773 
Q 1688 653 1941 653 
Q 2256 653 2472 879 
Q 2688 1106 2688 1447 
L 2688 1575 
L 2106 1575 
z
M 3816 1997 
L 3816 0 
L 2688 0 
L 2688 519 
Q 2463 200 2181 54 
Q 1900 -91 1497 -91 
Q 953 -91 614 226 
Q 275 544 275 1050 
Q 275 1666 698 1953 
Q 1122 2241 2028 2241 
L 2688 2241 
L 2688 2328 
Q 2688 2594 2478 2717 
Q 2269 2841 1825 2841 
Q 1466 2841 1156 2769 
Q 847 2697 581 2553 
L 581 3406 
Q 941 3494 1303 3539 
Q 1666 3584 2028 3584 
Q 2975 3584 3395 3211 
Q 3816 2838 3816 1997 
z
" transform="scale(0.015625)"/>
     <path id="DejaVuSans-Bold-69" d="M 538 3500 
L 1656 3500 
L 1656 0 
L 538 0 
L 538 3500 
z
M 538 4863 
L 1656 4863 
L 1656 3950 
L 538 3950 
L 538 4863 
z
" transform="scale(0.015625)"/>
     <path id="DejaVuSans-Bold-73" d="M 3272 3391 
L 3272 2541 
Q 2913 2691 2578 2766 
Q 2244 2841 1947 2841 
Q 1628 2841 1473 2761 
Q 1319 2681 1319 2516 
Q 1319 2381 1436 2309 
Q 1553 2238 1856 2203 
L 2053 2175 
Q 2913 2066 3209 1816 
Q 3506 1566 3506 1031 
Q 3506 472 3093 190 
Q 2681 -91 1863 -91 
Q 1516 -91 1145 -36 
Q 775 19 384 128 
L 384 978 
Q 719 816 1070 734 
Q 1422 653 1784 653 
Q 2113 653 2278 743 
Q 2444 834 2444 1013 
Q 2444 1163 2330 1236 
Q 2216 1309 1875 1350 
L 1678 1375 
Q 931 1469 631 1722 
Q 331 1975 331 2491 
Q 331 3047 712 3315 
Q 1094 3584 1881 3584 
Q 2191 3584 2531 3537 
Q 2872 3491 3272 3391 
z
" transform="scale(0.015625)"/>
     <path id="DejaVuSans-Bold-6e" d="M 4056 2131 
L 4056 0 
L 2931 0 
L 2931 347 
L 2931 1631 
Q 2931 2084 2911 2256 
Q 2891 2428 2841 2509 
Q 2775 2619 2662 2680 
Q 2550 2741 2406 2741 
Q 2056 2741 1856 2470 
Q 1656 2200 1656 1722 
L 1656 0 
L 538 0 
L 538 3500 
L 1656 3500 
L 1656 2988 
Q 1909 3294 2193 3439 
Q 2478 3584 2822 3584 
Q 3428 3584 3742 3212 
Q 4056 2841 4056 2131 
z
" transform="scale(0.015625)"/>
    </defs>
    <use xlink:href="#DejaVuSans-Bold-53"/>
    <use xlink:href="#DejaVuSans-Bold-32" x="72.021484"/>
    <use xlink:href="#DejaVuSans-Bold-20" x="141.601562"/>
    <use xlink:href="#DejaVuSans-Bold-4f" x="176.416016"/>
    <use xlink:href="#DejaVuSans-Bold-74" x="261.425781"/>
    <use xlink:href="#DejaVuSans-Bold-68" x="309.228516"/>
    <use xlink:href="#DejaVuSans-Bold-65" x="380.419922"/>
    <use xlink:href="#DejaVuSans-Bold-72" x="448.242188"/>
    <use xlink:href="#DejaVuSans-Bold-49" x="497.558594"/>
    <use xlink:href="#DejaVuSans-Bold-20" x="534.765625"/>
    <use xlink:href="#DejaVuSans-Bold-43" x="569.580078"/>
    <use xlink:href="#DejaVuSans-Bold-6f" x="642.96875"/>
    <use xlink:href="#DejaVuSans-Bold-6d" x="711.669922"/>
    <use xlink:href="#DejaVuSans-Bold-70" x="815.869141"/>
    <use xlink:href="#DejaVuSans-Bold-61" x="887.451172"/>
    <use xlink:href="#DejaVuSans-Bold-72" x="954.931641"/>
    <use xlink:href="#DejaVuSans-Bold-69" x="1004.248047"/>
    <use xlink:href="#DejaVuSans-Bold-73" x="1038.525391"/>
    <use xlink:href="#DejaVuSans-Bold-6f" x="1098.046875"/>
    <use xlink:href="#DejaVuSans-Bold-6e" x="1166.748047"/>
   </g>
  </g>
 </g>
 <defs>
  <clipPath id="p351934f151">
   <rect x="40.603125" y="38.209655" width="489.94" height="279.830345"/>
  </clipPath>
  <clipPath id="pf97986e9f7">
   <rect x="575.203125" y="38.209655" width="489.94" height="279.830345"/>
  </clipPath>
 </defs>
</svg>
