<?xml version="1.0" encoding="utf-8" standalone="no"?>
<!DOCTYPE svg PUBLIC "-//W3C//DTD SVG 1.1//EN"
  "http://www.w3.org/Graphics/SVG/1.1/DTD/svg11.dtd">
<svg xmlns:xlink="http://www.w3.org/1999/xlink" width="1072.343125pt" height="355.59625pt" viewBox="0 0 1072.343125 355.59625" xmlns="http://www.w3.org/2000/svg" version="1.1">
 <metadata>
  <rdf:RDF xmlns:dc="http://purl.org/dc/elements/1.1/" xmlns:cc="http://creativecommons.org/ns#" xmlns:rdf="http://www.w3.org/1999/02/22-rdf-syntax-ns#">
   <cc:Work>
    <dc:type rdf:resource="http://purl.org/dc/dcmitype/StillImage"/>
    <dc:date>2024-04-19T14:07:05.080692</dc:date>
    <dc:format>image/svg+xml</dc:format>
    <dc:creator>
     <cc:Agent>
      <dc:title>Matplotlib v3.7.0, https://matplotlib.org/</dc:title>
     </cc:Agent>
    </dc:creator>
   </cc:Work>
  </rdf:RDF>
 </metadata>
 <defs>
  <style type="text/css">*{stroke-linejoin: round; stroke-linecap: butt}</style>
 </defs>
 <g id="figure_1">
  <g id="patch_1">
   <path d="M 0 355.59625 
L 1072.343125 355.59625 
L 1072.343125 0 
L 0 0 
z
" style="fill: #ffffff"/>
  </g>
  <g id="axes_1">
   <g id="patch_2">
    <path d="M 40.603125 318.04 
L 530.543125 318.04 
L 530.543125 38.16 
L 40.603125 38.16 
z
" style="fill: #ffffff"/>
   </g>
   <g id="PathCollection_1">
    <defs>
     <path id="mf49c2022ca" d="M 0 3 
C 0.795609 3 1.55874 2.683901 2.12132 2.12132 
C 2.683901 1.55874 3 0.795609 3 0 
C 3 -0.795609 2.683901 -1.55874 2.12132 -2.12132 
C 1.55874 -2.683901 0.795609 -3 0 -3 
C -0.795609 -3 -1.55874 -2.683901 -2.12132 -2.12132 
C -2.683901 -1.55874 -3 -0.795609 -3 0 
C -3 0.795609 -2.683901 1.55874 -2.12132 2.12132 
C -1.55874 2.683901 -0.795609 3 0 3 
z
" style="stroke: #1f77b4; stroke-opacity: 0.8"/>
    </defs>
    <g clip-path="url(#p6f2cdc594e)">
     <use xlink:href="#mf49c2022ca" x="234.008328" y="93.287879" style="fill: #1f77b4; fill-opacity: 0.8; stroke: #1f77b4; stroke-opacity: 0.8"/>
     <use xlink:href="#mf49c2022ca" x="62.873125" y="252.310606" style="fill: #1f77b4; fill-opacity: 0.8; stroke: #1f77b4; stroke-opacity: 0.8"/>
     <use xlink:href="#mf49c2022ca" x="213.043993" y="146.295455" style="fill: #1f77b4; fill-opacity: 0.8; stroke: #1f77b4; stroke-opacity: 0.8"/>
     <use xlink:href="#mf49c2022ca" x="246.547313" y="241.709091" style="fill: #1f77b4; fill-opacity: 0.8; stroke: #1f77b4; stroke-opacity: 0.8"/>
     <use xlink:href="#mf49c2022ca" x="508.273125" y="82.686364" style="fill: #1f77b4; fill-opacity: 0.8; stroke: #1f77b4; stroke-opacity: 0.8"/>
     <use xlink:href="#mf49c2022ca" x="253.881538" y="156.89697" style="fill: #1f77b4; fill-opacity: 0.8; stroke: #1f77b4; stroke-opacity: 0.8"/>
     <use xlink:href="#mf49c2022ca" x="227.213756" y="252.310606" style="fill: #1f77b4; fill-opacity: 0.8; stroke: #1f77b4; stroke-opacity: 0.8"/>
     <use xlink:href="#mf49c2022ca" x="208.884464" y="241.709091" style="fill: #1f77b4; fill-opacity: 0.8; stroke: #1f77b4; stroke-opacity: 0.8"/>
     <use xlink:href="#mf49c2022ca" x="227.83563" y="178.1" style="fill: #1f77b4; fill-opacity: 0.8; stroke: #1f77b4; stroke-opacity: 0.8"/>
     <use xlink:href="#mf49c2022ca" x="286.295762" y="188.701515" style="fill: #1f77b4; fill-opacity: 0.8; stroke: #1f77b4; stroke-opacity: 0.8"/>
     <use xlink:href="#mf49c2022ca" x="453.91169" y="125.092424" style="fill: #1f77b4; fill-opacity: 0.8; stroke: #1f77b4; stroke-opacity: 0.8"/>
     <use xlink:href="#mf49c2022ca" x="208.558917" y="114.490909" style="fill: #1f77b4; fill-opacity: 0.8; stroke: #1f77b4; stroke-opacity: 0.8"/>
     <use xlink:href="#mf49c2022ca" x="238.360503" y="103.889394" style="fill: #1f77b4; fill-opacity: 0.8; stroke: #1f77b4; stroke-opacity: 0.8"/>
     <use xlink:href="#mf49c2022ca" x="299.426821" y="231.107576" style="fill: #1f77b4; fill-opacity: 0.8; stroke: #1f77b4; stroke-opacity: 0.8"/>
     <use xlink:href="#mf49c2022ca" x="300.15941" y="135.693939" style="fill: #1f77b4; fill-opacity: 0.8; stroke: #1f77b4; stroke-opacity: 0.8"/>
     <use xlink:href="#mf49c2022ca" x="402.682899" y="135.693939" style="fill: #1f77b4; fill-opacity: 0.8; stroke: #1f77b4; stroke-opacity: 0.8"/>
     <use xlink:href="#mf49c2022ca" x="275.539092" y="50.881818" style="fill: #1f77b4; fill-opacity: 0.8; stroke: #1f77b4; stroke-opacity: 0.8"/>
     <use xlink:href="#mf49c2022ca" x="372.860722" y="178.1" style="fill: #1f77b4; fill-opacity: 0.8; stroke: #1f77b4; stroke-opacity: 0.8"/>
     <use xlink:href="#mf49c2022ca" x="276.154513" y="188.701515" style="fill: #1f77b4; fill-opacity: 0.8; stroke: #1f77b4; stroke-opacity: 0.8"/>
     <use xlink:href="#mf49c2022ca" x="332.087779" y="135.693939" style="fill: #1f77b4; fill-opacity: 0.8; stroke: #1f77b4; stroke-opacity: 0.8"/>
     <use xlink:href="#mf49c2022ca" x="444.03037" y="146.295455" style="fill: #1f77b4; fill-opacity: 0.8; stroke: #1f77b4; stroke-opacity: 0.8"/>
     <use xlink:href="#mf49c2022ca" x="323.745302" y="199.30303" style="fill: #1f77b4; fill-opacity: 0.8; stroke: #1f77b4; stroke-opacity: 0.8"/>
     <use xlink:href="#mf49c2022ca" x="252.345741" y="305.318182" style="fill: #1f77b4; fill-opacity: 0.8; stroke: #1f77b4; stroke-opacity: 0.8"/>
    </g>
   </g>
   <g id="PolyCollection_1">
    <path d="M 62.873125 166.329666 
L 62.873125 282.894014 
L 67.372115 281.161585 
L 71.871105 279.385426 
L 76.370095 277.586698 
L 80.869085 275.789758 
L 85.368074 273.967926 
L 89.867064 272.159667 
L 94.366054 270.351408 
L 98.865044 268.543149 
L 103.364034 266.733238 
L 107.863024 264.925371 
L 112.362014 263.118372 
L 116.861004 261.310113 
L 121.359994 259.501854 
L 125.858984 257.693595 
L 130.357973 255.885336 
L 134.856963 254.077077 
L 139.355953 252.268818 
L 143.854943 250.460559 
L 148.353933 248.6523 
L 152.852923 247.032791 
L 157.351913 245.360485 
L 161.850903 243.575254 
L 166.349893 241.790023 
L 170.848883 240.004792 
L 175.347872 238.219561 
L 179.846862 236.429227 
L 184.345852 234.634574 
L 188.844842 232.95149 
L 193.343832 231.282354 
L 197.842822 229.337279 
L 202.341812 227.574679 
L 206.840802 225.995874 
L 211.339792 224.056864 
L 215.838782 222.113443 
L 220.337771 220.443611 
L 224.836761 218.85484 
L 229.335751 217.019246 
L 233.834741 215.175988 
L 238.333731 213.208818 
L 242.832721 211.350694 
L 247.331711 209.651764 
L 251.830701 207.771207 
L 256.329691 205.968862 
L 260.828681 204.188631 
L 265.32767 202.38999 
L 269.82666 200.569095 
L 274.32565 198.991107 
L 278.82464 197.755432 
L 283.32363 195.937654 
L 287.82262 194.252769 
L 292.32161 192.829772 
L 296.8206 191.263975 
L 301.31959 190.061575 
L 305.81858 188.531592 
L 310.317569 186.897825 
L 314.816559 185.469764 
L 319.315549 183.982308 
L 323.814539 182.985161 
L 328.313529 181.446446 
L 332.812519 179.783797 
L 337.311509 178.133323 
L 341.810499 176.922539 
L 346.309489 175.494031 
L 350.808479 174.557669 
L 355.307468 173.459896 
L 359.806458 171.775204 
L 364.305448 170.048537 
L 368.804438 169.30863 
L 373.303428 167.928646 
L 377.802418 166.817373 
L 382.301408 165.664024 
L 386.800398 164.812546 
L 391.299388 163.933072 
L 395.798378 163.106049 
L 400.297367 161.466684 
L 404.796357 160.379774 
L 409.295347 159.515879 
L 413.794337 159.561729 
L 418.293327 158.858219 
L 422.792317 158.304141 
L 427.291307 157.817699 
L 431.790297 157.12817 
L 436.289287 156.889974 
L 440.788277 156.644688 
L 445.287266 156.383204 
L 449.786256 156.031266 
L 454.285246 155.339137 
L 458.784236 155.163878 
L 463.283226 155.353543 
L 467.782216 154.791396 
L 472.281206 154.60198 
L 476.780196 154.240531 
L 481.279186 153.738336 
L 485.778176 153.225511 
L 490.277165 152.874231 
L 494.776155 152.311518 
L 499.275145 151.729774 
L 503.774135 151.400574 
L 508.273125 151.069938 
L 508.273125 85.457434 
L 508.273125 85.457434 
L 503.774135 86.962131 
L 499.275145 88.133835 
L 494.776155 89.801588 
L 490.277165 91.774022 
L 485.778176 93.52159 
L 481.279186 95.056331 
L 476.780196 96.592004 
L 472.281206 97.727756 
L 467.782216 98.841794 
L 463.283226 99.963718 
L 458.784236 101.80481 
L 454.285246 103.39415 
L 449.786256 104.907999 
L 445.287266 106.286282 
L 440.788277 107.664564 
L 436.289287 108.846533 
L 431.790297 110.204924 
L 427.291307 111.47786 
L 422.792317 112.66395 
L 418.293327 113.971996 
L 413.794337 115.399649 
L 409.295347 116.644536 
L 404.796357 118.13398 
L 400.297367 119.285764 
L 395.798378 120.634586 
L 391.299388 122.089327 
L 386.800398 123.253135 
L 382.301408 124.545696 
L 377.802418 125.679974 
L 373.303428 126.842199 
L 368.804438 128.026127 
L 364.305448 129.210055 
L 359.806458 130.393983 
L 355.307468 131.577911 
L 350.808479 132.648643 
L 346.309489 133.579145 
L 341.810499 134.700634 
L 337.311509 135.690677 
L 332.812519 136.569288 
L 328.313529 137.6064 
L 323.814539 138.683264 
L 319.315549 139.847412 
L 314.816559 140.657135 
L 310.317569 141.934317 
L 305.81858 142.782636 
L 301.31959 144.080994 
L 296.8206 144.696672 
L 292.32161 145.181662 
L 287.82262 145.695469 
L 283.32363 146.323036 
L 278.82464 146.935688 
L 274.32565 147.510744 
L 269.82666 148.080792 
L 265.32767 148.779689 
L 260.828681 149.730034 
L 256.329691 150.256428 
L 251.830701 150.278102 
L 247.331711 151.02209 
L 242.832721 151.528874 
L 238.333731 152.071245 
L 233.834741 152.403251 
L 229.335751 152.454372 
L 224.836761 152.508205 
L 220.337771 152.638816 
L 215.838782 153.345715 
L 211.339792 153.823126 
L 206.840802 154.310968 
L 202.341812 154.831596 
L 197.842822 155.705762 
L 193.343832 156.309403 
L 188.844842 156.595629 
L 184.345852 156.704579 
L 179.846862 157.168836 
L 175.347872 157.633093 
L 170.848883 158.09735 
L 166.349893 158.25849 
L 161.850903 157.79419 
L 157.351913 157.91117 
L 152.852923 158.536408 
L 148.353933 159.267214 
L 143.854943 159.998019 
L 139.355953 160.728825 
L 134.856963 161.459631 
L 130.357973 162.190437 
L 125.858984 162.43935 
L 121.359994 162.590446 
L 116.861004 162.966292 
L 112.362014 163.176573 
L 107.863024 163.309879 
L 103.364034 163.946335 
L 98.865044 164.582791 
L 94.366054 164.981152 
L 89.867064 165.1897 
L 85.368074 165.398248 
L 80.869085 165.606796 
L 76.370095 165.815343 
L 71.871105 165.995848 
L 67.372115 166.162757 
L 62.873125 166.329666 
z
" clip-path="url(#p6f2cdc594e)" style="fill: #1f77b4; fill-opacity: 0.15"/>
   </g>
   <g id="matplotlib.axis_1">
    <g id="xtick_1">
     <g id="line2d_1">
      <defs>
       <path id="m89bc1c4f3d" d="M 0 0 
L 0 3.5 
" style="stroke: #000000; stroke-width: 0.8"/>
      </defs>
      <g>
       <use xlink:href="#m89bc1c4f3d" x="62.581489" y="318.04" style="stroke: #000000; stroke-width: 0.8"/>
      </g>
     </g>
     <g id="text_1">
      <!-- 0.45 -->
      <g transform="translate(51.448676 332.638437) scale(0.1 -0.1)">
       <defs>
        <path id="DejaVuSans-30" d="M 2034 4250 
Q 1547 4250 1301 3770 
Q 1056 3291 1056 2328 
Q 1056 1369 1301 889 
Q 1547 409 2034 409 
Q 2525 409 2770 889 
Q 3016 1369 3016 2328 
Q 3016 3291 2770 3770 
Q 2525 4250 2034 4250 
z
M 2034 4750 
Q 2819 4750 3233 4129 
Q 3647 3509 3647 2328 
Q 3647 1150 3233 529 
Q 2819 -91 2034 -91 
Q 1250 -91 836 529 
Q 422 1150 422 2328 
Q 422 3509 836 4129 
Q 1250 4750 2034 4750 
z
" transform="scale(0.015625)"/>
        <path id="DejaVuSans-2e" d="M 684 794 
L 1344 794 
L 1344 0 
L 684 0 
L 684 794 
z
" transform="scale(0.015625)"/>
        <path id="DejaVuSans-34" d="M 2419 4116 
L 825 1625 
L 2419 1625 
L 2419 4116 
z
M 2253 4666 
L 3047 4666 
L 3047 1625 
L 3713 1625 
L 3713 1100 
L 3047 1100 
L 3047 0 
L 2419 0 
L 2419 1100 
L 313 1100 
L 313 1709 
L 2253 4666 
z
" transform="scale(0.015625)"/>
        <path id="DejaVuSans-35" d="M 691 4666 
L 3169 4666 
L 3169 4134 
L 1269 4134 
L 1269 2991 
Q 1406 3038 1543 3061 
Q 1681 3084 1819 3084 
Q 2600 3084 3056 2656 
Q 3513 2228 3513 1497 
Q 3513 744 3044 326 
Q 2575 -91 1722 -91 
Q 1428 -91 1123 -41 
Q 819 9 494 109 
L 494 744 
Q 775 591 1075 516 
Q 1375 441 1709 441 
Q 2250 441 2565 725 
Q 2881 1009 2881 1497 
Q 2881 1984 2565 2268 
Q 2250 2553 1709 2553 
Q 1456 2553 1204 2497 
Q 953 2441 691 2322 
L 691 4666 
z
" transform="scale(0.015625)"/>
       </defs>
       <use xlink:href="#DejaVuSans-30"/>
       <use xlink:href="#DejaVuSans-2e" x="63.623047"/>
       <use xlink:href="#DejaVuSans-34" x="95.410156"/>
       <use xlink:href="#DejaVuSans-35" x="159.033203"/>
      </g>
     </g>
    </g>
    <g id="xtick_2">
     <g id="line2d_2">
      <g>
       <use xlink:href="#m89bc1c4f3d" x="123.402944" y="318.04" style="stroke: #000000; stroke-width: 0.8"/>
      </g>
     </g>
     <g id="text_2">
      <!-- 0.50 -->
      <g transform="translate(112.270131 332.638437) scale(0.1 -0.1)">
       <use xlink:href="#DejaVuSans-30"/>
       <use xlink:href="#DejaVuSans-2e" x="63.623047"/>
       <use xlink:href="#DejaVuSans-35" x="95.410156"/>
       <use xlink:href="#DejaVuSans-30" x="159.033203"/>
      </g>
     </g>
    </g>
    <g id="xtick_3">
     <g id="line2d_3">
      <g>
       <use xlink:href="#m89bc1c4f3d" x="184.224399" y="318.04" style="stroke: #000000; stroke-width: 0.8"/>
      </g>
     </g>
     <g id="text_3">
      <!-- 0.55 -->
      <g transform="translate(173.091586 332.638437) scale(0.1 -0.1)">
       <use xlink:href="#DejaVuSans-30"/>
       <use xlink:href="#DejaVuSans-2e" x="63.623047"/>
       <use xlink:href="#DejaVuSans-35" x="95.410156"/>
       <use xlink:href="#DejaVuSans-35" x="159.033203"/>
      </g>
     </g>
    </g>
    <g id="xtick_4">
     <g id="line2d_4">
      <g>
       <use xlink:href="#m89bc1c4f3d" x="245.045854" y="318.04" style="stroke: #000000; stroke-width: 0.8"/>
      </g>
     </g>
     <g id="text_4">
      <!-- 0.60 -->
      <g transform="translate(233.913041 332.638437) scale(0.1 -0.1)">
       <defs>
        <path id="DejaVuSans-36" d="M 2113 2584 
Q 1688 2584 1439 2293 
Q 1191 2003 1191 1497 
Q 1191 994 1439 701 
Q 1688 409 2113 409 
Q 2538 409 2786 701 
Q 3034 994 3034 1497 
Q 3034 2003 2786 2293 
Q 2538 2584 2113 2584 
z
M 3366 4563 
L 3366 3988 
Q 3128 4100 2886 4159 
Q 2644 4219 2406 4219 
Q 1781 4219 1451 3797 
Q 1122 3375 1075 2522 
Q 1259 2794 1537 2939 
Q 1816 3084 2150 3084 
Q 2853 3084 3261 2657 
Q 3669 2231 3669 1497 
Q 3669 778 3244 343 
Q 2819 -91 2113 -91 
Q 1303 -91 875 529 
Q 447 1150 447 2328 
Q 447 3434 972 4092 
Q 1497 4750 2381 4750 
Q 2619 4750 2861 4703 
Q 3103 4656 3366 4563 
z
" transform="scale(0.015625)"/>
       </defs>
       <use xlink:href="#DejaVuSans-30"/>
       <use xlink:href="#DejaVuSans-2e" x="63.623047"/>
       <use xlink:href="#DejaVuSans-36" x="95.410156"/>
       <use xlink:href="#DejaVuSans-30" x="159.033203"/>
      </g>
     </g>
    </g>
    <g id="xtick_5">
     <g id="line2d_5">
      <g>
       <use xlink:href="#m89bc1c4f3d" x="305.867309" y="318.04" style="stroke: #000000; stroke-width: 0.8"/>
      </g>
     </g>
     <g id="text_5">
      <!-- 0.65 -->
      <g transform="translate(294.734496 332.638437) scale(0.1 -0.1)">
       <use xlink:href="#DejaVuSans-30"/>
       <use xlink:href="#DejaVuSans-2e" x="63.623047"/>
       <use xlink:href="#DejaVuSans-36" x="95.410156"/>
       <use xlink:href="#DejaVuSans-35" x="159.033203"/>
      </g>
     </g>
    </g>
    <g id="xtick_6">
     <g id="line2d_6">
      <g>
       <use xlink:href="#m89bc1c4f3d" x="366.688764" y="318.04" style="stroke: #000000; stroke-width: 0.8"/>
      </g>
     </g>
     <g id="text_6">
      <!-- 0.70 -->
      <g transform="translate(355.555951 332.638437) scale(0.1 -0.1)">
       <defs>
        <path id="DejaVuSans-37" d="M 525 4666 
L 3525 4666 
L 3525 4397 
L 1831 0 
L 1172 0 
L 2766 4134 
L 525 4134 
L 525 4666 
z
" transform="scale(0.015625)"/>
       </defs>
       <use xlink:href="#DejaVuSans-30"/>
       <use xlink:href="#DejaVuSans-2e" x="63.623047"/>
       <use xlink:href="#DejaVuSans-37" x="95.410156"/>
       <use xlink:href="#DejaVuSans-30" x="159.033203"/>
      </g>
     </g>
    </g>
    <g id="xtick_7">
     <g id="line2d_7">
      <g>
       <use xlink:href="#m89bc1c4f3d" x="427.510219" y="318.04" style="stroke: #000000; stroke-width: 0.8"/>
      </g>
     </g>
     <g id="text_7">
      <!-- 0.75 -->
      <g transform="translate(416.377406 332.638437) scale(0.1 -0.1)">
       <use xlink:href="#DejaVuSans-30"/>
       <use xlink:href="#DejaVuSans-2e" x="63.623047"/>
       <use xlink:href="#DejaVuSans-37" x="95.410156"/>
       <use xlink:href="#DejaVuSans-35" x="159.033203"/>
      </g>
     </g>
    </g>
    <g id="xtick_8">
     <g id="line2d_8">
      <g>
       <use xlink:href="#m89bc1c4f3d" x="488.331674" y="318.04" style="stroke: #000000; stroke-width: 0.8"/>
      </g>
     </g>
     <g id="text_8">
      <!-- 0.80 -->
      <g transform="translate(477.198861 332.638437) scale(0.1 -0.1)">
       <defs>
        <path id="DejaVuSans-38" d="M 2034 2216 
Q 1584 2216 1326 1975 
Q 1069 1734 1069 1313 
Q 1069 891 1326 650 
Q 1584 409 2034 409 
Q 2484 409 2743 651 
Q 3003 894 3003 1313 
Q 3003 1734 2745 1975 
Q 2488 2216 2034 2216 
z
M 1403 2484 
Q 997 2584 770 2862 
Q 544 3141 544 3541 
Q 544 4100 942 4425 
Q 1341 4750 2034 4750 
Q 2731 4750 3128 4425 
Q 3525 4100 3525 3541 
Q 3525 3141 3298 2862 
Q 3072 2584 2669 2484 
Q 3125 2378 3379 2068 
Q 3634 1759 3634 1313 
Q 3634 634 3220 271 
Q 2806 -91 2034 -91 
Q 1263 -91 848 271 
Q 434 634 434 1313 
Q 434 1759 690 2068 
Q 947 2378 1403 2484 
z
M 1172 3481 
Q 1172 3119 1398 2916 
Q 1625 2713 2034 2713 
Q 2441 2713 2670 2916 
Q 2900 3119 2900 3481 
Q 2900 3844 2670 4047 
Q 2441 4250 2034 4250 
Q 1625 4250 1398 4047 
Q 1172 3844 1172 3481 
z
" transform="scale(0.015625)"/>
       </defs>
       <use xlink:href="#DejaVuSans-30"/>
       <use xlink:href="#DejaVuSans-2e" x="63.623047"/>
       <use xlink:href="#DejaVuSans-38" x="95.410156"/>
       <use xlink:href="#DejaVuSans-30" x="159.033203"/>
      </g>
     </g>
    </g>
    <g id="text_9">
     <!-- Closest Pixel NDCI -->
     <g transform="translate(240.091875 346.316562) scale(0.1 -0.1)">
      <defs>
       <path id="DejaVuSans-43" d="M 4122 4306 
L 4122 3641 
Q 3803 3938 3442 4084 
Q 3081 4231 2675 4231 
Q 1875 4231 1450 3742 
Q 1025 3253 1025 2328 
Q 1025 1406 1450 917 
Q 1875 428 2675 428 
Q 3081 428 3442 575 
Q 3803 722 4122 1019 
L 4122 359 
Q 3791 134 3420 21 
Q 3050 -91 2638 -91 
Q 1578 -91 968 557 
Q 359 1206 359 2328 
Q 359 3453 968 4101 
Q 1578 4750 2638 4750 
Q 3056 4750 3426 4639 
Q 3797 4528 4122 4306 
z
" transform="scale(0.015625)"/>
       <path id="DejaVuSans-6c" d="M 603 4863 
L 1178 4863 
L 1178 0 
L 603 0 
L 603 4863 
z
" transform="scale(0.015625)"/>
       <path id="DejaVuSans-6f" d="M 1959 3097 
Q 1497 3097 1228 2736 
Q 959 2375 959 1747 
Q 959 1119 1226 758 
Q 1494 397 1959 397 
Q 2419 397 2687 759 
Q 2956 1122 2956 1747 
Q 2956 2369 2687 2733 
Q 2419 3097 1959 3097 
z
M 1959 3584 
Q 2709 3584 3137 3096 
Q 3566 2609 3566 1747 
Q 3566 888 3137 398 
Q 2709 -91 1959 -91 
Q 1206 -91 779 398 
Q 353 888 353 1747 
Q 353 2609 779 3096 
Q 1206 3584 1959 3584 
z
" transform="scale(0.015625)"/>
       <path id="DejaVuSans-73" d="M 2834 3397 
L 2834 2853 
Q 2591 2978 2328 3040 
Q 2066 3103 1784 3103 
Q 1356 3103 1142 2972 
Q 928 2841 928 2578 
Q 928 2378 1081 2264 
Q 1234 2150 1697 2047 
L 1894 2003 
Q 2506 1872 2764 1633 
Q 3022 1394 3022 966 
Q 3022 478 2636 193 
Q 2250 -91 1575 -91 
Q 1294 -91 989 -36 
Q 684 19 347 128 
L 347 722 
Q 666 556 975 473 
Q 1284 391 1588 391 
Q 1994 391 2212 530 
Q 2431 669 2431 922 
Q 2431 1156 2273 1281 
Q 2116 1406 1581 1522 
L 1381 1569 
Q 847 1681 609 1914 
Q 372 2147 372 2553 
Q 372 3047 722 3315 
Q 1072 3584 1716 3584 
Q 2034 3584 2315 3537 
Q 2597 3491 2834 3397 
z
" transform="scale(0.015625)"/>
       <path id="DejaVuSans-65" d="M 3597 1894 
L 3597 1613 
L 953 1613 
Q 991 1019 1311 708 
Q 1631 397 2203 397 
Q 2534 397 2845 478 
Q 3156 559 3463 722 
L 3463 178 
Q 3153 47 2828 -22 
Q 2503 -91 2169 -91 
Q 1331 -91 842 396 
Q 353 884 353 1716 
Q 353 2575 817 3079 
Q 1281 3584 2069 3584 
Q 2775 3584 3186 3129 
Q 3597 2675 3597 1894 
z
M 3022 2063 
Q 3016 2534 2758 2815 
Q 2500 3097 2075 3097 
Q 1594 3097 1305 2825 
Q 1016 2553 972 2059 
L 3022 2063 
z
" transform="scale(0.015625)"/>
       <path id="DejaVuSans-74" d="M 1172 4494 
L 1172 3500 
L 2356 3500 
L 2356 3053 
L 1172 3053 
L 1172 1153 
Q 1172 725 1289 603 
Q 1406 481 1766 481 
L 2356 481 
L 2356 0 
L 1766 0 
Q 1100 0 847 248 
Q 594 497 594 1153 
L 594 3053 
L 172 3053 
L 172 3500 
L 594 3500 
L 594 4494 
L 1172 4494 
z
" transform="scale(0.015625)"/>
       <path id="DejaVuSans-20" transform="scale(0.015625)"/>
       <path id="DejaVuSans-50" d="M 1259 4147 
L 1259 2394 
L 2053 2394 
Q 2494 2394 2734 2622 
Q 2975 2850 2975 3272 
Q 2975 3691 2734 3919 
Q 2494 4147 2053 4147 
L 1259 4147 
z
M 628 4666 
L 2053 4666 
Q 2838 4666 3239 4311 
Q 3641 3956 3641 3272 
Q 3641 2581 3239 2228 
Q 2838 1875 2053 1875 
L 1259 1875 
L 1259 0 
L 628 0 
L 628 4666 
z
" transform="scale(0.015625)"/>
       <path id="DejaVuSans-69" d="M 603 3500 
L 1178 3500 
L 1178 0 
L 603 0 
L 603 3500 
z
M 603 4863 
L 1178 4863 
L 1178 4134 
L 603 4134 
L 603 4863 
z
" transform="scale(0.015625)"/>
       <path id="DejaVuSans-78" d="M 3513 3500 
L 2247 1797 
L 3578 0 
L 2900 0 
L 1881 1375 
L 863 0 
L 184 0 
L 1544 1831 
L 300 3500 
L 978 3500 
L 1906 2253 
L 2834 3500 
L 3513 3500 
z
" transform="scale(0.015625)"/>
       <path id="DejaVuSans-4e" d="M 628 4666 
L 1478 4666 
L 3547 763 
L 3547 4666 
L 4159 4666 
L 4159 0 
L 3309 0 
L 1241 3903 
L 1241 0 
L 628 0 
L 628 4666 
z
" transform="scale(0.015625)"/>
       <path id="DejaVuSans-44" d="M 1259 4147 
L 1259 519 
L 2022 519 
Q 2988 519 3436 956 
Q 3884 1394 3884 2338 
Q 3884 3275 3436 3711 
Q 2988 4147 2022 4147 
L 1259 4147 
z
M 628 4666 
L 1925 4666 
Q 3281 4666 3915 4102 
Q 4550 3538 4550 2338 
Q 4550 1131 3912 565 
Q 3275 0 1925 0 
L 628 0 
L 628 4666 
z
" transform="scale(0.015625)"/>
       <path id="DejaVuSans-49" d="M 628 4666 
L 1259 4666 
L 1259 0 
L 628 0 
L 628 4666 
z
" transform="scale(0.015625)"/>
      </defs>
      <use xlink:href="#DejaVuSans-43"/>
      <use xlink:href="#DejaVuSans-6c" x="69.824219"/>
      <use xlink:href="#DejaVuSans-6f" x="97.607422"/>
      <use xlink:href="#DejaVuSans-73" x="158.789062"/>
      <use xlink:href="#DejaVuSans-65" x="210.888672"/>
      <use xlink:href="#DejaVuSans-73" x="272.412109"/>
      <use xlink:href="#DejaVuSans-74" x="324.511719"/>
      <use xlink:href="#DejaVuSans-20" x="363.720703"/>
      <use xlink:href="#DejaVuSans-50" x="395.507812"/>
      <use xlink:href="#DejaVuSans-69" x="453.560547"/>
      <use xlink:href="#DejaVuSans-78" x="481.34375"/>
      <use xlink:href="#DejaVuSans-65" x="537.398438"/>
      <use xlink:href="#DejaVuSans-6c" x="598.921875"/>
      <use xlink:href="#DejaVuSans-20" x="626.705078"/>
      <use xlink:href="#DejaVuSans-4e" x="658.492188"/>
      <use xlink:href="#DejaVuSans-44" x="733.296875"/>
      <use xlink:href="#DejaVuSans-43" x="810.298828"/>
      <use xlink:href="#DejaVuSans-49" x="880.123047"/>
     </g>
    </g>
   </g>
   <g id="matplotlib.axis_2">
    <g id="ytick_1">
     <g id="line2d_9">
      <defs>
       <path id="me112f8ec87" d="M 0 0 
L -3.5 0 
" style="stroke: #000000; stroke-width: 0.8"/>
      </defs>
      <g>
       <use xlink:href="#me112f8ec87" x="40.603125" y="315.919697" style="stroke: #000000; stroke-width: 0.8"/>
      </g>
     </g>
     <g id="text_10">
      <!-- 15 -->
      <g transform="translate(20.878125 319.718916) scale(0.1 -0.1)">
       <defs>
        <path id="DejaVuSans-31" d="M 794 531 
L 1825 531 
L 1825 4091 
L 703 3866 
L 703 4441 
L 1819 4666 
L 2450 4666 
L 2450 531 
L 3481 531 
L 3481 0 
L 794 0 
L 794 531 
z
" transform="scale(0.015625)"/>
       </defs>
       <use xlink:href="#DejaVuSans-31"/>
       <use xlink:href="#DejaVuSans-35" x="63.623047"/>
      </g>
     </g>
    </g>
    <g id="ytick_2">
     <g id="line2d_10">
      <g>
       <use xlink:href="#me112f8ec87" x="40.603125" y="262.912121" style="stroke: #000000; stroke-width: 0.8"/>
      </g>
     </g>
     <g id="text_11">
      <!-- 20 -->
      <g transform="translate(20.878125 266.71134) scale(0.1 -0.1)">
       <defs>
        <path id="DejaVuSans-32" d="M 1228 531 
L 3431 531 
L 3431 0 
L 469 0 
L 469 531 
Q 828 903 1448 1529 
Q 2069 2156 2228 2338 
Q 2531 2678 2651 2914 
Q 2772 3150 2772 3378 
Q 2772 3750 2511 3984 
Q 2250 4219 1831 4219 
Q 1534 4219 1204 4116 
Q 875 4013 500 3803 
L 500 4441 
Q 881 4594 1212 4672 
Q 1544 4750 1819 4750 
Q 2544 4750 2975 4387 
Q 3406 4025 3406 3419 
Q 3406 3131 3298 2873 
Q 3191 2616 2906 2266 
Q 2828 2175 2409 1742 
Q 1991 1309 1228 531 
z
" transform="scale(0.015625)"/>
       </defs>
       <use xlink:href="#DejaVuSans-32"/>
       <use xlink:href="#DejaVuSans-30" x="63.623047"/>
      </g>
     </g>
    </g>
    <g id="ytick_3">
     <g id="line2d_11">
      <g>
       <use xlink:href="#me112f8ec87" x="40.603125" y="209.904545" style="stroke: #000000; stroke-width: 0.8"/>
      </g>
     </g>
     <g id="text_12">
      <!-- 25 -->
      <g transform="translate(20.878125 213.703764) scale(0.1 -0.1)">
       <use xlink:href="#DejaVuSans-32"/>
       <use xlink:href="#DejaVuSans-35" x="63.623047"/>
      </g>
     </g>
    </g>
    <g id="ytick_4">
     <g id="line2d_12">
      <g>
       <use xlink:href="#me112f8ec87" x="40.603125" y="156.89697" style="stroke: #000000; stroke-width: 0.8"/>
      </g>
     </g>
     <g id="text_13">
      <!-- 30 -->
      <g transform="translate(20.878125 160.696188) scale(0.1 -0.1)">
       <defs>
        <path id="DejaVuSans-33" d="M 2597 2516 
Q 3050 2419 3304 2112 
Q 3559 1806 3559 1356 
Q 3559 666 3084 287 
Q 2609 -91 1734 -91 
Q 1441 -91 1130 -33 
Q 819 25 488 141 
L 488 750 
Q 750 597 1062 519 
Q 1375 441 1716 441 
Q 2309 441 2620 675 
Q 2931 909 2931 1356 
Q 2931 1769 2642 2001 
Q 2353 2234 1838 2234 
L 1294 2234 
L 1294 2753 
L 1863 2753 
Q 2328 2753 2575 2939 
Q 2822 3125 2822 3475 
Q 2822 3834 2567 4026 
Q 2313 4219 1838 4219 
Q 1578 4219 1281 4162 
Q 984 4106 628 3988 
L 628 4550 
Q 988 4650 1302 4700 
Q 1616 4750 1894 4750 
Q 2613 4750 3031 4423 
Q 3450 4097 3450 3541 
Q 3450 3153 3228 2886 
Q 3006 2619 2597 2516 
z
" transform="scale(0.015625)"/>
       </defs>
       <use xlink:href="#DejaVuSans-33"/>
       <use xlink:href="#DejaVuSans-30" x="63.623047"/>
      </g>
     </g>
    </g>
    <g id="ytick_5">
     <g id="line2d_13">
      <g>
       <use xlink:href="#me112f8ec87" x="40.603125" y="103.889394" style="stroke: #000000; stroke-width: 0.8"/>
      </g>
     </g>
     <g id="text_14">
      <!-- 35 -->
      <g transform="translate(20.878125 107.688613) scale(0.1 -0.1)">
       <use xlink:href="#DejaVuSans-33"/>
       <use xlink:href="#DejaVuSans-35" x="63.623047"/>
      </g>
     </g>
    </g>
    <g id="ytick_6">
     <g id="line2d_14">
      <g>
       <use xlink:href="#me112f8ec87" x="40.603125" y="50.881818" style="stroke: #000000; stroke-width: 0.8"/>
      </g>
     </g>
     <g id="text_15">
      <!-- 40 -->
      <g transform="translate(20.878125 54.681037) scale(0.1 -0.1)">
       <use xlink:href="#DejaVuSans-34"/>
       <use xlink:href="#DejaVuSans-30" x="63.623047"/>
      </g>
     </g>
    </g>
    <g id="text_16">
     <!-- In-Situ Chl-a -->
     <g transform="translate(14.798438 208.746094) rotate(-90) scale(0.1 -0.1)">
      <defs>
       <path id="DejaVuSans-6e" d="M 3513 2113 
L 3513 0 
L 2938 0 
L 2938 2094 
Q 2938 2591 2744 2837 
Q 2550 3084 2163 3084 
Q 1697 3084 1428 2787 
Q 1159 2491 1159 1978 
L 1159 0 
L 581 0 
L 581 3500 
L 1159 3500 
L 1159 2956 
Q 1366 3272 1645 3428 
Q 1925 3584 2291 3584 
Q 2894 3584 3203 3211 
Q 3513 2838 3513 2113 
z
" transform="scale(0.015625)"/>
       <path id="DejaVuSans-2d" d="M 313 2009 
L 1997 2009 
L 1997 1497 
L 313 1497 
L 313 2009 
z
" transform="scale(0.015625)"/>
       <path id="DejaVuSans-53" d="M 3425 4513 
L 3425 3897 
Q 3066 4069 2747 4153 
Q 2428 4238 2131 4238 
Q 1616 4238 1336 4038 
Q 1056 3838 1056 3469 
Q 1056 3159 1242 3001 
Q 1428 2844 1947 2747 
L 2328 2669 
Q 3034 2534 3370 2195 
Q 3706 1856 3706 1288 
Q 3706 609 3251 259 
Q 2797 -91 1919 -91 
Q 1588 -91 1214 -16 
Q 841 59 441 206 
L 441 856 
Q 825 641 1194 531 
Q 1563 422 1919 422 
Q 2459 422 2753 634 
Q 3047 847 3047 1241 
Q 3047 1584 2836 1778 
Q 2625 1972 2144 2069 
L 1759 2144 
Q 1053 2284 737 2584 
Q 422 2884 422 3419 
Q 422 4038 858 4394 
Q 1294 4750 2059 4750 
Q 2388 4750 2728 4690 
Q 3069 4631 3425 4513 
z
" transform="scale(0.015625)"/>
       <path id="DejaVuSans-75" d="M 544 1381 
L 544 3500 
L 1119 3500 
L 1119 1403 
Q 1119 906 1312 657 
Q 1506 409 1894 409 
Q 2359 409 2629 706 
Q 2900 1003 2900 1516 
L 2900 3500 
L 3475 3500 
L 3475 0 
L 2900 0 
L 2900 538 
Q 2691 219 2414 64 
Q 2138 -91 1772 -91 
Q 1169 -91 856 284 
Q 544 659 544 1381 
z
M 1991 3584 
L 1991 3584 
z
" transform="scale(0.015625)"/>
       <path id="DejaVuSans-68" d="M 3513 2113 
L 3513 0 
L 2938 0 
L 2938 2094 
Q 2938 2591 2744 2837 
Q 2550 3084 2163 3084 
Q 1697 3084 1428 2787 
Q 1159 2491 1159 1978 
L 1159 0 
L 581 0 
L 581 4863 
L 1159 4863 
L 1159 2956 
Q 1366 3272 1645 3428 
Q 1925 3584 2291 3584 
Q 2894 3584 3203 3211 
Q 3513 2838 3513 2113 
z
" transform="scale(0.015625)"/>
       <path id="DejaVuSans-61" d="M 2194 1759 
Q 1497 1759 1228 1600 
Q 959 1441 959 1056 
Q 959 750 1161 570 
Q 1363 391 1709 391 
Q 2188 391 2477 730 
Q 2766 1069 2766 1631 
L 2766 1759 
L 2194 1759 
z
M 3341 1997 
L 3341 0 
L 2766 0 
L 2766 531 
Q 2569 213 2275 61 
Q 1981 -91 1556 -91 
Q 1019 -91 701 211 
Q 384 513 384 1019 
Q 384 1609 779 1909 
Q 1175 2209 1959 2209 
L 2766 2209 
L 2766 2266 
Q 2766 2663 2505 2880 
Q 2244 3097 1772 3097 
Q 1472 3097 1187 3025 
Q 903 2953 641 2809 
L 641 3341 
Q 956 3463 1253 3523 
Q 1550 3584 1831 3584 
Q 2591 3584 2966 3190 
Q 3341 2797 3341 1997 
z
" transform="scale(0.015625)"/>
      </defs>
      <use xlink:href="#DejaVuSans-49"/>
      <use xlink:href="#DejaVuSans-6e" x="29.492188"/>
      <use xlink:href="#DejaVuSans-2d" x="92.871094"/>
      <use xlink:href="#DejaVuSans-53" x="128.955078"/>
      <use xlink:href="#DejaVuSans-69" x="192.431641"/>
      <use xlink:href="#DejaVuSans-74" x="220.214844"/>
      <use xlink:href="#DejaVuSans-75" x="259.423828"/>
      <use xlink:href="#DejaVuSans-20" x="322.802734"/>
      <use xlink:href="#DejaVuSans-43" x="354.589844"/>
      <use xlink:href="#DejaVuSans-68" x="424.414062"/>
      <use xlink:href="#DejaVuSans-6c" x="487.792969"/>
      <use xlink:href="#DejaVuSans-2d" x="515.576172"/>
      <use xlink:href="#DejaVuSans-61" x="551.660156"/>
     </g>
    </g>
   </g>
   <g id="line2d_15">
    <path d="M 62.873125 229.12211 
L 67.372115 227.923964 
L 71.871105 226.725817 
L 76.370095 225.52767 
L 80.869085 224.329523 
L 85.368074 223.131376 
L 89.867064 221.93323 
L 94.366054 220.735083 
L 98.865044 219.536936 
L 103.364034 218.338789 
L 107.863024 217.140642 
L 112.362014 215.942495 
L 116.861004 214.744349 
L 121.359994 213.546202 
L 125.858984 212.348055 
L 130.357973 211.149908 
L 134.856963 209.951761 
L 139.355953 208.753615 
L 143.854943 207.555468 
L 148.353933 206.357321 
L 152.852923 205.159174 
L 157.351913 203.961027 
L 161.850903 202.762881 
L 166.349893 201.564734 
L 170.848883 200.366587 
L 175.347872 199.16844 
L 179.846862 197.970293 
L 184.345852 196.772146 
L 188.844842 195.574 
L 193.343832 194.375853 
L 197.842822 193.177706 
L 202.341812 191.979559 
L 206.840802 190.781412 
L 211.339792 189.583266 
L 215.838782 188.385119 
L 220.337771 187.186972 
L 224.836761 185.988825 
L 229.335751 184.790678 
L 233.834741 183.592531 
L 238.333731 182.394385 
L 242.832721 181.196238 
L 247.331711 179.998091 
L 251.830701 178.799944 
L 256.329691 177.601797 
L 260.828681 176.403651 
L 265.32767 175.205504 
L 269.82666 174.007357 
L 274.32565 172.80921 
L 278.82464 171.611063 
L 283.32363 170.412916 
L 287.82262 169.21477 
L 292.32161 168.016623 
L 296.8206 166.818476 
L 301.31959 165.620329 
L 305.81858 164.422182 
L 310.317569 163.224036 
L 314.816559 162.025889 
L 319.315549 160.827742 
L 323.814539 159.629595 
L 328.313529 158.431448 
L 332.812519 157.233301 
L 337.311509 156.035155 
L 341.810499 154.837008 
L 346.309489 153.638861 
L 350.808479 152.440714 
L 355.307468 151.242567 
L 359.806458 150.044421 
L 364.305448 148.846274 
L 368.804438 147.648127 
L 373.303428 146.44998 
L 377.802418 145.251833 
L 382.301408 144.053686 
L 386.800398 142.85554 
L 391.299388 141.657393 
L 395.798378 140.459246 
L 400.297367 139.261099 
L 404.796357 138.062952 
L 409.295347 136.864806 
L 413.794337 135.666659 
L 418.293327 134.468512 
L 422.792317 133.270365 
L 427.291307 132.072218 
L 431.790297 130.874071 
L 436.289287 129.675925 
L 440.788277 128.477778 
L 445.287266 127.279631 
L 449.786256 126.081484 
L 454.285246 124.883337 
L 458.784236 123.685191 
L 463.283226 122.487044 
L 467.782216 121.288897 
L 472.281206 120.09075 
L 476.780196 118.892603 
L 481.279186 117.694456 
L 485.778176 116.49631 
L 490.277165 115.298163 
L 494.776155 114.100016 
L 499.275145 112.901869 
L 503.774135 111.703722 
L 508.273125 110.505576 
" clip-path="url(#p6f2cdc594e)" style="fill: none; stroke: #1f77b4; stroke-width: 2.25; stroke-linecap: square"/>
   </g>
   <g id="patch_3">
    <path d="M 40.603125 318.04 
L 40.603125 38.16 
" style="fill: none; stroke: #000000; stroke-width: 0.8; stroke-linejoin: miter; stroke-linecap: square"/>
   </g>
   <g id="patch_4">
    <path d="M 530.543125 318.04 
L 530.543125 38.16 
" style="fill: none; stroke: #000000; stroke-width: 0.8; stroke-linejoin: miter; stroke-linecap: square"/>
   </g>
   <g id="patch_5">
    <path d="M 40.603125 318.04 
L 530.543125 318.04 
" style="fill: none; stroke: #000000; stroke-width: 0.8; stroke-linejoin: miter; stroke-linecap: square"/>
   </g>
   <g id="patch_6">
    <path d="M 40.603125 38.16 
L 530.543125 38.16 
" style="fill: none; stroke: #000000; stroke-width: 0.8; stroke-linejoin: miter; stroke-linecap: square"/>
   </g>
   <g id="text_17">
    <!-- $R^2 =  0.167$ -->
    <g transform="translate(65.100125 62.791812) scale(0.14 -0.14)">
     <defs>
      <path id="DejaVuSans-Oblique-52" d="M 1613 4147 
L 1294 2491 
L 2106 2491 
Q 2584 2491 2879 2755 
Q 3175 3019 3175 3444 
Q 3175 3784 2976 3965 
Q 2778 4147 2406 4147 
L 1613 4147 
z
M 2772 2241 
Q 2972 2194 3105 2009 
Q 3238 1825 3413 1275 
L 3809 0 
L 3144 0 
L 2778 1197 
Q 2638 1659 2453 1815 
Q 2269 1972 1888 1972 
L 1191 1972 
L 806 0 
L 172 0 
L 1081 4666 
L 2503 4666 
Q 3150 4666 3495 4373 
Q 3841 4081 3841 3531 
Q 3841 3044 3547 2687 
Q 3253 2331 2772 2241 
z
" transform="scale(0.015625)"/>
      <path id="DejaVuSans-3d" d="M 678 2906 
L 4684 2906 
L 4684 2381 
L 678 2381 
L 678 2906 
z
M 678 1631 
L 4684 1631 
L 4684 1100 
L 678 1100 
L 678 1631 
z
" transform="scale(0.015625)"/>
     </defs>
     <use xlink:href="#DejaVuSans-Oblique-52" transform="translate(0 0.765625)"/>
     <use xlink:href="#DejaVuSans-32" transform="translate(76.499193 39.046875) scale(0.7)"/>
     <use xlink:href="#DejaVuSans-3d" transform="translate(143.252122 0.765625)"/>
     <use xlink:href="#DejaVuSans-30" transform="translate(246.523607 0.765625)"/>
     <use xlink:href="#DejaVuSans-2e" transform="translate(310.146654 0.765625)"/>
     <use xlink:href="#DejaVuSans-31" transform="translate(341.933763 0.765625)"/>
     <use xlink:href="#DejaVuSans-36" transform="translate(405.55681 0.765625)"/>
     <use xlink:href="#DejaVuSans-37" transform="translate(469.179857 0.765625)"/>
    </g>
   </g>
   <g id="text_18">
    <!-- $p =  0.053$ -->
    <g transform="translate(65.100125 82.354975) scale(0.14 -0.14)">
     <defs>
      <path id="DejaVuSans-Oblique-70" d="M 3175 2156 
Q 3175 2616 2975 2859 
Q 2775 3103 2400 3103 
Q 2144 3103 1911 2972 
Q 1678 2841 1497 2591 
Q 1319 2344 1212 1994 
Q 1106 1644 1106 1300 
Q 1106 863 1306 627 
Q 1506 391 1875 391 
Q 2147 391 2380 519 
Q 2613 647 2778 891 
Q 2956 1147 3065 1494 
Q 3175 1841 3175 2156 
z
M 1394 2969 
Q 1625 3272 1939 3428 
Q 2253 3584 2638 3584 
Q 3175 3584 3472 3232 
Q 3769 2881 3769 2247 
Q 3769 1728 3584 1258 
Q 3400 788 3053 416 
Q 2822 169 2531 39 
Q 2241 -91 1919 -91 
Q 1547 -91 1294 64 
Q 1041 219 916 525 
L 556 -1331 
L -19 -1331 
L 922 3500 
L 1497 3500 
L 1394 2969 
z
" transform="scale(0.015625)"/>
     </defs>
     <use xlink:href="#DejaVuSans-Oblique-70" transform="translate(0 0.78125)"/>
     <use xlink:href="#DejaVuSans-3d" transform="translate(82.958984 0.78125)"/>
     <use xlink:href="#DejaVuSans-30" transform="translate(186.230469 0.78125)"/>
     <use xlink:href="#DejaVuSans-2e" transform="translate(249.853516 0.78125)"/>
     <use xlink:href="#DejaVuSans-30" transform="translate(281.640625 0.78125)"/>
     <use xlink:href="#DejaVuSans-35" transform="translate(345.263672 0.78125)"/>
     <use xlink:href="#DejaVuSans-33" transform="translate(408.886719 0.78125)"/>
    </g>
   </g>
  </g>
  <g id="axes_2">
   <g id="patch_7">
    <path d="M 575.203125 318.04 
L 1065.143125 318.04 
L 1065.143125 38.16 
L 575.203125 38.16 
z
" style="fill: #ffffff"/>
   </g>
   <g id="PathCollection_2">
    <g clip-path="url(#p90c0b338d9)">
     <use xlink:href="#mf49c2022ca" x="789.615198" y="93.287879" style="fill: #1f77b4; fill-opacity: 0.8; stroke: #1f77b4; stroke-opacity: 0.8"/>
     <use xlink:href="#mf49c2022ca" x="597.473125" y="252.310606" style="fill: #1f77b4; fill-opacity: 0.8; stroke: #1f77b4; stroke-opacity: 0.8"/>
     <use xlink:href="#mf49c2022ca" x="806.511499" y="146.295455" style="fill: #1f77b4; fill-opacity: 0.8; stroke: #1f77b4; stroke-opacity: 0.8"/>
     <use xlink:href="#mf49c2022ca" x="808.105048" y="241.709091" style="fill: #1f77b4; fill-opacity: 0.8; stroke: #1f77b4; stroke-opacity: 0.8"/>
     <use xlink:href="#mf49c2022ca" x="1034.248494" y="82.686364" style="fill: #1f77b4; fill-opacity: 0.8; stroke: #1f77b4; stroke-opacity: 0.8"/>
     <use xlink:href="#mf49c2022ca" x="798.608713" y="156.89697" style="fill: #1f77b4; fill-opacity: 0.8; stroke: #1f77b4; stroke-opacity: 0.8"/>
     <use xlink:href="#mf49c2022ca" x="757.893674" y="252.310606" style="fill: #1f77b4; fill-opacity: 0.8; stroke: #1f77b4; stroke-opacity: 0.8"/>
     <use xlink:href="#mf49c2022ca" x="773.624352" y="241.709091" style="fill: #1f77b4; fill-opacity: 0.8; stroke: #1f77b4; stroke-opacity: 0.8"/>
     <use xlink:href="#mf49c2022ca" x="830.922096" y="178.1" style="fill: #1f77b4; fill-opacity: 0.8; stroke: #1f77b4; stroke-opacity: 0.8"/>
     <use xlink:href="#mf49c2022ca" x="854.850022" y="188.701515" style="fill: #1f77b4; fill-opacity: 0.8; stroke: #1f77b4; stroke-opacity: 0.8"/>
     <use xlink:href="#mf49c2022ca" x="1042.873125" y="125.092424" style="fill: #1f77b4; fill-opacity: 0.8; stroke: #1f77b4; stroke-opacity: 0.8"/>
     <use xlink:href="#mf49c2022ca" x="811.102466" y="114.490909" style="fill: #1f77b4; fill-opacity: 0.8; stroke: #1f77b4; stroke-opacity: 0.8"/>
     <use xlink:href="#mf49c2022ca" x="861.499335" y="103.889394" style="fill: #1f77b4; fill-opacity: 0.8; stroke: #1f77b4; stroke-opacity: 0.8"/>
     <use xlink:href="#mf49c2022ca" x="885.966567" y="231.107576" style="fill: #1f77b4; fill-opacity: 0.8; stroke: #1f77b4; stroke-opacity: 0.8"/>
     <use xlink:href="#mf49c2022ca" x="844.442225" y="135.693939" style="fill: #1f77b4; fill-opacity: 0.8; stroke: #1f77b4; stroke-opacity: 0.8"/>
     <use xlink:href="#mf49c2022ca" x="920.430586" y="135.693939" style="fill: #1f77b4; fill-opacity: 0.8; stroke: #1f77b4; stroke-opacity: 0.8"/>
     <use xlink:href="#mf49c2022ca" x="618.078255" y="50.881818" style="fill: #1f77b4; fill-opacity: 0.8; stroke: #1f77b4; stroke-opacity: 0.8"/>
     <use xlink:href="#mf49c2022ca" x="940.491424" y="178.1" style="fill: #1f77b4; fill-opacity: 0.8; stroke: #1f77b4; stroke-opacity: 0.8"/>
     <use xlink:href="#mf49c2022ca" x="841.529316" y="188.701515" style="fill: #1f77b4; fill-opacity: 0.8; stroke: #1f77b4; stroke-opacity: 0.8"/>
     <use xlink:href="#mf49c2022ca" x="906.239649" y="135.693939" style="fill: #1f77b4; fill-opacity: 0.8; stroke: #1f77b4; stroke-opacity: 0.8"/>
     <use xlink:href="#mf49c2022ca" x="988.165963" y="146.295455" style="fill: #1f77b4; fill-opacity: 0.8; stroke: #1f77b4; stroke-opacity: 0.8"/>
     <use xlink:href="#mf49c2022ca" x="906.485758" y="199.30303" style="fill: #1f77b4; fill-opacity: 0.8; stroke: #1f77b4; stroke-opacity: 0.8"/>
     <use xlink:href="#mf49c2022ca" x="789.013376" y="305.318182" style="fill: #1f77b4; fill-opacity: 0.8; stroke: #1f77b4; stroke-opacity: 0.8"/>
    </g>
   </g>
   <g id="PolyCollection_2">
    <path d="M 597.473125 118.742371 
L 597.473125 301.747916 
L 601.972115 299.836584 
L 606.471105 297.925252 
L 610.970095 296.01392 
L 615.469085 294.102588 
L 619.968074 292.191256 
L 624.467064 290.279924 
L 628.966054 288.359436 
L 633.465044 286.434471 
L 637.964034 284.509505 
L 642.463024 282.58454 
L 646.962014 280.54851 
L 651.461004 278.291282 
L 655.959994 276.034053 
L 660.458984 273.776825 
L 664.957973 271.519597 
L 669.456963 269.262369 
L 673.955953 267.005141 
L 678.454943 264.747913 
L 682.953933 262.489304 
L 687.452923 260.228719 
L 691.951913 258.438487 
L 696.450903 256.691023 
L 700.949893 254.943558 
L 705.448883 253.196094 
L 709.947872 251.446733 
L 714.446862 249.692818 
L 718.945852 247.935731 
L 723.444842 245.730948 
L 727.943832 243.301297 
L 732.442822 240.871039 
L 736.941812 238.440781 
L 741.440802 236.188727 
L 745.939792 234.358601 
L 750.438782 232.612879 
L 754.937771 230.625213 
L 759.436761 228.691703 
L 763.935751 226.825129 
L 768.434741 224.958555 
L 772.933731 223.091982 
L 777.432721 221.22286 
L 781.931711 219.347373 
L 786.430701 217.471885 
L 790.929691 215.596397 
L 795.428681 213.720909 
L 799.92767 211.661564 
L 804.42666 209.915448 
L 808.92565 208.11364 
L 813.42464 206.242355 
L 817.92363 204.374461 
L 822.42262 202.509309 
L 826.92161 200.354047 
L 831.4206 198.77056 
L 835.91959 196.985703 
L 840.41858 195.6534 
L 844.917569 194.267547 
L 849.416559 193.156436 
L 853.915549 191.890423 
L 858.414539 190.60087 
L 862.913529 189.273777 
L 867.412519 188.185012 
L 871.911509 187.398411 
L 876.410499 186.370673 
L 880.909489 185.347884 
L 885.408479 184.586693 
L 889.907468 183.97386 
L 894.406458 183.903686 
L 898.905448 184.141377 
L 903.404438 184.697782 
L 907.903428 184.736699 
L 912.402418 184.944173 
L 916.901408 185.003163 
L 921.400398 185.324259 
L 925.899388 185.201819 
L 930.398378 184.689512 
L 934.897367 184.965804 
L 939.396357 185.613972 
L 943.895347 186.26214 
L 948.394337 186.731899 
L 952.893327 186.965735 
L 957.392317 187.648093 
L 961.891307 188.422613 
L 966.390297 189.074478 
L 970.889287 189.616685 
L 975.388277 189.759343 
L 979.887266 190.020972 
L 984.386256 190.334597 
L 988.885246 190.644496 
L 993.384236 190.954299 
L 997.883226 191.30703 
L 1002.382216 191.695925 
L 1006.881206 191.912074 
L 1011.380196 192.698759 
L 1015.879186 193.345586 
L 1020.378176 193.515847 
L 1024.877165 194.10909 
L 1029.376155 194.76509 
L 1033.875145 195.201052 
L 1038.374135 195.417784 
L 1042.873125 195.633975 
L 1042.873125 90.178779 
L 1042.873125 90.178779 
L 1038.374135 91.949051 
L 1033.875145 93.967933 
L 1029.376155 95.851315 
L 1024.877165 97.659032 
L 1020.378176 99.634899 
L 1015.879186 101.523805 
L 1011.380196 103.410954 
L 1006.881206 105.290001 
L 1002.382216 107.175035 
L 997.883226 108.731864 
L 993.384236 110.277493 
L 988.885246 112.170955 
L 984.386256 114.253544 
L 979.887266 116.397044 
L 975.388277 118.483 
L 970.889287 120.106312 
L 966.390297 121.639972 
L 961.891307 123.031982 
L 957.392317 124.44228 
L 952.893327 125.920445 
L 948.394337 127.322 
L 943.895347 129.226794 
L 939.396357 130.212165 
L 934.897367 131.650901 
L 930.398378 133.386249 
L 925.899388 134.774783 
L 921.400398 135.972073 
L 916.901408 136.94951 
L 912.402418 137.335121 
L 907.903428 138.399583 
L 903.404438 139.449405 
L 898.905448 140.47683 
L 894.406458 140.849328 
L 889.907468 140.981981 
L 885.408479 141.206804 
L 880.909489 141.920105 
L 876.410499 142.903698 
L 871.911509 142.807149 
L 867.412519 143.46336 
L 862.913529 144.135762 
L 858.414539 144.088747 
L 853.915549 144.862687 
L 849.416559 144.620971 
L 844.917569 144.467391 
L 840.41858 144.355909 
L 835.91959 144.028844 
L 831.4206 144.368808 
L 826.92161 144.025543 
L 822.42262 143.993847 
L 817.92363 143.662436 
L 813.42464 143.224887 
L 808.92565 143.336576 
L 804.42666 143.389775 
L 799.92767 142.710913 
L 795.428681 142.901127 
L 790.929691 142.178778 
L 786.430701 141.222681 
L 781.931711 140.532076 
L 777.432721 139.317931 
L 772.933731 138.103785 
L 768.434741 137.482482 
L 763.935751 137.31592 
L 759.436761 136.592336 
L 754.937771 136.145777 
L 750.438782 136.078616 
L 745.939792 136.037512 
L 741.440802 135.996409 
L 736.941812 135.958416 
L 732.442822 135.21179 
L 727.943832 134.193752 
L 723.444842 133.175715 
L 718.945852 132.157677 
L 714.446862 131.576021 
L 709.947872 131.448946 
L 705.448883 131.326977 
L 700.949893 131.502843 
L 696.450903 131.198267 
L 691.951913 130.916656 
L 687.452923 130.765264 
L 682.953933 130.613872 
L 678.454943 129.308802 
L 673.955953 127.867917 
L 669.456963 126.434048 
L 664.957973 125.985852 
L 660.458984 125.6201 
L 655.959994 125.254347 
L 651.461004 124.888595 
L 646.962014 124.522842 
L 642.463024 124.157089 
L 637.964034 123.791337 
L 633.465044 123.425584 
L 628.966054 123.058301 
L 624.467064 122.362122 
L 619.968074 121.665943 
L 615.469085 120.993599 
L 610.970095 120.315077 
L 606.471105 119.555094 
L 601.972115 119.012231 
L 597.473125 118.742371 
z
" clip-path="url(#p90c0b338d9)" style="fill: #1f77b4; fill-opacity: 0.15"/>
   </g>
   <g id="matplotlib.axis_3">
    <g id="xtick_9">
     <g id="line2d_16">
      <g>
       <use xlink:href="#m89bc1c4f3d" x="590.052355" y="318.04" style="stroke: #000000; stroke-width: 0.8"/>
      </g>
     </g>
     <g id="text_19">
      <!-- 0.45 -->
      <g transform="translate(578.919542 332.638437) scale(0.1 -0.1)">
       <use xlink:href="#DejaVuSans-30"/>
       <use xlink:href="#DejaVuSans-2e" x="63.623047"/>
       <use xlink:href="#DejaVuSans-34" x="95.410156"/>
       <use xlink:href="#DejaVuSans-35" x="159.033203"/>
      </g>
     </g>
    </g>
    <g id="xtick_10">
     <g id="line2d_17">
      <g>
       <use xlink:href="#m89bc1c4f3d" x="660.430818" y="318.04" style="stroke: #000000; stroke-width: 0.8"/>
      </g>
     </g>
     <g id="text_20">
      <!-- 0.50 -->
      <g transform="translate(649.298005 332.638437) scale(0.1 -0.1)">
       <use xlink:href="#DejaVuSans-30"/>
       <use xlink:href="#DejaVuSans-2e" x="63.623047"/>
       <use xlink:href="#DejaVuSans-35" x="95.410156"/>
       <use xlink:href="#DejaVuSans-30" x="159.033203"/>
      </g>
     </g>
    </g>
    <g id="xtick_11">
     <g id="line2d_18">
      <g>
       <use xlink:href="#m89bc1c4f3d" x="730.809281" y="318.04" style="stroke: #000000; stroke-width: 0.8"/>
      </g>
     </g>
     <g id="text_21">
      <!-- 0.55 -->
      <g transform="translate(719.676468 332.638437) scale(0.1 -0.1)">
       <use xlink:href="#DejaVuSans-30"/>
       <use xlink:href="#DejaVuSans-2e" x="63.623047"/>
       <use xlink:href="#DejaVuSans-35" x="95.410156"/>
       <use xlink:href="#DejaVuSans-35" x="159.033203"/>
      </g>
     </g>
    </g>
    <g id="xtick_12">
     <g id="line2d_19">
      <g>
       <use xlink:href="#m89bc1c4f3d" x="801.187744" y="318.04" style="stroke: #000000; stroke-width: 0.8"/>
      </g>
     </g>
     <g id="text_22">
      <!-- 0.60 -->
      <g transform="translate(790.054931 332.638437) scale(0.1 -0.1)">
       <use xlink:href="#DejaVuSans-30"/>
       <use xlink:href="#DejaVuSans-2e" x="63.623047"/>
       <use xlink:href="#DejaVuSans-36" x="95.410156"/>
       <use xlink:href="#DejaVuSans-30" x="159.033203"/>
      </g>
     </g>
    </g>
    <g id="xtick_13">
     <g id="line2d_20">
      <g>
       <use xlink:href="#m89bc1c4f3d" x="871.566207" y="318.04" style="stroke: #000000; stroke-width: 0.8"/>
      </g>
     </g>
     <g id="text_23">
      <!-- 0.65 -->
      <g transform="translate(860.433394 332.638437) scale(0.1 -0.1)">
       <use xlink:href="#DejaVuSans-30"/>
       <use xlink:href="#DejaVuSans-2e" x="63.623047"/>
       <use xlink:href="#DejaVuSans-36" x="95.410156"/>
       <use xlink:href="#DejaVuSans-35" x="159.033203"/>
      </g>
     </g>
    </g>
    <g id="xtick_14">
     <g id="line2d_21">
      <g>
       <use xlink:href="#m89bc1c4f3d" x="941.944669" y="318.04" style="stroke: #000000; stroke-width: 0.8"/>
      </g>
     </g>
     <g id="text_24">
      <!-- 0.70 -->
      <g transform="translate(930.811857 332.638437) scale(0.1 -0.1)">
       <use xlink:href="#DejaVuSans-30"/>
       <use xlink:href="#DejaVuSans-2e" x="63.623047"/>
       <use xlink:href="#DejaVuSans-37" x="95.410156"/>
       <use xlink:href="#DejaVuSans-30" x="159.033203"/>
      </g>
     </g>
    </g>
    <g id="xtick_15">
     <g id="line2d_22">
      <g>
       <use xlink:href="#m89bc1c4f3d" x="1012.323132" y="318.04" style="stroke: #000000; stroke-width: 0.8"/>
      </g>
     </g>
     <g id="text_25">
      <!-- 0.75 -->
      <g transform="translate(1001.19032 332.638437) scale(0.1 -0.1)">
       <use xlink:href="#DejaVuSans-30"/>
       <use xlink:href="#DejaVuSans-2e" x="63.623047"/>
       <use xlink:href="#DejaVuSans-37" x="95.410156"/>
       <use xlink:href="#DejaVuSans-35" x="159.033203"/>
      </g>
     </g>
    </g>
    <g id="text_26">
     <!-- Pixel Interpolation NDCI -->
     <g transform="translate(760.877812 346.316562) scale(0.1 -0.1)">
      <defs>
       <path id="DejaVuSans-72" d="M 2631 2963 
Q 2534 3019 2420 3045 
Q 2306 3072 2169 3072 
Q 1681 3072 1420 2755 
Q 1159 2438 1159 1844 
L 1159 0 
L 581 0 
L 581 3500 
L 1159 3500 
L 1159 2956 
Q 1341 3275 1631 3429 
Q 1922 3584 2338 3584 
Q 2397 3584 2469 3576 
Q 2541 3569 2628 3553 
L 2631 2963 
z
" transform="scale(0.015625)"/>
       <path id="DejaVuSans-70" d="M 1159 525 
L 1159 -1331 
L 581 -1331 
L 581 3500 
L 1159 3500 
L 1159 2969 
Q 1341 3281 1617 3432 
Q 1894 3584 2278 3584 
Q 2916 3584 3314 3078 
Q 3713 2572 3713 1747 
Q 3713 922 3314 415 
Q 2916 -91 2278 -91 
Q 1894 -91 1617 61 
Q 1341 213 1159 525 
z
M 3116 1747 
Q 3116 2381 2855 2742 
Q 2594 3103 2138 3103 
Q 1681 3103 1420 2742 
Q 1159 2381 1159 1747 
Q 1159 1113 1420 752 
Q 1681 391 2138 391 
Q 2594 391 2855 752 
Q 3116 1113 3116 1747 
z
" transform="scale(0.015625)"/>
      </defs>
      <use xlink:href="#DejaVuSans-50"/>
      <use xlink:href="#DejaVuSans-69" x="58.052734"/>
      <use xlink:href="#DejaVuSans-78" x="85.835938"/>
      <use xlink:href="#DejaVuSans-65" x="141.890625"/>
      <use xlink:href="#DejaVuSans-6c" x="203.414062"/>
      <use xlink:href="#DejaVuSans-20" x="231.197266"/>
      <use xlink:href="#DejaVuSans-49" x="262.984375"/>
      <use xlink:href="#DejaVuSans-6e" x="292.476562"/>
      <use xlink:href="#DejaVuSans-74" x="355.855469"/>
      <use xlink:href="#DejaVuSans-65" x="395.064453"/>
      <use xlink:href="#DejaVuSans-72" x="456.587891"/>
      <use xlink:href="#DejaVuSans-70" x="497.701172"/>
      <use xlink:href="#DejaVuSans-6f" x="561.177734"/>
      <use xlink:href="#DejaVuSans-6c" x="622.359375"/>
      <use xlink:href="#DejaVuSans-61" x="650.142578"/>
      <use xlink:href="#DejaVuSans-74" x="711.421875"/>
      <use xlink:href="#DejaVuSans-69" x="750.630859"/>
      <use xlink:href="#DejaVuSans-6f" x="778.414062"/>
      <use xlink:href="#DejaVuSans-6e" x="839.595703"/>
      <use xlink:href="#DejaVuSans-20" x="902.974609"/>
      <use xlink:href="#DejaVuSans-4e" x="934.761719"/>
      <use xlink:href="#DejaVuSans-44" x="1009.566406"/>
      <use xlink:href="#DejaVuSans-43" x="1086.568359"/>
      <use xlink:href="#DejaVuSans-49" x="1156.392578"/>
     </g>
    </g>
   </g>
   <g id="matplotlib.axis_4">
    <g id="ytick_7">
     <g id="line2d_23">
      <g>
       <use xlink:href="#me112f8ec87" x="575.203125" y="315.919697" style="stroke: #000000; stroke-width: 0.8"/>
      </g>
     </g>
     <g id="text_27">
      <!-- 15 -->
      <g transform="translate(555.478125 319.718916) scale(0.1 -0.1)">
       <use xlink:href="#DejaVuSans-31"/>
       <use xlink:href="#DejaVuSans-35" x="63.623047"/>
      </g>
     </g>
    </g>
    <g id="ytick_8">
     <g id="line2d_24">
      <g>
       <use xlink:href="#me112f8ec87" x="575.203125" y="262.912121" style="stroke: #000000; stroke-width: 0.8"/>
      </g>
     </g>
     <g id="text_28">
      <!-- 20 -->
      <g transform="translate(555.478125 266.71134) scale(0.1 -0.1)">
       <use xlink:href="#DejaVuSans-32"/>
       <use xlink:href="#DejaVuSans-30" x="63.623047"/>
      </g>
     </g>
    </g>
    <g id="ytick_9">
     <g id="line2d_25">
      <g>
       <use xlink:href="#me112f8ec87" x="575.203125" y="209.904545" style="stroke: #000000; stroke-width: 0.8"/>
      </g>
     </g>
     <g id="text_29">
      <!-- 25 -->
      <g transform="translate(555.478125 213.703764) scale(0.1 -0.1)">
       <use xlink:href="#DejaVuSans-32"/>
       <use xlink:href="#DejaVuSans-35" x="63.623047"/>
      </g>
     </g>
    </g>
    <g id="ytick_10">
     <g id="line2d_26">
      <g>
       <use xlink:href="#me112f8ec87" x="575.203125" y="156.89697" style="stroke: #000000; stroke-width: 0.8"/>
      </g>
     </g>
     <g id="text_30">
      <!-- 30 -->
      <g transform="translate(555.478125 160.696188) scale(0.1 -0.1)">
       <use xlink:href="#DejaVuSans-33"/>
       <use xlink:href="#DejaVuSans-30" x="63.623047"/>
      </g>
     </g>
    </g>
    <g id="ytick_11">
     <g id="line2d_27">
      <g>
       <use xlink:href="#me112f8ec87" x="575.203125" y="103.889394" style="stroke: #000000; stroke-width: 0.8"/>
      </g>
     </g>
     <g id="text_31">
      <!-- 35 -->
      <g transform="translate(555.478125 107.688613) scale(0.1 -0.1)">
       <use xlink:href="#DejaVuSans-33"/>
       <use xlink:href="#DejaVuSans-35" x="63.623047"/>
      </g>
     </g>
    </g>
    <g id="ytick_12">
     <g id="line2d_28">
      <g>
       <use xlink:href="#me112f8ec87" x="575.203125" y="50.881818" style="stroke: #000000; stroke-width: 0.8"/>
      </g>
     </g>
     <g id="text_32">
      <!-- 40 -->
      <g transform="translate(555.478125 54.681037) scale(0.1 -0.1)">
       <use xlink:href="#DejaVuSans-34"/>
       <use xlink:href="#DejaVuSans-30" x="63.623047"/>
      </g>
     </g>
    </g>
    <g id="text_33">
     <!-- In-Situ Chl-a -->
     <g transform="translate(549.398437 208.746094) rotate(-90) scale(0.1 -0.1)">
      <use xlink:href="#DejaVuSans-49"/>
      <use xlink:href="#DejaVuSans-6e" x="29.492188"/>
      <use xlink:href="#DejaVuSans-2d" x="92.871094"/>
      <use xlink:href="#DejaVuSans-53" x="128.955078"/>
      <use xlink:href="#DejaVuSans-69" x="192.431641"/>
      <use xlink:href="#DejaVuSans-74" x="220.214844"/>
      <use xlink:href="#DejaVuSans-75" x="259.423828"/>
      <use xlink:href="#DejaVuSans-20" x="322.802734"/>
      <use xlink:href="#DejaVuSans-43" x="354.589844"/>
      <use xlink:href="#DejaVuSans-68" x="424.414062"/>
      <use xlink:href="#DejaVuSans-6c" x="487.792969"/>
      <use xlink:href="#DejaVuSans-2d" x="515.576172"/>
      <use xlink:href="#DejaVuSans-61" x="551.660156"/>
     </g>
    </g>
   </g>
   <g id="line2d_29">
    <path d="M 597.473125 204.917664 
L 601.972115 204.259574 
L 606.471105 203.601484 
L 610.970095 202.943394 
L 615.469085 202.285304 
L 619.968074 201.627214 
L 624.467064 200.969124 
L 628.966054 200.311034 
L 633.465044 199.652945 
L 637.964034 198.994855 
L 642.463024 198.336765 
L 646.962014 197.678675 
L 651.461004 197.020585 
L 655.959994 196.362495 
L 660.458984 195.704405 
L 664.957973 195.046315 
L 669.456963 194.388225 
L 673.955953 193.730135 
L 678.454943 193.072045 
L 682.953933 192.413955 
L 687.452923 191.755865 
L 691.951913 191.097775 
L 696.450903 190.439685 
L 700.949893 189.781595 
L 705.448883 189.123505 
L 709.947872 188.465416 
L 714.446862 187.807326 
L 718.945852 187.149236 
L 723.444842 186.491146 
L 727.943832 185.833056 
L 732.442822 185.174966 
L 736.941812 184.516876 
L 741.440802 183.858786 
L 745.939792 183.200696 
L 750.438782 182.542606 
L 754.937771 181.884516 
L 759.436761 181.226426 
L 763.935751 180.568336 
L 768.434741 179.910246 
L 772.933731 179.252156 
L 777.432721 178.594066 
L 781.931711 177.935977 
L 786.430701 177.277887 
L 790.929691 176.619797 
L 795.428681 175.961707 
L 799.92767 175.303617 
L 804.42666 174.645527 
L 808.92565 173.987437 
L 813.42464 173.329347 
L 817.92363 172.671257 
L 822.42262 172.013167 
L 826.92161 171.355077 
L 831.4206 170.696987 
L 835.91959 170.038897 
L 840.41858 169.380807 
L 844.917569 168.722717 
L 849.416559 168.064627 
L 853.915549 167.406537 
L 858.414539 166.748448 
L 862.913529 166.090358 
L 867.412519 165.432268 
L 871.911509 164.774178 
L 876.410499 164.116088 
L 880.909489 163.457998 
L 885.408479 162.799908 
L 889.907468 162.141818 
L 894.406458 161.483728 
L 898.905448 160.825638 
L 903.404438 160.167548 
L 907.903428 159.509458 
L 912.402418 158.851368 
L 916.901408 158.193278 
L 921.400398 157.535188 
L 925.899388 156.877098 
L 930.398378 156.219009 
L 934.897367 155.560919 
L 939.396357 154.902829 
L 943.895347 154.244739 
L 948.394337 153.586649 
L 952.893327 152.928559 
L 957.392317 152.270469 
L 961.891307 151.612379 
L 966.390297 150.954289 
L 970.889287 150.296199 
L 975.388277 149.638109 
L 979.887266 148.980019 
L 984.386256 148.321929 
L 988.885246 147.663839 
L 993.384236 147.005749 
L 997.883226 146.347659 
L 1002.382216 145.689569 
L 1006.881206 145.03148 
L 1011.380196 144.37339 
L 1015.879186 143.7153 
L 1020.378176 143.05721 
L 1024.877165 142.39912 
L 1029.376155 141.74103 
L 1033.875145 141.08294 
L 1038.374135 140.42485 
L 1042.873125 139.76676 
" clip-path="url(#p90c0b338d9)" style="fill: none; stroke: #1f77b4; stroke-width: 2.25; stroke-linecap: square"/>
   </g>
   <g id="patch_8">
    <path d="M 575.203125 318.04 
L 575.203125 38.16 
" style="fill: none; stroke: #000000; stroke-width: 0.8; stroke-linejoin: miter; stroke-linecap: square"/>
   </g>
   <g id="patch_9">
    <path d="M 1065.143125 318.04 
L 1065.143125 38.16 
" style="fill: none; stroke: #000000; stroke-width: 0.8; stroke-linejoin: miter; stroke-linecap: square"/>
   </g>
   <g id="patch_10">
    <path d="M 575.203125 318.04 
L 1065.143125 318.04 
" style="fill: none; stroke: #000000; stroke-width: 0.8; stroke-linejoin: miter; stroke-linecap: square"/>
   </g>
   <g id="patch_11">
    <path d="M 575.203125 38.16 
L 1065.143125 38.16 
" style="fill: none; stroke: #000000; stroke-width: 0.8; stroke-linejoin: miter; stroke-linecap: square"/>
   </g>
   <g id="text_34">
    <!-- $R^2 =  0.062$ -->
    <g transform="translate(599.700125 62.791812) scale(0.14 -0.14)">
     <use xlink:href="#DejaVuSans-Oblique-52" transform="translate(0 0.765625)"/>
     <use xlink:href="#DejaVuSans-32" transform="translate(76.499193 39.046875) scale(0.7)"/>
     <use xlink:href="#DejaVuSans-3d" transform="translate(143.252122 0.765625)"/>
     <use xlink:href="#DejaVuSans-30" transform="translate(246.523607 0.765625)"/>
     <use xlink:href="#DejaVuSans-2e" transform="translate(310.146654 0.765625)"/>
     <use xlink:href="#DejaVuSans-30" transform="translate(341.933763 0.765625)"/>
     <use xlink:href="#DejaVuSans-36" transform="translate(405.55681 0.765625)"/>
     <use xlink:href="#DejaVuSans-32" transform="translate(469.179857 0.765625)"/>
    </g>
   </g>
   <g id="text_35">
    <!-- $p =  0.253$ -->
    <g transform="translate(599.700125 82.354975) scale(0.14 -0.14)">
     <use xlink:href="#DejaVuSans-Oblique-70" transform="translate(0 0.78125)"/>
     <use xlink:href="#DejaVuSans-3d" transform="translate(82.958984 0.78125)"/>
     <use xlink:href="#DejaVuSans-30" transform="translate(186.230469 0.78125)"/>
     <use xlink:href="#DejaVuSans-2e" transform="translate(249.853516 0.78125)"/>
     <use xlink:href="#DejaVuSans-32" transform="translate(276.140625 0.78125)"/>
     <use xlink:href="#DejaVuSans-35" transform="translate(339.763672 0.78125)"/>
     <use xlink:href="#DejaVuSans-33" transform="translate(403.386719 0.78125)"/>
    </g>
   </g>
  </g>
  <g id="text_36">
   <!-- Sentinel-3 NDCI Comparison -->
   <g transform="translate(408.521875 19.3575) scale(0.16 -0.16)">
    <defs>
     <path id="DejaVuSans-Bold-53" d="M 3834 4519 
L 3834 3531 
Q 3450 3703 3084 3790 
Q 2719 3878 2394 3878 
Q 1963 3878 1756 3759 
Q 1550 3641 1550 3391 
Q 1550 3203 1689 3098 
Q 1828 2994 2194 2919 
L 2706 2816 
Q 3484 2659 3812 2340 
Q 4141 2022 4141 1434 
Q 4141 663 3683 286 
Q 3225 -91 2284 -91 
Q 1841 -91 1394 -6 
Q 947 78 500 244 
L 500 1259 
Q 947 1022 1364 901 
Q 1781 781 2169 781 
Q 2563 781 2772 912 
Q 2981 1044 2981 1288 
Q 2981 1506 2839 1625 
Q 2697 1744 2272 1838 
L 1806 1941 
Q 1106 2091 782 2419 
Q 459 2747 459 3303 
Q 459 4000 909 4375 
Q 1359 4750 2203 4750 
Q 2588 4750 2994 4692 
Q 3400 4634 3834 4519 
z
" transform="scale(0.015625)"/>
     <path id="DejaVuSans-Bold-65" d="M 4031 1759 
L 4031 1441 
L 1416 1441 
Q 1456 1047 1700 850 
Q 1944 653 2381 653 
Q 2734 653 3104 758 
Q 3475 863 3866 1075 
L 3866 213 
Q 3469 63 3072 -14 
Q 2675 -91 2278 -91 
Q 1328 -91 801 392 
Q 275 875 275 1747 
Q 275 2603 792 3093 
Q 1309 3584 2216 3584 
Q 3041 3584 3536 3087 
Q 4031 2591 4031 1759 
z
M 2881 2131 
Q 2881 2450 2695 2645 
Q 2509 2841 2209 2841 
Q 1884 2841 1681 2658 
Q 1478 2475 1428 2131 
L 2881 2131 
z
" transform="scale(0.015625)"/>
     <path id="DejaVuSans-Bold-6e" d="M 4056 2131 
L 4056 0 
L 2931 0 
L 2931 347 
L 2931 1631 
Q 2931 2084 2911 2256 
Q 2891 2428 2841 2509 
Q 2775 2619 2662 2680 
Q 2550 2741 2406 2741 
Q 2056 2741 1856 2470 
Q 1656 2200 1656 1722 
L 1656 0 
L 538 0 
L 538 3500 
L 1656 3500 
L 1656 2988 
Q 1909 3294 2193 3439 
Q 2478 3584 2822 3584 
Q 3428 3584 3742 3212 
Q 4056 2841 4056 2131 
z
" transform="scale(0.015625)"/>
     <path id="DejaVuSans-Bold-74" d="M 1759 4494 
L 1759 3500 
L 2913 3500 
L 2913 2700 
L 1759 2700 
L 1759 1216 
Q 1759 972 1856 886 
Q 1953 800 2241 800 
L 2816 800 
L 2816 0 
L 1856 0 
Q 1194 0 917 276 
Q 641 553 641 1216 
L 641 2700 
L 84 2700 
L 84 3500 
L 641 3500 
L 641 4494 
L 1759 4494 
z
" transform="scale(0.015625)"/>
     <path id="DejaVuSans-Bold-69" d="M 538 3500 
L 1656 3500 
L 1656 0 
L 538 0 
L 538 3500 
z
M 538 4863 
L 1656 4863 
L 1656 3950 
L 538 3950 
L 538 4863 
z
" transform="scale(0.015625)"/>
     <path id="DejaVuSans-Bold-6c" d="M 538 4863 
L 1656 4863 
L 1656 0 
L 538 0 
L 538 4863 
z
" transform="scale(0.015625)"/>
     <path id="DejaVuSans-Bold-2d" d="M 347 2297 
L 2309 2297 
L 2309 1388 
L 347 1388 
L 347 2297 
z
" transform="scale(0.015625)"/>
     <path id="DejaVuSans-Bold-33" d="M 2981 2516 
Q 3453 2394 3698 2092 
Q 3944 1791 3944 1325 
Q 3944 631 3412 270 
Q 2881 -91 1863 -91 
Q 1503 -91 1142 -33 
Q 781 25 428 141 
L 428 1069 
Q 766 900 1098 814 
Q 1431 728 1753 728 
Q 2231 728 2486 893 
Q 2741 1059 2741 1369 
Q 2741 1688 2480 1852 
Q 2219 2016 1709 2016 
L 1228 2016 
L 1228 2791 
L 1734 2791 
Q 2188 2791 2409 2933 
Q 2631 3075 2631 3366 
Q 2631 3634 2415 3781 
Q 2200 3928 1806 3928 
Q 1516 3928 1219 3862 
Q 922 3797 628 3669 
L 628 4550 
Q 984 4650 1334 4700 
Q 1684 4750 2022 4750 
Q 2931 4750 3382 4451 
Q 3834 4153 3834 3553 
Q 3834 3144 3618 2883 
Q 3403 2622 2981 2516 
z
" transform="scale(0.015625)"/>
     <path id="DejaVuSans-Bold-20" transform="scale(0.015625)"/>
     <path id="DejaVuSans-Bold-4e" d="M 588 4666 
L 1931 4666 
L 3628 1466 
L 3628 4666 
L 4769 4666 
L 4769 0 
L 3425 0 
L 1728 3200 
L 1728 0 
L 588 0 
L 588 4666 
z
" transform="scale(0.015625)"/>
     <path id="DejaVuSans-Bold-44" d="M 1791 3756 
L 1791 909 
L 2222 909 
Q 2959 909 3348 1275 
Q 3738 1641 3738 2338 
Q 3738 3031 3350 3393 
Q 2963 3756 2222 3756 
L 1791 3756 
z
M 588 4666 
L 1856 4666 
Q 2919 4666 3439 4514 
Q 3959 4363 4331 4000 
Q 4659 3684 4818 3271 
Q 4978 2859 4978 2338 
Q 4978 1809 4818 1395 
Q 4659 981 4331 666 
Q 3956 303 3431 151 
Q 2906 0 1856 0 
L 588 0 
L 588 4666 
z
" transform="scale(0.015625)"/>
     <path id="DejaVuSans-Bold-43" d="M 4288 256 
Q 3956 84 3597 -3 
Q 3238 -91 2847 -91 
Q 1681 -91 1000 561 
Q 319 1213 319 2328 
Q 319 3447 1000 4098 
Q 1681 4750 2847 4750 
Q 3238 4750 3597 4662 
Q 3956 4575 4288 4403 
L 4288 3438 
Q 3953 3666 3628 3772 
Q 3303 3878 2944 3878 
Q 2300 3878 1931 3465 
Q 1563 3053 1563 2328 
Q 1563 1606 1931 1193 
Q 2300 781 2944 781 
Q 3303 781 3628 887 
Q 3953 994 4288 1222 
L 4288 256 
z
" transform="scale(0.015625)"/>
     <path id="DejaVuSans-Bold-49" d="M 588 4666 
L 1791 4666 
L 1791 0 
L 588 0 
L 588 4666 
z
" transform="scale(0.015625)"/>
     <path id="DejaVuSans-Bold-6f" d="M 2203 2784 
Q 1831 2784 1636 2517 
Q 1441 2250 1441 1747 
Q 1441 1244 1636 976 
Q 1831 709 2203 709 
Q 2569 709 2762 976 
Q 2956 1244 2956 1747 
Q 2956 2250 2762 2517 
Q 2569 2784 2203 2784 
z
M 2203 3584 
Q 3106 3584 3614 3096 
Q 4122 2609 4122 1747 
Q 4122 884 3614 396 
Q 3106 -91 2203 -91 
Q 1297 -91 786 396 
Q 275 884 275 1747 
Q 275 2609 786 3096 
Q 1297 3584 2203 3584 
z
" transform="scale(0.015625)"/>
     <path id="DejaVuSans-Bold-6d" d="M 3781 2919 
Q 3994 3244 4286 3414 
Q 4578 3584 4928 3584 
Q 5531 3584 5847 3212 
Q 6163 2841 6163 2131 
L 6163 0 
L 5038 0 
L 5038 1825 
Q 5041 1866 5042 1909 
Q 5044 1953 5044 2034 
Q 5044 2406 4934 2573 
Q 4825 2741 4581 2741 
Q 4263 2741 4089 2478 
Q 3916 2216 3909 1719 
L 3909 0 
L 2784 0 
L 2784 1825 
Q 2784 2406 2684 2573 
Q 2584 2741 2328 2741 
Q 2006 2741 1831 2477 
Q 1656 2213 1656 1722 
L 1656 0 
L 531 0 
L 531 3500 
L 1656 3500 
L 1656 2988 
Q 1863 3284 2130 3434 
Q 2397 3584 2719 3584 
Q 3081 3584 3359 3409 
Q 3638 3234 3781 2919 
z
" transform="scale(0.015625)"/>
     <path id="DejaVuSans-Bold-70" d="M 1656 506 
L 1656 -1331 
L 538 -1331 
L 538 3500 
L 1656 3500 
L 1656 2988 
Q 1888 3294 2169 3439 
Q 2450 3584 2816 3584 
Q 3463 3584 3878 3070 
Q 4294 2556 4294 1747 
Q 4294 938 3878 423 
Q 3463 -91 2816 -91 
Q 2450 -91 2169 54 
Q 1888 200 1656 506 
z
M 2400 2772 
Q 2041 2772 1848 2508 
Q 1656 2244 1656 1747 
Q 1656 1250 1848 986 
Q 2041 722 2400 722 
Q 2759 722 2948 984 
Q 3138 1247 3138 1747 
Q 3138 2247 2948 2509 
Q 2759 2772 2400 2772 
z
" transform="scale(0.015625)"/>
     <path id="DejaVuSans-Bold-61" d="M 2106 1575 
Q 1756 1575 1579 1456 
Q 1403 1338 1403 1106 
Q 1403 894 1545 773 
Q 1688 653 1941 653 
Q 2256 653 2472 879 
Q 2688 1106 2688 1447 
L 2688 1575 
L 2106 1575 
z
M 3816 1997 
L 3816 0 
L 2688 0 
L 2688 519 
Q 2463 200 2181 54 
Q 1900 -91 1497 -91 
Q 953 -91 614 226 
Q 275 544 275 1050 
Q 275 1666 698 1953 
Q 1122 2241 2028 2241 
L 2688 2241 
L 2688 2328 
Q 2688 2594 2478 2717 
Q 2269 2841 1825 2841 
Q 1466 2841 1156 2769 
Q 847 2697 581 2553 
L 581 3406 
Q 941 3494 1303 3539 
Q 1666 3584 2028 3584 
Q 2975 3584 3395 3211 
Q 3816 2838 3816 1997 
z
" transform="scale(0.015625)"/>
     <path id="DejaVuSans-Bold-72" d="M 3138 2547 
Q 2991 2616 2845 2648 
Q 2700 2681 2553 2681 
Q 2122 2681 1889 2404 
Q 1656 2128 1656 1613 
L 1656 0 
L 538 0 
L 538 3500 
L 1656 3500 
L 1656 2925 
Q 1872 3269 2151 3426 
Q 2431 3584 2822 3584 
Q 2878 3584 2943 3579 
Q 3009 3575 3134 3559 
L 3138 2547 
z
" transform="scale(0.015625)"/>
     <path id="DejaVuSans-Bold-73" d="M 3272 3391 
L 3272 2541 
Q 2913 2691 2578 2766 
Q 2244 2841 1947 2841 
Q 1628 2841 1473 2761 
Q 1319 2681 1319 2516 
Q 1319 2381 1436 2309 
Q 1553 2238 1856 2203 
L 2053 2175 
Q 2913 2066 3209 1816 
Q 3506 1566 3506 1031 
Q 3506 472 3093 190 
Q 2681 -91 1863 -91 
Q 1516 -91 1145 -36 
Q 775 19 384 128 
L 384 978 
Q 719 816 1070 734 
Q 1422 653 1784 653 
Q 2113 653 2278 743 
Q 2444 834 2444 1013 
Q 2444 1163 2330 1236 
Q 2216 1309 1875 1350 
L 1678 1375 
Q 931 1469 631 1722 
Q 331 1975 331 2491 
Q 331 3047 712 3315 
Q 1094 3584 1881 3584 
Q 2191 3584 2531 3537 
Q 2872 3491 3272 3391 
z
" transform="scale(0.015625)"/>
    </defs>
    <use xlink:href="#DejaVuSans-Bold-53"/>
    <use xlink:href="#DejaVuSans-Bold-65" x="72.021484"/>
    <use xlink:href="#DejaVuSans-Bold-6e" x="139.84375"/>
    <use xlink:href="#DejaVuSans-Bold-74" x="211.035156"/>
    <use xlink:href="#DejaVuSans-Bold-69" x="258.837891"/>
    <use xlink:href="#DejaVuSans-Bold-6e" x="293.115234"/>
    <use xlink:href="#DejaVuSans-Bold-65" x="364.306641"/>
    <use xlink:href="#DejaVuSans-Bold-6c" x="432.128906"/>
    <use xlink:href="#DejaVuSans-Bold-2d" x="466.40625"/>
    <use xlink:href="#DejaVuSans-Bold-33" x="507.910156"/>
    <use xlink:href="#DejaVuSans-Bold-20" x="577.490234"/>
    <use xlink:href="#DejaVuSans-Bold-4e" x="612.304688"/>
    <use xlink:href="#DejaVuSans-Bold-44" x="695.996094"/>
    <use xlink:href="#DejaVuSans-Bold-43" x="779.003906"/>
    <use xlink:href="#DejaVuSans-Bold-49" x="852.392578"/>
    <use xlink:href="#DejaVuSans-Bold-20" x="889.599609"/>
    <use xlink:href="#DejaVuSans-Bold-43" x="924.414062"/>
    <use xlink:href="#DejaVuSans-Bold-6f" x="997.802734"/>
    <use xlink:href="#DejaVuSans-Bold-6d" x="1066.503906"/>
    <use xlink:href="#DejaVuSans-Bold-70" x="1170.703125"/>
    <use xlink:href="#DejaVuSans-Bold-61" x="1242.285156"/>
    <use xlink:href="#DejaVuSans-Bold-72" x="1309.765625"/>
    <use xlink:href="#DejaVuSans-Bold-69" x="1359.082031"/>
    <use xlink:href="#DejaVuSans-Bold-73" x="1393.359375"/>
    <use xlink:href="#DejaVuSans-Bold-6f" x="1452.880859"/>
    <use xlink:href="#DejaVuSans-Bold-6e" x="1521.582031"/>
   </g>
  </g>
 </g>
 <defs>
  <clipPath id="p6f2cdc594e">
   <rect x="40.603125" y="38.16" width="489.94" height="279.88"/>
  </clipPath>
  <clipPath id="p90c0b338d9">
   <rect x="575.203125" y="38.16" width="489.94" height="279.88"/>
  </clipPath>
 </defs>
</svg>
