<?xml version="1.0" encoding="utf-8" standalone="no"?>
<!DOCTYPE svg PUBLIC "-//W3C//DTD SVG 1.1//EN"
  "http://www.w3.org/Graphics/SVG/1.1/DTD/svg11.dtd">
<svg xmlns:xlink="http://www.w3.org/1999/xlink" width="1072.343125pt" height="355.59625pt" viewBox="0 0 1072.343125 355.59625" xmlns="http://www.w3.org/2000/svg" version="1.1">
 <metadata>
  <rdf:RDF xmlns:dc="http://purl.org/dc/elements/1.1/" xmlns:cc="http://creativecommons.org/ns#" xmlns:rdf="http://www.w3.org/1999/02/22-rdf-syntax-ns#">
   <cc:Work>
    <dc:type rdf:resource="http://purl.org/dc/dcmitype/StillImage"/>
    <dc:date>2024-04-19T14:07:11.091285</dc:date>
    <dc:format>image/svg+xml</dc:format>
    <dc:creator>
     <cc:Agent>
      <dc:title>Matplotlib v3.7.0, https://matplotlib.org/</dc:title>
     </cc:Agent>
    </dc:creator>
   </cc:Work>
  </rdf:RDF>
 </metadata>
 <defs>
  <style type="text/css">*{stroke-linejoin: round; stroke-linecap: butt}</style>
 </defs>
 <g id="figure_1">
  <g id="patch_1">
   <path d="M 0 355.59625 
L 1072.343125 355.59625 
L 1072.343125 0 
L 0 0 
z
" style="fill: #ffffff"/>
  </g>
  <g id="axes_1">
   <g id="patch_2">
    <path d="M 40.603125 318.04 
L 527.816126 318.04 
L 527.816126 38.209655 
L 40.603125 38.209655 
z
" style="fill: #ffffff"/>
   </g>
   <g id="PathCollection_1">
    <defs>
     <path id="mdfe130e0a6" d="M 0 3 
C 0.795609 3 1.55874 2.683901 2.12132 2.12132 
C 2.683901 1.55874 3 0.795609 3 0 
C 3 -0.795609 2.683901 -1.55874 2.12132 -2.12132 
C 1.55874 -2.683901 0.795609 -3 0 -3 
C -0.795609 -3 -1.55874 -2.683901 -2.12132 -2.12132 
C -2.683901 -1.55874 -3 -0.795609 -3 0 
C -3 0.795609 -2.683901 1.55874 -2.12132 2.12132 
C -1.55874 2.683901 -0.795609 3 0 3 
z
" style="stroke: #1f77b4; stroke-opacity: 0.8"/>
    </defs>
    <g clip-path="url(#pdb8a2ae404)">
     <use xlink:href="#mdfe130e0a6" x="282.298218" y="138.650328" style="fill: #1f77b4; fill-opacity: 0.8; stroke: #1f77b4; stroke-opacity: 0.8"/>
     <use xlink:href="#mdfe130e0a6" x="325.299666" y="182.510883" style="fill: #1f77b4; fill-opacity: 0.8; stroke: #1f77b4; stroke-opacity: 0.8"/>
     <use xlink:href="#mdfe130e0a6" x="392.002151" y="86.017661" style="fill: #1f77b4; fill-opacity: 0.8; stroke: #1f77b4; stroke-opacity: 0.8"/>
     <use xlink:href="#mdfe130e0a6" x="323.779314" y="217.599328" style="fill: #1f77b4; fill-opacity: 0.8; stroke: #1f77b4; stroke-opacity: 0.8"/>
     <use xlink:href="#mdfe130e0a6" x="326.886663" y="121.106105" style="fill: #1f77b4; fill-opacity: 0.8; stroke: #1f77b4; stroke-opacity: 0.8"/>
     <use xlink:href="#mdfe130e0a6" x="328.547144" y="235.14355" style="fill: #1f77b4; fill-opacity: 0.8; stroke: #1f77b4; stroke-opacity: 0.8"/>
     <use xlink:href="#mdfe130e0a6" x="278.975211" y="252.687772" style="fill: #1f77b4; fill-opacity: 0.8; stroke: #1f77b4; stroke-opacity: 0.8"/>
     <use xlink:href="#mdfe130e0a6" x="332.436101" y="164.966661" style="fill: #1f77b4; fill-opacity: 0.8; stroke: #1f77b4; stroke-opacity: 0.8"/>
     <use xlink:href="#mdfe130e0a6" x="313.50552" y="243.915661" style="fill: #1f77b4; fill-opacity: 0.8; stroke: #1f77b4; stroke-opacity: 0.8"/>
     <use xlink:href="#mdfe130e0a6" x="293.478423" y="112.333994" style="fill: #1f77b4; fill-opacity: 0.8; stroke: #1f77b4; stroke-opacity: 0.8"/>
     <use xlink:href="#mdfe130e0a6" x="351.075464" y="173.738772" style="fill: #1f77b4; fill-opacity: 0.8; stroke: #1f77b4; stroke-opacity: 0.8"/>
     <use xlink:href="#mdfe130e0a6" x="356.897924" y="252.687772" style="fill: #1f77b4; fill-opacity: 0.8; stroke: #1f77b4; stroke-opacity: 0.8"/>
     <use xlink:href="#mdfe130e0a6" x="429.465396" y="235.14355" style="fill: #1f77b4; fill-opacity: 0.8; stroke: #1f77b4; stroke-opacity: 0.8"/>
     <use xlink:href="#mdfe130e0a6" x="197.26276" y="217.599328" style="fill: #1f77b4; fill-opacity: 0.8; stroke: #1f77b4; stroke-opacity: 0.8"/>
     <use xlink:href="#mdfe130e0a6" x="413.550973" y="243.915661" style="fill: #1f77b4; fill-opacity: 0.8; stroke: #1f77b4; stroke-opacity: 0.8"/>
     <use xlink:href="#mdfe130e0a6" x="394.644144" y="191.282994" style="fill: #1f77b4; fill-opacity: 0.8; stroke: #1f77b4; stroke-opacity: 0.8"/>
     <use xlink:href="#mdfe130e0a6" x="385.678829" y="200.055105" style="fill: #1f77b4; fill-opacity: 0.8; stroke: #1f77b4; stroke-opacity: 0.8"/>
     <use xlink:href="#mdfe130e0a6" x="374.780195" y="147.422439" style="fill: #1f77b4; fill-opacity: 0.8; stroke: #1f77b4; stroke-opacity: 0.8"/>
     <use xlink:href="#mdfe130e0a6" x="380.835806" y="147.422439" style="fill: #1f77b4; fill-opacity: 0.8; stroke: #1f77b4; stroke-opacity: 0.8"/>
     <use xlink:href="#mdfe130e0a6" x="411.622508" y="138.650328" style="fill: #1f77b4; fill-opacity: 0.8; stroke: #1f77b4; stroke-opacity: 0.8"/>
     <use xlink:href="#mdfe130e0a6" x="249.399418" y="129.878216" style="fill: #1f77b4; fill-opacity: 0.8; stroke: #1f77b4; stroke-opacity: 0.8"/>
     <use xlink:href="#mdfe130e0a6" x="379.322903" y="235.14355" style="fill: #1f77b4; fill-opacity: 0.8; stroke: #1f77b4; stroke-opacity: 0.8"/>
     <use xlink:href="#mdfe130e0a6" x="387.123286" y="156.19455" style="fill: #1f77b4; fill-opacity: 0.8; stroke: #1f77b4; stroke-opacity: 0.8"/>
     <use xlink:href="#mdfe130e0a6" x="451.276891" y="156.19455" style="fill: #1f77b4; fill-opacity: 0.8; stroke: #1f77b4; stroke-opacity: 0.8"/>
     <use xlink:href="#mdfe130e0a6" x="491.848493" y="50.929216" style="fill: #1f77b4; fill-opacity: 0.8; stroke: #1f77b4; stroke-opacity: 0.8"/>
     <use xlink:href="#mdfe130e0a6" x="298.706907" y="305.320439" style="fill: #1f77b4; fill-opacity: 0.8; stroke: #1f77b4; stroke-opacity: 0.8"/>
     <use xlink:href="#mdfe130e0a6" x="406.966506" y="86.017661" style="fill: #1f77b4; fill-opacity: 0.8; stroke: #1f77b4; stroke-opacity: 0.8"/>
     <use xlink:href="#mdfe130e0a6" x="505.670081" y="173.738772" style="fill: #1f77b4; fill-opacity: 0.8; stroke: #1f77b4; stroke-opacity: 0.8"/>
     <use xlink:href="#mdfe130e0a6" x="505.2754" y="191.282994" style="fill: #1f77b4; fill-opacity: 0.8; stroke: #1f77b4; stroke-opacity: 0.8"/>
     <use xlink:href="#mdfe130e0a6" x="370.629298" y="200.055105" style="fill: #1f77b4; fill-opacity: 0.8; stroke: #1f77b4; stroke-opacity: 0.8"/>
     <use xlink:href="#mdfe130e0a6" x="437.984801" y="156.19455" style="fill: #1f77b4; fill-opacity: 0.8; stroke: #1f77b4; stroke-opacity: 0.8"/>
     <use xlink:href="#mdfe130e0a6" x="438.103865" y="164.966661" style="fill: #1f77b4; fill-opacity: 0.8; stroke: #1f77b4; stroke-opacity: 0.8"/>
     <use xlink:href="#mdfe130e0a6" x="469.527283" y="208.827217" style="fill: #1f77b4; fill-opacity: 0.8; stroke: #1f77b4; stroke-opacity: 0.8"/>
     <use xlink:href="#mdfe130e0a6" x="416.521338" y="296.548328" style="fill: #1f77b4; fill-opacity: 0.8; stroke: #1f77b4; stroke-opacity: 0.8"/>
     <use xlink:href="#mdfe130e0a6" x="394.256179" y="182.510883" style="fill: #1f77b4; fill-opacity: 0.8; stroke: #1f77b4; stroke-opacity: 0.8"/>
     <use xlink:href="#mdfe130e0a6" x="389.68224" y="103.561883" style="fill: #1f77b4; fill-opacity: 0.8; stroke: #1f77b4; stroke-opacity: 0.8"/>
     <use xlink:href="#mdfe130e0a6" x="391.034254" y="270.231994" style="fill: #1f77b4; fill-opacity: 0.8; stroke: #1f77b4; stroke-opacity: 0.8"/>
     <use xlink:href="#mdfe130e0a6" x="62.749171" y="59.701327" style="fill: #1f77b4; fill-opacity: 0.8; stroke: #1f77b4; stroke-opacity: 0.8"/>
     <use xlink:href="#mdfe130e0a6" x="415.446407" y="226.371439" style="fill: #1f77b4; fill-opacity: 0.8; stroke: #1f77b4; stroke-opacity: 0.8"/>
     <use xlink:href="#mdfe130e0a6" x="410.087013" y="94.789772" style="fill: #1f77b4; fill-opacity: 0.8; stroke: #1f77b4; stroke-opacity: 0.8"/>
    </g>
   </g>
   <g id="PolyCollection_1">
    <path d="M 62.749171 98.905185 
L 62.749171 288.168034 
L 67.223119 286.784073 
L 71.697068 285.400113 
L 76.171016 284.016153 
L 80.644965 282.632192 
L 85.118913 281.248232 
L 89.592862 279.855462 
L 94.066811 278.4619 
L 98.540759 277.068339 
L 103.014708 275.674777 
L 107.488656 274.281215 
L 111.962605 272.887654 
L 116.436554 271.494092 
L 120.910502 270.10053 
L 125.384451 268.539964 
L 129.858399 266.974216 
L 134.332348 265.408468 
L 138.806297 263.948703 
L 143.280245 262.691367 
L 147.754194 261.434032 
L 152.228142 260.172033 
L 156.702091 258.413181 
L 161.176039 256.723624 
L 165.649988 254.974695 
L 170.123937 253.21947 
L 174.597885 251.464245 
L 179.071834 249.71667 
L 183.545782 248.14035 
L 188.019731 246.714835 
L 192.49368 245.289438 
L 196.967628 243.965465 
L 201.441577 242.621407 
L 205.915525 241.018855 
L 210.389474 239.421978 
L 214.863423 238.288396 
L 219.337371 236.558623 
L 223.81132 235.164745 
L 228.285268 233.891226 
L 232.759217 232.617707 
L 237.233165 231.341574 
L 241.707114 230.060936 
L 246.181063 228.780298 
L 250.655011 227.448952 
L 255.12896 226.242419 
L 259.602908 224.966001 
L 264.076857 223.606046 
L 268.550806 222.18311 
L 273.024754 220.851672 
L 277.498703 219.726107 
L 281.972651 218.553301 
L 286.4466 217.328204 
L 290.920549 216.057042 
L 295.394497 214.886724 
L 299.868446 213.661724 
L 304.342394 212.353502 
L 308.816343 211.04061 
L 313.290291 209.726065 
L 317.76424 208.430069 
L 322.238189 207.520833 
L 326.712137 206.208012 
L 331.186086 205.118223 
L 335.660034 204.284869 
L 340.133983 203.446042 
L 344.607932 202.157713 
L 349.08188 201.405315 
L 353.555829 200.65226 
L 358.029777 200.395125 
L 362.503726 200.319357 
L 366.977675 200.202137 
L 371.451623 199.814795 
L 375.925572 199.408341 
L 380.39952 199.053673 
L 384.873469 198.87317 
L 389.347418 199.040875 
L 393.821366 199.470101 
L 398.295315 199.61256 
L 402.769263 200.473515 
L 407.243212 201.391803 
L 411.71716 202.327692 
L 416.191109 203.047092 
L 420.665058 204.013012 
L 425.139006 204.803651 
L 429.612955 206.098051 
L 434.086903 206.995672 
L 438.560852 207.863283 
L 443.034801 208.776933 
L 447.508749 209.71362 
L 451.982698 210.696411 
L 456.456646 211.580315 
L 460.930595 212.658482 
L 465.404544 213.645991 
L 469.878492 214.624069 
L 474.352441 215.552692 
L 478.826389 216.247862 
L 483.300338 217.123048 
L 487.774286 217.917395 
L 492.248235 218.868706 
L 496.722184 219.9555 
L 501.196132 220.783083 
L 505.670081 221.54929 
L 505.670081 135.002719 
L 505.670081 135.002719 
L 501.196132 136.145633 
L 496.722184 137.396943 
L 492.248235 138.828505 
L 487.774286 140.057655 
L 483.300338 141.198702 
L 478.826389 142.79665 
L 474.352441 144.273606 
L 469.878492 145.400126 
L 465.404544 146.451695 
L 460.930595 147.788915 
L 456.456646 148.746032 
L 451.982698 149.703149 
L 447.508749 150.970993 
L 443.034801 151.852219 
L 438.560852 152.962368 
L 434.086903 154.013793 
L 429.612955 154.786414 
L 425.139006 155.541862 
L 420.665058 156.337253 
L 416.191109 157.269096 
L 411.71716 157.995028 
L 407.243212 158.519645 
L 402.769263 158.824393 
L 398.295315 159.17597 
L 393.821366 159.463226 
L 389.347418 160.411887 
L 384.873469 160.380112 
L 380.39952 160.385276 
L 375.925572 160.307155 
L 371.451623 160.153938 
L 366.977675 160.108248 
L 362.503726 159.761931 
L 358.029777 159.596067 
L 353.555829 159.020325 
L 349.08188 158.471654 
L 344.607932 157.895758 
L 340.133983 157.803538 
L 335.660034 157.473272 
L 331.186086 156.76086 
L 326.712137 156.114424 
L 322.238189 155.710905 
L 317.76424 155.278857 
L 313.290291 154.834544 
L 308.816343 153.906007 
L 304.342394 153.01643 
L 299.868446 152.112806 
L 295.394497 151.265727 
L 290.920549 150.500241 
L 286.4466 149.914362 
L 281.972651 149.330018 
L 277.498703 148.740026 
L 273.024754 147.686336 
L 268.550806 146.693699 
L 264.076857 146.415372 
L 259.602908 145.386893 
L 255.12896 144.456121 
L 250.655011 143.478166 
L 246.181063 142.75217 
L 241.707114 141.748382 
L 237.233165 140.897376 
L 232.759217 140.022288 
L 228.285268 138.957809 
L 223.81132 137.700899 
L 219.337371 136.617112 
L 214.863423 135.676219 
L 210.389474 134.664924 
L 205.915525 133.625051 
L 201.441577 132.64266 
L 196.967628 131.657204 
L 192.49368 130.671747 
L 188.019731 129.649779 
L 183.545782 128.689285 
L 179.071834 127.629177 
L 174.597885 126.730873 
L 170.123937 125.678137 
L 165.649988 124.563169 
L 161.176039 123.532605 
L 156.702091 122.474581 
L 152.228142 121.261981 
L 147.754194 120.199569 
L 143.280245 119.137314 
L 138.806297 118.016742 
L 134.332348 117.01626 
L 129.858399 115.960222 
L 125.384451 114.93066 
L 120.910502 113.901097 
L 116.436554 112.871535 
L 111.962605 111.825672 
L 107.488656 110.645453 
L 103.014708 109.5777 
L 98.540759 108.513031 
L 94.066811 107.450619 
L 89.592862 106.388206 
L 85.118913 105.292385 
L 80.644965 104.016907 
L 76.171016 102.713184 
L 71.697068 101.40303 
L 67.223119 100.185945 
L 62.749171 98.905185 
z
" clip-path="url(#pdb8a2ae404)" style="fill: #1f77b4; fill-opacity: 0.15"/>
   </g>
   <g id="matplotlib.axis_1">
    <g id="xtick_1">
     <g id="line2d_1">
      <defs>
       <path id="m9f5ddffbab" d="M 0 0 
L 0 3.5 
" style="stroke: #000000; stroke-width: 0.8"/>
      </defs>
      <g>
       <use xlink:href="#m9f5ddffbab" x="110.753559" y="318.04" style="stroke: #000000; stroke-width: 0.8"/>
      </g>
     </g>
     <g id="text_1">
      <!-- 0.03 -->
      <g transform="translate(99.620747 332.638437) scale(0.1 -0.1)">
       <defs>
        <path id="DejaVuSans-30" d="M 2034 4250 
Q 1547 4250 1301 3770 
Q 1056 3291 1056 2328 
Q 1056 1369 1301 889 
Q 1547 409 2034 409 
Q 2525 409 2770 889 
Q 3016 1369 3016 2328 
Q 3016 3291 2770 3770 
Q 2525 4250 2034 4250 
z
M 2034 4750 
Q 2819 4750 3233 4129 
Q 3647 3509 3647 2328 
Q 3647 1150 3233 529 
Q 2819 -91 2034 -91 
Q 1250 -91 836 529 
Q 422 1150 422 2328 
Q 422 3509 836 4129 
Q 1250 4750 2034 4750 
z
" transform="scale(0.015625)"/>
        <path id="DejaVuSans-2e" d="M 684 794 
L 1344 794 
L 1344 0 
L 684 0 
L 684 794 
z
" transform="scale(0.015625)"/>
        <path id="DejaVuSans-33" d="M 2597 2516 
Q 3050 2419 3304 2112 
Q 3559 1806 3559 1356 
Q 3559 666 3084 287 
Q 2609 -91 1734 -91 
Q 1441 -91 1130 -33 
Q 819 25 488 141 
L 488 750 
Q 750 597 1062 519 
Q 1375 441 1716 441 
Q 2309 441 2620 675 
Q 2931 909 2931 1356 
Q 2931 1769 2642 2001 
Q 2353 2234 1838 2234 
L 1294 2234 
L 1294 2753 
L 1863 2753 
Q 2328 2753 2575 2939 
Q 2822 3125 2822 3475 
Q 2822 3834 2567 4026 
Q 2313 4219 1838 4219 
Q 1578 4219 1281 4162 
Q 984 4106 628 3988 
L 628 4550 
Q 988 4650 1302 4700 
Q 1616 4750 1894 4750 
Q 2613 4750 3031 4423 
Q 3450 4097 3450 3541 
Q 3450 3153 3228 2886 
Q 3006 2619 2597 2516 
z
" transform="scale(0.015625)"/>
       </defs>
       <use xlink:href="#DejaVuSans-30"/>
       <use xlink:href="#DejaVuSans-2e" x="63.623047"/>
       <use xlink:href="#DejaVuSans-30" x="95.410156"/>
       <use xlink:href="#DejaVuSans-33" x="159.033203"/>
      </g>
     </g>
    </g>
    <g id="xtick_2">
     <g id="line2d_2">
      <g>
       <use xlink:href="#m9f5ddffbab" x="192.704642" y="318.04" style="stroke: #000000; stroke-width: 0.8"/>
      </g>
     </g>
     <g id="text_2">
      <!-- 0.04 -->
      <g transform="translate(181.57183 332.638437) scale(0.1 -0.1)">
       <defs>
        <path id="DejaVuSans-34" d="M 2419 4116 
L 825 1625 
L 2419 1625 
L 2419 4116 
z
M 2253 4666 
L 3047 4666 
L 3047 1625 
L 3713 1625 
L 3713 1100 
L 3047 1100 
L 3047 0 
L 2419 0 
L 2419 1100 
L 313 1100 
L 313 1709 
L 2253 4666 
z
" transform="scale(0.015625)"/>
       </defs>
       <use xlink:href="#DejaVuSans-30"/>
       <use xlink:href="#DejaVuSans-2e" x="63.623047"/>
       <use xlink:href="#DejaVuSans-30" x="95.410156"/>
       <use xlink:href="#DejaVuSans-34" x="159.033203"/>
      </g>
     </g>
    </g>
    <g id="xtick_3">
     <g id="line2d_3">
      <g>
       <use xlink:href="#m9f5ddffbab" x="274.655726" y="318.04" style="stroke: #000000; stroke-width: 0.8"/>
      </g>
     </g>
     <g id="text_3">
      <!-- 0.05 -->
      <g transform="translate(263.522913 332.638437) scale(0.1 -0.1)">
       <defs>
        <path id="DejaVuSans-35" d="M 691 4666 
L 3169 4666 
L 3169 4134 
L 1269 4134 
L 1269 2991 
Q 1406 3038 1543 3061 
Q 1681 3084 1819 3084 
Q 2600 3084 3056 2656 
Q 3513 2228 3513 1497 
Q 3513 744 3044 326 
Q 2575 -91 1722 -91 
Q 1428 -91 1123 -41 
Q 819 9 494 109 
L 494 744 
Q 775 591 1075 516 
Q 1375 441 1709 441 
Q 2250 441 2565 725 
Q 2881 1009 2881 1497 
Q 2881 1984 2565 2268 
Q 2250 2553 1709 2553 
Q 1456 2553 1204 2497 
Q 953 2441 691 2322 
L 691 4666 
z
" transform="scale(0.015625)"/>
       </defs>
       <use xlink:href="#DejaVuSans-30"/>
       <use xlink:href="#DejaVuSans-2e" x="63.623047"/>
       <use xlink:href="#DejaVuSans-30" x="95.410156"/>
       <use xlink:href="#DejaVuSans-35" x="159.033203"/>
      </g>
     </g>
    </g>
    <g id="xtick_4">
     <g id="line2d_4">
      <g>
       <use xlink:href="#m9f5ddffbab" x="356.606809" y="318.04" style="stroke: #000000; stroke-width: 0.8"/>
      </g>
     </g>
     <g id="text_4">
      <!-- 0.06 -->
      <g transform="translate(345.473997 332.638437) scale(0.1 -0.1)">
       <defs>
        <path id="DejaVuSans-36" d="M 2113 2584 
Q 1688 2584 1439 2293 
Q 1191 2003 1191 1497 
Q 1191 994 1439 701 
Q 1688 409 2113 409 
Q 2538 409 2786 701 
Q 3034 994 3034 1497 
Q 3034 2003 2786 2293 
Q 2538 2584 2113 2584 
z
M 3366 4563 
L 3366 3988 
Q 3128 4100 2886 4159 
Q 2644 4219 2406 4219 
Q 1781 4219 1451 3797 
Q 1122 3375 1075 2522 
Q 1259 2794 1537 2939 
Q 1816 3084 2150 3084 
Q 2853 3084 3261 2657 
Q 3669 2231 3669 1497 
Q 3669 778 3244 343 
Q 2819 -91 2113 -91 
Q 1303 -91 875 529 
Q 447 1150 447 2328 
Q 447 3434 972 4092 
Q 1497 4750 2381 4750 
Q 2619 4750 2861 4703 
Q 3103 4656 3366 4563 
z
" transform="scale(0.015625)"/>
       </defs>
       <use xlink:href="#DejaVuSans-30"/>
       <use xlink:href="#DejaVuSans-2e" x="63.623047"/>
       <use xlink:href="#DejaVuSans-30" x="95.410156"/>
       <use xlink:href="#DejaVuSans-36" x="159.033203"/>
      </g>
     </g>
    </g>
    <g id="xtick_5">
     <g id="line2d_5">
      <g>
       <use xlink:href="#m9f5ddffbab" x="438.557892" y="318.04" style="stroke: #000000; stroke-width: 0.8"/>
      </g>
     </g>
     <g id="text_5">
      <!-- 0.07 -->
      <g transform="translate(427.42508 332.638437) scale(0.1 -0.1)">
       <defs>
        <path id="DejaVuSans-37" d="M 525 4666 
L 3525 4666 
L 3525 4397 
L 1831 0 
L 1172 0 
L 2766 4134 
L 525 4134 
L 525 4666 
z
" transform="scale(0.015625)"/>
       </defs>
       <use xlink:href="#DejaVuSans-30"/>
       <use xlink:href="#DejaVuSans-2e" x="63.623047"/>
       <use xlink:href="#DejaVuSans-30" x="95.410156"/>
       <use xlink:href="#DejaVuSans-37" x="159.033203"/>
      </g>
     </g>
    </g>
    <g id="xtick_6">
     <g id="line2d_6">
      <g>
       <use xlink:href="#m9f5ddffbab" x="520.508976" y="318.04" style="stroke: #000000; stroke-width: 0.8"/>
      </g>
     </g>
     <g id="text_6">
      <!-- 0.08 -->
      <g transform="translate(509.376163 332.638437) scale(0.1 -0.1)">
       <defs>
        <path id="DejaVuSans-38" d="M 2034 2216 
Q 1584 2216 1326 1975 
Q 1069 1734 1069 1313 
Q 1069 891 1326 650 
Q 1584 409 2034 409 
Q 2484 409 2743 651 
Q 3003 894 3003 1313 
Q 3003 1734 2745 1975 
Q 2488 2216 2034 2216 
z
M 1403 2484 
Q 997 2584 770 2862 
Q 544 3141 544 3541 
Q 544 4100 942 4425 
Q 1341 4750 2034 4750 
Q 2731 4750 3128 4425 
Q 3525 4100 3525 3541 
Q 3525 3141 3298 2862 
Q 3072 2584 2669 2484 
Q 3125 2378 3379 2068 
Q 3634 1759 3634 1313 
Q 3634 634 3220 271 
Q 2806 -91 2034 -91 
Q 1263 -91 848 271 
Q 434 634 434 1313 
Q 434 1759 690 2068 
Q 947 2378 1403 2484 
z
M 1172 3481 
Q 1172 3119 1398 2916 
Q 1625 2713 2034 2713 
Q 2441 2713 2670 2916 
Q 2900 3119 2900 3481 
Q 2900 3844 2670 4047 
Q 2441 4250 2034 4250 
Q 1625 4250 1398 4047 
Q 1172 3844 1172 3481 
z
" transform="scale(0.015625)"/>
       </defs>
       <use xlink:href="#DejaVuSans-30"/>
       <use xlink:href="#DejaVuSans-2e" x="63.623047"/>
       <use xlink:href="#DejaVuSans-30" x="95.410156"/>
       <use xlink:href="#DejaVuSans-38" x="159.033203"/>
      </g>
     </g>
    </g>
    <g id="text_7">
     <!-- Closest Pixel NDCI -->
     <g transform="translate(238.728376 346.316562) scale(0.1 -0.1)">
      <defs>
       <path id="DejaVuSans-43" d="M 4122 4306 
L 4122 3641 
Q 3803 3938 3442 4084 
Q 3081 4231 2675 4231 
Q 1875 4231 1450 3742 
Q 1025 3253 1025 2328 
Q 1025 1406 1450 917 
Q 1875 428 2675 428 
Q 3081 428 3442 575 
Q 3803 722 4122 1019 
L 4122 359 
Q 3791 134 3420 21 
Q 3050 -91 2638 -91 
Q 1578 -91 968 557 
Q 359 1206 359 2328 
Q 359 3453 968 4101 
Q 1578 4750 2638 4750 
Q 3056 4750 3426 4639 
Q 3797 4528 4122 4306 
z
" transform="scale(0.015625)"/>
       <path id="DejaVuSans-6c" d="M 603 4863 
L 1178 4863 
L 1178 0 
L 603 0 
L 603 4863 
z
" transform="scale(0.015625)"/>
       <path id="DejaVuSans-6f" d="M 1959 3097 
Q 1497 3097 1228 2736 
Q 959 2375 959 1747 
Q 959 1119 1226 758 
Q 1494 397 1959 397 
Q 2419 397 2687 759 
Q 2956 1122 2956 1747 
Q 2956 2369 2687 2733 
Q 2419 3097 1959 3097 
z
M 1959 3584 
Q 2709 3584 3137 3096 
Q 3566 2609 3566 1747 
Q 3566 888 3137 398 
Q 2709 -91 1959 -91 
Q 1206 -91 779 398 
Q 353 888 353 1747 
Q 353 2609 779 3096 
Q 1206 3584 1959 3584 
z
" transform="scale(0.015625)"/>
       <path id="DejaVuSans-73" d="M 2834 3397 
L 2834 2853 
Q 2591 2978 2328 3040 
Q 2066 3103 1784 3103 
Q 1356 3103 1142 2972 
Q 928 2841 928 2578 
Q 928 2378 1081 2264 
Q 1234 2150 1697 2047 
L 1894 2003 
Q 2506 1872 2764 1633 
Q 3022 1394 3022 966 
Q 3022 478 2636 193 
Q 2250 -91 1575 -91 
Q 1294 -91 989 -36 
Q 684 19 347 128 
L 347 722 
Q 666 556 975 473 
Q 1284 391 1588 391 
Q 1994 391 2212 530 
Q 2431 669 2431 922 
Q 2431 1156 2273 1281 
Q 2116 1406 1581 1522 
L 1381 1569 
Q 847 1681 609 1914 
Q 372 2147 372 2553 
Q 372 3047 722 3315 
Q 1072 3584 1716 3584 
Q 2034 3584 2315 3537 
Q 2597 3491 2834 3397 
z
" transform="scale(0.015625)"/>
       <path id="DejaVuSans-65" d="M 3597 1894 
L 3597 1613 
L 953 1613 
Q 991 1019 1311 708 
Q 1631 397 2203 397 
Q 2534 397 2845 478 
Q 3156 559 3463 722 
L 3463 178 
Q 3153 47 2828 -22 
Q 2503 -91 2169 -91 
Q 1331 -91 842 396 
Q 353 884 353 1716 
Q 353 2575 817 3079 
Q 1281 3584 2069 3584 
Q 2775 3584 3186 3129 
Q 3597 2675 3597 1894 
z
M 3022 2063 
Q 3016 2534 2758 2815 
Q 2500 3097 2075 3097 
Q 1594 3097 1305 2825 
Q 1016 2553 972 2059 
L 3022 2063 
z
" transform="scale(0.015625)"/>
       <path id="DejaVuSans-74" d="M 1172 4494 
L 1172 3500 
L 2356 3500 
L 2356 3053 
L 1172 3053 
L 1172 1153 
Q 1172 725 1289 603 
Q 1406 481 1766 481 
L 2356 481 
L 2356 0 
L 1766 0 
Q 1100 0 847 248 
Q 594 497 594 1153 
L 594 3053 
L 172 3053 
L 172 3500 
L 594 3500 
L 594 4494 
L 1172 4494 
z
" transform="scale(0.015625)"/>
       <path id="DejaVuSans-20" transform="scale(0.015625)"/>
       <path id="DejaVuSans-50" d="M 1259 4147 
L 1259 2394 
L 2053 2394 
Q 2494 2394 2734 2622 
Q 2975 2850 2975 3272 
Q 2975 3691 2734 3919 
Q 2494 4147 2053 4147 
L 1259 4147 
z
M 628 4666 
L 2053 4666 
Q 2838 4666 3239 4311 
Q 3641 3956 3641 3272 
Q 3641 2581 3239 2228 
Q 2838 1875 2053 1875 
L 1259 1875 
L 1259 0 
L 628 0 
L 628 4666 
z
" transform="scale(0.015625)"/>
       <path id="DejaVuSans-69" d="M 603 3500 
L 1178 3500 
L 1178 0 
L 603 0 
L 603 3500 
z
M 603 4863 
L 1178 4863 
L 1178 4134 
L 603 4134 
L 603 4863 
z
" transform="scale(0.015625)"/>
       <path id="DejaVuSans-78" d="M 3513 3500 
L 2247 1797 
L 3578 0 
L 2900 0 
L 1881 1375 
L 863 0 
L 184 0 
L 1544 1831 
L 300 3500 
L 978 3500 
L 1906 2253 
L 2834 3500 
L 3513 3500 
z
" transform="scale(0.015625)"/>
       <path id="DejaVuSans-4e" d="M 628 4666 
L 1478 4666 
L 3547 763 
L 3547 4666 
L 4159 4666 
L 4159 0 
L 3309 0 
L 1241 3903 
L 1241 0 
L 628 0 
L 628 4666 
z
" transform="scale(0.015625)"/>
       <path id="DejaVuSans-44" d="M 1259 4147 
L 1259 519 
L 2022 519 
Q 2988 519 3436 956 
Q 3884 1394 3884 2338 
Q 3884 3275 3436 3711 
Q 2988 4147 2022 4147 
L 1259 4147 
z
M 628 4666 
L 1925 4666 
Q 3281 4666 3915 4102 
Q 4550 3538 4550 2338 
Q 4550 1131 3912 565 
Q 3275 0 1925 0 
L 628 0 
L 628 4666 
z
" transform="scale(0.015625)"/>
       <path id="DejaVuSans-49" d="M 628 4666 
L 1259 4666 
L 1259 0 
L 628 0 
L 628 4666 
z
" transform="scale(0.015625)"/>
      </defs>
      <use xlink:href="#DejaVuSans-43"/>
      <use xlink:href="#DejaVuSans-6c" x="69.824219"/>
      <use xlink:href="#DejaVuSans-6f" x="97.607422"/>
      <use xlink:href="#DejaVuSans-73" x="158.789062"/>
      <use xlink:href="#DejaVuSans-65" x="210.888672"/>
      <use xlink:href="#DejaVuSans-73" x="272.412109"/>
      <use xlink:href="#DejaVuSans-74" x="324.511719"/>
      <use xlink:href="#DejaVuSans-20" x="363.720703"/>
      <use xlink:href="#DejaVuSans-50" x="395.507812"/>
      <use xlink:href="#DejaVuSans-69" x="453.560547"/>
      <use xlink:href="#DejaVuSans-78" x="481.34375"/>
      <use xlink:href="#DejaVuSans-65" x="537.398438"/>
      <use xlink:href="#DejaVuSans-6c" x="598.921875"/>
      <use xlink:href="#DejaVuSans-20" x="626.705078"/>
      <use xlink:href="#DejaVuSans-4e" x="658.492188"/>
      <use xlink:href="#DejaVuSans-44" x="733.296875"/>
      <use xlink:href="#DejaVuSans-43" x="810.298828"/>
      <use xlink:href="#DejaVuSans-49" x="880.123047"/>
     </g>
    </g>
   </g>
   <g id="matplotlib.axis_2">
    <g id="ytick_1">
     <g id="line2d_7">
      <defs>
       <path id="m21c10e1ddd" d="M 0 0 
L -3.5 0 
" style="stroke: #000000; stroke-width: 0.8"/>
      </defs>
      <g>
       <use xlink:href="#m21c10e1ddd" x="40.603125" y="305.320439" style="stroke: #000000; stroke-width: 0.8"/>
      </g>
     </g>
     <g id="text_8">
      <!-- 15 -->
      <g transform="translate(20.878125 309.119658) scale(0.1 -0.1)">
       <defs>
        <path id="DejaVuSans-31" d="M 794 531 
L 1825 531 
L 1825 4091 
L 703 3866 
L 703 4441 
L 1819 4666 
L 2450 4666 
L 2450 531 
L 3481 531 
L 3481 0 
L 794 0 
L 794 531 
z
" transform="scale(0.015625)"/>
       </defs>
       <use xlink:href="#DejaVuSans-31"/>
       <use xlink:href="#DejaVuSans-35" x="63.623047"/>
      </g>
     </g>
    </g>
    <g id="ytick_2">
     <g id="line2d_8">
      <g>
       <use xlink:href="#m21c10e1ddd" x="40.603125" y="261.459883" style="stroke: #000000; stroke-width: 0.8"/>
      </g>
     </g>
     <g id="text_9">
      <!-- 20 -->
      <g transform="translate(20.878125 265.259102) scale(0.1 -0.1)">
       <defs>
        <path id="DejaVuSans-32" d="M 1228 531 
L 3431 531 
L 3431 0 
L 469 0 
L 469 531 
Q 828 903 1448 1529 
Q 2069 2156 2228 2338 
Q 2531 2678 2651 2914 
Q 2772 3150 2772 3378 
Q 2772 3750 2511 3984 
Q 2250 4219 1831 4219 
Q 1534 4219 1204 4116 
Q 875 4013 500 3803 
L 500 4441 
Q 881 4594 1212 4672 
Q 1544 4750 1819 4750 
Q 2544 4750 2975 4387 
Q 3406 4025 3406 3419 
Q 3406 3131 3298 2873 
Q 3191 2616 2906 2266 
Q 2828 2175 2409 1742 
Q 1991 1309 1228 531 
z
" transform="scale(0.015625)"/>
       </defs>
       <use xlink:href="#DejaVuSans-32"/>
       <use xlink:href="#DejaVuSans-30" x="63.623047"/>
      </g>
     </g>
    </g>
    <g id="ytick_3">
     <g id="line2d_9">
      <g>
       <use xlink:href="#m21c10e1ddd" x="40.603125" y="217.599328" style="stroke: #000000; stroke-width: 0.8"/>
      </g>
     </g>
     <g id="text_10">
      <!-- 25 -->
      <g transform="translate(20.878125 221.398546) scale(0.1 -0.1)">
       <use xlink:href="#DejaVuSans-32"/>
       <use xlink:href="#DejaVuSans-35" x="63.623047"/>
      </g>
     </g>
    </g>
    <g id="ytick_4">
     <g id="line2d_10">
      <g>
       <use xlink:href="#m21c10e1ddd" x="40.603125" y="173.738772" style="stroke: #000000; stroke-width: 0.8"/>
      </g>
     </g>
     <g id="text_11">
      <!-- 30 -->
      <g transform="translate(20.878125 177.537991) scale(0.1 -0.1)">
       <use xlink:href="#DejaVuSans-33"/>
       <use xlink:href="#DejaVuSans-30" x="63.623047"/>
      </g>
     </g>
    </g>
    <g id="ytick_5">
     <g id="line2d_11">
      <g>
       <use xlink:href="#m21c10e1ddd" x="40.603125" y="129.878216" style="stroke: #000000; stroke-width: 0.8"/>
      </g>
     </g>
     <g id="text_12">
      <!-- 35 -->
      <g transform="translate(20.878125 133.677435) scale(0.1 -0.1)">
       <use xlink:href="#DejaVuSans-33"/>
       <use xlink:href="#DejaVuSans-35" x="63.623047"/>
      </g>
     </g>
    </g>
    <g id="ytick_6">
     <g id="line2d_12">
      <g>
       <use xlink:href="#m21c10e1ddd" x="40.603125" y="86.017661" style="stroke: #000000; stroke-width: 0.8"/>
      </g>
     </g>
     <g id="text_13">
      <!-- 40 -->
      <g transform="translate(20.878125 89.81688) scale(0.1 -0.1)">
       <use xlink:href="#DejaVuSans-34"/>
       <use xlink:href="#DejaVuSans-30" x="63.623047"/>
      </g>
     </g>
    </g>
    <g id="ytick_7">
     <g id="line2d_13">
      <g>
       <use xlink:href="#m21c10e1ddd" x="40.603125" y="42.157105" style="stroke: #000000; stroke-width: 0.8"/>
      </g>
     </g>
     <g id="text_14">
      <!-- 45 -->
      <g transform="translate(20.878125 45.956324) scale(0.1 -0.1)">
       <use xlink:href="#DejaVuSans-34"/>
       <use xlink:href="#DejaVuSans-35" x="63.623047"/>
      </g>
     </g>
    </g>
    <g id="text_15">
     <!-- In-Situ Chl-a -->
     <g transform="translate(14.798438 208.770921) rotate(-90) scale(0.1 -0.1)">
      <defs>
       <path id="DejaVuSans-6e" d="M 3513 2113 
L 3513 0 
L 2938 0 
L 2938 2094 
Q 2938 2591 2744 2837 
Q 2550 3084 2163 3084 
Q 1697 3084 1428 2787 
Q 1159 2491 1159 1978 
L 1159 0 
L 581 0 
L 581 3500 
L 1159 3500 
L 1159 2956 
Q 1366 3272 1645 3428 
Q 1925 3584 2291 3584 
Q 2894 3584 3203 3211 
Q 3513 2838 3513 2113 
z
" transform="scale(0.015625)"/>
       <path id="DejaVuSans-2d" d="M 313 2009 
L 1997 2009 
L 1997 1497 
L 313 1497 
L 313 2009 
z
" transform="scale(0.015625)"/>
       <path id="DejaVuSans-53" d="M 3425 4513 
L 3425 3897 
Q 3066 4069 2747 4153 
Q 2428 4238 2131 4238 
Q 1616 4238 1336 4038 
Q 1056 3838 1056 3469 
Q 1056 3159 1242 3001 
Q 1428 2844 1947 2747 
L 2328 2669 
Q 3034 2534 3370 2195 
Q 3706 1856 3706 1288 
Q 3706 609 3251 259 
Q 2797 -91 1919 -91 
Q 1588 -91 1214 -16 
Q 841 59 441 206 
L 441 856 
Q 825 641 1194 531 
Q 1563 422 1919 422 
Q 2459 422 2753 634 
Q 3047 847 3047 1241 
Q 3047 1584 2836 1778 
Q 2625 1972 2144 2069 
L 1759 2144 
Q 1053 2284 737 2584 
Q 422 2884 422 3419 
Q 422 4038 858 4394 
Q 1294 4750 2059 4750 
Q 2388 4750 2728 4690 
Q 3069 4631 3425 4513 
z
" transform="scale(0.015625)"/>
       <path id="DejaVuSans-75" d="M 544 1381 
L 544 3500 
L 1119 3500 
L 1119 1403 
Q 1119 906 1312 657 
Q 1506 409 1894 409 
Q 2359 409 2629 706 
Q 2900 1003 2900 1516 
L 2900 3500 
L 3475 3500 
L 3475 0 
L 2900 0 
L 2900 538 
Q 2691 219 2414 64 
Q 2138 -91 1772 -91 
Q 1169 -91 856 284 
Q 544 659 544 1381 
z
M 1991 3584 
L 1991 3584 
z
" transform="scale(0.015625)"/>
       <path id="DejaVuSans-68" d="M 3513 2113 
L 3513 0 
L 2938 0 
L 2938 2094 
Q 2938 2591 2744 2837 
Q 2550 3084 2163 3084 
Q 1697 3084 1428 2787 
Q 1159 2491 1159 1978 
L 1159 0 
L 581 0 
L 581 4863 
L 1159 4863 
L 1159 2956 
Q 1366 3272 1645 3428 
Q 1925 3584 2291 3584 
Q 2894 3584 3203 3211 
Q 3513 2838 3513 2113 
z
" transform="scale(0.015625)"/>
       <path id="DejaVuSans-61" d="M 2194 1759 
Q 1497 1759 1228 1600 
Q 959 1441 959 1056 
Q 959 750 1161 570 
Q 1363 391 1709 391 
Q 2188 391 2477 730 
Q 2766 1069 2766 1631 
L 2766 1759 
L 2194 1759 
z
M 3341 1997 
L 3341 0 
L 2766 0 
L 2766 531 
Q 2569 213 2275 61 
Q 1981 -91 1556 -91 
Q 1019 -91 701 211 
Q 384 513 384 1019 
Q 384 1609 779 1909 
Q 1175 2209 1959 2209 
L 2766 2209 
L 2766 2266 
Q 2766 2663 2505 2880 
Q 2244 3097 1772 3097 
Q 1472 3097 1187 3025 
Q 903 2953 641 2809 
L 641 3341 
Q 956 3463 1253 3523 
Q 1550 3584 1831 3584 
Q 2591 3584 2966 3190 
Q 3341 2797 3341 1997 
z
" transform="scale(0.015625)"/>
      </defs>
      <use xlink:href="#DejaVuSans-49"/>
      <use xlink:href="#DejaVuSans-6e" x="29.492188"/>
      <use xlink:href="#DejaVuSans-2d" x="92.871094"/>
      <use xlink:href="#DejaVuSans-53" x="128.955078"/>
      <use xlink:href="#DejaVuSans-69" x="192.431641"/>
      <use xlink:href="#DejaVuSans-74" x="220.214844"/>
      <use xlink:href="#DejaVuSans-75" x="259.423828"/>
      <use xlink:href="#DejaVuSans-20" x="322.802734"/>
      <use xlink:href="#DejaVuSans-43" x="354.589844"/>
      <use xlink:href="#DejaVuSans-68" x="424.414062"/>
      <use xlink:href="#DejaVuSans-6c" x="487.792969"/>
      <use xlink:href="#DejaVuSans-2d" x="515.576172"/>
      <use xlink:href="#DejaVuSans-61" x="551.660156"/>
     </g>
    </g>
   </g>
   <g id="line2d_14">
    <path d="M 62.749171 166.395595 
L 67.223119 166.576488 
L 71.697068 166.75738 
L 76.171016 166.938273 
L 80.644965 167.119165 
L 85.118913 167.300058 
L 89.592862 167.48095 
L 94.066811 167.661843 
L 98.540759 167.842735 
L 103.014708 168.023628 
L 107.488656 168.20452 
L 111.962605 168.385413 
L 116.436554 168.566305 
L 120.910502 168.747198 
L 125.384451 168.92809 
L 129.858399 169.108983 
L 134.332348 169.289875 
L 138.806297 169.470768 
L 143.280245 169.65166 
L 147.754194 169.832552 
L 152.228142 170.013445 
L 156.702091 170.194337 
L 161.176039 170.37523 
L 165.649988 170.556122 
L 170.123937 170.737015 
L 174.597885 170.917907 
L 179.071834 171.0988 
L 183.545782 171.279692 
L 188.019731 171.460585 
L 192.49368 171.641477 
L 196.967628 171.82237 
L 201.441577 172.003262 
L 205.915525 172.184155 
L 210.389474 172.365047 
L 214.863423 172.54594 
L 219.337371 172.726832 
L 223.81132 172.907725 
L 228.285268 173.088617 
L 232.759217 173.26951 
L 237.233165 173.450402 
L 241.707114 173.631295 
L 246.181063 173.812187 
L 250.655011 173.99308 
L 255.12896 174.173972 
L 259.602908 174.354865 
L 264.076857 174.535757 
L 268.550806 174.71665 
L 273.024754 174.897542 
L 277.498703 175.078435 
L 281.972651 175.259327 
L 286.4466 175.440219 
L 290.920549 175.621112 
L 295.394497 175.802004 
L 299.868446 175.982897 
L 304.342394 176.163789 
L 308.816343 176.344682 
L 313.290291 176.525574 
L 317.76424 176.706467 
L 322.238189 176.887359 
L 326.712137 177.068252 
L 331.186086 177.249144 
L 335.660034 177.430037 
L 340.133983 177.610929 
L 344.607932 177.791822 
L 349.08188 177.972714 
L 353.555829 178.153607 
L 358.029777 178.334499 
L 362.503726 178.515392 
L 366.977675 178.696284 
L 371.451623 178.877177 
L 375.925572 179.058069 
L 380.39952 179.238962 
L 384.873469 179.419854 
L 389.347418 179.600747 
L 393.821366 179.781639 
L 398.295315 179.962532 
L 402.769263 180.143424 
L 407.243212 180.324317 
L 411.71716 180.505209 
L 416.191109 180.686102 
L 420.665058 180.866994 
L 425.139006 181.047887 
L 429.612955 181.228779 
L 434.086903 181.409671 
L 438.560852 181.590564 
L 443.034801 181.771456 
L 447.508749 181.952349 
L 451.982698 182.133241 
L 456.456646 182.314134 
L 460.930595 182.495026 
L 465.404544 182.675919 
L 469.878492 182.856811 
L 474.352441 183.037704 
L 478.826389 183.218596 
L 483.300338 183.399489 
L 487.774286 183.580381 
L 492.248235 183.761274 
L 496.722184 183.942166 
L 501.196132 184.123059 
L 505.670081 184.303951 
" clip-path="url(#pdb8a2ae404)" style="fill: none; stroke: #1f77b4; stroke-width: 2.25; stroke-linecap: square"/>
   </g>
   <g id="patch_3">
    <path d="M 40.603125 318.04 
L 40.603125 38.209655 
" style="fill: none; stroke: #000000; stroke-width: 0.8; stroke-linejoin: miter; stroke-linecap: square"/>
   </g>
   <g id="patch_4">
    <path d="M 527.816126 318.04 
L 527.816126 38.209655 
" style="fill: none; stroke: #000000; stroke-width: 0.8; stroke-linejoin: miter; stroke-linecap: square"/>
   </g>
   <g id="patch_5">
    <path d="M 40.603125 318.04 
L 527.816126 318.04 
" style="fill: none; stroke: #000000; stroke-width: 0.8; stroke-linejoin: miter; stroke-linecap: square"/>
   </g>
   <g id="patch_6">
    <path d="M 40.603125 38.209655 
L 527.816126 38.209655 
" style="fill: none; stroke: #000000; stroke-width: 0.8; stroke-linejoin: miter; stroke-linecap: square"/>
   </g>
   <g id="text_16">
    <!-- $R^2 =  0.003$ -->
    <g transform="translate(64.963775 62.838985) scale(0.14 -0.14)">
     <defs>
      <path id="DejaVuSans-Oblique-52" d="M 1613 4147 
L 1294 2491 
L 2106 2491 
Q 2584 2491 2879 2755 
Q 3175 3019 3175 3444 
Q 3175 3784 2976 3965 
Q 2778 4147 2406 4147 
L 1613 4147 
z
M 2772 2241 
Q 2972 2194 3105 2009 
Q 3238 1825 3413 1275 
L 3809 0 
L 3144 0 
L 2778 1197 
Q 2638 1659 2453 1815 
Q 2269 1972 1888 1972 
L 1191 1972 
L 806 0 
L 172 0 
L 1081 4666 
L 2503 4666 
Q 3150 4666 3495 4373 
Q 3841 4081 3841 3531 
Q 3841 3044 3547 2687 
Q 3253 2331 2772 2241 
z
" transform="scale(0.015625)"/>
      <path id="DejaVuSans-3d" d="M 678 2906 
L 4684 2906 
L 4684 2381 
L 678 2381 
L 678 2906 
z
M 678 1631 
L 4684 1631 
L 4684 1100 
L 678 1100 
L 678 1631 
z
" transform="scale(0.015625)"/>
     </defs>
     <use xlink:href="#DejaVuSans-Oblique-52" transform="translate(0 0.765625)"/>
     <use xlink:href="#DejaVuSans-32" transform="translate(76.499193 39.046875) scale(0.7)"/>
     <use xlink:href="#DejaVuSans-3d" transform="translate(143.252122 0.765625)"/>
     <use xlink:href="#DejaVuSans-30" transform="translate(246.523607 0.765625)"/>
     <use xlink:href="#DejaVuSans-2e" transform="translate(310.146654 0.765625)"/>
     <use xlink:href="#DejaVuSans-30" transform="translate(341.933763 0.765625)"/>
     <use xlink:href="#DejaVuSans-30" transform="translate(405.55681 0.765625)"/>
     <use xlink:href="#DejaVuSans-33" transform="translate(469.179857 0.765625)"/>
    </g>
   </g>
   <g id="text_17">
    <!-- $p =  0.740$ -->
    <g transform="translate(64.963775 82.398672) scale(0.14 -0.14)">
     <defs>
      <path id="DejaVuSans-Oblique-70" d="M 3175 2156 
Q 3175 2616 2975 2859 
Q 2775 3103 2400 3103 
Q 2144 3103 1911 2972 
Q 1678 2841 1497 2591 
Q 1319 2344 1212 1994 
Q 1106 1644 1106 1300 
Q 1106 863 1306 627 
Q 1506 391 1875 391 
Q 2147 391 2380 519 
Q 2613 647 2778 891 
Q 2956 1147 3065 1494 
Q 3175 1841 3175 2156 
z
M 1394 2969 
Q 1625 3272 1939 3428 
Q 2253 3584 2638 3584 
Q 3175 3584 3472 3232 
Q 3769 2881 3769 2247 
Q 3769 1728 3584 1258 
Q 3400 788 3053 416 
Q 2822 169 2531 39 
Q 2241 -91 1919 -91 
Q 1547 -91 1294 64 
Q 1041 219 916 525 
L 556 -1331 
L -19 -1331 
L 922 3500 
L 1497 3500 
L 1394 2969 
z
" transform="scale(0.015625)"/>
     </defs>
     <use xlink:href="#DejaVuSans-Oblique-70" transform="translate(0 0.78125)"/>
     <use xlink:href="#DejaVuSans-3d" transform="translate(82.958984 0.78125)"/>
     <use xlink:href="#DejaVuSans-30" transform="translate(186.230469 0.78125)"/>
     <use xlink:href="#DejaVuSans-2e" transform="translate(249.853516 0.78125)"/>
     <use xlink:href="#DejaVuSans-37" transform="translate(273.890625 0.78125)"/>
     <use xlink:href="#DejaVuSans-34" transform="translate(337.513672 0.78125)"/>
     <use xlink:href="#DejaVuSans-30" transform="translate(401.136719 0.78125)"/>
    </g>
   </g>
  </g>
  <g id="axes_2">
   <g id="patch_7">
    <path d="M 577.930124 318.04 
L 1065.143125 318.04 
L 1065.143125 38.209655 
L 577.930124 38.209655 
z
" style="fill: #ffffff"/>
   </g>
   <g id="PathCollection_2">
    <g clip-path="url(#pca8c12c9ac)">
     <use xlink:href="#mdfe130e0a6" x="879.004599" y="133.377" style="fill: #1f77b4; fill-opacity: 0.8; stroke: #1f77b4; stroke-opacity: 0.8"/>
     <use xlink:href="#mdfe130e0a6" x="864.382991" y="174.600893" style="fill: #1f77b4; fill-opacity: 0.8; stroke: #1f77b4; stroke-opacity: 0.8"/>
     <use xlink:href="#mdfe130e0a6" x="920.306639" y="83.90833" style="fill: #1f77b4; fill-opacity: 0.8; stroke: #1f77b4; stroke-opacity: 0.8"/>
     <use xlink:href="#mdfe130e0a6" x="893.273022" y="207.580006" style="fill: #1f77b4; fill-opacity: 0.8; stroke: #1f77b4; stroke-opacity: 0.8"/>
     <use xlink:href="#mdfe130e0a6" x="868.756496" y="116.887444" style="fill: #1f77b4; fill-opacity: 0.8; stroke: #1f77b4; stroke-opacity: 0.8"/>
     <use xlink:href="#mdfe130e0a6" x="885.261352" y="224.069563" style="fill: #1f77b4; fill-opacity: 0.8; stroke: #1f77b4; stroke-opacity: 0.8"/>
     <use xlink:href="#mdfe130e0a6" x="820.323433" y="240.55912" style="fill: #1f77b4; fill-opacity: 0.8; stroke: #1f77b4; stroke-opacity: 0.8"/>
     <use xlink:href="#mdfe130e0a6" x="886.89809" y="158.111336" style="fill: #1f77b4; fill-opacity: 0.8; stroke: #1f77b4; stroke-opacity: 0.8"/>
     <use xlink:href="#mdfe130e0a6" x="844.314272" y="232.314341" style="fill: #1f77b4; fill-opacity: 0.8; stroke: #1f77b4; stroke-opacity: 0.8"/>
     <use xlink:href="#mdfe130e0a6" x="856.301466" y="108.642665" style="fill: #1f77b4; fill-opacity: 0.8; stroke: #1f77b4; stroke-opacity: 0.8"/>
     <use xlink:href="#mdfe130e0a6" x="909.457322" y="166.356114" style="fill: #1f77b4; fill-opacity: 0.8; stroke: #1f77b4; stroke-opacity: 0.8"/>
     <use xlink:href="#mdfe130e0a6" x="904.271793" y="240.55912" style="fill: #1f77b4; fill-opacity: 0.8; stroke: #1f77b4; stroke-opacity: 0.8"/>
     <use xlink:href="#mdfe130e0a6" x="958.13483" y="224.069563" style="fill: #1f77b4; fill-opacity: 0.8; stroke: #1f77b4; stroke-opacity: 0.8"/>
     <use xlink:href="#mdfe130e0a6" x="773.725458" y="207.580006" style="fill: #1f77b4; fill-opacity: 0.8; stroke: #1f77b4; stroke-opacity: 0.8"/>
     <use xlink:href="#mdfe130e0a6" x="961.766381" y="232.314341" style="fill: #1f77b4; fill-opacity: 0.8; stroke: #1f77b4; stroke-opacity: 0.8"/>
     <use xlink:href="#mdfe130e0a6" x="936.30512" y="182.845671" style="fill: #1f77b4; fill-opacity: 0.8; stroke: #1f77b4; stroke-opacity: 0.8"/>
     <use xlink:href="#mdfe130e0a6" x="941.163072" y="191.090449" style="fill: #1f77b4; fill-opacity: 0.8; stroke: #1f77b4; stroke-opacity: 0.8"/>
     <use xlink:href="#mdfe130e0a6" x="930.017402" y="141.621779" style="fill: #1f77b4; fill-opacity: 0.8; stroke: #1f77b4; stroke-opacity: 0.8"/>
     <use xlink:href="#mdfe130e0a6" x="942.226463" y="141.621779" style="fill: #1f77b4; fill-opacity: 0.8; stroke: #1f77b4; stroke-opacity: 0.8"/>
     <use xlink:href="#mdfe130e0a6" x="962.6796" y="133.377" style="fill: #1f77b4; fill-opacity: 0.8; stroke: #1f77b4; stroke-opacity: 0.8"/>
     <use xlink:href="#mdfe130e0a6" x="828.502762" y="125.132222" style="fill: #1f77b4; fill-opacity: 0.8; stroke: #1f77b4; stroke-opacity: 0.8"/>
     <use xlink:href="#mdfe130e0a6" x="947.493567" y="224.069563" style="fill: #1f77b4; fill-opacity: 0.8; stroke: #1f77b4; stroke-opacity: 0.8"/>
     <use xlink:href="#mdfe130e0a6" x="959.245147" y="149.866557" style="fill: #1f77b4; fill-opacity: 0.8; stroke: #1f77b4; stroke-opacity: 0.8"/>
     <use xlink:href="#mdfe130e0a6" x="988.339245" y="149.866557" style="fill: #1f77b4; fill-opacity: 0.8; stroke: #1f77b4; stroke-opacity: 0.8"/>
     <use xlink:href="#mdfe130e0a6" x="1029.465145" y="50.929216" style="fill: #1f77b4; fill-opacity: 0.8; stroke: #1f77b4; stroke-opacity: 0.8"/>
     <use xlink:href="#mdfe130e0a6" x="857.78762" y="290.02779" style="fill: #1f77b4; fill-opacity: 0.8; stroke: #1f77b4; stroke-opacity: 0.8"/>
     <use xlink:href="#mdfe130e0a6" x="954.503752" y="83.90833" style="fill: #1f77b4; fill-opacity: 0.8; stroke: #1f77b4; stroke-opacity: 0.8"/>
     <use xlink:href="#mdfe130e0a6" x="1042.997079" y="166.356114" style="fill: #1f77b4; fill-opacity: 0.8; stroke: #1f77b4; stroke-opacity: 0.8"/>
     <use xlink:href="#mdfe130e0a6" x="1041.797349" y="182.845671" style="fill: #1f77b4; fill-opacity: 0.8; stroke: #1f77b4; stroke-opacity: 0.8"/>
     <use xlink:href="#mdfe130e0a6" x="974.315242" y="191.090449" style="fill: #1f77b4; fill-opacity: 0.8; stroke: #1f77b4; stroke-opacity: 0.8"/>
     <use xlink:href="#mdfe130e0a6" x="971.723854" y="149.866557" style="fill: #1f77b4; fill-opacity: 0.8; stroke: #1f77b4; stroke-opacity: 0.8"/>
     <use xlink:href="#mdfe130e0a6" x="973.517735" y="158.111336" style="fill: #1f77b4; fill-opacity: 0.8; stroke: #1f77b4; stroke-opacity: 0.8"/>
     <use xlink:href="#mdfe130e0a6" x="1001.621627" y="199.335228" style="fill: #1f77b4; fill-opacity: 0.8; stroke: #1f77b4; stroke-opacity: 0.8"/>
     <use xlink:href="#mdfe130e0a6" x="970.309866" y="281.783012" style="fill: #1f77b4; fill-opacity: 0.8; stroke: #1f77b4; stroke-opacity: 0.8"/>
     <use xlink:href="#mdfe130e0a6" x="955.000811" y="174.600893" style="fill: #1f77b4; fill-opacity: 0.8; stroke: #1f77b4; stroke-opacity: 0.8"/>
     <use xlink:href="#mdfe130e0a6" x="978.35903" y="100.397887" style="fill: #1f77b4; fill-opacity: 0.8; stroke: #1f77b4; stroke-opacity: 0.8"/>
     <use xlink:href="#mdfe130e0a6" x="951.142065" y="257.048677" style="fill: #1f77b4; fill-opacity: 0.8; stroke: #1f77b4; stroke-opacity: 0.8"/>
     <use xlink:href="#mdfe130e0a6" x="600.076169" y="59.173995" style="fill: #1f77b4; fill-opacity: 0.8; stroke: #1f77b4; stroke-opacity: 0.8"/>
     <use xlink:href="#mdfe130e0a6" x="968.624673" y="215.824785" style="fill: #1f77b4; fill-opacity: 0.8; stroke: #1f77b4; stroke-opacity: 0.8"/>
     <use xlink:href="#mdfe130e0a6" x="963.627672" y="92.153108" style="fill: #1f77b4; fill-opacity: 0.8; stroke: #1f77b4; stroke-opacity: 0.8"/>
    </g>
   </g>
   <g id="PolyCollection_2">
    <path d="M 600.076169 85.762965 
L 600.076169 305.320439 
L 604.550118 303.660245 
L 609.024066 301.949548 
L 613.498015 300.15114 
L 617.971964 298.405523 
L 622.445912 296.746853 
L 626.919861 295.009233 
L 631.393809 293.271613 
L 635.867758 291.533993 
L 640.341706 289.796373 
L 644.815655 288.058752 
L 649.289604 286.321132 
L 653.763552 284.575864 
L 658.237501 282.826764 
L 662.711449 280.83288 
L 667.185398 278.747259 
L 671.659347 276.771846 
L 676.133295 274.973439 
L 680.607244 273.175032 
L 685.081192 271.376624 
L 689.555141 269.578217 
L 694.02909 267.77981 
L 698.503038 265.981402 
L 702.976987 264.302468 
L 707.450935 262.733759 
L 711.924884 261.165049 
L 716.398832 259.59634 
L 720.872781 258.02763 
L 725.34673 256.454164 
L 729.820678 254.560864 
L 734.294627 252.591173 
L 738.768575 250.619169 
L 743.242524 248.647164 
L 747.716473 246.67516 
L 752.190421 244.703156 
L 756.66437 243.270726 
L 761.138318 242.073953 
L 765.612267 240.58113 
L 770.086216 238.532245 
L 774.560164 237.076576 
L 779.034113 235.840107 
L 783.508061 234.115082 
L 787.98201 232.377088 
L 792.455959 230.635034 
L 796.929907 228.89298 
L 801.403856 227.365936 
L 805.877804 225.906932 
L 810.351753 224.110032 
L 814.825701 222.308677 
L 819.29965 220.493026 
L 823.773599 218.677376 
L 828.247547 216.861726 
L 832.721496 215.167591 
L 837.195444 213.65077 
L 841.669393 211.825912 
L 846.143342 210.655255 
L 850.61729 209.167041 
L 855.091239 207.75071 
L 859.565187 206.176625 
L 864.039136 204.88427 
L 868.513085 203.162802 
L 872.987033 201.576299 
L 877.460982 200.160452 
L 881.93493 198.672717 
L 886.408879 197.433461 
L 890.882827 195.900041 
L 895.356776 194.886537 
L 899.830725 194.051844 
L 904.304673 193.214129 
L 908.778622 192.31698 
L 913.25257 191.299114 
L 917.726519 190.420352 
L 922.200468 190.076801 
L 926.674416 189.71156 
L 931.148365 189.638389 
L 935.622313 189.997537 
L 940.096262 190.272601 
L 944.570211 191.146862 
L 949.044159 191.753688 
L 953.518108 192.119159 
L 957.992056 192.275344 
L 962.466005 192.53114 
L 966.939953 193.549369 
L 971.413902 194.483744 
L 975.887851 195.084088 
L 980.361799 195.835906 
L 984.835748 196.126494 
L 989.309696 196.816976 
L 993.783645 197.626957 
L 998.257594 198.436939 
L 1002.731542 199.408408 
L 1007.205491 200.076382 
L 1011.679439 201.040687 
L 1016.153388 201.879719 
L 1020.627337 202.97224 
L 1025.101285 203.90956 
L 1029.575234 204.978873 
L 1034.049182 205.960006 
L 1038.523131 206.56063 
L 1042.997079 207.514877 
L 1042.997079 127.358849 
L 1042.997079 127.358849 
L 1038.523131 129.136335 
L 1034.049182 130.565153 
L 1029.575234 131.8072 
L 1025.101285 133.053007 
L 1020.627337 134.661897 
L 1016.153388 136.338991 
L 1011.679439 137.971863 
L 1007.205491 139.605041 
L 1002.731542 140.545353 
L 998.257594 141.717656 
L 993.783645 143.588153 
L 989.309696 145.168087 
L 984.835748 146.746819 
L 980.361799 147.455222 
L 975.887851 148.929135 
L 971.413902 150.291505 
L 966.939953 150.717623 
L 962.466005 151.855431 
L 957.992056 153.280896 
L 953.518108 153.737227 
L 949.044159 154.033444 
L 944.570211 154.389976 
L 940.096262 154.408504 
L 935.622313 154.650512 
L 931.148365 154.894441 
L 926.674416 155.0618 
L 922.200468 154.592181 
L 917.726519 154.415367 
L 913.25257 153.678492 
L 908.778622 153.106777 
L 904.304673 152.501325 
L 899.830725 151.920515 
L 895.356776 151.328333 
L 890.882827 150.860469 
L 886.408879 150.045111 
L 881.93493 149.596377 
L 877.460982 148.822303 
L 872.987033 148.006313 
L 868.513085 147.156254 
L 864.039136 146.201833 
L 859.565187 145.205241 
L 855.091239 144.183928 
L 850.61729 143.294182 
L 846.143342 142.286216 
L 841.669393 141.469772 
L 837.195444 140.668938 
L 832.721496 139.859272 
L 828.247547 138.972329 
L 823.773599 137.973244 
L 819.29965 136.859285 
L 814.825701 136.044171 
L 810.351753 135.068118 
L 805.877804 133.971142 
L 801.403856 132.858667 
L 796.929907 131.996174 
L 792.455959 131.13368 
L 787.98201 130.187854 
L 783.508061 129.211802 
L 779.034113 128.240843 
L 774.560164 127.301775 
L 770.086216 126.293253 
L 765.612267 125.452209 
L 761.138318 124.667452 
L 756.66437 123.788598 
L 752.190421 122.972991 
L 747.716473 122.056174 
L 743.242524 120.778907 
L 738.768575 119.61274 
L 734.294627 118.488321 
L 729.820678 117.489212 
L 725.34673 116.22979 
L 720.872781 115.101527 
L 716.398832 114.028626 
L 711.924884 113.035957 
L 707.450935 112.049305 
L 702.976987 111.062409 
L 698.503038 109.957309 
L 694.02909 108.850787 
L 689.555141 107.750779 
L 685.081192 106.651062 
L 680.607244 105.551345 
L 676.133295 104.451628 
L 671.659347 103.129586 
L 667.185398 102.252195 
L 662.711449 101.154039 
L 658.237501 100.061327 
L 653.763552 99.162568 
L 649.289604 98.32968 
L 644.815655 97.50562 
L 640.341706 96.381018 
L 635.867758 95.134839 
L 631.393809 93.890306 
L 626.919861 92.645773 
L 622.445912 91.296398 
L 617.971964 90.155785 
L 613.498015 89.06141 
L 609.024066 87.957849 
L 604.550118 86.859833 
L 600.076169 85.762965 
z
" clip-path="url(#pca8c12c9ac)" style="fill: #1f77b4; fill-opacity: 0.15"/>
   </g>
   <g id="matplotlib.axis_3">
    <g id="xtick_7">
     <g id="line2d_15">
      <g>
       <use xlink:href="#m9f5ddffbab" x="657.900959" y="318.04" style="stroke: #000000; stroke-width: 0.8"/>
      </g>
     </g>
     <g id="text_18">
      <!-- 0.03 -->
      <g transform="translate(646.768146 332.638437) scale(0.1 -0.1)">
       <use xlink:href="#DejaVuSans-30"/>
       <use xlink:href="#DejaVuSans-2e" x="63.623047"/>
       <use xlink:href="#DejaVuSans-30" x="95.410156"/>
       <use xlink:href="#DejaVuSans-33" x="159.033203"/>
      </g>
     </g>
    </g>
    <g id="xtick_8">
     <g id="line2d_16">
      <g>
       <use xlink:href="#m9f5ddffbab" x="740.928278" y="318.04" style="stroke: #000000; stroke-width: 0.8"/>
      </g>
     </g>
     <g id="text_19">
      <!-- 0.04 -->
      <g transform="translate(729.795466 332.638437) scale(0.1 -0.1)">
       <use xlink:href="#DejaVuSans-30"/>
       <use xlink:href="#DejaVuSans-2e" x="63.623047"/>
       <use xlink:href="#DejaVuSans-30" x="95.410156"/>
       <use xlink:href="#DejaVuSans-34" x="159.033203"/>
      </g>
     </g>
    </g>
    <g id="xtick_9">
     <g id="line2d_17">
      <g>
       <use xlink:href="#m9f5ddffbab" x="823.955597" y="318.04" style="stroke: #000000; stroke-width: 0.8"/>
      </g>
     </g>
     <g id="text_20">
      <!-- 0.05 -->
      <g transform="translate(812.822785 332.638437) scale(0.1 -0.1)">
       <use xlink:href="#DejaVuSans-30"/>
       <use xlink:href="#DejaVuSans-2e" x="63.623047"/>
       <use xlink:href="#DejaVuSans-30" x="95.410156"/>
       <use xlink:href="#DejaVuSans-35" x="159.033203"/>
      </g>
     </g>
    </g>
    <g id="xtick_10">
     <g id="line2d_18">
      <g>
       <use xlink:href="#m9f5ddffbab" x="906.982917" y="318.04" style="stroke: #000000; stroke-width: 0.8"/>
      </g>
     </g>
     <g id="text_21">
      <!-- 0.06 -->
      <g transform="translate(895.850104 332.638437) scale(0.1 -0.1)">
       <use xlink:href="#DejaVuSans-30"/>
       <use xlink:href="#DejaVuSans-2e" x="63.623047"/>
       <use xlink:href="#DejaVuSans-30" x="95.410156"/>
       <use xlink:href="#DejaVuSans-36" x="159.033203"/>
      </g>
     </g>
    </g>
    <g id="xtick_11">
     <g id="line2d_19">
      <g>
       <use xlink:href="#m9f5ddffbab" x="990.010236" y="318.04" style="stroke: #000000; stroke-width: 0.8"/>
      </g>
     </g>
     <g id="text_22">
      <!-- 0.07 -->
      <g transform="translate(978.877423 332.638437) scale(0.1 -0.1)">
       <use xlink:href="#DejaVuSans-30"/>
       <use xlink:href="#DejaVuSans-2e" x="63.623047"/>
       <use xlink:href="#DejaVuSans-30" x="95.410156"/>
       <use xlink:href="#DejaVuSans-37" x="159.033203"/>
      </g>
     </g>
    </g>
    <g id="text_23">
     <!-- Pixel Interpolation NDCI -->
     <g transform="translate(762.241312 346.316562) scale(0.1 -0.1)">
      <defs>
       <path id="DejaVuSans-72" d="M 2631 2963 
Q 2534 3019 2420 3045 
Q 2306 3072 2169 3072 
Q 1681 3072 1420 2755 
Q 1159 2438 1159 1844 
L 1159 0 
L 581 0 
L 581 3500 
L 1159 3500 
L 1159 2956 
Q 1341 3275 1631 3429 
Q 1922 3584 2338 3584 
Q 2397 3584 2469 3576 
Q 2541 3569 2628 3553 
L 2631 2963 
z
" transform="scale(0.015625)"/>
       <path id="DejaVuSans-70" d="M 1159 525 
L 1159 -1331 
L 581 -1331 
L 581 3500 
L 1159 3500 
L 1159 2969 
Q 1341 3281 1617 3432 
Q 1894 3584 2278 3584 
Q 2916 3584 3314 3078 
Q 3713 2572 3713 1747 
Q 3713 922 3314 415 
Q 2916 -91 2278 -91 
Q 1894 -91 1617 61 
Q 1341 213 1159 525 
z
M 3116 1747 
Q 3116 2381 2855 2742 
Q 2594 3103 2138 3103 
Q 1681 3103 1420 2742 
Q 1159 2381 1159 1747 
Q 1159 1113 1420 752 
Q 1681 391 2138 391 
Q 2594 391 2855 752 
Q 3116 1113 3116 1747 
z
" transform="scale(0.015625)"/>
      </defs>
      <use xlink:href="#DejaVuSans-50"/>
      <use xlink:href="#DejaVuSans-69" x="58.052734"/>
      <use xlink:href="#DejaVuSans-78" x="85.835938"/>
      <use xlink:href="#DejaVuSans-65" x="141.890625"/>
      <use xlink:href="#DejaVuSans-6c" x="203.414062"/>
      <use xlink:href="#DejaVuSans-20" x="231.197266"/>
      <use xlink:href="#DejaVuSans-49" x="262.984375"/>
      <use xlink:href="#DejaVuSans-6e" x="292.476562"/>
      <use xlink:href="#DejaVuSans-74" x="355.855469"/>
      <use xlink:href="#DejaVuSans-65" x="395.064453"/>
      <use xlink:href="#DejaVuSans-72" x="456.587891"/>
      <use xlink:href="#DejaVuSans-70" x="497.701172"/>
      <use xlink:href="#DejaVuSans-6f" x="561.177734"/>
      <use xlink:href="#DejaVuSans-6c" x="622.359375"/>
      <use xlink:href="#DejaVuSans-61" x="650.142578"/>
      <use xlink:href="#DejaVuSans-74" x="711.421875"/>
      <use xlink:href="#DejaVuSans-69" x="750.630859"/>
      <use xlink:href="#DejaVuSans-6f" x="778.414062"/>
      <use xlink:href="#DejaVuSans-6e" x="839.595703"/>
      <use xlink:href="#DejaVuSans-20" x="902.974609"/>
      <use xlink:href="#DejaVuSans-4e" x="934.761719"/>
      <use xlink:href="#DejaVuSans-44" x="1009.566406"/>
      <use xlink:href="#DejaVuSans-43" x="1086.568359"/>
      <use xlink:href="#DejaVuSans-49" x="1156.392578"/>
     </g>
    </g>
   </g>
   <g id="matplotlib.axis_4">
    <g id="ytick_8">
     <g id="line2d_20">
      <g>
       <use xlink:href="#m21c10e1ddd" x="577.930124" y="290.02779" style="stroke: #000000; stroke-width: 0.8"/>
      </g>
     </g>
     <g id="text_24">
      <!-- 15 -->
      <g transform="translate(558.205124 293.827009) scale(0.1 -0.1)">
       <use xlink:href="#DejaVuSans-31"/>
       <use xlink:href="#DejaVuSans-35" x="63.623047"/>
      </g>
     </g>
    </g>
    <g id="ytick_9">
     <g id="line2d_21">
      <g>
       <use xlink:href="#m21c10e1ddd" x="577.930124" y="248.803898" style="stroke: #000000; stroke-width: 0.8"/>
      </g>
     </g>
     <g id="text_25">
      <!-- 20 -->
      <g transform="translate(558.205124 252.603117) scale(0.1 -0.1)">
       <use xlink:href="#DejaVuSans-32"/>
       <use xlink:href="#DejaVuSans-30" x="63.623047"/>
      </g>
     </g>
    </g>
    <g id="ytick_10">
     <g id="line2d_22">
      <g>
       <use xlink:href="#m21c10e1ddd" x="577.930124" y="207.580006" style="stroke: #000000; stroke-width: 0.8"/>
      </g>
     </g>
     <g id="text_26">
      <!-- 25 -->
      <g transform="translate(558.205124 211.379225) scale(0.1 -0.1)">
       <use xlink:href="#DejaVuSans-32"/>
       <use xlink:href="#DejaVuSans-35" x="63.623047"/>
      </g>
     </g>
    </g>
    <g id="ytick_11">
     <g id="line2d_23">
      <g>
       <use xlink:href="#m21c10e1ddd" x="577.930124" y="166.356114" style="stroke: #000000; stroke-width: 0.8"/>
      </g>
     </g>
     <g id="text_27">
      <!-- 30 -->
      <g transform="translate(558.205124 170.155333) scale(0.1 -0.1)">
       <use xlink:href="#DejaVuSans-33"/>
       <use xlink:href="#DejaVuSans-30" x="63.623047"/>
      </g>
     </g>
    </g>
    <g id="ytick_12">
     <g id="line2d_24">
      <g>
       <use xlink:href="#m21c10e1ddd" x="577.930124" y="125.132222" style="stroke: #000000; stroke-width: 0.8"/>
      </g>
     </g>
     <g id="text_28">
      <!-- 35 -->
      <g transform="translate(558.205124 128.931441) scale(0.1 -0.1)">
       <use xlink:href="#DejaVuSans-33"/>
       <use xlink:href="#DejaVuSans-35" x="63.623047"/>
      </g>
     </g>
    </g>
    <g id="ytick_13">
     <g id="line2d_25">
      <g>
       <use xlink:href="#m21c10e1ddd" x="577.930124" y="83.90833" style="stroke: #000000; stroke-width: 0.8"/>
      </g>
     </g>
     <g id="text_29">
      <!-- 40 -->
      <g transform="translate(558.205124 87.707549) scale(0.1 -0.1)">
       <use xlink:href="#DejaVuSans-34"/>
       <use xlink:href="#DejaVuSans-30" x="63.623047"/>
      </g>
     </g>
    </g>
    <g id="ytick_14">
     <g id="line2d_26">
      <g>
       <use xlink:href="#m21c10e1ddd" x="577.930124" y="42.684438" style="stroke: #000000; stroke-width: 0.8"/>
      </g>
     </g>
     <g id="text_30">
      <!-- 45 -->
      <g transform="translate(558.205124 46.483657) scale(0.1 -0.1)">
       <use xlink:href="#DejaVuSans-34"/>
       <use xlink:href="#DejaVuSans-35" x="63.623047"/>
      </g>
     </g>
    </g>
    <g id="text_31">
     <!-- In-Situ Chl-a -->
     <g transform="translate(552.125436 208.770921) rotate(-90) scale(0.1 -0.1)">
      <use xlink:href="#DejaVuSans-49"/>
      <use xlink:href="#DejaVuSans-6e" x="29.492188"/>
      <use xlink:href="#DejaVuSans-2d" x="92.871094"/>
      <use xlink:href="#DejaVuSans-53" x="128.955078"/>
      <use xlink:href="#DejaVuSans-69" x="192.431641"/>
      <use xlink:href="#DejaVuSans-74" x="220.214844"/>
      <use xlink:href="#DejaVuSans-75" x="259.423828"/>
      <use xlink:href="#DejaVuSans-20" x="322.802734"/>
      <use xlink:href="#DejaVuSans-43" x="354.589844"/>
      <use xlink:href="#DejaVuSans-68" x="424.414062"/>
      <use xlink:href="#DejaVuSans-6c" x="487.792969"/>
      <use xlink:href="#DejaVuSans-2d" x="515.576172"/>
      <use xlink:href="#DejaVuSans-61" x="551.660156"/>
     </g>
    </g>
   </g>
   <g id="line2d_27">
    <path d="M 600.076169 156.369711 
L 604.550118 156.574112 
L 609.024066 156.778513 
L 613.498015 156.982914 
L 617.971964 157.187315 
L 622.445912 157.391716 
L 626.919861 157.596117 
L 631.393809 157.800518 
L 635.867758 158.004919 
L 640.341706 158.20932 
L 644.815655 158.413721 
L 649.289604 158.618122 
L 653.763552 158.822523 
L 658.237501 159.026924 
L 662.711449 159.231324 
L 667.185398 159.435725 
L 671.659347 159.640126 
L 676.133295 159.844527 
L 680.607244 160.048928 
L 685.081192 160.253329 
L 689.555141 160.45773 
L 694.02909 160.662131 
L 698.503038 160.866532 
L 702.976987 161.070933 
L 707.450935 161.275334 
L 711.924884 161.479735 
L 716.398832 161.684136 
L 720.872781 161.888537 
L 725.34673 162.092938 
L 729.820678 162.297339 
L 734.294627 162.50174 
L 738.768575 162.706141 
L 743.242524 162.910542 
L 747.716473 163.114943 
L 752.190421 163.319344 
L 756.66437 163.523745 
L 761.138318 163.728146 
L 765.612267 163.932547 
L 770.086216 164.136948 
L 774.560164 164.341349 
L 779.034113 164.54575 
L 783.508061 164.750151 
L 787.98201 164.954551 
L 792.455959 165.158952 
L 796.929907 165.363353 
L 801.403856 165.567754 
L 805.877804 165.772155 
L 810.351753 165.976556 
L 814.825701 166.180957 
L 819.29965 166.385358 
L 823.773599 166.589759 
L 828.247547 166.79416 
L 832.721496 166.998561 
L 837.195444 167.202962 
L 841.669393 167.407363 
L 846.143342 167.611764 
L 850.61729 167.816165 
L 855.091239 168.020566 
L 859.565187 168.224967 
L 864.039136 168.429368 
L 868.513085 168.633769 
L 872.987033 168.83817 
L 877.460982 169.042571 
L 881.93493 169.246972 
L 886.408879 169.451373 
L 890.882827 169.655774 
L 895.356776 169.860175 
L 899.830725 170.064576 
L 904.304673 170.268977 
L 908.778622 170.473378 
L 913.25257 170.677778 
L 917.726519 170.882179 
L 922.200468 171.08658 
L 926.674416 171.290981 
L 931.148365 171.495382 
L 935.622313 171.699783 
L 940.096262 171.904184 
L 944.570211 172.108585 
L 949.044159 172.312986 
L 953.518108 172.517387 
L 957.992056 172.721788 
L 962.466005 172.926189 
L 966.939953 173.13059 
L 971.413902 173.334991 
L 975.887851 173.539392 
L 980.361799 173.743793 
L 984.835748 173.948194 
L 989.309696 174.152595 
L 993.783645 174.356996 
L 998.257594 174.561397 
L 1002.731542 174.765798 
L 1007.205491 174.970199 
L 1011.679439 175.1746 
L 1016.153388 175.379001 
L 1020.627337 175.583402 
L 1025.101285 175.787803 
L 1029.575234 175.992204 
L 1034.049182 176.196605 
L 1038.523131 176.401005 
L 1042.997079 176.605406 
" clip-path="url(#pca8c12c9ac)" style="fill: none; stroke: #1f77b4; stroke-width: 2.25; stroke-linecap: square"/>
   </g>
   <g id="patch_8">
    <path d="M 577.930124 318.04 
L 577.930124 38.209655 
" style="fill: none; stroke: #000000; stroke-width: 0.8; stroke-linejoin: miter; stroke-linecap: square"/>
   </g>
   <g id="patch_9">
    <path d="M 1065.143125 318.04 
L 1065.143125 38.209655 
" style="fill: none; stroke: #000000; stroke-width: 0.8; stroke-linejoin: miter; stroke-linecap: square"/>
   </g>
   <g id="patch_10">
    <path d="M 577.930124 318.04 
L 1065.143125 318.04 
" style="fill: none; stroke: #000000; stroke-width: 0.8; stroke-linejoin: miter; stroke-linecap: square"/>
   </g>
   <g id="patch_11">
    <path d="M 577.930124 38.209655 
L 1065.143125 38.209655 
" style="fill: none; stroke: #000000; stroke-width: 0.8; stroke-linejoin: miter; stroke-linecap: square"/>
   </g>
   <g id="text_32">
    <!-- $R^2 =  0.004$ -->
    <g transform="translate(602.290774 62.838985) scale(0.14 -0.14)">
     <use xlink:href="#DejaVuSans-Oblique-52" transform="translate(0 0.765625)"/>
     <use xlink:href="#DejaVuSans-32" transform="translate(76.499193 39.046875) scale(0.7)"/>
     <use xlink:href="#DejaVuSans-3d" transform="translate(143.252122 0.765625)"/>
     <use xlink:href="#DejaVuSans-30" transform="translate(246.523607 0.765625)"/>
     <use xlink:href="#DejaVuSans-2e" transform="translate(310.146654 0.765625)"/>
     <use xlink:href="#DejaVuSans-30" transform="translate(341.933763 0.765625)"/>
     <use xlink:href="#DejaVuSans-30" transform="translate(405.55681 0.765625)"/>
     <use xlink:href="#DejaVuSans-34" transform="translate(469.179857 0.765625)"/>
    </g>
   </g>
   <g id="text_33">
    <!-- $p =  0.703$ -->
    <g transform="translate(602.290774 82.398672) scale(0.14 -0.14)">
     <use xlink:href="#DejaVuSans-Oblique-70" transform="translate(0 0.78125)"/>
     <use xlink:href="#DejaVuSans-3d" transform="translate(82.958984 0.78125)"/>
     <use xlink:href="#DejaVuSans-30" transform="translate(186.230469 0.78125)"/>
     <use xlink:href="#DejaVuSans-2e" transform="translate(249.853516 0.78125)"/>
     <use xlink:href="#DejaVuSans-37" transform="translate(273.890625 0.78125)"/>
     <use xlink:href="#DejaVuSans-30" transform="translate(337.513672 0.78125)"/>
     <use xlink:href="#DejaVuSans-33" transform="translate(401.136719 0.78125)"/>
    </g>
   </g>
  </g>
  <g id="text_34">
   <!-- Sentinel-2 NDCI Comparison -->
   <g transform="translate(408.521875 19.3575) scale(0.16 -0.16)">
    <defs>
     <path id="DejaVuSans-Bold-53" d="M 3834 4519 
L 3834 3531 
Q 3450 3703 3084 3790 
Q 2719 3878 2394 3878 
Q 1963 3878 1756 3759 
Q 1550 3641 1550 3391 
Q 1550 3203 1689 3098 
Q 1828 2994 2194 2919 
L 2706 2816 
Q 3484 2659 3812 2340 
Q 4141 2022 4141 1434 
Q 4141 663 3683 286 
Q 3225 -91 2284 -91 
Q 1841 -91 1394 -6 
Q 947 78 500 244 
L 500 1259 
Q 947 1022 1364 901 
Q 1781 781 2169 781 
Q 2563 781 2772 912 
Q 2981 1044 2981 1288 
Q 2981 1506 2839 1625 
Q 2697 1744 2272 1838 
L 1806 1941 
Q 1106 2091 782 2419 
Q 459 2747 459 3303 
Q 459 4000 909 4375 
Q 1359 4750 2203 4750 
Q 2588 4750 2994 4692 
Q 3400 4634 3834 4519 
z
" transform="scale(0.015625)"/>
     <path id="DejaVuSans-Bold-65" d="M 4031 1759 
L 4031 1441 
L 1416 1441 
Q 1456 1047 1700 850 
Q 1944 653 2381 653 
Q 2734 653 3104 758 
Q 3475 863 3866 1075 
L 3866 213 
Q 3469 63 3072 -14 
Q 2675 -91 2278 -91 
Q 1328 -91 801 392 
Q 275 875 275 1747 
Q 275 2603 792 3093 
Q 1309 3584 2216 3584 
Q 3041 3584 3536 3087 
Q 4031 2591 4031 1759 
z
M 2881 2131 
Q 2881 2450 2695 2645 
Q 2509 2841 2209 2841 
Q 1884 2841 1681 2658 
Q 1478 2475 1428 2131 
L 2881 2131 
z
" transform="scale(0.015625)"/>
     <path id="DejaVuSans-Bold-6e" d="M 4056 2131 
L 4056 0 
L 2931 0 
L 2931 347 
L 2931 1631 
Q 2931 2084 2911 2256 
Q 2891 2428 2841 2509 
Q 2775 2619 2662 2680 
Q 2550 2741 2406 2741 
Q 2056 2741 1856 2470 
Q 1656 2200 1656 1722 
L 1656 0 
L 538 0 
L 538 3500 
L 1656 3500 
L 1656 2988 
Q 1909 3294 2193 3439 
Q 2478 3584 2822 3584 
Q 3428 3584 3742 3212 
Q 4056 2841 4056 2131 
z
" transform="scale(0.015625)"/>
     <path id="DejaVuSans-Bold-74" d="M 1759 4494 
L 1759 3500 
L 2913 3500 
L 2913 2700 
L 1759 2700 
L 1759 1216 
Q 1759 972 1856 886 
Q 1953 800 2241 800 
L 2816 800 
L 2816 0 
L 1856 0 
Q 1194 0 917 276 
Q 641 553 641 1216 
L 641 2700 
L 84 2700 
L 84 3500 
L 641 3500 
L 641 4494 
L 1759 4494 
z
" transform="scale(0.015625)"/>
     <path id="DejaVuSans-Bold-69" d="M 538 3500 
L 1656 3500 
L 1656 0 
L 538 0 
L 538 3500 
z
M 538 4863 
L 1656 4863 
L 1656 3950 
L 538 3950 
L 538 4863 
z
" transform="scale(0.015625)"/>
     <path id="DejaVuSans-Bold-6c" d="M 538 4863 
L 1656 4863 
L 1656 0 
L 538 0 
L 538 4863 
z
" transform="scale(0.015625)"/>
     <path id="DejaVuSans-Bold-2d" d="M 347 2297 
L 2309 2297 
L 2309 1388 
L 347 1388 
L 347 2297 
z
" transform="scale(0.015625)"/>
     <path id="DejaVuSans-Bold-32" d="M 1844 884 
L 3897 884 
L 3897 0 
L 506 0 
L 506 884 
L 2209 2388 
Q 2438 2594 2547 2791 
Q 2656 2988 2656 3200 
Q 2656 3528 2436 3728 
Q 2216 3928 1850 3928 
Q 1569 3928 1234 3808 
Q 900 3688 519 3450 
L 519 4475 
Q 925 4609 1322 4679 
Q 1719 4750 2100 4750 
Q 2938 4750 3402 4381 
Q 3866 4013 3866 3353 
Q 3866 2972 3669 2642 
Q 3472 2313 2841 1759 
L 1844 884 
z
" transform="scale(0.015625)"/>
     <path id="DejaVuSans-Bold-20" transform="scale(0.015625)"/>
     <path id="DejaVuSans-Bold-4e" d="M 588 4666 
L 1931 4666 
L 3628 1466 
L 3628 4666 
L 4769 4666 
L 4769 0 
L 3425 0 
L 1728 3200 
L 1728 0 
L 588 0 
L 588 4666 
z
" transform="scale(0.015625)"/>
     <path id="DejaVuSans-Bold-44" d="M 1791 3756 
L 1791 909 
L 2222 909 
Q 2959 909 3348 1275 
Q 3738 1641 3738 2338 
Q 3738 3031 3350 3393 
Q 2963 3756 2222 3756 
L 1791 3756 
z
M 588 4666 
L 1856 4666 
Q 2919 4666 3439 4514 
Q 3959 4363 4331 4000 
Q 4659 3684 4818 3271 
Q 4978 2859 4978 2338 
Q 4978 1809 4818 1395 
Q 4659 981 4331 666 
Q 3956 303 3431 151 
Q 2906 0 1856 0 
L 588 0 
L 588 4666 
z
" transform="scale(0.015625)"/>
     <path id="DejaVuSans-Bold-43" d="M 4288 256 
Q 3956 84 3597 -3 
Q 3238 -91 2847 -91 
Q 1681 -91 1000 561 
Q 319 1213 319 2328 
Q 319 3447 1000 4098 
Q 1681 4750 2847 4750 
Q 3238 4750 3597 4662 
Q 3956 4575 4288 4403 
L 4288 3438 
Q 3953 3666 3628 3772 
Q 3303 3878 2944 3878 
Q 2300 3878 1931 3465 
Q 1563 3053 1563 2328 
Q 1563 1606 1931 1193 
Q 2300 781 2944 781 
Q 3303 781 3628 887 
Q 3953 994 4288 1222 
L 4288 256 
z
" transform="scale(0.015625)"/>
     <path id="DejaVuSans-Bold-49" d="M 588 4666 
L 1791 4666 
L 1791 0 
L 588 0 
L 588 4666 
z
" transform="scale(0.015625)"/>
     <path id="DejaVuSans-Bold-6f" d="M 2203 2784 
Q 1831 2784 1636 2517 
Q 1441 2250 1441 1747 
Q 1441 1244 1636 976 
Q 1831 709 2203 709 
Q 2569 709 2762 976 
Q 2956 1244 2956 1747 
Q 2956 2250 2762 2517 
Q 2569 2784 2203 2784 
z
M 2203 3584 
Q 3106 3584 3614 3096 
Q 4122 2609 4122 1747 
Q 4122 884 3614 396 
Q 3106 -91 2203 -91 
Q 1297 -91 786 396 
Q 275 884 275 1747 
Q 275 2609 786 3096 
Q 1297 3584 2203 3584 
z
" transform="scale(0.015625)"/>
     <path id="DejaVuSans-Bold-6d" d="M 3781 2919 
Q 3994 3244 4286 3414 
Q 4578 3584 4928 3584 
Q 5531 3584 5847 3212 
Q 6163 2841 6163 2131 
L 6163 0 
L 5038 0 
L 5038 1825 
Q 5041 1866 5042 1909 
Q 5044 1953 5044 2034 
Q 5044 2406 4934 2573 
Q 4825 2741 4581 2741 
Q 4263 2741 4089 2478 
Q 3916 2216 3909 1719 
L 3909 0 
L 2784 0 
L 2784 1825 
Q 2784 2406 2684 2573 
Q 2584 2741 2328 2741 
Q 2006 2741 1831 2477 
Q 1656 2213 1656 1722 
L 1656 0 
L 531 0 
L 531 3500 
L 1656 3500 
L 1656 2988 
Q 1863 3284 2130 3434 
Q 2397 3584 2719 3584 
Q 3081 3584 3359 3409 
Q 3638 3234 3781 2919 
z
" transform="scale(0.015625)"/>
     <path id="DejaVuSans-Bold-70" d="M 1656 506 
L 1656 -1331 
L 538 -1331 
L 538 3500 
L 1656 3500 
L 1656 2988 
Q 1888 3294 2169 3439 
Q 2450 3584 2816 3584 
Q 3463 3584 3878 3070 
Q 4294 2556 4294 1747 
Q 4294 938 3878 423 
Q 3463 -91 2816 -91 
Q 2450 -91 2169 54 
Q 1888 200 1656 506 
z
M 2400 2772 
Q 2041 2772 1848 2508 
Q 1656 2244 1656 1747 
Q 1656 1250 1848 986 
Q 2041 722 2400 722 
Q 2759 722 2948 984 
Q 3138 1247 3138 1747 
Q 3138 2247 2948 2509 
Q 2759 2772 2400 2772 
z
" transform="scale(0.015625)"/>
     <path id="DejaVuSans-Bold-61" d="M 2106 1575 
Q 1756 1575 1579 1456 
Q 1403 1338 1403 1106 
Q 1403 894 1545 773 
Q 1688 653 1941 653 
Q 2256 653 2472 879 
Q 2688 1106 2688 1447 
L 2688 1575 
L 2106 1575 
z
M 3816 1997 
L 3816 0 
L 2688 0 
L 2688 519 
Q 2463 200 2181 54 
Q 1900 -91 1497 -91 
Q 953 -91 614 226 
Q 275 544 275 1050 
Q 275 1666 698 1953 
Q 1122 2241 2028 2241 
L 2688 2241 
L 2688 2328 
Q 2688 2594 2478 2717 
Q 2269 2841 1825 2841 
Q 1466 2841 1156 2769 
Q 847 2697 581 2553 
L 581 3406 
Q 941 3494 1303 3539 
Q 1666 3584 2028 3584 
Q 2975 3584 3395 3211 
Q 3816 2838 3816 1997 
z
" transform="scale(0.015625)"/>
     <path id="DejaVuSans-Bold-72" d="M 3138 2547 
Q 2991 2616 2845 2648 
Q 2700 2681 2553 2681 
Q 2122 2681 1889 2404 
Q 1656 2128 1656 1613 
L 1656 0 
L 538 0 
L 538 3500 
L 1656 3500 
L 1656 2925 
Q 1872 3269 2151 3426 
Q 2431 3584 2822 3584 
Q 2878 3584 2943 3579 
Q 3009 3575 3134 3559 
L 3138 2547 
z
" transform="scale(0.015625)"/>
     <path id="DejaVuSans-Bold-73" d="M 3272 3391 
L 3272 2541 
Q 2913 2691 2578 2766 
Q 2244 2841 1947 2841 
Q 1628 2841 1473 2761 
Q 1319 2681 1319 2516 
Q 1319 2381 1436 2309 
Q 1553 2238 1856 2203 
L 2053 2175 
Q 2913 2066 3209 1816 
Q 3506 1566 3506 1031 
Q 3506 472 3093 190 
Q 2681 -91 1863 -91 
Q 1516 -91 1145 -36 
Q 775 19 384 128 
L 384 978 
Q 719 816 1070 734 
Q 1422 653 1784 653 
Q 2113 653 2278 743 
Q 2444 834 2444 1013 
Q 2444 1163 2330 1236 
Q 2216 1309 1875 1350 
L 1678 1375 
Q 931 1469 631 1722 
Q 331 1975 331 2491 
Q 331 3047 712 3315 
Q 1094 3584 1881 3584 
Q 2191 3584 2531 3537 
Q 2872 3491 3272 3391 
z
" transform="scale(0.015625)"/>
    </defs>
    <use xlink:href="#DejaVuSans-Bold-53"/>
    <use xlink:href="#DejaVuSans-Bold-65" x="72.021484"/>
    <use xlink:href="#DejaVuSans-Bold-6e" x="139.84375"/>
    <use xlink:href="#DejaVuSans-Bold-74" x="211.035156"/>
    <use xlink:href="#DejaVuSans-Bold-69" x="258.837891"/>
    <use xlink:href="#DejaVuSans-Bold-6e" x="293.115234"/>
    <use xlink:href="#DejaVuSans-Bold-65" x="364.306641"/>
    <use xlink:href="#DejaVuSans-Bold-6c" x="432.128906"/>
    <use xlink:href="#DejaVuSans-Bold-2d" x="466.40625"/>
    <use xlink:href="#DejaVuSans-Bold-32" x="507.910156"/>
    <use xlink:href="#DejaVuSans-Bold-20" x="577.490234"/>
    <use xlink:href="#DejaVuSans-Bold-4e" x="612.304688"/>
    <use xlink:href="#DejaVuSans-Bold-44" x="695.996094"/>
    <use xlink:href="#DejaVuSans-Bold-43" x="779.003906"/>
    <use xlink:href="#DejaVuSans-Bold-49" x="852.392578"/>
    <use xlink:href="#DejaVuSans-Bold-20" x="889.599609"/>
    <use xlink:href="#DejaVuSans-Bold-43" x="924.414062"/>
    <use xlink:href="#DejaVuSans-Bold-6f" x="997.802734"/>
    <use xlink:href="#DejaVuSans-Bold-6d" x="1066.503906"/>
    <use xlink:href="#DejaVuSans-Bold-70" x="1170.703125"/>
    <use xlink:href="#DejaVuSans-Bold-61" x="1242.285156"/>
    <use xlink:href="#DejaVuSans-Bold-72" x="1309.765625"/>
    <use xlink:href="#DejaVuSans-Bold-69" x="1359.082031"/>
    <use xlink:href="#DejaVuSans-Bold-73" x="1393.359375"/>
    <use xlink:href="#DejaVuSans-Bold-6f" x="1452.880859"/>
    <use xlink:href="#DejaVuSans-Bold-6e" x="1521.582031"/>
   </g>
  </g>
 </g>
 <defs>
  <clipPath id="pdb8a2ae404">
   <rect x="40.603125" y="38.209655" width="487.213001" height="279.830345"/>
  </clipPath>
  <clipPath id="pca8c12c9ac">
   <rect x="577.930124" y="38.209655" width="487.213001" height="279.830345"/>
  </clipPath>
 </defs>
</svg>
