<?xml version="1.0" encoding="utf-8" standalone="no"?>
<!DOCTYPE svg PUBLIC "-//W3C//DTD SVG 1.1//EN"
  "http://www.w3.org/Graphics/SVG/1.1/DTD/svg11.dtd">
<svg xmlns:xlink="http://www.w3.org/1999/xlink" width="1072.343125pt" height="355.59625pt" viewBox="0 0 1072.343125 355.59625" xmlns="http://www.w3.org/2000/svg" version="1.1">
 <metadata>
  <rdf:RDF xmlns:dc="http://purl.org/dc/elements/1.1/" xmlns:cc="http://creativecommons.org/ns#" xmlns:rdf="http://www.w3.org/1999/02/22-rdf-syntax-ns#">
   <cc:Work>
    <dc:type rdf:resource="http://purl.org/dc/dcmitype/StillImage"/>
    <dc:date>2024-04-19T15:08:27.525195</dc:date>
    <dc:format>image/svg+xml</dc:format>
    <dc:creator>
     <cc:Agent>
      <dc:title>Matplotlib v3.7.0, https://matplotlib.org/</dc:title>
     </cc:Agent>
    </dc:creator>
   </cc:Work>
  </rdf:RDF>
 </metadata>
 <defs>
  <style type="text/css">*{stroke-linejoin: round; stroke-linecap: butt}</style>
 </defs>
 <g id="figure_1">
  <g id="patch_1">
   <path d="M 0 355.59625 
L 1072.343125 355.59625 
L 1072.343125 0 
L 0 0 
z
" style="fill: #ffffff"/>
  </g>
  <g id="axes_1">
   <g id="patch_2">
    <path d="M 40.603125 318.04 
L 527.816126 318.04 
L 527.816126 38.209655 
L 40.603125 38.209655 
z
" style="fill: #ffffff"/>
   </g>
   <g id="PathCollection_1">
    <defs>
     <path id="md7f170d0d6" d="M 0 3 
C 0.795609 3 1.55874 2.683901 2.12132 2.12132 
C 2.683901 1.55874 3 0.795609 3 0 
C 3 -0.795609 2.683901 -1.55874 2.12132 -2.12132 
C 1.55874 -2.683901 0.795609 -3 0 -3 
C -0.795609 -3 -1.55874 -2.683901 -2.12132 -2.12132 
C -2.683901 -1.55874 -3 -0.795609 -3 0 
C -3 0.795609 -2.683901 1.55874 -2.12132 2.12132 
C -1.55874 2.683901 -0.795609 3 0 3 
z
" style="stroke: #1f77b4; stroke-opacity: 0.8"/>
    </defs>
    <g clip-path="url(#pf0d09524bd)">
     <use xlink:href="#md7f170d0d6" x="282.298218" y="138.650328" style="fill: #1f77b4; fill-opacity: 0.8; stroke: #1f77b4; stroke-opacity: 0.8"/>
     <use xlink:href="#md7f170d0d6" x="325.299666" y="182.510883" style="fill: #1f77b4; fill-opacity: 0.8; stroke: #1f77b4; stroke-opacity: 0.8"/>
     <use xlink:href="#md7f170d0d6" x="392.002151" y="86.017661" style="fill: #1f77b4; fill-opacity: 0.8; stroke: #1f77b4; stroke-opacity: 0.8"/>
     <use xlink:href="#md7f170d0d6" x="323.779314" y="217.599328" style="fill: #1f77b4; fill-opacity: 0.8; stroke: #1f77b4; stroke-opacity: 0.8"/>
     <use xlink:href="#md7f170d0d6" x="326.886663" y="121.106105" style="fill: #1f77b4; fill-opacity: 0.8; stroke: #1f77b4; stroke-opacity: 0.8"/>
     <use xlink:href="#md7f170d0d6" x="328.547144" y="235.14355" style="fill: #1f77b4; fill-opacity: 0.8; stroke: #1f77b4; stroke-opacity: 0.8"/>
     <use xlink:href="#md7f170d0d6" x="278.975211" y="252.687772" style="fill: #1f77b4; fill-opacity: 0.8; stroke: #1f77b4; stroke-opacity: 0.8"/>
     <use xlink:href="#md7f170d0d6" x="332.436101" y="164.966661" style="fill: #1f77b4; fill-opacity: 0.8; stroke: #1f77b4; stroke-opacity: 0.8"/>
     <use xlink:href="#md7f170d0d6" x="313.50552" y="243.915661" style="fill: #1f77b4; fill-opacity: 0.8; stroke: #1f77b4; stroke-opacity: 0.8"/>
     <use xlink:href="#md7f170d0d6" x="293.478423" y="112.333994" style="fill: #1f77b4; fill-opacity: 0.8; stroke: #1f77b4; stroke-opacity: 0.8"/>
     <use xlink:href="#md7f170d0d6" x="351.075464" y="173.738772" style="fill: #1f77b4; fill-opacity: 0.8; stroke: #1f77b4; stroke-opacity: 0.8"/>
     <use xlink:href="#md7f170d0d6" x="356.897924" y="252.687772" style="fill: #1f77b4; fill-opacity: 0.8; stroke: #1f77b4; stroke-opacity: 0.8"/>
     <use xlink:href="#md7f170d0d6" x="429.465396" y="235.14355" style="fill: #1f77b4; fill-opacity: 0.8; stroke: #1f77b4; stroke-opacity: 0.8"/>
     <use xlink:href="#md7f170d0d6" x="197.26276" y="217.599328" style="fill: #1f77b4; fill-opacity: 0.8; stroke: #1f77b4; stroke-opacity: 0.8"/>
     <use xlink:href="#md7f170d0d6" x="413.550973" y="243.915661" style="fill: #1f77b4; fill-opacity: 0.8; stroke: #1f77b4; stroke-opacity: 0.8"/>
     <use xlink:href="#md7f170d0d6" x="394.644144" y="191.282994" style="fill: #1f77b4; fill-opacity: 0.8; stroke: #1f77b4; stroke-opacity: 0.8"/>
     <use xlink:href="#md7f170d0d6" x="385.678829" y="200.055105" style="fill: #1f77b4; fill-opacity: 0.8; stroke: #1f77b4; stroke-opacity: 0.8"/>
     <use xlink:href="#md7f170d0d6" x="374.780195" y="147.422439" style="fill: #1f77b4; fill-opacity: 0.8; stroke: #1f77b4; stroke-opacity: 0.8"/>
     <use xlink:href="#md7f170d0d6" x="380.835806" y="147.422439" style="fill: #1f77b4; fill-opacity: 0.8; stroke: #1f77b4; stroke-opacity: 0.8"/>
     <use xlink:href="#md7f170d0d6" x="411.622508" y="138.650328" style="fill: #1f77b4; fill-opacity: 0.8; stroke: #1f77b4; stroke-opacity: 0.8"/>
     <use xlink:href="#md7f170d0d6" x="249.399418" y="129.878216" style="fill: #1f77b4; fill-opacity: 0.8; stroke: #1f77b4; stroke-opacity: 0.8"/>
     <use xlink:href="#md7f170d0d6" x="379.322903" y="235.14355" style="fill: #1f77b4; fill-opacity: 0.8; stroke: #1f77b4; stroke-opacity: 0.8"/>
     <use xlink:href="#md7f170d0d6" x="387.123286" y="156.19455" style="fill: #1f77b4; fill-opacity: 0.8; stroke: #1f77b4; stroke-opacity: 0.8"/>
     <use xlink:href="#md7f170d0d6" x="451.276891" y="156.19455" style="fill: #1f77b4; fill-opacity: 0.8; stroke: #1f77b4; stroke-opacity: 0.8"/>
     <use xlink:href="#md7f170d0d6" x="491.848493" y="50.929216" style="fill: #1f77b4; fill-opacity: 0.8; stroke: #1f77b4; stroke-opacity: 0.8"/>
     <use xlink:href="#md7f170d0d6" x="298.706907" y="305.320439" style="fill: #1f77b4; fill-opacity: 0.8; stroke: #1f77b4; stroke-opacity: 0.8"/>
     <use xlink:href="#md7f170d0d6" x="406.966506" y="86.017661" style="fill: #1f77b4; fill-opacity: 0.8; stroke: #1f77b4; stroke-opacity: 0.8"/>
     <use xlink:href="#md7f170d0d6" x="505.670081" y="173.738772" style="fill: #1f77b4; fill-opacity: 0.8; stroke: #1f77b4; stroke-opacity: 0.8"/>
     <use xlink:href="#md7f170d0d6" x="505.2754" y="191.282994" style="fill: #1f77b4; fill-opacity: 0.8; stroke: #1f77b4; stroke-opacity: 0.8"/>
     <use xlink:href="#md7f170d0d6" x="370.629298" y="200.055105" style="fill: #1f77b4; fill-opacity: 0.8; stroke: #1f77b4; stroke-opacity: 0.8"/>
     <use xlink:href="#md7f170d0d6" x="437.984801" y="156.19455" style="fill: #1f77b4; fill-opacity: 0.8; stroke: #1f77b4; stroke-opacity: 0.8"/>
     <use xlink:href="#md7f170d0d6" x="438.103865" y="164.966661" style="fill: #1f77b4; fill-opacity: 0.8; stroke: #1f77b4; stroke-opacity: 0.8"/>
     <use xlink:href="#md7f170d0d6" x="469.527283" y="208.827217" style="fill: #1f77b4; fill-opacity: 0.8; stroke: #1f77b4; stroke-opacity: 0.8"/>
     <use xlink:href="#md7f170d0d6" x="416.521338" y="296.548328" style="fill: #1f77b4; fill-opacity: 0.8; stroke: #1f77b4; stroke-opacity: 0.8"/>
     <use xlink:href="#md7f170d0d6" x="394.256179" y="182.510883" style="fill: #1f77b4; fill-opacity: 0.8; stroke: #1f77b4; stroke-opacity: 0.8"/>
     <use xlink:href="#md7f170d0d6" x="389.68224" y="103.561883" style="fill: #1f77b4; fill-opacity: 0.8; stroke: #1f77b4; stroke-opacity: 0.8"/>
     <use xlink:href="#md7f170d0d6" x="391.034254" y="270.231994" style="fill: #1f77b4; fill-opacity: 0.8; stroke: #1f77b4; stroke-opacity: 0.8"/>
     <use xlink:href="#md7f170d0d6" x="62.749171" y="59.701327" style="fill: #1f77b4; fill-opacity: 0.8; stroke: #1f77b4; stroke-opacity: 0.8"/>
     <use xlink:href="#md7f170d0d6" x="415.446407" y="226.371439" style="fill: #1f77b4; fill-opacity: 0.8; stroke: #1f77b4; stroke-opacity: 0.8"/>
     <use xlink:href="#md7f170d0d6" x="410.087013" y="94.789772" style="fill: #1f77b4; fill-opacity: 0.8; stroke: #1f77b4; stroke-opacity: 0.8"/>
    </g>
   </g>
   <g id="PolyCollection_1">
    <path d="M 62.749171 99.374196 
L 62.749171 291.518414 
L 67.223119 289.723272 
L 71.697068 287.92813 
L 76.171016 286.401288 
L 80.644965 284.886021 
L 85.118913 283.370754 
L 89.592862 281.855487 
L 94.066811 280.34022 
L 98.540759 278.824953 
L 103.014708 277.309687 
L 107.488656 275.79442 
L 111.962605 274.279153 
L 116.436554 272.763886 
L 120.910502 271.248619 
L 125.384451 269.733352 
L 129.858399 268.339308 
L 134.332348 266.946234 
L 138.806297 265.553161 
L 143.280245 264.160087 
L 147.754194 262.764001 
L 152.228142 261.366388 
L 156.702091 259.968775 
L 161.176039 258.571162 
L 165.649988 257.173549 
L 170.123937 255.775936 
L 174.597885 254.236761 
L 179.071834 252.576855 
L 183.545782 250.916949 
L 188.019731 249.257043 
L 192.49368 247.689574 
L 196.967628 246.443079 
L 201.441577 245.196583 
L 205.915525 243.950088 
L 210.389474 242.703593 
L 214.863423 241.451229 
L 219.337371 239.889275 
L 223.81132 238.152243 
L 228.285268 236.809581 
L 232.759217 235.472232 
L 237.233165 233.994453 
L 241.707114 232.292082 
L 246.181063 230.589711 
L 250.655011 229.644853 
L 255.12896 228.564355 
L 259.602908 226.664367 
L 264.076857 224.764378 
L 268.550806 222.86439 
L 273.024754 221.433098 
L 277.498703 220.095965 
L 281.972651 218.927317 
L 286.4466 217.860701 
L 290.920549 216.776065 
L 295.394497 215.350523 
L 299.868446 213.954108 
L 304.342394 212.794213 
L 308.816343 211.457854 
L 313.290291 210.72171 
L 317.76424 209.923648 
L 322.238189 208.499172 
L 326.712137 207.108607 
L 331.186086 206.265635 
L 335.660034 204.935727 
L 340.133983 203.67793 
L 344.607932 202.806354 
L 349.08188 201.765554 
L 353.555829 200.733019 
L 358.029777 200.118008 
L 362.503726 199.717037 
L 366.977675 199.512813 
L 371.451623 199.22112 
L 375.925572 199.53574 
L 380.39952 200.064772 
L 384.873469 200.018737 
L 389.347418 200.518113 
L 393.821366 200.636401 
L 398.295315 200.706109 
L 402.769263 200.949953 
L 407.243212 201.310843 
L 411.71716 202.031317 
L 416.191109 202.727108 
L 420.665058 203.612146 
L 425.139006 204.914604 
L 429.612955 205.470806 
L 434.086903 206.577524 
L 438.560852 207.414834 
L 443.034801 208.604189 
L 447.508749 209.778013 
L 451.982698 210.662062 
L 456.456646 211.372041 
L 460.930595 212.367524 
L 465.404544 213.323012 
L 469.878492 214.174441 
L 474.352441 215.020741 
L 478.826389 215.86668 
L 483.300338 216.706454 
L 487.774286 217.535339 
L 492.248235 218.150768 
L 496.722184 219.150212 
L 501.196132 220.086316 
L 505.670081 220.937573 
L 505.670081 135.482417 
L 505.670081 135.482417 
L 501.196132 137.126362 
L 496.722184 138.771615 
L 492.248235 140.232243 
L 487.774286 141.517031 
L 483.300338 142.80182 
L 478.826389 143.982091 
L 474.352441 145.048556 
L 469.878492 145.509439 
L 465.404544 146.726117 
L 460.930595 148.383495 
L 456.456646 149.624679 
L 451.982698 150.887817 
L 447.508749 152.204793 
L 443.034801 153.008706 
L 438.560852 154.145556 
L 434.086903 155.181019 
L 429.612955 156.005683 
L 425.139006 157.071268 
L 420.665058 157.679537 
L 416.191109 158.67056 
L 411.71716 159.050709 
L 407.243212 159.759916 
L 402.769263 160.185789 
L 398.295315 160.266095 
L 393.821366 160.142859 
L 389.347418 159.99589 
L 384.873469 159.891484 
L 380.39952 160.263101 
L 375.925572 160.618404 
L 371.451623 160.246525 
L 366.977675 160.279259 
L 362.503726 159.937199 
L 358.029777 159.472813 
L 353.555829 159.078739 
L 349.08188 158.50138 
L 344.607932 157.839787 
L 340.133983 157.35406 
L 335.660034 156.56027 
L 331.186086 155.939409 
L 326.712137 155.347931 
L 322.238189 154.85645 
L 317.76424 154.172498 
L 313.290291 153.455087 
L 308.816343 152.993775 
L 304.342394 152.431326 
L 299.868446 151.977492 
L 295.394497 150.983133 
L 290.920549 150.300477 
L 286.4466 149.715846 
L 281.972651 149.137097 
L 277.498703 148.546159 
L 273.024754 147.992264 
L 268.550806 147.403273 
L 264.076857 146.82538 
L 259.602908 145.770151 
L 255.12896 144.79999 
L 250.655011 143.917393 
L 246.181063 143.182419 
L 241.707114 142.004326 
L 237.233165 140.479321 
L 232.759217 139.104396 
L 228.285268 138.252668 
L 223.81132 137.267224 
L 219.337371 136.20561 
L 214.863423 135.376473 
L 210.389474 134.426106 
L 205.915525 133.323462 
L 201.441577 132.202063 
L 196.967628 130.940195 
L 192.49368 129.756904 
L 188.019731 128.580919 
L 183.545782 127.678462 
L 179.071834 126.636882 
L 174.597885 125.52343 
L 170.123937 124.37704 
L 165.649988 123.296526 
L 161.176039 122.183074 
L 156.702091 121.069622 
L 152.228142 119.95617 
L 147.754194 118.842719 
L 143.280245 117.729267 
L 138.806297 116.721332 
L 134.332348 115.757554 
L 129.858399 114.606139 
L 125.384451 113.454725 
L 120.910502 112.306037 
L 116.436554 111.252707 
L 111.962605 110.040553 
L 107.488656 108.961036 
L 103.014708 107.999121 
L 98.540759 107.033571 
L 94.066811 106.067491 
L 89.592862 105.109077 
L 85.118913 104.150716 
L 80.644965 103.192354 
L 76.171016 102.233993 
L 71.697068 101.275631 
L 67.223119 100.31727 
L 62.749171 99.374196 
z
" clip-path="url(#pf0d09524bd)" style="fill: #1f77b4; fill-opacity: 0.15"/>
   </g>
   <g id="matplotlib.axis_1">
    <g id="xtick_1">
     <g id="line2d_1">
      <defs>
       <path id="md202b320ed" d="M 0 0 
L 0 3.5 
" style="stroke: #000000; stroke-width: 0.8"/>
      </defs>
      <g>
       <use xlink:href="#md202b320ed" x="110.753559" y="318.04" style="stroke: #000000; stroke-width: 0.8"/>
      </g>
     </g>
     <g id="text_1">
      <!-- 0.03 -->
      <g transform="translate(99.620747 332.638437) scale(0.1 -0.1)">
       <defs>
        <path id="DejaVuSans-30" d="M 2034 4250 
Q 1547 4250 1301 3770 
Q 1056 3291 1056 2328 
Q 1056 1369 1301 889 
Q 1547 409 2034 409 
Q 2525 409 2770 889 
Q 3016 1369 3016 2328 
Q 3016 3291 2770 3770 
Q 2525 4250 2034 4250 
z
M 2034 4750 
Q 2819 4750 3233 4129 
Q 3647 3509 3647 2328 
Q 3647 1150 3233 529 
Q 2819 -91 2034 -91 
Q 1250 -91 836 529 
Q 422 1150 422 2328 
Q 422 3509 836 4129 
Q 1250 4750 2034 4750 
z
" transform="scale(0.015625)"/>
        <path id="DejaVuSans-2e" d="M 684 794 
L 1344 794 
L 1344 0 
L 684 0 
L 684 794 
z
" transform="scale(0.015625)"/>
        <path id="DejaVuSans-33" d="M 2597 2516 
Q 3050 2419 3304 2112 
Q 3559 1806 3559 1356 
Q 3559 666 3084 287 
Q 2609 -91 1734 -91 
Q 1441 -91 1130 -33 
Q 819 25 488 141 
L 488 750 
Q 750 597 1062 519 
Q 1375 441 1716 441 
Q 2309 441 2620 675 
Q 2931 909 2931 1356 
Q 2931 1769 2642 2001 
Q 2353 2234 1838 2234 
L 1294 2234 
L 1294 2753 
L 1863 2753 
Q 2328 2753 2575 2939 
Q 2822 3125 2822 3475 
Q 2822 3834 2567 4026 
Q 2313 4219 1838 4219 
Q 1578 4219 1281 4162 
Q 984 4106 628 3988 
L 628 4550 
Q 988 4650 1302 4700 
Q 1616 4750 1894 4750 
Q 2613 4750 3031 4423 
Q 3450 4097 3450 3541 
Q 3450 3153 3228 2886 
Q 3006 2619 2597 2516 
z
" transform="scale(0.015625)"/>
       </defs>
       <use xlink:href="#DejaVuSans-30"/>
       <use xlink:href="#DejaVuSans-2e" x="63.623047"/>
       <use xlink:href="#DejaVuSans-30" x="95.410156"/>
       <use xlink:href="#DejaVuSans-33" x="159.033203"/>
      </g>
     </g>
    </g>
    <g id="xtick_2">
     <g id="line2d_2">
      <g>
       <use xlink:href="#md202b320ed" x="192.704642" y="318.04" style="stroke: #000000; stroke-width: 0.8"/>
      </g>
     </g>
     <g id="text_2">
      <!-- 0.04 -->
      <g transform="translate(181.57183 332.638437) scale(0.1 -0.1)">
       <defs>
        <path id="DejaVuSans-34" d="M 2419 4116 
L 825 1625 
L 2419 1625 
L 2419 4116 
z
M 2253 4666 
L 3047 4666 
L 3047 1625 
L 3713 1625 
L 3713 1100 
L 3047 1100 
L 3047 0 
L 2419 0 
L 2419 1100 
L 313 1100 
L 313 1709 
L 2253 4666 
z
" transform="scale(0.015625)"/>
       </defs>
       <use xlink:href="#DejaVuSans-30"/>
       <use xlink:href="#DejaVuSans-2e" x="63.623047"/>
       <use xlink:href="#DejaVuSans-30" x="95.410156"/>
       <use xlink:href="#DejaVuSans-34" x="159.033203"/>
      </g>
     </g>
    </g>
    <g id="xtick_3">
     <g id="line2d_3">
      <g>
       <use xlink:href="#md202b320ed" x="274.655726" y="318.04" style="stroke: #000000; stroke-width: 0.8"/>
      </g>
     </g>
     <g id="text_3">
      <!-- 0.05 -->
      <g transform="translate(263.522913 332.638437) scale(0.1 -0.1)">
       <defs>
        <path id="DejaVuSans-35" d="M 691 4666 
L 3169 4666 
L 3169 4134 
L 1269 4134 
L 1269 2991 
Q 1406 3038 1543 3061 
Q 1681 3084 1819 3084 
Q 2600 3084 3056 2656 
Q 3513 2228 3513 1497 
Q 3513 744 3044 326 
Q 2575 -91 1722 -91 
Q 1428 -91 1123 -41 
Q 819 9 494 109 
L 494 744 
Q 775 591 1075 516 
Q 1375 441 1709 441 
Q 2250 441 2565 725 
Q 2881 1009 2881 1497 
Q 2881 1984 2565 2268 
Q 2250 2553 1709 2553 
Q 1456 2553 1204 2497 
Q 953 2441 691 2322 
L 691 4666 
z
" transform="scale(0.015625)"/>
       </defs>
       <use xlink:href="#DejaVuSans-30"/>
       <use xlink:href="#DejaVuSans-2e" x="63.623047"/>
       <use xlink:href="#DejaVuSans-30" x="95.410156"/>
       <use xlink:href="#DejaVuSans-35" x="159.033203"/>
      </g>
     </g>
    </g>
    <g id="xtick_4">
     <g id="line2d_4">
      <g>
       <use xlink:href="#md202b320ed" x="356.606809" y="318.04" style="stroke: #000000; stroke-width: 0.8"/>
      </g>
     </g>
     <g id="text_4">
      <!-- 0.06 -->
      <g transform="translate(345.473997 332.638437) scale(0.1 -0.1)">
       <defs>
        <path id="DejaVuSans-36" d="M 2113 2584 
Q 1688 2584 1439 2293 
Q 1191 2003 1191 1497 
Q 1191 994 1439 701 
Q 1688 409 2113 409 
Q 2538 409 2786 701 
Q 3034 994 3034 1497 
Q 3034 2003 2786 2293 
Q 2538 2584 2113 2584 
z
M 3366 4563 
L 3366 3988 
Q 3128 4100 2886 4159 
Q 2644 4219 2406 4219 
Q 1781 4219 1451 3797 
Q 1122 3375 1075 2522 
Q 1259 2794 1537 2939 
Q 1816 3084 2150 3084 
Q 2853 3084 3261 2657 
Q 3669 2231 3669 1497 
Q 3669 778 3244 343 
Q 2819 -91 2113 -91 
Q 1303 -91 875 529 
Q 447 1150 447 2328 
Q 447 3434 972 4092 
Q 1497 4750 2381 4750 
Q 2619 4750 2861 4703 
Q 3103 4656 3366 4563 
z
" transform="scale(0.015625)"/>
       </defs>
       <use xlink:href="#DejaVuSans-30"/>
       <use xlink:href="#DejaVuSans-2e" x="63.623047"/>
       <use xlink:href="#DejaVuSans-30" x="95.410156"/>
       <use xlink:href="#DejaVuSans-36" x="159.033203"/>
      </g>
     </g>
    </g>
    <g id="xtick_5">
     <g id="line2d_5">
      <g>
       <use xlink:href="#md202b320ed" x="438.557892" y="318.04" style="stroke: #000000; stroke-width: 0.8"/>
      </g>
     </g>
     <g id="text_5">
      <!-- 0.07 -->
      <g transform="translate(427.42508 332.638437) scale(0.1 -0.1)">
       <defs>
        <path id="DejaVuSans-37" d="M 525 4666 
L 3525 4666 
L 3525 4397 
L 1831 0 
L 1172 0 
L 2766 4134 
L 525 4134 
L 525 4666 
z
" transform="scale(0.015625)"/>
       </defs>
       <use xlink:href="#DejaVuSans-30"/>
       <use xlink:href="#DejaVuSans-2e" x="63.623047"/>
       <use xlink:href="#DejaVuSans-30" x="95.410156"/>
       <use xlink:href="#DejaVuSans-37" x="159.033203"/>
      </g>
     </g>
    </g>
    <g id="xtick_6">
     <g id="line2d_6">
      <g>
       <use xlink:href="#md202b320ed" x="520.508976" y="318.04" style="stroke: #000000; stroke-width: 0.8"/>
      </g>
     </g>
     <g id="text_6">
      <!-- 0.08 -->
      <g transform="translate(509.376163 332.638437) scale(0.1 -0.1)">
       <defs>
        <path id="DejaVuSans-38" d="M 2034 2216 
Q 1584 2216 1326 1975 
Q 1069 1734 1069 1313 
Q 1069 891 1326 650 
Q 1584 409 2034 409 
Q 2484 409 2743 651 
Q 3003 894 3003 1313 
Q 3003 1734 2745 1975 
Q 2488 2216 2034 2216 
z
M 1403 2484 
Q 997 2584 770 2862 
Q 544 3141 544 3541 
Q 544 4100 942 4425 
Q 1341 4750 2034 4750 
Q 2731 4750 3128 4425 
Q 3525 4100 3525 3541 
Q 3525 3141 3298 2862 
Q 3072 2584 2669 2484 
Q 3125 2378 3379 2068 
Q 3634 1759 3634 1313 
Q 3634 634 3220 271 
Q 2806 -91 2034 -91 
Q 1263 -91 848 271 
Q 434 634 434 1313 
Q 434 1759 690 2068 
Q 947 2378 1403 2484 
z
M 1172 3481 
Q 1172 3119 1398 2916 
Q 1625 2713 2034 2713 
Q 2441 2713 2670 2916 
Q 2900 3119 2900 3481 
Q 2900 3844 2670 4047 
Q 2441 4250 2034 4250 
Q 1625 4250 1398 4047 
Q 1172 3844 1172 3481 
z
" transform="scale(0.015625)"/>
       </defs>
       <use xlink:href="#DejaVuSans-30"/>
       <use xlink:href="#DejaVuSans-2e" x="63.623047"/>
       <use xlink:href="#DejaVuSans-30" x="95.410156"/>
       <use xlink:href="#DejaVuSans-38" x="159.033203"/>
      </g>
     </g>
    </g>
    <g id="text_7">
     <!-- Closest Pixel NDCI -->
     <g transform="translate(238.728376 346.316562) scale(0.1 -0.1)">
      <defs>
       <path id="DejaVuSans-43" d="M 4122 4306 
L 4122 3641 
Q 3803 3938 3442 4084 
Q 3081 4231 2675 4231 
Q 1875 4231 1450 3742 
Q 1025 3253 1025 2328 
Q 1025 1406 1450 917 
Q 1875 428 2675 428 
Q 3081 428 3442 575 
Q 3803 722 4122 1019 
L 4122 359 
Q 3791 134 3420 21 
Q 3050 -91 2638 -91 
Q 1578 -91 968 557 
Q 359 1206 359 2328 
Q 359 3453 968 4101 
Q 1578 4750 2638 4750 
Q 3056 4750 3426 4639 
Q 3797 4528 4122 4306 
z
" transform="scale(0.015625)"/>
       <path id="DejaVuSans-6c" d="M 603 4863 
L 1178 4863 
L 1178 0 
L 603 0 
L 603 4863 
z
" transform="scale(0.015625)"/>
       <path id="DejaVuSans-6f" d="M 1959 3097 
Q 1497 3097 1228 2736 
Q 959 2375 959 1747 
Q 959 1119 1226 758 
Q 1494 397 1959 397 
Q 2419 397 2687 759 
Q 2956 1122 2956 1747 
Q 2956 2369 2687 2733 
Q 2419 3097 1959 3097 
z
M 1959 3584 
Q 2709 3584 3137 3096 
Q 3566 2609 3566 1747 
Q 3566 888 3137 398 
Q 2709 -91 1959 -91 
Q 1206 -91 779 398 
Q 353 888 353 1747 
Q 353 2609 779 3096 
Q 1206 3584 1959 3584 
z
" transform="scale(0.015625)"/>
       <path id="DejaVuSans-73" d="M 2834 3397 
L 2834 2853 
Q 2591 2978 2328 3040 
Q 2066 3103 1784 3103 
Q 1356 3103 1142 2972 
Q 928 2841 928 2578 
Q 928 2378 1081 2264 
Q 1234 2150 1697 2047 
L 1894 2003 
Q 2506 1872 2764 1633 
Q 3022 1394 3022 966 
Q 3022 478 2636 193 
Q 2250 -91 1575 -91 
Q 1294 -91 989 -36 
Q 684 19 347 128 
L 347 722 
Q 666 556 975 473 
Q 1284 391 1588 391 
Q 1994 391 2212 530 
Q 2431 669 2431 922 
Q 2431 1156 2273 1281 
Q 2116 1406 1581 1522 
L 1381 1569 
Q 847 1681 609 1914 
Q 372 2147 372 2553 
Q 372 3047 722 3315 
Q 1072 3584 1716 3584 
Q 2034 3584 2315 3537 
Q 2597 3491 2834 3397 
z
" transform="scale(0.015625)"/>
       <path id="DejaVuSans-65" d="M 3597 1894 
L 3597 1613 
L 953 1613 
Q 991 1019 1311 708 
Q 1631 397 2203 397 
Q 2534 397 2845 478 
Q 3156 559 3463 722 
L 3463 178 
Q 3153 47 2828 -22 
Q 2503 -91 2169 -91 
Q 1331 -91 842 396 
Q 353 884 353 1716 
Q 353 2575 817 3079 
Q 1281 3584 2069 3584 
Q 2775 3584 3186 3129 
Q 3597 2675 3597 1894 
z
M 3022 2063 
Q 3016 2534 2758 2815 
Q 2500 3097 2075 3097 
Q 1594 3097 1305 2825 
Q 1016 2553 972 2059 
L 3022 2063 
z
" transform="scale(0.015625)"/>
       <path id="DejaVuSans-74" d="M 1172 4494 
L 1172 3500 
L 2356 3500 
L 2356 3053 
L 1172 3053 
L 1172 1153 
Q 1172 725 1289 603 
Q 1406 481 1766 481 
L 2356 481 
L 2356 0 
L 1766 0 
Q 1100 0 847 248 
Q 594 497 594 1153 
L 594 3053 
L 172 3053 
L 172 3500 
L 594 3500 
L 594 4494 
L 1172 4494 
z
" transform="scale(0.015625)"/>
       <path id="DejaVuSans-20" transform="scale(0.015625)"/>
       <path id="DejaVuSans-50" d="M 1259 4147 
L 1259 2394 
L 2053 2394 
Q 2494 2394 2734 2622 
Q 2975 2850 2975 3272 
Q 2975 3691 2734 3919 
Q 2494 4147 2053 4147 
L 1259 4147 
z
M 628 4666 
L 2053 4666 
Q 2838 4666 3239 4311 
Q 3641 3956 3641 3272 
Q 3641 2581 3239 2228 
Q 2838 1875 2053 1875 
L 1259 1875 
L 1259 0 
L 628 0 
L 628 4666 
z
" transform="scale(0.015625)"/>
       <path id="DejaVuSans-69" d="M 603 3500 
L 1178 3500 
L 1178 0 
L 603 0 
L 603 3500 
z
M 603 4863 
L 1178 4863 
L 1178 4134 
L 603 4134 
L 603 4863 
z
" transform="scale(0.015625)"/>
       <path id="DejaVuSans-78" d="M 3513 3500 
L 2247 1797 
L 3578 0 
L 2900 0 
L 1881 1375 
L 863 0 
L 184 0 
L 1544 1831 
L 300 3500 
L 978 3500 
L 1906 2253 
L 2834 3500 
L 3513 3500 
z
" transform="scale(0.015625)"/>
       <path id="DejaVuSans-4e" d="M 628 4666 
L 1478 4666 
L 3547 763 
L 3547 4666 
L 4159 4666 
L 4159 0 
L 3309 0 
L 1241 3903 
L 1241 0 
L 628 0 
L 628 4666 
z
" transform="scale(0.015625)"/>
       <path id="DejaVuSans-44" d="M 1259 4147 
L 1259 519 
L 2022 519 
Q 2988 519 3436 956 
Q 3884 1394 3884 2338 
Q 3884 3275 3436 3711 
Q 2988 4147 2022 4147 
L 1259 4147 
z
M 628 4666 
L 1925 4666 
Q 3281 4666 3915 4102 
Q 4550 3538 4550 2338 
Q 4550 1131 3912 565 
Q 3275 0 1925 0 
L 628 0 
L 628 4666 
z
" transform="scale(0.015625)"/>
       <path id="DejaVuSans-49" d="M 628 4666 
L 1259 4666 
L 1259 0 
L 628 0 
L 628 4666 
z
" transform="scale(0.015625)"/>
      </defs>
      <use xlink:href="#DejaVuSans-43"/>
      <use xlink:href="#DejaVuSans-6c" x="69.824219"/>
      <use xlink:href="#DejaVuSans-6f" x="97.607422"/>
      <use xlink:href="#DejaVuSans-73" x="158.789062"/>
      <use xlink:href="#DejaVuSans-65" x="210.888672"/>
      <use xlink:href="#DejaVuSans-73" x="272.412109"/>
      <use xlink:href="#DejaVuSans-74" x="324.511719"/>
      <use xlink:href="#DejaVuSans-20" x="363.720703"/>
      <use xlink:href="#DejaVuSans-50" x="395.507812"/>
      <use xlink:href="#DejaVuSans-69" x="453.560547"/>
      <use xlink:href="#DejaVuSans-78" x="481.34375"/>
      <use xlink:href="#DejaVuSans-65" x="537.398438"/>
      <use xlink:href="#DejaVuSans-6c" x="598.921875"/>
      <use xlink:href="#DejaVuSans-20" x="626.705078"/>
      <use xlink:href="#DejaVuSans-4e" x="658.492188"/>
      <use xlink:href="#DejaVuSans-44" x="733.296875"/>
      <use xlink:href="#DejaVuSans-43" x="810.298828"/>
      <use xlink:href="#DejaVuSans-49" x="880.123047"/>
     </g>
    </g>
   </g>
   <g id="matplotlib.axis_2">
    <g id="ytick_1">
     <g id="line2d_7">
      <defs>
       <path id="mf55dc54f8f" d="M 0 0 
L -3.5 0 
" style="stroke: #000000; stroke-width: 0.8"/>
      </defs>
      <g>
       <use xlink:href="#mf55dc54f8f" x="40.603125" y="305.320439" style="stroke: #000000; stroke-width: 0.8"/>
      </g>
     </g>
     <g id="text_8">
      <!-- 15 -->
      <g transform="translate(20.878125 309.119658) scale(0.1 -0.1)">
       <defs>
        <path id="DejaVuSans-31" d="M 794 531 
L 1825 531 
L 1825 4091 
L 703 3866 
L 703 4441 
L 1819 4666 
L 2450 4666 
L 2450 531 
L 3481 531 
L 3481 0 
L 794 0 
L 794 531 
z
" transform="scale(0.015625)"/>
       </defs>
       <use xlink:href="#DejaVuSans-31"/>
       <use xlink:href="#DejaVuSans-35" x="63.623047"/>
      </g>
     </g>
    </g>
    <g id="ytick_2">
     <g id="line2d_8">
      <g>
       <use xlink:href="#mf55dc54f8f" x="40.603125" y="261.459883" style="stroke: #000000; stroke-width: 0.8"/>
      </g>
     </g>
     <g id="text_9">
      <!-- 20 -->
      <g transform="translate(20.878125 265.259102) scale(0.1 -0.1)">
       <defs>
        <path id="DejaVuSans-32" d="M 1228 531 
L 3431 531 
L 3431 0 
L 469 0 
L 469 531 
Q 828 903 1448 1529 
Q 2069 2156 2228 2338 
Q 2531 2678 2651 2914 
Q 2772 3150 2772 3378 
Q 2772 3750 2511 3984 
Q 2250 4219 1831 4219 
Q 1534 4219 1204 4116 
Q 875 4013 500 3803 
L 500 4441 
Q 881 4594 1212 4672 
Q 1544 4750 1819 4750 
Q 2544 4750 2975 4387 
Q 3406 4025 3406 3419 
Q 3406 3131 3298 2873 
Q 3191 2616 2906 2266 
Q 2828 2175 2409 1742 
Q 1991 1309 1228 531 
z
" transform="scale(0.015625)"/>
       </defs>
       <use xlink:href="#DejaVuSans-32"/>
       <use xlink:href="#DejaVuSans-30" x="63.623047"/>
      </g>
     </g>
    </g>
    <g id="ytick_3">
     <g id="line2d_9">
      <g>
       <use xlink:href="#mf55dc54f8f" x="40.603125" y="217.599328" style="stroke: #000000; stroke-width: 0.8"/>
      </g>
     </g>
     <g id="text_10">
      <!-- 25 -->
      <g transform="translate(20.878125 221.398546) scale(0.1 -0.1)">
       <use xlink:href="#DejaVuSans-32"/>
       <use xlink:href="#DejaVuSans-35" x="63.623047"/>
      </g>
     </g>
    </g>
    <g id="ytick_4">
     <g id="line2d_10">
      <g>
       <use xlink:href="#mf55dc54f8f" x="40.603125" y="173.738772" style="stroke: #000000; stroke-width: 0.8"/>
      </g>
     </g>
     <g id="text_11">
      <!-- 30 -->
      <g transform="translate(20.878125 177.537991) scale(0.1 -0.1)">
       <use xlink:href="#DejaVuSans-33"/>
       <use xlink:href="#DejaVuSans-30" x="63.623047"/>
      </g>
     </g>
    </g>
    <g id="ytick_5">
     <g id="line2d_11">
      <g>
       <use xlink:href="#mf55dc54f8f" x="40.603125" y="129.878216" style="stroke: #000000; stroke-width: 0.8"/>
      </g>
     </g>
     <g id="text_12">
      <!-- 35 -->
      <g transform="translate(20.878125 133.677435) scale(0.1 -0.1)">
       <use xlink:href="#DejaVuSans-33"/>
       <use xlink:href="#DejaVuSans-35" x="63.623047"/>
      </g>
     </g>
    </g>
    <g id="ytick_6">
     <g id="line2d_12">
      <g>
       <use xlink:href="#mf55dc54f8f" x="40.603125" y="86.017661" style="stroke: #000000; stroke-width: 0.8"/>
      </g>
     </g>
     <g id="text_13">
      <!-- 40 -->
      <g transform="translate(20.878125 89.81688) scale(0.1 -0.1)">
       <use xlink:href="#DejaVuSans-34"/>
       <use xlink:href="#DejaVuSans-30" x="63.623047"/>
      </g>
     </g>
    </g>
    <g id="ytick_7">
     <g id="line2d_13">
      <g>
       <use xlink:href="#mf55dc54f8f" x="40.603125" y="42.157105" style="stroke: #000000; stroke-width: 0.8"/>
      </g>
     </g>
     <g id="text_14">
      <!-- 45 -->
      <g transform="translate(20.878125 45.956324) scale(0.1 -0.1)">
       <use xlink:href="#DejaVuSans-34"/>
       <use xlink:href="#DejaVuSans-35" x="63.623047"/>
      </g>
     </g>
    </g>
    <g id="text_15">
     <!-- In-Situ Chl-a -->
     <g transform="translate(14.798438 208.770921) rotate(-90) scale(0.1 -0.1)">
      <defs>
       <path id="DejaVuSans-6e" d="M 3513 2113 
L 3513 0 
L 2938 0 
L 2938 2094 
Q 2938 2591 2744 2837 
Q 2550 3084 2163 3084 
Q 1697 3084 1428 2787 
Q 1159 2491 1159 1978 
L 1159 0 
L 581 0 
L 581 3500 
L 1159 3500 
L 1159 2956 
Q 1366 3272 1645 3428 
Q 1925 3584 2291 3584 
Q 2894 3584 3203 3211 
Q 3513 2838 3513 2113 
z
" transform="scale(0.015625)"/>
       <path id="DejaVuSans-2d" d="M 313 2009 
L 1997 2009 
L 1997 1497 
L 313 1497 
L 313 2009 
z
" transform="scale(0.015625)"/>
       <path id="DejaVuSans-53" d="M 3425 4513 
L 3425 3897 
Q 3066 4069 2747 4153 
Q 2428 4238 2131 4238 
Q 1616 4238 1336 4038 
Q 1056 3838 1056 3469 
Q 1056 3159 1242 3001 
Q 1428 2844 1947 2747 
L 2328 2669 
Q 3034 2534 3370 2195 
Q 3706 1856 3706 1288 
Q 3706 609 3251 259 
Q 2797 -91 1919 -91 
Q 1588 -91 1214 -16 
Q 841 59 441 206 
L 441 856 
Q 825 641 1194 531 
Q 1563 422 1919 422 
Q 2459 422 2753 634 
Q 3047 847 3047 1241 
Q 3047 1584 2836 1778 
Q 2625 1972 2144 2069 
L 1759 2144 
Q 1053 2284 737 2584 
Q 422 2884 422 3419 
Q 422 4038 858 4394 
Q 1294 4750 2059 4750 
Q 2388 4750 2728 4690 
Q 3069 4631 3425 4513 
z
" transform="scale(0.015625)"/>
       <path id="DejaVuSans-75" d="M 544 1381 
L 544 3500 
L 1119 3500 
L 1119 1403 
Q 1119 906 1312 657 
Q 1506 409 1894 409 
Q 2359 409 2629 706 
Q 2900 1003 2900 1516 
L 2900 3500 
L 3475 3500 
L 3475 0 
L 2900 0 
L 2900 538 
Q 2691 219 2414 64 
Q 2138 -91 1772 -91 
Q 1169 -91 856 284 
Q 544 659 544 1381 
z
M 1991 3584 
L 1991 3584 
z
" transform="scale(0.015625)"/>
       <path id="DejaVuSans-68" d="M 3513 2113 
L 3513 0 
L 2938 0 
L 2938 2094 
Q 2938 2591 2744 2837 
Q 2550 3084 2163 3084 
Q 1697 3084 1428 2787 
Q 1159 2491 1159 1978 
L 1159 0 
L 581 0 
L 581 4863 
L 1159 4863 
L 1159 2956 
Q 1366 3272 1645 3428 
Q 1925 3584 2291 3584 
Q 2894 3584 3203 3211 
Q 3513 2838 3513 2113 
z
" transform="scale(0.015625)"/>
       <path id="DejaVuSans-61" d="M 2194 1759 
Q 1497 1759 1228 1600 
Q 959 1441 959 1056 
Q 959 750 1161 570 
Q 1363 391 1709 391 
Q 2188 391 2477 730 
Q 2766 1069 2766 1631 
L 2766 1759 
L 2194 1759 
z
M 3341 1997 
L 3341 0 
L 2766 0 
L 2766 531 
Q 2569 213 2275 61 
Q 1981 -91 1556 -91 
Q 1019 -91 701 211 
Q 384 513 384 1019 
Q 384 1609 779 1909 
Q 1175 2209 1959 2209 
L 2766 2209 
L 2766 2266 
Q 2766 2663 2505 2880 
Q 2244 3097 1772 3097 
Q 1472 3097 1187 3025 
Q 903 2953 641 2809 
L 641 3341 
Q 956 3463 1253 3523 
Q 1550 3584 1831 3584 
Q 2591 3584 2966 3190 
Q 3341 2797 3341 1997 
z
" transform="scale(0.015625)"/>
      </defs>
      <use xlink:href="#DejaVuSans-49"/>
      <use xlink:href="#DejaVuSans-6e" x="29.492188"/>
      <use xlink:href="#DejaVuSans-2d" x="92.871094"/>
      <use xlink:href="#DejaVuSans-53" x="128.955078"/>
      <use xlink:href="#DejaVuSans-69" x="192.431641"/>
      <use xlink:href="#DejaVuSans-74" x="220.214844"/>
      <use xlink:href="#DejaVuSans-75" x="259.423828"/>
      <use xlink:href="#DejaVuSans-20" x="322.802734"/>
      <use xlink:href="#DejaVuSans-43" x="354.589844"/>
      <use xlink:href="#DejaVuSans-68" x="424.414062"/>
      <use xlink:href="#DejaVuSans-6c" x="487.792969"/>
      <use xlink:href="#DejaVuSans-2d" x="515.576172"/>
      <use xlink:href="#DejaVuSans-61" x="551.660156"/>
     </g>
    </g>
   </g>
   <g id="line2d_14">
    <path d="M 62.749171 166.395595 
L 67.223119 166.576488 
L 71.697068 166.75738 
L 76.171016 166.938273 
L 80.644965 167.119165 
L 85.118913 167.300058 
L 89.592862 167.48095 
L 94.066811 167.661843 
L 98.540759 167.842735 
L 103.014708 168.023628 
L 107.488656 168.20452 
L 111.962605 168.385413 
L 116.436554 168.566305 
L 120.910502 168.747198 
L 125.384451 168.92809 
L 129.858399 169.108983 
L 134.332348 169.289875 
L 138.806297 169.470768 
L 143.280245 169.65166 
L 147.754194 169.832552 
L 152.228142 170.013445 
L 156.702091 170.194337 
L 161.176039 170.37523 
L 165.649988 170.556122 
L 170.123937 170.737015 
L 174.597885 170.917907 
L 179.071834 171.0988 
L 183.545782 171.279692 
L 188.019731 171.460585 
L 192.49368 171.641477 
L 196.967628 171.82237 
L 201.441577 172.003262 
L 205.915525 172.184155 
L 210.389474 172.365047 
L 214.863423 172.54594 
L 219.337371 172.726832 
L 223.81132 172.907725 
L 228.285268 173.088617 
L 232.759217 173.26951 
L 237.233165 173.450402 
L 241.707114 173.631295 
L 246.181063 173.812187 
L 250.655011 173.99308 
L 255.12896 174.173972 
L 259.602908 174.354865 
L 264.076857 174.535757 
L 268.550806 174.71665 
L 273.024754 174.897542 
L 277.498703 175.078435 
L 281.972651 175.259327 
L 286.4466 175.440219 
L 290.920549 175.621112 
L 295.394497 175.802004 
L 299.868446 175.982897 
L 304.342394 176.163789 
L 308.816343 176.344682 
L 313.290291 176.525574 
L 317.76424 176.706467 
L 322.238189 176.887359 
L 326.712137 177.068252 
L 331.186086 177.249144 
L 335.660034 177.430037 
L 340.133983 177.610929 
L 344.607932 177.791822 
L 349.08188 177.972714 
L 353.555829 178.153607 
L 358.029777 178.334499 
L 362.503726 178.515392 
L 366.977675 178.696284 
L 371.451623 178.877177 
L 375.925572 179.058069 
L 380.39952 179.238962 
L 384.873469 179.419854 
L 389.347418 179.600747 
L 393.821366 179.781639 
L 398.295315 179.962532 
L 402.769263 180.143424 
L 407.243212 180.324317 
L 411.71716 180.505209 
L 416.191109 180.686102 
L 420.665058 180.866994 
L 425.139006 181.047887 
L 429.612955 181.228779 
L 434.086903 181.409671 
L 438.560852 181.590564 
L 443.034801 181.771456 
L 447.508749 181.952349 
L 451.982698 182.133241 
L 456.456646 182.314134 
L 460.930595 182.495026 
L 465.404544 182.675919 
L 469.878492 182.856811 
L 474.352441 183.037704 
L 478.826389 183.218596 
L 483.300338 183.399489 
L 487.774286 183.580381 
L 492.248235 183.761274 
L 496.722184 183.942166 
L 501.196132 184.123059 
L 505.670081 184.303951 
" clip-path="url(#pf0d09524bd)" style="fill: none; stroke: #1f77b4; stroke-width: 2.25; stroke-linecap: square"/>
   </g>
   <g id="patch_3">
    <path d="M 40.603125 318.04 
L 40.603125 38.209655 
" style="fill: none; stroke: #000000; stroke-width: 0.8; stroke-linejoin: miter; stroke-linecap: square"/>
   </g>
   <g id="patch_4">
    <path d="M 527.816126 318.04 
L 527.816126 38.209655 
" style="fill: none; stroke: #000000; stroke-width: 0.8; stroke-linejoin: miter; stroke-linecap: square"/>
   </g>
   <g id="patch_5">
    <path d="M 40.603125 318.04 
L 527.816126 318.04 
" style="fill: none; stroke: #000000; stroke-width: 0.8; stroke-linejoin: miter; stroke-linecap: square"/>
   </g>
   <g id="patch_6">
    <path d="M 40.603125 38.209655 
L 527.816126 38.209655 
" style="fill: none; stroke: #000000; stroke-width: 0.8; stroke-linejoin: miter; stroke-linecap: square"/>
   </g>
   <g id="text_16">
    <!-- $R^2 =  0.003$ -->
    <g transform="translate(64.963775 62.838985) scale(0.14 -0.14)">
     <defs>
      <path id="DejaVuSans-Oblique-52" d="M 1613 4147 
L 1294 2491 
L 2106 2491 
Q 2584 2491 2879 2755 
Q 3175 3019 3175 3444 
Q 3175 3784 2976 3965 
Q 2778 4147 2406 4147 
L 1613 4147 
z
M 2772 2241 
Q 2972 2194 3105 2009 
Q 3238 1825 3413 1275 
L 3809 0 
L 3144 0 
L 2778 1197 
Q 2638 1659 2453 1815 
Q 2269 1972 1888 1972 
L 1191 1972 
L 806 0 
L 172 0 
L 1081 4666 
L 2503 4666 
Q 3150 4666 3495 4373 
Q 3841 4081 3841 3531 
Q 3841 3044 3547 2687 
Q 3253 2331 2772 2241 
z
" transform="scale(0.015625)"/>
      <path id="DejaVuSans-3d" d="M 678 2906 
L 4684 2906 
L 4684 2381 
L 678 2381 
L 678 2906 
z
M 678 1631 
L 4684 1631 
L 4684 1100 
L 678 1100 
L 678 1631 
z
" transform="scale(0.015625)"/>
     </defs>
     <use xlink:href="#DejaVuSans-Oblique-52" transform="translate(0 0.765625)"/>
     <use xlink:href="#DejaVuSans-32" transform="translate(76.499193 39.046875) scale(0.7)"/>
     <use xlink:href="#DejaVuSans-3d" transform="translate(143.252122 0.765625)"/>
     <use xlink:href="#DejaVuSans-30" transform="translate(246.523607 0.765625)"/>
     <use xlink:href="#DejaVuSans-2e" transform="translate(310.146654 0.765625)"/>
     <use xlink:href="#DejaVuSans-30" transform="translate(341.933763 0.765625)"/>
     <use xlink:href="#DejaVuSans-30" transform="translate(405.55681 0.765625)"/>
     <use xlink:href="#DejaVuSans-33" transform="translate(469.179857 0.765625)"/>
    </g>
   </g>
   <g id="text_17">
    <!-- $p =  0.740$ -->
    <g transform="translate(64.963775 82.398672) scale(0.14 -0.14)">
     <defs>
      <path id="DejaVuSans-Oblique-70" d="M 3175 2156 
Q 3175 2616 2975 2859 
Q 2775 3103 2400 3103 
Q 2144 3103 1911 2972 
Q 1678 2841 1497 2591 
Q 1319 2344 1212 1994 
Q 1106 1644 1106 1300 
Q 1106 863 1306 627 
Q 1506 391 1875 391 
Q 2147 391 2380 519 
Q 2613 647 2778 891 
Q 2956 1147 3065 1494 
Q 3175 1841 3175 2156 
z
M 1394 2969 
Q 1625 3272 1939 3428 
Q 2253 3584 2638 3584 
Q 3175 3584 3472 3232 
Q 3769 2881 3769 2247 
Q 3769 1728 3584 1258 
Q 3400 788 3053 416 
Q 2822 169 2531 39 
Q 2241 -91 1919 -91 
Q 1547 -91 1294 64 
Q 1041 219 916 525 
L 556 -1331 
L -19 -1331 
L 922 3500 
L 1497 3500 
L 1394 2969 
z
" transform="scale(0.015625)"/>
     </defs>
     <use xlink:href="#DejaVuSans-Oblique-70" transform="translate(0 0.78125)"/>
     <use xlink:href="#DejaVuSans-3d" transform="translate(82.958984 0.78125)"/>
     <use xlink:href="#DejaVuSans-30" transform="translate(186.230469 0.78125)"/>
     <use xlink:href="#DejaVuSans-2e" transform="translate(249.853516 0.78125)"/>
     <use xlink:href="#DejaVuSans-37" transform="translate(273.890625 0.78125)"/>
     <use xlink:href="#DejaVuSans-34" transform="translate(337.513672 0.78125)"/>
     <use xlink:href="#DejaVuSans-30" transform="translate(401.136719 0.78125)"/>
    </g>
   </g>
  </g>
  <g id="axes_2">
   <g id="patch_7">
    <path d="M 577.930124 318.04 
L 1065.143125 318.04 
L 1065.143125 38.209655 
L 577.930124 38.209655 
z
" style="fill: #ffffff"/>
   </g>
   <g id="PathCollection_2">
    <g clip-path="url(#pb96b107250)">
     <use xlink:href="#md7f170d0d6" x="879.004599" y="136.833951" style="fill: #1f77b4; fill-opacity: 0.8; stroke: #1f77b4; stroke-opacity: 0.8"/>
     <use xlink:href="#md7f170d0d6" x="864.382991" y="179.786318" style="fill: #1f77b4; fill-opacity: 0.8; stroke: #1f77b4; stroke-opacity: 0.8"/>
     <use xlink:href="#md7f170d0d6" x="920.306639" y="85.29111" style="fill: #1f77b4; fill-opacity: 0.8; stroke: #1f77b4; stroke-opacity: 0.8"/>
     <use xlink:href="#md7f170d0d6" x="893.273022" y="214.148212" style="fill: #1f77b4; fill-opacity: 0.8; stroke: #1f77b4; stroke-opacity: 0.8"/>
     <use xlink:href="#md7f170d0d6" x="868.756496" y="119.653004" style="fill: #1f77b4; fill-opacity: 0.8; stroke: #1f77b4; stroke-opacity: 0.8"/>
     <use xlink:href="#md7f170d0d6" x="885.261352" y="231.329158" style="fill: #1f77b4; fill-opacity: 0.8; stroke: #1f77b4; stroke-opacity: 0.8"/>
     <use xlink:href="#md7f170d0d6" x="820.323433" y="248.510105" style="fill: #1f77b4; fill-opacity: 0.8; stroke: #1f77b4; stroke-opacity: 0.8"/>
     <use xlink:href="#md7f170d0d6" x="886.89809" y="162.605371" style="fill: #1f77b4; fill-opacity: 0.8; stroke: #1f77b4; stroke-opacity: 0.8"/>
     <use xlink:href="#md7f170d0d6" x="844.314272" y="239.919632" style="fill: #1f77b4; fill-opacity: 0.8; stroke: #1f77b4; stroke-opacity: 0.8"/>
     <use xlink:href="#md7f170d0d6" x="856.301466" y="111.06253" style="fill: #1f77b4; fill-opacity: 0.8; stroke: #1f77b4; stroke-opacity: 0.8"/>
     <use xlink:href="#md7f170d0d6" x="909.457322" y="171.195844" style="fill: #1f77b4; fill-opacity: 0.8; stroke: #1f77b4; stroke-opacity: 0.8"/>
     <use xlink:href="#md7f170d0d6" x="904.271793" y="248.510105" style="fill: #1f77b4; fill-opacity: 0.8; stroke: #1f77b4; stroke-opacity: 0.8"/>
     <use xlink:href="#md7f170d0d6" x="958.13483" y="231.329158" style="fill: #1f77b4; fill-opacity: 0.8; stroke: #1f77b4; stroke-opacity: 0.8"/>
     <use xlink:href="#md7f170d0d6" x="773.725458" y="214.148212" style="fill: #1f77b4; fill-opacity: 0.8; stroke: #1f77b4; stroke-opacity: 0.8"/>
     <use xlink:href="#md7f170d0d6" x="961.766381" y="239.919632" style="fill: #1f77b4; fill-opacity: 0.8; stroke: #1f77b4; stroke-opacity: 0.8"/>
     <use xlink:href="#md7f170d0d6" x="936.30512" y="188.376791" style="fill: #1f77b4; fill-opacity: 0.8; stroke: #1f77b4; stroke-opacity: 0.8"/>
     <use xlink:href="#md7f170d0d6" x="941.163072" y="196.967265" style="fill: #1f77b4; fill-opacity: 0.8; stroke: #1f77b4; stroke-opacity: 0.8"/>
     <use xlink:href="#md7f170d0d6" x="930.017402" y="145.424424" style="fill: #1f77b4; fill-opacity: 0.8; stroke: #1f77b4; stroke-opacity: 0.8"/>
     <use xlink:href="#md7f170d0d6" x="942.226463" y="145.424424" style="fill: #1f77b4; fill-opacity: 0.8; stroke: #1f77b4; stroke-opacity: 0.8"/>
     <use xlink:href="#md7f170d0d6" x="962.6796" y="136.833951" style="fill: #1f77b4; fill-opacity: 0.8; stroke: #1f77b4; stroke-opacity: 0.8"/>
     <use xlink:href="#md7f170d0d6" x="828.502762" y="128.243477" style="fill: #1f77b4; fill-opacity: 0.8; stroke: #1f77b4; stroke-opacity: 0.8"/>
     <use xlink:href="#md7f170d0d6" x="947.493567" y="231.329158" style="fill: #1f77b4; fill-opacity: 0.8; stroke: #1f77b4; stroke-opacity: 0.8"/>
     <use xlink:href="#md7f170d0d6" x="959.245147" y="154.014897" style="fill: #1f77b4; fill-opacity: 0.8; stroke: #1f77b4; stroke-opacity: 0.8"/>
     <use xlink:href="#md7f170d0d6" x="988.339245" y="154.014897" style="fill: #1f77b4; fill-opacity: 0.8; stroke: #1f77b4; stroke-opacity: 0.8"/>
     <use xlink:href="#md7f170d0d6" x="1029.465145" y="50.929216" style="fill: #1f77b4; fill-opacity: 0.8; stroke: #1f77b4; stroke-opacity: 0.8"/>
     <use xlink:href="#md7f170d0d6" x="857.78762" y="300.052946" style="fill: #1f77b4; fill-opacity: 0.8; stroke: #1f77b4; stroke-opacity: 0.8"/>
     <use xlink:href="#md7f170d0d6" x="954.503752" y="85.29111" style="fill: #1f77b4; fill-opacity: 0.8; stroke: #1f77b4; stroke-opacity: 0.8"/>
     <use xlink:href="#md7f170d0d6" x="1042.997079" y="171.195844" style="fill: #1f77b4; fill-opacity: 0.8; stroke: #1f77b4; stroke-opacity: 0.8"/>
     <use xlink:href="#md7f170d0d6" x="1041.797349" y="188.376791" style="fill: #1f77b4; fill-opacity: 0.8; stroke: #1f77b4; stroke-opacity: 0.8"/>
     <use xlink:href="#md7f170d0d6" x="974.315242" y="196.967265" style="fill: #1f77b4; fill-opacity: 0.8; stroke: #1f77b4; stroke-opacity: 0.8"/>
     <use xlink:href="#md7f170d0d6" x="971.723854" y="154.014897" style="fill: #1f77b4; fill-opacity: 0.8; stroke: #1f77b4; stroke-opacity: 0.8"/>
     <use xlink:href="#md7f170d0d6" x="973.517735" y="162.605371" style="fill: #1f77b4; fill-opacity: 0.8; stroke: #1f77b4; stroke-opacity: 0.8"/>
     <use xlink:href="#md7f170d0d6" x="1001.621627" y="205.557738" style="fill: #1f77b4; fill-opacity: 0.8; stroke: #1f77b4; stroke-opacity: 0.8"/>
     <use xlink:href="#md7f170d0d6" x="970.309866" y="291.462472" style="fill: #1f77b4; fill-opacity: 0.8; stroke: #1f77b4; stroke-opacity: 0.8"/>
     <use xlink:href="#md7f170d0d6" x="955.000811" y="179.786318" style="fill: #1f77b4; fill-opacity: 0.8; stroke: #1f77b4; stroke-opacity: 0.8"/>
     <use xlink:href="#md7f170d0d6" x="978.35903" y="102.472057" style="fill: #1f77b4; fill-opacity: 0.8; stroke: #1f77b4; stroke-opacity: 0.8"/>
     <use xlink:href="#md7f170d0d6" x="951.142065" y="265.691052" style="fill: #1f77b4; fill-opacity: 0.8; stroke: #1f77b4; stroke-opacity: 0.8"/>
     <use xlink:href="#md7f170d0d6" x="600.076169" y="59.51969" style="fill: #1f77b4; fill-opacity: 0.8; stroke: #1f77b4; stroke-opacity: 0.8"/>
     <use xlink:href="#md7f170d0d6" x="968.624673" y="222.738685" style="fill: #1f77b4; fill-opacity: 0.8; stroke: #1f77b4; stroke-opacity: 0.8"/>
     <use xlink:href="#md7f170d0d6" x="963.627672" y="93.881583" style="fill: #1f77b4; fill-opacity: 0.8; stroke: #1f77b4; stroke-opacity: 0.8"/>
    </g>
   </g>
   <g id="PolyCollection_2">
    <path d="M 600.076169 87.545844 
L 600.076169 305.320439 
L 604.550118 303.583663 
L 609.024066 301.846887 
L 613.498015 300.110111 
L 617.971964 298.373336 
L 622.445912 296.63656 
L 626.919861 294.899784 
L 631.393809 293.163008 
L 635.867758 291.426232 
L 640.341706 289.761877 
L 644.815655 288.100581 
L 649.289604 286.439284 
L 653.763552 284.777987 
L 658.237501 283.11669 
L 662.711449 281.455393 
L 667.185398 279.794096 
L 671.659347 278.216827 
L 676.133295 276.774638 
L 680.607244 275.332448 
L 685.081192 273.889964 
L 689.555141 272.099187 
L 694.02909 270.294373 
L 698.503038 268.489559 
L 702.976987 266.684745 
L 707.450935 264.87993 
L 711.924884 263.181126 
L 716.398832 261.519829 
L 720.872781 259.858532 
L 725.34673 258.197235 
L 729.820678 256.535938 
L 734.294627 254.874188 
L 738.768575 253.212432 
L 743.242524 251.516405 
L 747.716473 249.780092 
L 752.190421 248.133305 
L 756.66437 246.416099 
L 761.138318 244.70043 
L 765.612267 242.983055 
L 770.086216 241.533429 
L 774.560164 239.949812 
L 779.034113 238.282426 
L 783.508061 236.675173 
L 787.98201 234.969499 
L 792.455959 233.318554 
L 796.929907 231.881573 
L 801.403856 230.711986 
L 805.877804 229.542399 
L 810.351753 228.372813 
L 814.825701 227.203226 
L 819.29965 226.032257 
L 823.773599 224.457117 
L 828.247547 222.511648 
L 832.721496 220.549837 
L 837.195444 218.735392 
L 841.669393 217.504508 
L 846.143342 215.986926 
L 850.61729 214.82303 
L 855.091239 213.357819 
L 859.565187 211.610089 
L 864.039136 209.873213 
L 868.513085 208.298385 
L 872.987033 206.995264 
L 877.460982 205.335843 
L 881.93493 203.943251 
L 886.408879 202.688509 
L 890.882827 201.339972 
L 895.356776 200.018008 
L 899.830725 199.200606 
L 904.304673 198.444273 
L 908.778622 197.833736 
L 913.25257 197.554978 
L 917.726519 196.675473 
L 922.200468 196.195027 
L 926.674416 195.486958 
L 931.148365 194.903456 
L 935.622313 194.00063 
L 940.096262 194.365054 
L 944.570211 194.469736 
L 949.044159 195.191925 
L 953.518108 196.052743 
L 957.992056 197.168528 
L 962.466005 198.156908 
L 966.939953 198.813947 
L 971.413902 199.711853 
L 975.887851 200.505464 
L 980.361799 201.311117 
L 984.835748 202.198975 
L 989.309696 203.105367 
L 993.783645 204.007044 
L 998.257594 204.940433 
L 1002.731542 206.132517 
L 1007.205491 206.897273 
L 1011.679439 207.974635 
L 1016.153388 209.157744 
L 1020.627337 210.125762 
L 1025.101285 211.205425 
L 1029.575234 212.285842 
L 1034.049182 213.642315 
L 1038.523131 214.441641 
L 1042.997079 215.506933 
L 1042.997079 133.015575 
L 1042.997079 133.015575 
L 1038.523131 134.079316 
L 1034.049182 135.5467 
L 1029.575234 137.106011 
L 1025.101285 138.94453 
L 1020.627337 140.640702 
L 1016.153388 141.851466 
L 1011.679439 143.390781 
L 1007.205491 144.894581 
L 1002.731542 146.447069 
L 998.257594 147.874188 
L 993.783645 149.351194 
L 989.309696 150.777067 
L 984.835748 151.777789 
L 980.361799 152.811968 
L 975.887851 153.640559 
L 971.413902 154.88413 
L 966.939953 156.208863 
L 962.466005 156.931761 
L 957.992056 157.15735 
L 953.518108 157.497792 
L 949.044159 158.521838 
L 944.570211 158.588818 
L 940.096262 158.441496 
L 935.622313 158.471319 
L 931.148365 158.731141 
L 926.674416 158.536984 
L 922.200468 158.771956 
L 917.726519 158.806913 
L 913.25257 158.315867 
L 908.778622 157.459678 
L 904.304673 156.995251 
L 899.830725 156.545077 
L 895.356776 155.750523 
L 890.882827 154.962494 
L 886.408879 154.467463 
L 881.93493 153.827981 
L 877.460982 152.984838 
L 872.987033 152.225567 
L 868.513085 151.522322 
L 864.039136 150.565136 
L 859.565187 149.626702 
L 855.091239 148.724605 
L 850.61729 147.719562 
L 846.143342 146.531616 
L 841.669393 145.809567 
L 837.195444 144.716799 
L 832.721496 143.527175 
L 828.247547 142.98777 
L 823.773599 142.001695 
L 819.29965 140.917602 
L 814.825701 139.814531 
L 810.351753 138.930433 
L 805.877804 138.037158 
L 801.403856 137.014905 
L 796.929907 136.070581 
L 792.455959 134.607306 
L 787.98201 133.510281 
L 783.508061 132.613768 
L 779.034113 132.056653 
L 774.560164 131.138468 
L 770.086216 130.146473 
L 765.612267 129.154276 
L 761.138318 128.167876 
L 756.66437 127.243195 
L 752.190421 126.3544 
L 747.716473 125.464468 
L 743.242524 124.569673 
L 738.768575 123.389629 
L 734.294627 122.377149 
L 729.820678 121.245549 
L 725.34673 120.153223 
L 720.872781 119.207812 
L 716.398832 118.227718 
L 711.924884 117.044251 
L 707.450935 115.860784 
L 702.976987 114.677317 
L 698.503038 113.49385 
L 694.02909 112.310383 
L 689.555141 111.126916 
L 685.081192 109.943449 
L 680.607244 108.830481 
L 676.133295 107.702982 
L 671.659347 106.458351 
L 667.185398 105.213719 
L 662.711449 104.026113 
L 658.237501 102.842646 
L 653.763552 101.659179 
L 649.289604 100.475712 
L 644.815655 99.296097 
L 640.341706 98.121071 
L 635.867758 96.95047 
L 631.393809 95.771021 
L 626.919861 94.595996 
L 622.445912 93.420971 
L 617.971964 92.189634 
L 613.498015 91.003648 
L 609.024066 89.819876 
L 604.550118 88.642513 
L 600.076169 87.545844 
z
" clip-path="url(#pb96b107250)" style="fill: #1f77b4; fill-opacity: 0.15"/>
   </g>
   <g id="matplotlib.axis_3">
    <g id="xtick_7">
     <g id="line2d_15">
      <g>
       <use xlink:href="#md202b320ed" x="657.900959" y="318.04" style="stroke: #000000; stroke-width: 0.8"/>
      </g>
     </g>
     <g id="text_18">
      <!-- 0.03 -->
      <g transform="translate(646.768146 332.638437) scale(0.1 -0.1)">
       <use xlink:href="#DejaVuSans-30"/>
       <use xlink:href="#DejaVuSans-2e" x="63.623047"/>
       <use xlink:href="#DejaVuSans-30" x="95.410156"/>
       <use xlink:href="#DejaVuSans-33" x="159.033203"/>
      </g>
     </g>
    </g>
    <g id="xtick_8">
     <g id="line2d_16">
      <g>
       <use xlink:href="#md202b320ed" x="740.928278" y="318.04" style="stroke: #000000; stroke-width: 0.8"/>
      </g>
     </g>
     <g id="text_19">
      <!-- 0.04 -->
      <g transform="translate(729.795466 332.638437) scale(0.1 -0.1)">
       <use xlink:href="#DejaVuSans-30"/>
       <use xlink:href="#DejaVuSans-2e" x="63.623047"/>
       <use xlink:href="#DejaVuSans-30" x="95.410156"/>
       <use xlink:href="#DejaVuSans-34" x="159.033203"/>
      </g>
     </g>
    </g>
    <g id="xtick_9">
     <g id="line2d_17">
      <g>
       <use xlink:href="#md202b320ed" x="823.955597" y="318.04" style="stroke: #000000; stroke-width: 0.8"/>
      </g>
     </g>
     <g id="text_20">
      <!-- 0.05 -->
      <g transform="translate(812.822785 332.638437) scale(0.1 -0.1)">
       <use xlink:href="#DejaVuSans-30"/>
       <use xlink:href="#DejaVuSans-2e" x="63.623047"/>
       <use xlink:href="#DejaVuSans-30" x="95.410156"/>
       <use xlink:href="#DejaVuSans-35" x="159.033203"/>
      </g>
     </g>
    </g>
    <g id="xtick_10">
     <g id="line2d_18">
      <g>
       <use xlink:href="#md202b320ed" x="906.982917" y="318.04" style="stroke: #000000; stroke-width: 0.8"/>
      </g>
     </g>
     <g id="text_21">
      <!-- 0.06 -->
      <g transform="translate(895.850104 332.638437) scale(0.1 -0.1)">
       <use xlink:href="#DejaVuSans-30"/>
       <use xlink:href="#DejaVuSans-2e" x="63.623047"/>
       <use xlink:href="#DejaVuSans-30" x="95.410156"/>
       <use xlink:href="#DejaVuSans-36" x="159.033203"/>
      </g>
     </g>
    </g>
    <g id="xtick_11">
     <g id="line2d_19">
      <g>
       <use xlink:href="#md202b320ed" x="990.010236" y="318.04" style="stroke: #000000; stroke-width: 0.8"/>
      </g>
     </g>
     <g id="text_22">
      <!-- 0.07 -->
      <g transform="translate(978.877423 332.638437) scale(0.1 -0.1)">
       <use xlink:href="#DejaVuSans-30"/>
       <use xlink:href="#DejaVuSans-2e" x="63.623047"/>
       <use xlink:href="#DejaVuSans-30" x="95.410156"/>
       <use xlink:href="#DejaVuSans-37" x="159.033203"/>
      </g>
     </g>
    </g>
    <g id="text_23">
     <!-- Pixel Interpolation NDCI -->
     <g transform="translate(762.241312 346.316562) scale(0.1 -0.1)">
      <defs>
       <path id="DejaVuSans-72" d="M 2631 2963 
Q 2534 3019 2420 3045 
Q 2306 3072 2169 3072 
Q 1681 3072 1420 2755 
Q 1159 2438 1159 1844 
L 1159 0 
L 581 0 
L 581 3500 
L 1159 3500 
L 1159 2956 
Q 1341 3275 1631 3429 
Q 1922 3584 2338 3584 
Q 2397 3584 2469 3576 
Q 2541 3569 2628 3553 
L 2631 2963 
z
" transform="scale(0.015625)"/>
       <path id="DejaVuSans-70" d="M 1159 525 
L 1159 -1331 
L 581 -1331 
L 581 3500 
L 1159 3500 
L 1159 2969 
Q 1341 3281 1617 3432 
Q 1894 3584 2278 3584 
Q 2916 3584 3314 3078 
Q 3713 2572 3713 1747 
Q 3713 922 3314 415 
Q 2916 -91 2278 -91 
Q 1894 -91 1617 61 
Q 1341 213 1159 525 
z
M 3116 1747 
Q 3116 2381 2855 2742 
Q 2594 3103 2138 3103 
Q 1681 3103 1420 2742 
Q 1159 2381 1159 1747 
Q 1159 1113 1420 752 
Q 1681 391 2138 391 
Q 2594 391 2855 752 
Q 3116 1113 3116 1747 
z
" transform="scale(0.015625)"/>
      </defs>
      <use xlink:href="#DejaVuSans-50"/>
      <use xlink:href="#DejaVuSans-69" x="58.052734"/>
      <use xlink:href="#DejaVuSans-78" x="85.835938"/>
      <use xlink:href="#DejaVuSans-65" x="141.890625"/>
      <use xlink:href="#DejaVuSans-6c" x="203.414062"/>
      <use xlink:href="#DejaVuSans-20" x="231.197266"/>
      <use xlink:href="#DejaVuSans-49" x="262.984375"/>
      <use xlink:href="#DejaVuSans-6e" x="292.476562"/>
      <use xlink:href="#DejaVuSans-74" x="355.855469"/>
      <use xlink:href="#DejaVuSans-65" x="395.064453"/>
      <use xlink:href="#DejaVuSans-72" x="456.587891"/>
      <use xlink:href="#DejaVuSans-70" x="497.701172"/>
      <use xlink:href="#DejaVuSans-6f" x="561.177734"/>
      <use xlink:href="#DejaVuSans-6c" x="622.359375"/>
      <use xlink:href="#DejaVuSans-61" x="650.142578"/>
      <use xlink:href="#DejaVuSans-74" x="711.421875"/>
      <use xlink:href="#DejaVuSans-69" x="750.630859"/>
      <use xlink:href="#DejaVuSans-6f" x="778.414062"/>
      <use xlink:href="#DejaVuSans-6e" x="839.595703"/>
      <use xlink:href="#DejaVuSans-20" x="902.974609"/>
      <use xlink:href="#DejaVuSans-4e" x="934.761719"/>
      <use xlink:href="#DejaVuSans-44" x="1009.566406"/>
      <use xlink:href="#DejaVuSans-43" x="1086.568359"/>
      <use xlink:href="#DejaVuSans-49" x="1156.392578"/>
     </g>
    </g>
   </g>
   <g id="matplotlib.axis_4">
    <g id="ytick_8">
     <g id="line2d_20">
      <g>
       <use xlink:href="#mf55dc54f8f" x="577.930124" y="300.052946" style="stroke: #000000; stroke-width: 0.8"/>
      </g>
     </g>
     <g id="text_24">
      <!-- 15 -->
      <g transform="translate(558.205124 303.852165) scale(0.1 -0.1)">
       <use xlink:href="#DejaVuSans-31"/>
       <use xlink:href="#DejaVuSans-35" x="63.623047"/>
      </g>
     </g>
    </g>
    <g id="ytick_9">
     <g id="line2d_21">
      <g>
       <use xlink:href="#mf55dc54f8f" x="577.930124" y="257.100579" style="stroke: #000000; stroke-width: 0.8"/>
      </g>
     </g>
     <g id="text_25">
      <!-- 20 -->
      <g transform="translate(558.205124 260.899797) scale(0.1 -0.1)">
       <use xlink:href="#DejaVuSans-32"/>
       <use xlink:href="#DejaVuSans-30" x="63.623047"/>
      </g>
     </g>
    </g>
    <g id="ytick_10">
     <g id="line2d_22">
      <g>
       <use xlink:href="#mf55dc54f8f" x="577.930124" y="214.148212" style="stroke: #000000; stroke-width: 0.8"/>
      </g>
     </g>
     <g id="text_26">
      <!-- 25 -->
      <g transform="translate(558.205124 217.94743) scale(0.1 -0.1)">
       <use xlink:href="#DejaVuSans-32"/>
       <use xlink:href="#DejaVuSans-35" x="63.623047"/>
      </g>
     </g>
    </g>
    <g id="ytick_11">
     <g id="line2d_23">
      <g>
       <use xlink:href="#mf55dc54f8f" x="577.930124" y="171.195844" style="stroke: #000000; stroke-width: 0.8"/>
      </g>
     </g>
     <g id="text_27">
      <!-- 30 -->
      <g transform="translate(558.205124 174.995063) scale(0.1 -0.1)">
       <use xlink:href="#DejaVuSans-33"/>
       <use xlink:href="#DejaVuSans-30" x="63.623047"/>
      </g>
     </g>
    </g>
    <g id="ytick_12">
     <g id="line2d_24">
      <g>
       <use xlink:href="#mf55dc54f8f" x="577.930124" y="128.243477" style="stroke: #000000; stroke-width: 0.8"/>
      </g>
     </g>
     <g id="text_28">
      <!-- 35 -->
      <g transform="translate(558.205124 132.042696) scale(0.1 -0.1)">
       <use xlink:href="#DejaVuSans-33"/>
       <use xlink:href="#DejaVuSans-35" x="63.623047"/>
      </g>
     </g>
    </g>
    <g id="ytick_13">
     <g id="line2d_25">
      <g>
       <use xlink:href="#mf55dc54f8f" x="577.930124" y="85.29111" style="stroke: #000000; stroke-width: 0.8"/>
      </g>
     </g>
     <g id="text_29">
      <!-- 40 -->
      <g transform="translate(558.205124 89.090329) scale(0.1 -0.1)">
       <use xlink:href="#DejaVuSans-34"/>
       <use xlink:href="#DejaVuSans-30" x="63.623047"/>
      </g>
     </g>
    </g>
    <g id="ytick_14">
     <g id="line2d_26">
      <g>
       <use xlink:href="#mf55dc54f8f" x="577.930124" y="42.338743" style="stroke: #000000; stroke-width: 0.8"/>
      </g>
     </g>
     <g id="text_30">
      <!-- 45 -->
      <g transform="translate(558.205124 46.137962) scale(0.1 -0.1)">
       <use xlink:href="#DejaVuSans-34"/>
       <use xlink:href="#DejaVuSans-35" x="63.623047"/>
      </g>
     </g>
    </g>
    <g id="text_31">
     <!-- In-Situ Chl-a -->
     <g transform="translate(552.125436 208.770921) rotate(-90) scale(0.1 -0.1)">
      <use xlink:href="#DejaVuSans-49"/>
      <use xlink:href="#DejaVuSans-6e" x="29.492188"/>
      <use xlink:href="#DejaVuSans-2d" x="92.871094"/>
      <use xlink:href="#DejaVuSans-53" x="128.955078"/>
      <use xlink:href="#DejaVuSans-69" x="192.431641"/>
      <use xlink:href="#DejaVuSans-74" x="220.214844"/>
      <use xlink:href="#DejaVuSans-75" x="259.423828"/>
      <use xlink:href="#DejaVuSans-20" x="322.802734"/>
      <use xlink:href="#DejaVuSans-43" x="354.589844"/>
      <use xlink:href="#DejaVuSans-68" x="424.414062"/>
      <use xlink:href="#DejaVuSans-6c" x="487.792969"/>
      <use xlink:href="#DejaVuSans-2d" x="515.576172"/>
      <use xlink:href="#DejaVuSans-61" x="551.660156"/>
     </g>
    </g>
   </g>
   <g id="line2d_27">
    <path d="M 600.076169 160.790722 
L 604.550118 161.003693 
L 609.024066 161.216664 
L 613.498015 161.429636 
L 617.971964 161.642607 
L 622.445912 161.855578 
L 626.919861 162.068549 
L 631.393809 162.281521 
L 635.867758 162.494492 
L 640.341706 162.707463 
L 644.815655 162.920435 
L 649.289604 163.133406 
L 653.763552 163.346377 
L 658.237501 163.559348 
L 662.711449 163.77232 
L 667.185398 163.985291 
L 671.659347 164.198262 
L 676.133295 164.411234 
L 680.607244 164.624205 
L 685.081192 164.837176 
L 689.555141 165.050147 
L 694.02909 165.263119 
L 698.503038 165.47609 
L 702.976987 165.689061 
L 707.450935 165.902033 
L 711.924884 166.115004 
L 716.398832 166.327975 
L 720.872781 166.540946 
L 725.34673 166.753918 
L 729.820678 166.966889 
L 734.294627 167.17986 
L 738.768575 167.392832 
L 743.242524 167.605803 
L 747.716473 167.818774 
L 752.190421 168.031745 
L 756.66437 168.244717 
L 761.138318 168.457688 
L 765.612267 168.670659 
L 770.086216 168.883631 
L 774.560164 169.096602 
L 779.034113 169.309573 
L 783.508061 169.522544 
L 787.98201 169.735516 
L 792.455959 169.948487 
L 796.929907 170.161458 
L 801.403856 170.37443 
L 805.877804 170.587401 
L 810.351753 170.800372 
L 814.825701 171.013343 
L 819.29965 171.226315 
L 823.773599 171.439286 
L 828.247547 171.652257 
L 832.721496 171.865229 
L 837.195444 172.0782 
L 841.669393 172.291171 
L 846.143342 172.504142 
L 850.61729 172.717114 
L 855.091239 172.930085 
L 859.565187 173.143056 
L 864.039136 173.356027 
L 868.513085 173.568999 
L 872.987033 173.78197 
L 877.460982 173.994941 
L 881.93493 174.207913 
L 886.408879 174.420884 
L 890.882827 174.633855 
L 895.356776 174.846826 
L 899.830725 175.059798 
L 904.304673 175.272769 
L 908.778622 175.48574 
L 913.25257 175.698712 
L 917.726519 175.911683 
L 922.200468 176.124654 
L 926.674416 176.337625 
L 931.148365 176.550597 
L 935.622313 176.763568 
L 940.096262 176.976539 
L 944.570211 177.189511 
L 949.044159 177.402482 
L 953.518108 177.615453 
L 957.992056 177.828424 
L 962.466005 178.041396 
L 966.939953 178.254367 
L 971.413902 178.467338 
L 975.887851 178.68031 
L 980.361799 178.893281 
L 984.835748 179.106252 
L 989.309696 179.319223 
L 993.783645 179.532195 
L 998.257594 179.745166 
L 1002.731542 179.958137 
L 1007.205491 180.171109 
L 1011.679439 180.38408 
L 1016.153388 180.597051 
L 1020.627337 180.810022 
L 1025.101285 181.022994 
L 1029.575234 181.235965 
L 1034.049182 181.448936 
L 1038.523131 181.661908 
L 1042.997079 181.874879 
" clip-path="url(#pb96b107250)" style="fill: none; stroke: #1f77b4; stroke-width: 2.25; stroke-linecap: square"/>
   </g>
   <g id="patch_8">
    <path d="M 577.930124 318.04 
L 577.930124 38.209655 
" style="fill: none; stroke: #000000; stroke-width: 0.8; stroke-linejoin: miter; stroke-linecap: square"/>
   </g>
   <g id="patch_9">
    <path d="M 1065.143125 318.04 
L 1065.143125 38.209655 
" style="fill: none; stroke: #000000; stroke-width: 0.8; stroke-linejoin: miter; stroke-linecap: square"/>
   </g>
   <g id="patch_10">
    <path d="M 577.930124 318.04 
L 1065.143125 318.04 
" style="fill: none; stroke: #000000; stroke-width: 0.8; stroke-linejoin: miter; stroke-linecap: square"/>
   </g>
   <g id="patch_11">
    <path d="M 577.930124 38.209655 
L 1065.143125 38.209655 
" style="fill: none; stroke: #000000; stroke-width: 0.8; stroke-linejoin: miter; stroke-linecap: square"/>
   </g>
   <g id="text_32">
    <!-- $R^2 =  0.004$ -->
    <g transform="translate(602.290774 62.838985) scale(0.14 -0.14)">
     <use xlink:href="#DejaVuSans-Oblique-52" transform="translate(0 0.765625)"/>
     <use xlink:href="#DejaVuSans-32" transform="translate(76.499193 39.046875) scale(0.7)"/>
     <use xlink:href="#DejaVuSans-3d" transform="translate(143.252122 0.765625)"/>
     <use xlink:href="#DejaVuSans-30" transform="translate(246.523607 0.765625)"/>
     <use xlink:href="#DejaVuSans-2e" transform="translate(310.146654 0.765625)"/>
     <use xlink:href="#DejaVuSans-30" transform="translate(341.933763 0.765625)"/>
     <use xlink:href="#DejaVuSans-30" transform="translate(405.55681 0.765625)"/>
     <use xlink:href="#DejaVuSans-34" transform="translate(469.179857 0.765625)"/>
    </g>
   </g>
   <g id="text_33">
    <!-- $p =  0.703$ -->
    <g transform="translate(602.290774 82.398672) scale(0.14 -0.14)">
     <use xlink:href="#DejaVuSans-Oblique-70" transform="translate(0 0.78125)"/>
     <use xlink:href="#DejaVuSans-3d" transform="translate(82.958984 0.78125)"/>
     <use xlink:href="#DejaVuSans-30" transform="translate(186.230469 0.78125)"/>
     <use xlink:href="#DejaVuSans-2e" transform="translate(249.853516 0.78125)"/>
     <use xlink:href="#DejaVuSans-37" transform="translate(273.890625 0.78125)"/>
     <use xlink:href="#DejaVuSans-30" transform="translate(337.513672 0.78125)"/>
     <use xlink:href="#DejaVuSans-33" transform="translate(401.136719 0.78125)"/>
    </g>
   </g>
  </g>
  <g id="text_34">
   <!-- Sentinel-2 NDCI Pixel Correlation -->
   <g transform="translate(386.688125 19.3575) scale(0.16 -0.16)">
    <defs>
     <path id="DejaVuSans-Bold-53" d="M 3834 4519 
L 3834 3531 
Q 3450 3703 3084 3790 
Q 2719 3878 2394 3878 
Q 1963 3878 1756 3759 
Q 1550 3641 1550 3391 
Q 1550 3203 1689 3098 
Q 1828 2994 2194 2919 
L 2706 2816 
Q 3484 2659 3812 2340 
Q 4141 2022 4141 1434 
Q 4141 663 3683 286 
Q 3225 -91 2284 -91 
Q 1841 -91 1394 -6 
Q 947 78 500 244 
L 500 1259 
Q 947 1022 1364 901 
Q 1781 781 2169 781 
Q 2563 781 2772 912 
Q 2981 1044 2981 1288 
Q 2981 1506 2839 1625 
Q 2697 1744 2272 1838 
L 1806 1941 
Q 1106 2091 782 2419 
Q 459 2747 459 3303 
Q 459 4000 909 4375 
Q 1359 4750 2203 4750 
Q 2588 4750 2994 4692 
Q 3400 4634 3834 4519 
z
" transform="scale(0.015625)"/>
     <path id="DejaVuSans-Bold-65" d="M 4031 1759 
L 4031 1441 
L 1416 1441 
Q 1456 1047 1700 850 
Q 1944 653 2381 653 
Q 2734 653 3104 758 
Q 3475 863 3866 1075 
L 3866 213 
Q 3469 63 3072 -14 
Q 2675 -91 2278 -91 
Q 1328 -91 801 392 
Q 275 875 275 1747 
Q 275 2603 792 3093 
Q 1309 3584 2216 3584 
Q 3041 3584 3536 3087 
Q 4031 2591 4031 1759 
z
M 2881 2131 
Q 2881 2450 2695 2645 
Q 2509 2841 2209 2841 
Q 1884 2841 1681 2658 
Q 1478 2475 1428 2131 
L 2881 2131 
z
" transform="scale(0.015625)"/>
     <path id="DejaVuSans-Bold-6e" d="M 4056 2131 
L 4056 0 
L 2931 0 
L 2931 347 
L 2931 1631 
Q 2931 2084 2911 2256 
Q 2891 2428 2841 2509 
Q 2775 2619 2662 2680 
Q 2550 2741 2406 2741 
Q 2056 2741 1856 2470 
Q 1656 2200 1656 1722 
L 1656 0 
L 538 0 
L 538 3500 
L 1656 3500 
L 1656 2988 
Q 1909 3294 2193 3439 
Q 2478 3584 2822 3584 
Q 3428 3584 3742 3212 
Q 4056 2841 4056 2131 
z
" transform="scale(0.015625)"/>
     <path id="DejaVuSans-Bold-74" d="M 1759 4494 
L 1759 3500 
L 2913 3500 
L 2913 2700 
L 1759 2700 
L 1759 1216 
Q 1759 972 1856 886 
Q 1953 800 2241 800 
L 2816 800 
L 2816 0 
L 1856 0 
Q 1194 0 917 276 
Q 641 553 641 1216 
L 641 2700 
L 84 2700 
L 84 3500 
L 641 3500 
L 641 4494 
L 1759 4494 
z
" transform="scale(0.015625)"/>
     <path id="DejaVuSans-Bold-69" d="M 538 3500 
L 1656 3500 
L 1656 0 
L 538 0 
L 538 3500 
z
M 538 4863 
L 1656 4863 
L 1656 3950 
L 538 3950 
L 538 4863 
z
" transform="scale(0.015625)"/>
     <path id="DejaVuSans-Bold-6c" d="M 538 4863 
L 1656 4863 
L 1656 0 
L 538 0 
L 538 4863 
z
" transform="scale(0.015625)"/>
     <path id="DejaVuSans-Bold-2d" d="M 347 2297 
L 2309 2297 
L 2309 1388 
L 347 1388 
L 347 2297 
z
" transform="scale(0.015625)"/>
     <path id="DejaVuSans-Bold-32" d="M 1844 884 
L 3897 884 
L 3897 0 
L 506 0 
L 506 884 
L 2209 2388 
Q 2438 2594 2547 2791 
Q 2656 2988 2656 3200 
Q 2656 3528 2436 3728 
Q 2216 3928 1850 3928 
Q 1569 3928 1234 3808 
Q 900 3688 519 3450 
L 519 4475 
Q 925 4609 1322 4679 
Q 1719 4750 2100 4750 
Q 2938 4750 3402 4381 
Q 3866 4013 3866 3353 
Q 3866 2972 3669 2642 
Q 3472 2313 2841 1759 
L 1844 884 
z
" transform="scale(0.015625)"/>
     <path id="DejaVuSans-Bold-20" transform="scale(0.015625)"/>
     <path id="DejaVuSans-Bold-4e" d="M 588 4666 
L 1931 4666 
L 3628 1466 
L 3628 4666 
L 4769 4666 
L 4769 0 
L 3425 0 
L 1728 3200 
L 1728 0 
L 588 0 
L 588 4666 
z
" transform="scale(0.015625)"/>
     <path id="DejaVuSans-Bold-44" d="M 1791 3756 
L 1791 909 
L 2222 909 
Q 2959 909 3348 1275 
Q 3738 1641 3738 2338 
Q 3738 3031 3350 3393 
Q 2963 3756 2222 3756 
L 1791 3756 
z
M 588 4666 
L 1856 4666 
Q 2919 4666 3439 4514 
Q 3959 4363 4331 4000 
Q 4659 3684 4818 3271 
Q 4978 2859 4978 2338 
Q 4978 1809 4818 1395 
Q 4659 981 4331 666 
Q 3956 303 3431 151 
Q 2906 0 1856 0 
L 588 0 
L 588 4666 
z
" transform="scale(0.015625)"/>
     <path id="DejaVuSans-Bold-43" d="M 4288 256 
Q 3956 84 3597 -3 
Q 3238 -91 2847 -91 
Q 1681 -91 1000 561 
Q 319 1213 319 2328 
Q 319 3447 1000 4098 
Q 1681 4750 2847 4750 
Q 3238 4750 3597 4662 
Q 3956 4575 4288 4403 
L 4288 3438 
Q 3953 3666 3628 3772 
Q 3303 3878 2944 3878 
Q 2300 3878 1931 3465 
Q 1563 3053 1563 2328 
Q 1563 1606 1931 1193 
Q 2300 781 2944 781 
Q 3303 781 3628 887 
Q 3953 994 4288 1222 
L 4288 256 
z
" transform="scale(0.015625)"/>
     <path id="DejaVuSans-Bold-49" d="M 588 4666 
L 1791 4666 
L 1791 0 
L 588 0 
L 588 4666 
z
" transform="scale(0.015625)"/>
     <path id="DejaVuSans-Bold-50" d="M 588 4666 
L 2584 4666 
Q 3475 4666 3951 4270 
Q 4428 3875 4428 3144 
Q 4428 2409 3951 2014 
Q 3475 1619 2584 1619 
L 1791 1619 
L 1791 0 
L 588 0 
L 588 4666 
z
M 1791 3794 
L 1791 2491 
L 2456 2491 
Q 2806 2491 2997 2661 
Q 3188 2831 3188 3144 
Q 3188 3456 2997 3625 
Q 2806 3794 2456 3794 
L 1791 3794 
z
" transform="scale(0.015625)"/>
     <path id="DejaVuSans-Bold-78" d="M 1422 1791 
L 159 3500 
L 1344 3500 
L 2059 2463 
L 2784 3500 
L 3969 3500 
L 2706 1797 
L 4031 0 
L 2847 0 
L 2059 1106 
L 1281 0 
L 97 0 
L 1422 1791 
z
" transform="scale(0.015625)"/>
     <path id="DejaVuSans-Bold-6f" d="M 2203 2784 
Q 1831 2784 1636 2517 
Q 1441 2250 1441 1747 
Q 1441 1244 1636 976 
Q 1831 709 2203 709 
Q 2569 709 2762 976 
Q 2956 1244 2956 1747 
Q 2956 2250 2762 2517 
Q 2569 2784 2203 2784 
z
M 2203 3584 
Q 3106 3584 3614 3096 
Q 4122 2609 4122 1747 
Q 4122 884 3614 396 
Q 3106 -91 2203 -91 
Q 1297 -91 786 396 
Q 275 884 275 1747 
Q 275 2609 786 3096 
Q 1297 3584 2203 3584 
z
" transform="scale(0.015625)"/>
     <path id="DejaVuSans-Bold-72" d="M 3138 2547 
Q 2991 2616 2845 2648 
Q 2700 2681 2553 2681 
Q 2122 2681 1889 2404 
Q 1656 2128 1656 1613 
L 1656 0 
L 538 0 
L 538 3500 
L 1656 3500 
L 1656 2925 
Q 1872 3269 2151 3426 
Q 2431 3584 2822 3584 
Q 2878 3584 2943 3579 
Q 3009 3575 3134 3559 
L 3138 2547 
z
" transform="scale(0.015625)"/>
     <path id="DejaVuSans-Bold-61" d="M 2106 1575 
Q 1756 1575 1579 1456 
Q 1403 1338 1403 1106 
Q 1403 894 1545 773 
Q 1688 653 1941 653 
Q 2256 653 2472 879 
Q 2688 1106 2688 1447 
L 2688 1575 
L 2106 1575 
z
M 3816 1997 
L 3816 0 
L 2688 0 
L 2688 519 
Q 2463 200 2181 54 
Q 1900 -91 1497 -91 
Q 953 -91 614 226 
Q 275 544 275 1050 
Q 275 1666 698 1953 
Q 1122 2241 2028 2241 
L 2688 2241 
L 2688 2328 
Q 2688 2594 2478 2717 
Q 2269 2841 1825 2841 
Q 1466 2841 1156 2769 
Q 847 2697 581 2553 
L 581 3406 
Q 941 3494 1303 3539 
Q 1666 3584 2028 3584 
Q 2975 3584 3395 3211 
Q 3816 2838 3816 1997 
z
" transform="scale(0.015625)"/>
    </defs>
    <use xlink:href="#DejaVuSans-Bold-53"/>
    <use xlink:href="#DejaVuSans-Bold-65" x="72.021484"/>
    <use xlink:href="#DejaVuSans-Bold-6e" x="139.84375"/>
    <use xlink:href="#DejaVuSans-Bold-74" x="211.035156"/>
    <use xlink:href="#DejaVuSans-Bold-69" x="258.837891"/>
    <use xlink:href="#DejaVuSans-Bold-6e" x="293.115234"/>
    <use xlink:href="#DejaVuSans-Bold-65" x="364.306641"/>
    <use xlink:href="#DejaVuSans-Bold-6c" x="432.128906"/>
    <use xlink:href="#DejaVuSans-Bold-2d" x="466.40625"/>
    <use xlink:href="#DejaVuSans-Bold-32" x="507.910156"/>
    <use xlink:href="#DejaVuSans-Bold-20" x="577.490234"/>
    <use xlink:href="#DejaVuSans-Bold-4e" x="612.304688"/>
    <use xlink:href="#DejaVuSans-Bold-44" x="695.996094"/>
    <use xlink:href="#DejaVuSans-Bold-43" x="779.003906"/>
    <use xlink:href="#DejaVuSans-Bold-49" x="852.392578"/>
    <use xlink:href="#DejaVuSans-Bold-20" x="889.599609"/>
    <use xlink:href="#DejaVuSans-Bold-50" x="924.414062"/>
    <use xlink:href="#DejaVuSans-Bold-69" x="997.705078"/>
    <use xlink:href="#DejaVuSans-Bold-78" x="1031.982422"/>
    <use xlink:href="#DejaVuSans-Bold-65" x="1096.484375"/>
    <use xlink:href="#DejaVuSans-Bold-6c" x="1164.306641"/>
    <use xlink:href="#DejaVuSans-Bold-20" x="1198.583984"/>
    <use xlink:href="#DejaVuSans-Bold-43" x="1233.398438"/>
    <use xlink:href="#DejaVuSans-Bold-6f" x="1306.787109"/>
    <use xlink:href="#DejaVuSans-Bold-72" x="1375.488281"/>
    <use xlink:href="#DejaVuSans-Bold-72" x="1424.804688"/>
    <use xlink:href="#DejaVuSans-Bold-65" x="1474.121094"/>
    <use xlink:href="#DejaVuSans-Bold-6c" x="1541.943359"/>
    <use xlink:href="#DejaVuSans-Bold-61" x="1576.220703"/>
    <use xlink:href="#DejaVuSans-Bold-74" x="1643.701172"/>
    <use xlink:href="#DejaVuSans-Bold-69" x="1691.503906"/>
    <use xlink:href="#DejaVuSans-Bold-6f" x="1725.78125"/>
    <use xlink:href="#DejaVuSans-Bold-6e" x="1794.482422"/>
   </g>
  </g>
 </g>
 <defs>
  <clipPath id="pf0d09524bd">
   <rect x="40.603125" y="38.209655" width="487.213001" height="279.830345"/>
  </clipPath>
  <clipPath id="pb96b107250">
   <rect x="577.930124" y="38.209655" width="487.213001" height="279.830345"/>
  </clipPath>
 </defs>
</svg>
